<?xml version="1.0" encoding="UTF-8"?>
<svg width="130px" height="95px" viewBox="0 0 130 95" version="1.1" xmlns="http://www.w3.org/2000/svg" xmlns:xlink="http://www.w3.org/1999/xlink">
    <!-- Generator: Sketch 58 (84663) - https://sketch.com -->
    <title>Group 8</title>
    <desc>Created with Sketch.</desc>
    <g id="Page-2" stroke="none" stroke-width="1" fill="none" fill-rule="evenodd">
        <g id="About-Us" transform="translate(-1044.000000, -1178.000000)" fill="#2F5496">
            <g id="Group-8" transform="translate(1044.000000, 1178.000000)">
                <path d="M112.917303,43.296425 C108.500852,41.0263238 100.220324,41 99.8699888,41 C98.819998,41 97.96875,41.8752009 97.96875,42.954737 C97.96875,44.0342731 98.819998,44.909474 99.8699888,44.909474 C102.006728,44.9097346 108.210597,45.2480344 111.216835,46.7933191 C111.489853,46.9337996 111.779855,47 112.065548,47 C112.762923,47 113.43444,46.60384 113.767537,45.9191608 C114.23727,44.9535207 113.856515,43.7793754 112.917303,43.296425 Z" id="Fill-1"></path>
                <path d="M124.202047,69.7523991 L116.397799,67.5155707 C116.060937,67.4190206 115.825613,67.1061173 115.825613,66.7545435 L115.825613,64.1413718 C116.460535,63.7000721 117.06623,63.2062006 117.632369,62.6549551 C120.376139,59.9839039 121.887102,56.4011871 121.887102,52.5664796 L121.887102,48.96051 L122.641701,47.4467963 C123.469871,45.7849718 123.907514,43.9244866 123.907514,42.0667816 L123.907514,32.2980336 C123.907514,31.2511473 123.061455,30.4024163 122.017865,30.4024163 L103.833652,30.4024163 C97.2213945,30.4024163 91.8416914,35.7991125 91.8416914,42.4322566 L91.8416914,42.5452354 C91.8416914,44.0900372 92.2057637,45.6371137 92.8943516,47.0186396 L93.8621035,48.9602572 L93.8621035,52.0564322 C93.8621035,56.9633008 96.2725391,61.3659353 99.9235918,64.0152501 L99.9240957,66.754038 C99.9240957,67.1763815 99.9240957,67.3512838 98.36375,67.7986495 L94.5557305,68.8900196 L83.5400879,64.8718164 C83.5796445,64.3503952 83.4042852,63.8201279 83.0250957,63.4205317 L79.5050586,59.7106822 L79.5050586,53.4829474 C79.8771934,53.1753519 80.2440371,52.8594157 80.599543,52.5252815 C85.0402168,48.3498684 87.586959,42.4547513 87.586959,36.3516217 L87.586959,31.3780273 C88.9278535,28.4509414 89.6073711,25.3535027 89.6073711,22.1635579 L89.6073711,1.89561733 C89.6073711,0.848731067 88.7613125,0 87.7177227,0 L59.4311973,0 C49.4765293,0 41.378,8.12436314 41.378,18.1102225 L41.378,22.1640634 C41.378,25.3540082 42.0575176,28.4514469 43.3984121,31.3785328 L43.3984121,35.6578258 C43.3984121,42.7438961 46.5392598,49.1278298 51.4803125,53.3366058 L51.4803125,59.710935 L47.9602754,63.4207845 C47.5810859,63.8203806 47.4057266,64.350648 47.4452832,64.8720691 L35.8189062,69.1129442 C34.976375,69.420287 34.1935566,69.8365645 33.4827969,70.3407987 L31.6571445,69.4250892 C37.0917734,67.052029 38.8133691,63.7144788 38.8960098,63.5486755 C39.1620723,63.0151224 39.1620723,62.3867884 38.8960098,61.8532353 C37.5336992,59.1200079 37.3686699,54.1102704 37.2361426,50.0849902 C37.1920508,48.7449151 37.1502266,47.4788955 37.0703574,46.351635 C36.4261133,37.2592433 29.5356992,30.4024163 21.0423594,30.4024163 C12.5490195,30.4024163 5.65835352,37.2589905 5.01436133,46.351635 C4.93449219,47.4791482 4.89266797,48.7451678 4.84857617,50.0854957 C4.71604883,54.1105231 4.55076758,59.1197551 3.18870898,61.8529826 C2.92264648,62.3865357 2.92264648,63.0148696 3.18870898,63.5484227 C3.27134961,63.714226 4.98941797,67.0449521 10.4348809,69.4207925 L5.36382031,71.9642054 C2.65280469,73.3250059 0.96875,76.0584861 0.96875,79.0988036 L0.96875,93.1033717 C0.96875,94.1502579 1.81480859,94.998989 2.85839844,94.998989 C3.90198828,94.998989 4.74804687,94.1502579 4.74804687,93.1033717 L4.74804687,79.0988036 C4.74804687,77.503452 5.63164648,76.0691016 7.05392187,75.3555912 L13.368623,72.1883938 L15.5651504,74.282419 C17.1010566,75.7465939 19.0713301,76.4783022 21.0423594,76.4783022 C23.0128848,76.4783022 24.984166,75.7460884 26.5195684,74.282419 L28.7158437,72.1886465 L30.7748047,73.2213788 C29.8052891,74.7775543 29.2550234,76.6024019 29.2550234,78.5139424 L29.2550234,93.1038772 C29.2550234,94.1507634 30.101082,95 31.1446719,95 C32.1882617,95 33.0343203,94.1507634 33.0343203,93.1038772 L33.0343203,78.5139424 C33.0343203,75.911639 34.6722676,73.5656229 37.110418,72.6761993 L49.3684414,68.2048171 L54.471248,75.8835838 C55.1235547,76.8652609 56.1689082,77.4948586 57.3392305,77.6111231 C57.4697422,77.6240133 57.599498,77.630332 57.729002,77.630332 C58.7615059,77.630332 59.7504219,77.2226479 60.4896523,76.4813352 L63.6027852,73.3583688 L63.6027852,93.1041299 C63.6027852,94.1510162 64.4488437,95 65.4924336,95 C66.5360234,95 67.382082,94.1510162 67.382082,93.1041299 L67.382082,73.3583688 L70.4952148,76.4813352 C71.2341934,77.2229007 72.2231094,77.6305848 73.2558652,77.6305848 C73.3851172,77.6305848 73.515125,77.624266 73.6453848,77.6113758 C74.815959,77.4951113 75.8613125,76.8655136 76.5136191,75.8838366 L81.6166777,68.2053226 L93.8744492,72.6767048 C96.3123477,73.5661284 97.9505469,75.9121445 97.9505469,78.5144479 L97.9505469,93.1043827 C97.9505469,94.1512689 98.7966055,95 99.8401953,95 C100.883785,95 101.729844,94.1512689 101.729844,93.1043827 L101.729844,78.5144479 C101.729844,75.8787816 100.686002,73.4068966 98.9349277,71.5787632 L99.4017969,71.445059 C99.8726973,71.3100911 100.515178,71.1253316 101.160178,70.8081316 L105.984828,75.6480218 L105.984828,93.1043827 C105.984828,94.1512689 106.830887,95 107.874477,95 C108.918066,95 109.764125,94.1512689 109.764125,93.1043827 L109.764125,75.6480218 L114.555266,70.8417472 C114.80999,70.9716602 115.077564,71.0813532 115.359248,71.1619802 L123.163748,73.3988086 C124.945057,73.9093616 126.189453,75.5641091 126.189453,77.4228251 L126.189453,93.1043827 C126.189453,94.1512689 127.035512,95 128.079102,95 C129.122691,95 129.96875,94.1512689 129.96875,93.1043827 L129.96875,77.4228251 C129.96875,73.8797899 127.597367,70.7257354 124.202047,69.7523991 Z M13.0914746,66.4042334 C9.55682422,65.1283566 7.78383008,63.427356 7.02696289,62.4985035 C7.54296289,61.1452854 7.87755664,59.5954287 8.1040625,57.9593846 C9.14614062,60.4658962 10.8914199,62.605669 13.0914746,64.1322729 L13.0914746,66.4042334 Z M23.9166406,71.5345322 C22.3048965,73.0707404 19.7800742,73.0704877 18.168834,71.5342794 L16.4114609,69.8590592 C16.7080098,69.3017477 16.8710234,68.6698752 16.8710234,68.0079257 L16.8710234,65.9874503 C18.1892422,66.4006949 19.5906055,66.6236195 21.0428633,66.6236195 C22.4933574,66.6236195 23.8939648,66.3996839 25.2144512,65.9887141 L25.2141992,68.0076729 C25.2141992,68.6698752 25.3769609,69.3020004 25.6737617,69.8595647 L23.9166406,71.5345322 Z M21.0433672,62.8323849 C15.400625,62.8323849 10.810291,58.2272985 10.810291,52.5669851 C10.810291,51.5200989 9.96423242,50.6713678 8.92064258,50.6713678 C8.81482227,50.6713678 8.71152148,50.682236 8.61048828,50.6991702 C8.61603125,50.5361471 8.62132227,50.3728713 8.62686523,50.2113647 C8.66894141,48.9079382 8.70950586,47.6767979 8.78433594,46.6208127 C9.02570703,43.2147675 10.3824746,40.0761307 12.6047012,37.7826864 C14.846832,35.4685168 17.8435625,34.1941564 21.0428633,34.1941564 C24.2421641,34.1941564 27.2386426,35.4685168 29.4810254,37.7826864 C31.703252,40.0761307 33.0600195,43.2147675 33.3013906,46.6208127 C33.3759687,47.6765452 33.4167852,48.9074327 33.4596172,50.2106064 C33.4633965,50.3225742 33.4671758,50.4360585 33.4709551,50.5487845 C31.4150176,47.3712244 28.2399043,45.0295051 24.1373516,43.7071225 C20.3472207,42.4855867 17.0874512,42.5611586 16.9498848,42.5646971 C16.4550488,42.5785983 15.9854082,42.7863579 15.6419961,43.143745 L12.2325664,46.6908241 C11.5082012,47.4445216 11.5298691,48.6445737 12.2811934,49.3712271 C13.0325176,50.0978804 14.228791,50.0758912 14.9531562,49.3224465 L17.7901484,46.3710967 C20.2333379,46.4908997 28.0935195,47.407873 31.1504668,54.1605674 C30.3812539,59.1366893 26.1177031,62.8323849 21.0433672,62.8323849 Z M28.9932441,66.4105521 L28.9934961,64.1497125 C31.1917871,62.6314494 32.9395859,60.4957206 33.9824199,57.9702528 C34.2089258,59.6025057 34.5432676,61.1488239 35.0582598,62.499009 C34.3056758,63.4190152 32.5243672,65.1351808 28.9932441,66.4105521 Z M47.177709,35.657573 L47.177709,30.95442 C47.177709,30.6690665 47.1134609,30.3872513 46.989752,30.1302056 C45.7738262,27.6042323 45.1572969,24.9240822 45.1572969,22.1640634 L45.1572969,18.1104752 C45.1572969,10.2148499 51.5606855,3.79148741 59.4311973,3.79148741 L85.8280742,3.79148741 L85.8280742,22.1643161 C85.8280742,24.9243349 85.2115449,27.6044851 83.9956191,30.1304584 C83.8719102,30.3875041 83.8076621,30.6693192 83.8076621,30.9546728 L83.8076621,36.3521272 C83.8076621,41.4857117 81.7504648,46.2472497 78.0150078,49.7597022 C77.5486426,50.197969 77.0646406,50.6089388 76.5642617,50.9918535 C76.5531758,50.999436 76.5425937,51.0077767 76.5317598,51.0156119 C73.0323828,53.6808499 68.7461562,54.9761884 64.269957,54.6852743 C54.6854082,54.0627536 47.177709,45.7048504 47.177709,35.657573 Z M57.8174375,73.800174 C57.8043359,73.8133169 57.7738496,73.8444051 57.7121211,73.8378336 C57.6506445,73.8317676 57.626457,73.7956245 57.616127,73.7799541 L51.7393203,64.9367728 L53.6304805,62.9433417 L62.5458418,69.0565812 L57.8174375,73.800174 Z M65.4926855,66.4848603 L55.2596094,59.4680432 L55.2596094,55.9295575 C57.9073848,57.3654245 60.8721172,58.2634416 64.0253105,58.4681683 C64.5234219,58.5005201 65.0185098,58.5164433 65.5120859,58.5164433 C69.1253457,58.5164433 72.6028027,57.6500198 75.7257617,56.0053822 L75.7257617,59.4680432 L65.4926855,66.4848603 Z M73.3692441,73.7804596 C73.3589141,73.79613 73.3347266,73.8322731 73.27325,73.8383391 C73.2115215,73.8461743 73.1812871,73.8135697 73.1679336,73.8006795 L68.4395293,69.0573394 L77.3548906,62.9438472 L79.2463027,64.9372783 L73.3692441,73.7804596 Z M107.874477,72.181064 L103.586234,67.8795292 C103.661064,67.5385708 103.703393,67.1652606 103.703141,66.7535325 L103.702889,65.953582 C104.892863,66.3453429 106.147086,66.577872 107.444896,66.6167953 C107.590525,66.6213448 107.734895,66.6233668 107.88002,66.6233668 C109.314137,66.6233668 110.713988,66.4060027 112.046316,65.9912416 L112.046316,66.7545435 C112.046316,67.132656 112.093684,67.503186 112.182875,67.8593093 L107.874477,72.181064 Z M115.000467,59.9343651 C112.997691,61.8840707 110.351932,62.91377 107.558527,62.8273299 C102.090137,62.6627903 97.6414004,57.8309881 97.6414004,52.0569377 L97.6414004,48.5131443 C97.6414004,48.2186917 97.5731211,47.9285359 97.4418535,47.6654242 L96.2745547,45.3234522 C95.8469902,44.4653694 95.6209883,43.5049233 95.6209883,42.5454882 L95.6209883,42.4325094 C95.6209883,37.8895992 99.3052988,34.1939037 103.833652,34.1939037 L120.128217,34.1939037 L120.128217,42.0670343 C120.128217,43.3393727 119.828393,44.6134803 119.261246,45.7516089 L118.307352,47.6654242 C118.176084,47.9287886 118.107805,48.2186917 118.107805,48.5131443 L118.107805,52.5667324 C118.107805,55.3671911 117.00425,57.9836485 115.000467,59.9343651 Z" id="Fill-2"></path>
                <path d="M118.96875,79 C117.864217,79 116.96875,79.8512715 116.96875,80.9012913 L116.96875,93.0987087 C116.96875,94.1487285 117.864217,95 118.96875,95 C120.073283,95 120.96875,94.1487285 120.96875,93.0987087 L120.96875,80.9012913 C120.96875,79.851525 120.073283,79 118.96875,79 Z" id="Fill-3"></path>
                <path d="M9.96875,81 C8.86421667,81 7.96875,81.8836676 7.96875,82.9736471 L7.96875,93.0263529 C7.96875,94.1163324 8.86421667,95 9.96875,95 C11.0732833,95 11.96875,94.1163324 11.96875,93.0263529 L11.96875,82.9736471 C11.96875,81.8839308 11.0732833,81 9.96875,81 Z" id="Fill-4"></path>
                <path d="M80.416407,22.6851116 C73.2841613,15.4445909 58.3616607,16.8288306 52.2763962,17.7599954 C50.3596963,18.0532816 48.96875,19.699922 48.96875,21.6753288 L48.96875,26.0855988 C48.96875,27.1428587 49.8130735,28 50.8545232,28 C51.8959729,28 52.7402964,27.1428587 52.7402964,26.0855988 L52.7402964,21.6750735 C52.7402964,21.6099839 52.7825378,21.5543386 52.8388595,21.54566 C55.2694955,21.1737557 60.0928005,20.5999458 65.0900995,20.9381567 C70.9706947,21.3355864 75.2300278,22.8341797 77.7496723,25.3923302 C78.4861296,26.1399677 79.6802012,26.1399677 80.416407,25.3923302 C81.1528643,24.6446927 81.1528643,23.4324939 80.416407,22.6851116 Z" id="Fill-5"></path>
                <path d="M42.96875,83 C41.8642167,83 40.96875,83.8559594 40.96875,84.9117616 L40.96875,93.0882384 C40.96875,94.1440406 41.8642167,95 42.96875,95 C44.0732833,95 44.96875,94.1440406 44.96875,93.0882384 L44.96875,84.9117616 C44.96875,83.8562143 44.0732833,83 42.96875,83 Z" id="Fill-6"></path>
                <path d="M85.96875,83 C84.8642167,83 83.96875,83.8559594 83.96875,84.9117616 L83.96875,93.0882384 C83.96875,94.1440406 84.8642167,95 85.96875,95 C87.0732833,95 87.96875,94.1440406 87.96875,93.0882384 L87.96875,84.9117616 C87.96875,83.8562143 87.0732833,83 85.96875,83 Z" id="Fill-7"></path>
            </g>
        </g>
    </g>
</svg>