<?xml version="1.0" encoding="UTF-8"?>
<svg width="544px" height="105px" viewBox="0 0 544 105" version="1.1" xmlns="http://www.w3.org/2000/svg" xmlns:xlink="http://www.w3.org/1999/xlink">
    <!-- Generator: Sketch 53.2 (72643) - https://sketchapp.com -->
    <title>Group 10</title>
    <desc>Created with Sketch.</desc>
    <g id="Page-1" stroke="none" stroke-width="1" fill="none" fill-rule="evenodd">
        <g id="Group-10" fill="#FFFFFF">
            <g id="Group-9">
                <polygon id="Fill-2" points="0.698 44.248 27.218 44.248 27.218 17.728 43.858 17.728 43.858 44.248 70.248 44.248 70.248 60.888 43.858 60.888 43.858 87.408 27.218 87.408 27.218 60.888 0.698 60.888"></polygon>
                <polygon id="Fill-3" points="114.188 25.138 99.888 25.138 99.888 3.558 139.668 3.558 139.668 101.5781 114.188 101.5781"></polygon>
                <path d="M241.848,101.5781 L162.938,101.5781 L187.248,76.358 C193.661,69.684 198.688,64.029 202.328,59.393 C205.968,54.7561 208.676,50.8341 210.453,47.628 C212.229,44.421 213.334,41.821 213.768,39.8281 C214.201,37.8341 214.418,36.144 214.418,34.758 C214.418,33.284 214.179,31.8541 213.703,30.468 C213.226,29.081 212.511,27.846 211.558,26.763 C210.604,25.679 209.456,24.813 208.113,24.163 C206.769,23.513 205.188,23.188 203.368,23.188 C199.901,23.188 197.193,24.314 195.243,26.5681 C193.293,28.821 192.318,31.638 192.318,35.018 C192.318,35.971 192.448,37.358 192.708,39.1781 L164.888,39.1781 C164.888,33.4581 165.819,28.258 167.683,23.578 C169.546,18.898 172.168,14.868 175.548,11.488 C178.928,8.108 182.936,5.508 187.573,3.688 C192.209,1.868 197.301,0.958 202.848,0.958 C208.308,0.958 213.356,1.824 217.993,3.558 C222.629,5.291 226.638,7.718 230.018,10.838 C233.398,13.958 236.041,17.663 237.948,21.953 C239.854,26.243 240.808,30.9011 240.808,35.9281 C240.808,41.301 239.659,46.263 237.363,50.8131 C235.066,55.363 231.404,60.0211 226.378,64.7881 L210.128,79.998 L241.848,79.998 L241.848,101.5781 Z" id="Fill-4"></path>
                <polygon id="Fill-5" points="271.098 42.9481 257.188 42.9481 253.678 3.558 274.608 3.558"></polygon>
                <path d="M308.408,52.4381 C308.408,56.7711 308.798,60.7141 309.578,64.268 C310.358,67.821 311.463,70.898 312.893,73.498 C314.323,76.098 316.034,78.113 318.028,79.5431 C320.021,80.973 322.274,81.6881 324.788,81.6881 C327.214,81.6881 329.446,80.973 331.483,79.5431 C333.519,78.113 335.231,76.098 336.618,73.498 C338.004,70.898 339.088,67.821 339.868,64.268 C340.648,60.7141 341.038,56.7711 341.038,52.4381 C341.038,48.191 340.648,44.269 339.868,40.6731 C339.088,37.076 338.004,33.999 336.618,31.4431 C335.231,28.8861 333.519,26.893 331.483,25.463 C329.446,24.033 327.214,23.318 324.788,23.318 C322.274,23.318 320.021,24.033 318.028,25.463 C316.034,26.893 314.323,28.8861 312.893,31.4431 C311.463,33.999 310.358,37.076 309.578,40.6731 C308.798,44.269 308.408,48.191 308.408,52.4381 Z M283.188,52.4381 C283.188,44.638 284.206,37.5531 286.243,31.1831 C288.279,24.813 291.139,19.374 294.823,14.868 C298.506,10.361 302.883,6.873 307.953,4.403 C313.023,1.933 318.634,0.698 324.788,0.698 C330.854,0.698 336.444,1.933 341.558,4.403 C346.671,6.873 351.048,10.361 354.688,14.868 C358.328,19.374 361.166,24.813 363.203,31.1831 C365.239,37.5531 366.258,44.638 366.258,52.4381 C366.258,60.238 365.239,67.3231 363.203,73.6931 C361.166,80.0631 358.328,85.523 354.688,90.0731 C351.048,94.623 346.671,98.133 341.558,100.603 C336.444,103.0731 330.854,104.3081 324.788,104.3081 C318.634,104.3081 313.023,103.0731 307.953,100.603 C302.883,98.133 298.506,94.623 294.823,90.0731 C291.139,85.523 288.279,80.0631 286.243,73.6931 C284.206,67.3231 283.188,60.238 283.188,52.4381 Z" id="Fill-6"></path>
                <path d="M396.808,52.4381 C396.808,56.7711 397.198,60.7141 397.978,64.268 C398.758,67.821 399.863,70.898 401.293,73.498 C402.723,76.098 404.434,78.113 406.428,79.5431 C408.421,80.973 410.674,81.6881 413.188,81.6881 C415.614,81.6881 417.846,80.973 419.883,79.5431 C421.919,78.113 423.631,76.098 425.018,73.498 C426.404,70.898 427.488,67.821 428.268,64.268 C429.048,60.7141 429.438,56.7711 429.438,52.4381 C429.438,48.191 429.048,44.269 428.268,40.6731 C427.488,37.076 426.404,33.999 425.018,31.4431 C423.631,28.8861 421.919,26.893 419.883,25.463 C417.846,24.033 415.614,23.318 413.188,23.318 C410.674,23.318 408.421,24.033 406.428,25.463 C404.434,26.893 402.723,28.8861 401.293,31.4431 C399.863,33.999 398.758,37.076 397.978,40.6731 C397.198,44.269 396.808,48.191 396.808,52.4381 Z M371.588,52.4381 C371.588,44.638 372.606,37.5531 374.643,31.1831 C376.679,24.813 379.539,19.374 383.223,14.868 C386.906,10.361 391.283,6.873 396.353,4.403 C401.423,1.933 407.034,0.698 413.188,0.698 C419.254,0.698 424.844,1.933 429.958,4.403 C435.071,6.873 439.448,10.361 443.088,14.868 C446.728,19.374 449.566,24.813 451.603,31.1831 C453.639,37.5531 454.658,44.638 454.658,52.4381 C454.658,60.238 453.639,67.3231 451.603,73.6931 C449.566,80.0631 446.728,85.523 443.088,90.0731 C439.448,94.623 435.071,98.133 429.958,100.603 C424.844,103.0731 419.254,104.3081 413.188,104.3081 C407.034,104.3081 401.423,103.0731 396.353,100.603 C391.283,98.133 386.906,94.623 383.223,90.0731 C379.539,85.523 376.679,80.0631 374.643,73.6931 C372.606,67.3231 371.588,60.238 371.588,52.4381 Z" id="Fill-7"></path>
                <path d="M485.208,52.4381 C485.208,56.7711 485.598,60.7141 486.378,64.268 C487.158,67.821 488.263,70.898 489.693,73.498 C491.122,76.098 492.834,78.113 494.828,79.5431 C496.82,80.973 499.074,81.6881 501.588,81.6881 C504.014,81.6881 506.246,80.973 508.283,79.5431 C510.319,78.113 512.03,76.098 513.418,73.498 C514.804,70.898 515.888,67.821 516.668,64.268 C517.447,60.7141 517.838,56.7711 517.838,52.4381 C517.838,48.191 517.447,44.269 516.668,40.6731 C515.888,37.076 514.804,33.999 513.418,31.4431 C512.03,28.8861 510.319,26.893 508.283,25.463 C506.246,24.033 504.014,23.318 501.588,23.318 C499.074,23.318 496.82,24.033 494.828,25.463 C492.834,26.893 491.122,28.8861 489.693,31.4431 C488.263,33.999 487.158,37.076 486.378,40.6731 C485.598,44.269 485.208,48.191 485.208,52.4381 Z M459.988,52.4381 C459.988,44.638 461.006,37.5531 463.043,31.1831 C465.079,24.813 467.939,19.374 471.623,14.868 C475.306,10.361 479.683,6.873 484.753,4.403 C489.822,1.933 495.434,0.698 501.588,0.698 C507.654,0.698 513.244,1.933 518.358,4.403 C523.471,6.873 527.848,10.361 531.487,14.868 C535.128,19.374 537.966,24.813 540.003,31.1831 C542.039,37.5531 543.058,44.638 543.058,52.4381 C543.058,60.238 542.039,67.3231 540.003,73.6931 C537.966,80.0631 535.128,85.523 531.487,90.0731 C527.848,94.623 523.471,98.133 518.358,100.603 C513.244,103.0731 507.654,104.3081 501.588,104.3081 C495.434,104.3081 489.822,103.0731 484.753,100.603 C479.683,98.133 475.306,94.623 471.623,90.0731 C467.939,85.523 465.079,80.0631 463.043,73.6931 C461.006,67.3231 459.988,60.238 459.988,52.4381 Z" id="Fill-8"></path>
            </g>
        </g>
    </g>
</svg>