<?xml version="1.0" encoding="UTF-8"?>
<svg width="116px" height="115px" viewBox="0 0 116 115" version="1.1" xmlns="http://www.w3.org/2000/svg" xmlns:xlink="http://www.w3.org/1999/xlink">
    <!-- Generator: Sketch 58 (84663) - https://sketch.com -->
    <title>Group 5</title>
    <desc>Created with Sketch.</desc>
    <g id="Page-2" stroke="none" stroke-width="1" fill="none" fill-rule="evenodd">
        <g id="About-Us" transform="translate(-1059.000000, -787.000000)" fill="#fff">
            <g id="Group-5" transform="translate(1059.000000, 787.000000)">
                <path d="M89.1323038,104.231515 C88.4528936,103.051174 86.9525497,102.649157 85.7801378,103.334021 L85.6857071,103.388909 C84.5142763,104.074021 84.1157053,105.586904 84.7951156,106.767986 C85.2500997,107.558423 86.0729955,108 86.9187018,108 C87.3361589,108 87.7599932,107.891955 88.1472816,107.66548 L88.2417122,107.610592 C89.4131431,106.92548 89.8117141,105.412597 89.1323038,104.231515 Z" id="Fill-1"></path>
                <path d="M107.758153,28.7678671 C100.080563,15.4698188 87.6841598,5.95780036 72.8523199,1.98354704 C58.0209291,-1.99070628 42.5291875,0.0489791739 29.2312033,7.72638127 C15.9333539,15.4037834 6.42115684,27.8004709 2.44714731,42.6321579 C-1.52686221,57.4638448 0.512588789,72.9558859 8.18995382,86.2537096 C15.0766947,98.1820848 26.0224371,107.247578 39.0106853,111.779763 C45.1674464,113.927935 51.594637,115 58.0119447,115 C64.9894277,115 71.9543325,113.731851 78.537851,111.201616 C79.6957111,110.756664 80.2734059,109.457293 79.8282305,108.299428 C79.3830552,107.141562 78.0834667,106.563191 76.9260558,107.009042 C59.4020507,113.744429 40.4311135,110.684115 26.2576029,100.045227 L28.2698762,89.5413295 L29.2395139,89.2264259 C32.9035628,88.0359917 34.9160607,84.0864455 33.7260814,80.4221543 L33.0145197,78.2324293 C32.8498812,77.7257086 32.8507796,77.1900132 33.0167658,76.6837418 C33.6409546,74.7808439 33.4179177,72.6989318 32.4047059,70.9712299 C31.391494,69.2437527 29.6833415,68.0324297 27.7177869,67.6481216 L22.6482688,66.6575905 L12.8669899,59.220746 C12.2809847,58.7751193 11.5139445,58.64507 10.8136132,58.8723755 L5.08697854,60.7325974 C4.965465,58.6843768 4.96366812,56.63683 5.07911722,54.6000645 C5.30507402,54.8105242 5.452193,54.953601 5.54271049,55.047488 C5.65479045,55.2341391 5.7935989,55.4052921 5.95621591,55.5535349 C6.42385214,55.9793959 6.84746498,56.1725606 7.73691718,56.1725606 C8.55426984,56.172336 9.76423928,56.0094936 11.7621376,55.7143558 C13.6569403,55.4342668 15.5418602,55.1186895 15.5605028,55.1155449 C16.3158633,54.9890894 16.9544271,54.4859625 17.2549541,53.7818094 C17.5554811,53.0774317 17.4761941,52.2686103 17.04472,51.6356587 L14.2907873,47.5962684 L18.235373,44.7756132 C18.4981657,44.5876145 18.7173842,44.34526 18.8779798,44.0649465 L24.9926042,33.3903455 L27.4572403,30.7493785 C29.9757826,28.0500128 30.6945319,24.1006913 29.2880294,20.6875143 C28.4583233,18.6743328 27.0091451,16.9982913 25.1965493,15.8687265 C27.1596332,14.3254297 29.2527658,12.9005024 31.4772947,11.6164057 C39.6391417,6.90408323 48.5462417,4.62047108 57.3596798,4.5330977 L53.349059,9.56414213 L38.4765648,14.7780193 C37.8725908,14.9896021 37.387435,15.4491546 37.1435095,16.040778 L32.9900373,26.1096051 C32.6951255,26.8249887 32.7887875,27.6412222 33.2382304,28.2710293 L39.304474,36.7684833 C38.4356859,37.5611328 37.5900325,38.7156294 36.5799652,40.1490918 C36.1370359,40.7777758 35.7188137,41.3714207 35.4297418,41.704293 C35.1784041,41.9940402 34.9268419,42.2770491 34.6775258,42.5573627 C33.3727713,44.0251905 32.0237688,45.543331 31.0653616,47.5711121 C28.9580786,52.0316465 29.3837129,57.2160997 32.1760538,61.1014074 C34.8760802,64.8580134 39.3273842,66.7676496 44.0783167,66.2088193 C44.8523198,66.1180768 45.573989,65.9395117 46.2722988,65.7665618 C48.197873,65.2901635 48.8079114,65.2425461 49.4255865,65.8206928 C49.7261135,66.1021295 49.7537405,66.1553621 49.747676,67.1097309 C49.7434085,67.717077 49.7386917,68.4726658 49.9480274,69.3353936 C50.2833688,70.7156235 51.1501355,71.6695431 51.8464238,72.4359132 C52.1925465,72.8166275 52.5505735,73.2105939 52.6608566,73.4749601 C53.3614125,75.1536969 53.0563933,76.0833586 52.3879565,78.1205734 C52.3306811,78.2948709 52.2722828,78.4727622 52.2136598,78.6551457 C51.1982019,81.7985658 52.6136887,84.9166049 53.8625155,87.6671817 C54.2681596,88.5604566 54.6511182,89.4036434 54.9020066,90.1489001 C56.9214674,96.1412763 58.435333,97.5136448 59.6502438,98.0661859 C60.2865615,98.3554839 60.9451155,98.4823887 61.6104078,98.4821641 C64.8481485,98.4819395 68.2267192,95.4757562 69.7787684,93.5699385 C70.7535721,92.3732152 70.9936792,91.1749196 71.1688744,90.2996136 C71.2562473,89.864319 71.3249777,89.5206653 71.4561494,89.2960551 C71.65695,88.9524015 71.8934634,88.6860137 72.1928674,88.3486492 C72.7950445,87.6705509 73.5445652,86.8269149 74.0299456,85.2975439 C74.3987538,84.1358598 74.6667125,83.851054 75.5541432,82.9058942 C75.7086743,82.7417041 75.8733128,82.5660589 76.0500802,82.3737926 C79.0416493,79.1185166 78.27124,76.6318568 77.455235,73.9989757 C76.7686048,71.7836451 77.9695899,70.3668038 80.8733369,67.6627213 C82.1320465,66.4904805 83.4334319,65.2784838 84.4394562,63.8221111 C84.8796901,63.1846673 86.2190344,61.2456072 85.3902267,59.3236175 C84.5778154,57.4391377 82.5129836,57.1224373 80.8540205,56.8681785 C80.1988356,56.7675531 79.2087585,56.6157166 78.8936319,56.409749 C77.5039752,55.5012007 76.6538296,53.6050412 75.8315355,51.7710987 C75.6677954,51.4061071 75.5063015,51.0458323 75.3425614,50.6961141 C75.0505695,50.0721469 74.7588022,49.317232 74.4499647,48.5180688 C73.6328366,46.4031389 72.7067731,44.005874 71.1302416,42.3347739 C69.7131825,40.8332546 67.041906,40.1100096 64.6850823,39.4716674 C63.8924366,39.2571646 63.1442636,39.0545662 62.6507973,38.8724073 C62.2372919,38.7196723 61.7885228,38.6920453 61.3604178,38.7926707 C60.2133389,39.0615291 59.4977342,39.35779 58.966309,39.783651 C58.8259283,39.8961807 58.4101767,40.2656645 58.1667004,40.859534 C57.3444064,40.4648938 56.213724,39.7113265 55.5178848,39.2475064 C55.5035099,39.2378481 55.4889103,39.2281899 55.4745353,39.2185317 C55.7090272,38.2801101 55.4967716,37.5269921 55.2744085,37.0566582 C54.0197419,34.4026638 49.8548146,34.6104283 49.0331944,34.6802821 C48.5664566,34.7193642 47.9759591,34.740253 47.3513211,34.7622648 C46.3702284,34.7970794 45.2858155,34.8361616 44.2128576,34.9565526 L44.2681114,34.80247 C45.0825442,32.5332329 47.2495732,31.0085787 49.6605277,31.0085787 L50.9374306,31.0085787 C52.1774977,31.0085787 53.1832974,30.0027741 53.1832974,28.7627011 C53.1832974,27.522628 52.1774977,26.5168234 50.9374306,26.5168234 L49.6605277,26.5168234 C46.0811564,26.5168234 42.8034352,28.4006294 40.9663571,31.365709 L37.6163117,26.6729276 L40.9122263,18.6837665 L55.4451115,13.5887081 C55.8435681,13.4490006 56.1948568,13.1996832 56.4583233,12.8692816 L62.918756,4.76556928 C79.4261802,6.33581936 94.9646405,15.5911083 103.868596,31.0132955 C106.240244,35.1211919 107.994666,39.4458372 109.161061,43.8690864 L108.208943,44.718113 C106.966181,45.8270137 106.237998,47.4174787 106.210146,49.0820651 C106.209922,49.1002585 106.209473,49.1182273 106.208799,49.1361961 L104.657648,44.8703987 C104.426525,44.2338534 104.086018,43.6500914 103.646233,43.1355094 L100.879273,39.8959561 C99.8065397,38.6401603 98.2446078,37.9202846 96.593506,37.9202846 L93.2066248,37.9202846 C92.004292,37.9202846 90.9055041,38.5788417 90.338366,39.6383282 C89.771228,40.6980392 89.8332201,41.9778683 90.5000846,42.977833 L90.8428382,43.492415 C88.6542467,45.3744241 86.1229017,46.8804356 83.427592,47.8961231 L78.7849211,39.0031305 L78.7849211,37.0191483 C78.7849211,36.4055132 78.5338081,35.8181575 78.0897558,35.3947672 L73.9091059,31.4036681 C73.6784323,31.1835501 73.4035107,31.0150924 73.102759,30.909301 L69.3394329,29.586796 C68.1685455,29.1748608 66.8869257,29.7909667 66.475891,30.9609614 C66.0646316,32.1314052 66.6798361,33.4132558 67.8500497,33.8245171 L71.1571947,34.986875 L74.2931875,37.9802555 L74.2931875,39.5543239 C74.2931875,39.916171 74.3807851,40.2728521 74.5483435,40.5938201 L80.3605542,51.7270751 C80.8832197,52.7288367 82.0696052,53.1865923 83.1284126,52.7948721 L84.8208425,52.1709049 C88.7526255,50.7208213 92.3969088,48.3882441 95.3599526,45.4256352 C96.1168854,44.6684742 96.2345806,43.4827568 95.6404894,42.591728 L95.5209973,42.4122644 L96.593506,42.4122644 C96.9288474,42.4122644 97.2462202,42.5584857 97.464091,42.8136429 L100.231051,46.0531962 C100.320221,46.1576399 100.389176,46.2757849 100.436344,46.405385 L103.489905,54.8019891 C103.752249,55.5234371 104.364982,56.0607048 105.113829,56.2269163 C105.275548,56.2626293 105.438389,56.2801489 105.600333,56.2801489 C106.189482,56.2801489 106.762909,56.0481266 107.188319,55.6222656 L108.641765,54.1688128 C109.562213,53.2481355 110.195836,52.0833069 110.498609,50.7920227 C112.746497,68.8068858 105.682764,87.4423469 90.7520961,99.1611608 C89.7761694,99.926857 89.6059156,101.338532 90.3720574,102.314464 C91.13775,103.290395 92.5491938,103.46065 93.5253451,102.694504 C104.304787,94.2341109 111.71015,82.133235 114.377384,68.6209085 C117.069549,54.9783081 114.719014,40.8244948 107.758153,28.7678671 Z M11.0835934,63.5076568 L20.3449021,70.5494119 C20.6187006,70.7576256 20.9362979,70.9000285 21.2736609,70.9658393 L26.8557371,72.0565465 C27.5681972,72.1958049 28.162513,72.6171736 28.529749,73.2433869 C28.8969849,73.8693756 28.9742505,74.5937436 28.7482937,75.2835216 C28.2833527,76.701486 28.2811067,78.2012084 28.7422292,79.6200712 L29.453791,81.8095717 C29.8789761,83.1181509 29.1597776,84.5289277 27.8514294,84.9541148 L25.6194883,85.6793813 C24.8407685,85.9322924 24.2617261,86.5890527 24.1078688,87.3927081 L22.3113551,96.7699603 C18.3620526,93.155308 14.8945367,88.8832215 12.0799595,84.0080566 C8.64613498,78.0610517 6.50066847,71.7178343 5.55506399,65.3038647 L11.0835934,63.5076568 Z M24.1732301,27.6847966 L21.5310629,30.5155593 C21.4131431,30.6420148 21.3100475,30.7817224 21.2240222,30.931762 L15.2242629,41.4066845 L9.89181727,45.2196676 C8.89859565,45.9298852 8.65467013,47.3029275 9.34242331,48.3118766 L11.3367279,51.2372002 C10.1871783,51.4083532 9.15554851,51.5494084 8.4695922,51.6242036 C8.33774663,51.497748 8.19983662,51.3694956 8.05720981,51.2369756 C7.52331389,50.7410362 6.7814299,50.0786606 5.67545449,49.1108152 C7.49950532,37.8212315 12.9395387,27.1854881 21.4953501,19.0669515 C23.133739,19.5828812 24.4782493,20.8049854 25.1350064,22.3990442 C25.8739705,24.191883 25.4961779,26.2668323 24.1732301,27.6847966 Z M42.4856133,39.9581731 C43.4873701,39.3944015 45.8125239,39.3119695 47.5101198,39.251774 C48.1904609,39.2277407 48.8332922,39.2048304 49.4073932,39.1567638 C49.7103909,39.1313829 50.0468554,39.1360997 50.3642281,39.1608068 C50.2224997,39.5246754 50.1764549,39.9240324 50.2379978,40.3202448 C50.3460348,41.0172103 50.7757121,41.6225349 51.3974302,41.9551826 C51.8187969,42.1806913 52.4052514,42.5717377 53.026071,42.9856943 C54.7813915,44.1559136 56.7712038,45.482237 58.6404011,45.6012804 C60.3402431,45.711564 61.2860722,44.7428201 61.6912671,44.3302112 C61.7236108,44.2974181 61.7541576,44.264625 61.7865013,44.2347518 C62.0147042,44.0487745 62.2285321,43.7994572 62.3875554,43.4987041 C62.7467054,43.601351 63.1240488,43.7035486 63.5108257,43.8084416 C64.8407364,44.1684918 67.3161538,44.8387287 67.863077,45.4182231 C68.8345116,46.448061 69.591669,48.4082344 70.2598812,50.1375085 C70.5974687,51.0114669 70.9164137,51.8362356 71.274216,52.6010335 C71.4278487,52.929189 71.5790106,53.2672274 71.7326433,53.6095334 C72.7689899,55.9212218 73.9436957,58.5415247 76.4357341,60.170398 C77.5657427,60.9091411 78.9509072,61.1213977 80.1732302,61.3089473 C80.321023,61.3316329 80.4903783,61.3576877 80.6624289,61.3859886 C79.9369414,62.3980822 78.9039639,63.3598632 77.8125881,64.3762245 C75.0321516,66.9655312 71.5718231,70.1882387 73.165425,75.3293421 C73.917641,77.7569294 73.95268,78.0192742 72.7431598,79.3350409 C72.5782967,79.5145044 72.4246641,79.6780207 72.2806896,79.8312048 C71.2447922,80.934041 70.4265411,81.8050795 69.74912,83.9388766 C69.5523624,84.5585762 69.297431,84.8456281 68.8345116,85.3667238 C68.4643557,85.7836004 68.0032331,86.3028992 67.578048,87.0306364 C67.0686345,87.9025733 66.9001776,88.7421663 66.7651875,89.4166708 C66.6319943,90.080394 66.5565257,90.413491 66.2959791,90.7333359 C65.7027863,91.4615223 64.5963617,92.5189872 63.4605133,93.2406599 C62.4048503,93.9108968 61.7885228,94.0025377 61.5785133,93.9899596 C61.3388553,93.7330055 60.470741,92.6079329 59.1590236,88.7147638 C58.8355865,87.7543305 58.3868174,86.7660455 57.9528725,85.810329 C56.9962622,83.7034851 56.0073082,81.5247659 56.4884209,80.0358248 C56.545247,79.8601796 56.6013993,79.6885773 56.6566532,79.5207935 C57.4252657,77.1781089 58.1507532,74.9659228 56.8066921,71.7450121 C56.3974542,70.7641393 55.7458631,70.0474081 55.1715375,69.4149057 C54.7998094,69.0058904 54.3786673,68.5422949 54.3137552,68.275458 C54.2346928,67.9499978 54.2371635,67.5742249 54.2400834,67.1391549 C54.2477202,65.9655664 54.2593998,64.1922687 52.4964427,62.5413836 C50.0109179,60.2148709 47.1125616,60.9316021 45.1943995,61.4059789 C44.6052498,61.5515263 44.0486683,61.689437 43.5554266,61.7473864 C40.4001174,62.1170949 37.5830696,60.9266607 35.82438,58.4793077 C33.9846066,55.9194249 33.7175463,52.4745779 35.1276425,49.489508 C35.8102296,48.0450397 36.8414102,46.8844786 38.0354324,45.5413095 C38.2962036,45.2477439 38.5594455,44.9517076 38.8226874,44.6484838 C39.2606753,44.1435601 39.7426865,43.4598465 40.2523246,42.7359278 C40.8607908,41.8723015 41.9937193,40.2640923 42.4856133,39.9581731 Z" id="Fill-2"></path>
                <path d="M93.3858804,77.6418343 L92.2671693,73.6401477 C92.0227783,72.7662821 91.241471,72.1223579 90.2957637,72.0151108 C89.3488937,71.9100704 88.4306251,72.3593609 87.9760252,73.1540048 C87.7211703,73.5997645 87.4916612,74.072005 87.2698258,74.5285777 C86.8966121,75.2967409 86.5106091,76.0911642 86.1090264,76.5296417 C85.8834705,76.7759129 85.3040009,77.0413827 84.7440641,77.2978048 C83.4053778,77.9108348 81.5718636,78.7504961 80.8714774,80.8693994 C80.4366427,82.1837286 80.59895,83.2235404 80.7175413,83.982656 C80.8200879,84.6409239 80.8438061,84.8690999 80.6580131,85.2830827 L80.6347599,85.3344996 C79.8946108,86.9827072 78.5175568,90.051167 80.4485019,92.6597441 C81.8262535,94.5213426 83.2749274,95 84.4006144,95 C84.6203571,95.0006447 84.8282406,94.9823288 85.0205445,94.9525379 C87.3923701,94.5846758 89.1754249,92.2433339 90.6324699,87.5836001 L93.3675104,78.8358966 C93.4891246,78.4468498 93.4956355,78.0337497 93.3858804,77.6418343 Z M86.1746004,86.3281907 C85.4318935,88.7039576 84.7747583,89.8130607 84.3954987,90.3047205 C84.3517827,90.2517589 84.3043462,90.1917358 84.2536542,90.1231065 C83.8092857,89.5224342 84.4733969,88.0430416 84.9128822,87.0639149 L84.936368,87.0122774 C85.6451253,85.4335818 85.4556117,84.2212036 85.3177203,83.335863 C85.2291256,82.7689537 85.1975013,82.5253306 85.308419,82.1905695 C85.3995715,81.9153901 85.9443938,81.6483756 86.7652315,81.2723486 C87.129144,81.1055197 87.5297965,80.9221403 87.9341695,80.7001432 L86.1746004,86.3281907 Z" id="Fill-3"></path>
                <path d="M61.845533,26.1978476 L61.6823219,26.1395408 C60.4232997,25.688899 59.042655,26.3656029 58.6006553,27.6530453 C58.1586556,28.9407347 58.821897,30.3502258 60.0818864,30.8018559 L60.2448556,30.8601627 C60.5096202,30.9550346 60.7794625,31 61.0451943,31 C62.0433206,31 62.9776133,30.3633201 63.3267641,29.3466582 C63.7687638,28.0589688 63.1055224,26.6492306 61.845533,26.1978476 Z" id="Fill-4"></path>
            </g>
        </g>
    </g>
</svg>