<?xml version="1.0" encoding="UTF-8"?>
<svg width="172px" height="38px" viewBox="0 0 172 38" version="1.1" xmlns="http://www.w3.org/2000/svg" xmlns:xlink="http://www.w3.org/1999/xlink">
    <!-- Generator: Sketch 53.2 (72643) - https://sketchapp.com -->
    <title>+12,000</title>
    <desc>Created with Sketch.</desc>
    <g id="Page-2" stroke="none" stroke-width="1" fill="none" fill-rule="evenodd">
        <g id="About-Us" transform="translate(-620.000000, -840.000000)" fill="#fff" fill-rule="nonzero">
            <path d="M620.84,854.36 L629,854.36 L629,846.2 L634.12,846.2 L634.12,854.36 L642.24,854.36 L642.24,859.48 L634.12,859.48 L634.12,867.64 L629,867.64 L629,859.48 L620.84,859.48 L620.84,854.36 Z M655.76,848.48 L651.36,848.48 L651.36,841.84 L663.6,841.84 L663.6,872 L655.76,872 L655.76,848.48 Z M695.04,872 L670.76,872 L678.24,864.24 C680.213343,862.186656 681.759994,860.446674 682.88,859.02 C684.000006,857.593326 684.833331,856.386672 685.38,855.4 C685.926669,854.413328 686.266666,853.613336 686.4,853 C686.533334,852.386664 686.6,851.866669 686.6,851.44 C686.6,850.986664 686.526667,850.546669 686.38,850.12 C686.233333,849.693331 686.013335,849.313335 685.72,848.98 C685.426665,848.646665 685.073335,848.380001 684.66,848.18 C684.246665,847.979999 683.760003,847.88 683.2,847.88 C682.133328,847.88 681.300003,848.226663 680.7,848.92 C680.099997,849.613337 679.8,850.479995 679.8,851.52 C679.8,851.813335 679.84,852.239997 679.92,852.8 L671.36,852.8 C671.36,851.039991 671.646664,849.440007 672.22,848 C672.793336,846.559993 673.599995,845.320005 674.64,844.28 C675.680005,843.239995 676.913326,842.440003 678.34,841.88 C679.766674,841.319997 681.333325,841.04 683.04,841.04 C684.720008,841.04 686.273326,841.306664 687.7,841.84 C689.126674,842.373336 690.359995,843.119995 691.4,844.08 C692.440005,845.040005 693.25333,846.179993 693.84,847.5 C694.42667,848.820007 694.72,850.253326 694.72,851.8 C694.72,853.453342 694.36667,854.979993 693.66,856.38 C692.95333,857.780007 691.826674,859.213326 690.28,860.68 L685.28,865.36 L695.04,865.36 L695.04,872 Z M701.56,864.36 L708.36,864.36 L701,877.6 L696.36,877.6 L701.56,864.36 Z M719,856.88 C719,858.21334 719.119999,859.426661 719.36,860.52 C719.600001,861.613339 719.939998,862.559996 720.38,863.36 C720.820002,864.160004 721.346664,864.779998 721.96,865.22 C722.573336,865.660002 723.266663,865.88 724.04,865.88 C724.78667,865.88 725.47333,865.660002 726.1,865.22 C726.72667,864.779998 727.253331,864.160004 727.68,863.36 C728.106669,862.559996 728.439999,861.613339 728.68,860.52 C728.920001,859.426661 729.04,858.21334 729.04,856.88 C729.04,855.573327 728.920001,854.366672 728.68,853.26 C728.439999,852.153328 728.106669,851.206671 727.68,850.42 C727.253331,849.633329 726.72667,849.020002 726.1,848.58 C725.47333,848.139998 724.78667,847.92 724.04,847.92 C723.266663,847.92 722.573336,848.139998 721.96,848.58 C721.346664,849.020002 720.820002,849.633329 720.38,850.42 C719.939998,851.206671 719.600001,852.153328 719.36,853.26 C719.119999,854.366672 719,855.573327 719,856.88 Z M711.24,856.88 C711.24,854.479988 711.55333,852.30001 712.18,850.34 C712.80667,848.37999 713.686661,846.706674 714.82,845.32 C715.953339,843.933326 717.299992,842.860004 718.86,842.1 C720.420008,841.339996 722.146657,840.96 724.04,840.96 C725.906676,840.96 727.626659,841.339996 729.2,842.1 C730.773341,842.860004 732.119994,843.933326 733.24,845.32 C734.360006,846.706674 735.23333,848.37999 735.86,850.34 C736.48667,852.30001 736.8,854.479988 736.8,856.88 C736.8,859.280012 736.48667,861.45999 735.86,863.42 C735.23333,865.38001 734.360006,867.059993 733.24,868.46 C732.119994,869.860007 730.773341,870.939996 729.2,871.7 C727.626659,872.460004 725.906676,872.84 724.04,872.84 C722.146657,872.84 720.420008,872.460004 718.86,871.7 C717.299992,870.939996 715.953339,869.860007 714.82,868.46 C713.686661,867.059993 712.80667,865.38001 712.18,863.42 C711.55333,861.45999 711.24,859.280012 711.24,856.88 Z M746.2,856.88 C746.2,858.21334 746.319999,859.426661 746.56,860.52 C746.800001,861.613339 747.139998,862.559996 747.58,863.36 C748.020002,864.160004 748.546664,864.779998 749.16,865.22 C749.773336,865.660002 750.466663,865.88 751.24,865.88 C751.98667,865.88 752.67333,865.660002 753.3,865.22 C753.92667,864.779998 754.453331,864.160004 754.88,863.36 C755.306669,862.559996 755.639999,861.613339 755.88,860.52 C756.120001,859.426661 756.24,858.21334 756.24,856.88 C756.24,855.573327 756.120001,854.366672 755.88,853.26 C755.639999,852.153328 755.306669,851.206671 754.88,850.42 C754.453331,849.633329 753.92667,849.020002 753.3,848.58 C752.67333,848.139998 751.98667,847.92 751.24,847.92 C750.466663,847.92 749.773336,848.139998 749.16,848.58 C748.546664,849.020002 748.020002,849.633329 747.58,850.42 C747.139998,851.206671 746.800001,852.153328 746.56,853.26 C746.319999,854.366672 746.2,855.573327 746.2,856.88 Z M738.44,856.88 C738.44,854.479988 738.75333,852.30001 739.38,850.34 C740.00667,848.37999 740.886661,846.706674 742.02,845.32 C743.153339,843.933326 744.499992,842.860004 746.06,842.1 C747.620008,841.339996 749.346657,840.96 751.24,840.96 C753.106676,840.96 754.826659,841.339996 756.4,842.1 C757.973341,842.860004 759.319994,843.933326 760.44,845.32 C761.560006,846.706674 762.43333,848.37999 763.06,850.34 C763.68667,852.30001 764,854.479988 764,856.88 C764,859.280012 763.68667,861.45999 763.06,863.42 C762.43333,865.38001 761.560006,867.059993 760.44,868.46 C759.319994,869.860007 757.973341,870.939996 756.4,871.7 C754.826659,872.460004 753.106676,872.84 751.24,872.84 C749.346657,872.84 747.620008,872.460004 746.06,871.7 C744.499992,870.939996 743.153339,869.860007 742.02,868.46 C740.886661,867.059993 740.00667,865.38001 739.38,863.42 C738.75333,861.45999 738.44,859.280012 738.44,856.88 Z M773.4,856.88 C773.4,858.21334 773.519999,859.426661 773.76,860.52 C774.000001,861.613339 774.339998,862.559996 774.78,863.36 C775.220002,864.160004 775.746664,864.779998 776.36,865.22 C776.973336,865.660002 777.666663,865.88 778.44,865.88 C779.18667,865.88 779.87333,865.660002 780.5,865.22 C781.12667,864.779998 781.653331,864.160004 782.08,863.36 C782.506669,862.559996 782.839999,861.613339 783.08,860.52 C783.320001,859.426661 783.44,858.21334 783.44,856.88 C783.44,855.573327 783.320001,854.366672 783.08,853.26 C782.839999,852.153328 782.506669,851.206671 782.08,850.42 C781.653331,849.633329 781.12667,849.020002 780.5,848.58 C779.87333,848.139998 779.18667,847.92 778.44,847.92 C777.666663,847.92 776.973336,848.139998 776.36,848.58 C775.746664,849.020002 775.220002,849.633329 774.78,850.42 C774.339998,851.206671 774.000001,852.153328 773.76,853.26 C773.519999,854.366672 773.4,855.573327 773.4,856.88 Z M765.64,856.88 C765.64,854.479988 765.95333,852.30001 766.58,850.34 C767.20667,848.37999 768.086661,846.706674 769.22,845.32 C770.353339,843.933326 771.699992,842.860004 773.26,842.1 C774.820008,841.339996 776.546657,840.96 778.44,840.96 C780.306676,840.96 782.026659,841.339996 783.6,842.1 C785.173341,842.860004 786.519994,843.933326 787.64,845.32 C788.760006,846.706674 789.63333,848.37999 790.26,850.34 C790.88667,852.30001 791.2,854.479988 791.2,856.88 C791.2,859.280012 790.88667,861.45999 790.26,863.42 C789.63333,865.38001 788.760006,867.059993 787.64,868.46 C786.519994,869.860007 785.173341,870.939996 783.6,871.7 C782.026659,872.460004 780.306676,872.84 778.44,872.84 C776.546657,872.84 774.820008,872.460004 773.26,871.7 C771.699992,870.939996 770.353339,869.860007 769.22,868.46 C768.086661,867.059993 767.20667,865.38001 766.58,863.42 C765.95333,861.45999 765.64,859.280012 765.64,856.88 Z" id="+12,000"></path>
        </g>
    </g>
</svg>