<?xml version="1.0" encoding="UTF-8"?>
<svg width="118px" height="118px" viewBox="0 0 118 118" version="1.1" xmlns="http://www.w3.org/2000/svg" xmlns:xlink="http://www.w3.org/1999/xlink">
    <!-- Generator: Sketch 58 (84663) - https://sketch.com -->
    <title>Group 2</title>
    <desc>Created with Sketch.</desc>
    <g id="Page-2" stroke="none" stroke-width="1" fill="none" fill-rule="evenodd">
        <g id="About-Us" transform="translate(-274.000000, -790.000000)" fill="#2F5496">
            <g id="Group-2" transform="translate(274.000000, 790.000000)">
                <g id="Group-5">
                    <path d="M115.299137,102.263363 L84.536168,71.5003945 C89.5477109,63.9516211 92.1875,55.2099414 92.1875,46.09375 C92.1875,20.6776562 71.5098438,0 46.09375,0 C20.6776562,0 0,20.6776562 0,46.09375 C0,71.5098437 20.6776562,92.1875 46.09375,92.1875 C55.2101719,92.1875 63.9518516,89.5474805 71.5003945,84.5363984 L80.0035391,93.039543 C80.0046914,93.0406953 80.0058437,93.0418477 80.0072266,93.0432305 L102.263133,115.299137 C104.005016,117.040789 106.319613,118 108.78125,118 C111.242887,118 113.557484,117.040789 115.298445,115.299828 C117.040559,113.559098 118,111.24427 118,108.78125 C118,106.31823 117.040559,104.003402 115.299137,102.263363 Z M70.4165,79.6792695 C70.4165,79.6795 70.4162695,79.6795 70.4160391,79.6797305 C63.3021602,84.8468398 54.8918945,87.578125 46.09375,87.578125 C23.2192656,87.578125 4.609375,68.9682344 4.609375,46.09375 C4.609375,23.2192656 23.2192656,4.609375 46.09375,4.609375 C68.9682344,4.609375 87.578125,23.2192656 87.578125,46.09375 C87.578125,54.8918945 84.8468398,63.3021602 79.6795,70.4162695 C77.094332,73.9777031 73.9779336,77.094332 70.4165,79.6792695 Z M75.2517344,81.7686992 C77.6370859,79.8173203 79.8175508,77.6368555 81.7686992,75.2517344 L88.3073281,81.7903633 C86.3188438,84.1372266 84.1372266,86.3190742 81.7903633,88.3073281 L75.2517344,81.7686992 Z M112.039848,112.039848 C111.168676,112.91102 110.011492,113.390625 108.78125,113.390625 C107.551008,113.390625 106.393824,112.91102 105.522652,112.039848 L85.0581797,91.575375 C87.3921367,89.5723711 89.5723711,87.3923672 91.5751445,85.0584102 L112.040309,105.523574 C112.91102,106.393363 113.390625,107.550086 113.390625,108.78125 C113.390625,110.012414 112.91102,111.169137 112.039848,112.039848 Z" id="Fill-2"></path>
                    <path d="M46,9 C25.5979687,9 9,25.5979687 9,46 C9,66.4020312 25.5979687,83 46,83 C66.4020312,83 83,66.4020312 83,46 C83,25.5979687 66.4020312,9 46,9 Z M46,78.375 C28.148425,78.375 13.625,63.851575 13.625,46 C13.625,28.148425 28.148425,13.625 46,13.625 C63.851575,13.625 78.375,28.148425 78.375,46 C78.375,63.851575 63.851575,78.375 46,78.375 Z" id="Fill-3"></path>
                </g>
                <path d="M94.9486457,7.05548127 C93.5470793,5.64813286 91.2742301,5.64813286 89.8726637,7.0557216 L46.8130836,50.2973188 L30.1275756,33.5401154 C28.7260092,32.1325267 26.45316,32.1325267 25.0513543,33.5401154 C23.6495486,34.9477042 23.6495486,37.2303195 25.0513543,38.6381486 L44.2748533,57.9442484 C44.9757562,58.6481629 45.8944199,59 46.8128443,59 C47.7312687,59 48.6500521,58.6479226 49.3507156,57.9442484 L94.9486457,12.1535144 C96.3504514,10.7459257 96.3504514,8.46331034 94.9486457,7.05548127 Z" id="Fill-1"></path>
            </g>
        </g>
    </g>
</svg>