<?xml version="1.0" encoding="UTF-8"?>
<svg width="115px" height="115px" viewBox="0 0 115 115" version="1.1" xmlns="http://www.w3.org/2000/svg" xmlns:xlink="http://www.w3.org/1999/xlink">
    <!-- Generator: Sketch 58 (84663) - https://sketch.com -->
    <title>Group 3</title>
    <desc>Created with Sketch.</desc>
    <g id="Page-2" stroke="none" stroke-width="1" fill="none" fill-rule="evenodd">
        <g id="About-Us" transform="translate(-659.000000, -1158.000000)" fill="#2F5496">
            <g id="Group-3" transform="translate(659.000000, 1158.000000)">
                <path d="M77.2026544,65.8491164 L61.525487,56.1328032 C61.3344643,56.0142838 61.1147994,55.9339818 60.8931048,55.8989492 L55.9849266,55.0254092 C55.0769486,54.8634403 54.1852086,55.493572 54.0250833,56.4094242 C53.864958,57.3252763 54.4889956,58.2247496 55.3969736,58.3862635 L60.0286538,59.210667 L75.4315786,68.7570494 C76.1834908,69.2231649 77.214833,68.9968179 77.7139277,68.2643182 C78.2493325,67.4781322 78.0075659,66.3484447 77.2026544,65.8491164 Z" id="Fill-1"></path>
                <path d="M114.545121,65.3798998 C113.908317,64.7000062 112.840376,64.6640686 112.159242,65.2992649 L105.316634,71.6826735 L73.9629111,40.8028782 L114.465914,2.91391161 C115.145922,2.27759223 115.180575,1.21136983 114.543321,0.53259922 C113.906066,-0.146171393 112.837675,-0.180761292 112.157667,0.455333472 L70.3738551,39.5423684 C69.6848463,40.1867737 69.6704451,41.308924 70.3425774,41.9710735 L73.1159389,44.7021032 L72.2307134,45.4823974 L53.693408,43.889016 C53.4074086,43.8647581 53.1101583,43.9139476 52.849136,44.0343385 L38.1614588,50.7115366 C38.1187052,50.7005307 38.0759515,50.6897495 38.0316228,50.6818881 L29.5830525,49.193624 L30.2662107,47.4504279 C30.6039645,46.5883757 30.1820536,45.6158156 29.3211302,45.2723873 L2.31529529,34.4897725 C1.44942147,34.1436489 0.467437753,34.5643429 0.121358248,35.4284165 C-0.224946276,36.2922656 0.196064617,37.2729117 1.06171342,37.6183614 L26.5119907,47.780155 L11.5140795,86.0377062 L2.25183988,82.7631209 C1.37291495,82.4527102 0.408482727,82.9115879 0.0972811956,83.7889135 C-0.213920336,84.6660145 0.246243895,85.6289165 1.12494381,85.9395517 L11.9272147,89.7583664 C12.775087,90.0582204 13.7350189,89.6195576 14.0624218,88.7840094 L16.5689105,82.3902687 L23.1364779,86.0639855 L22.4122086,87.2359991 C20.3598087,90.5564048 21.396022,94.9246149 24.7226381,96.9735049 C26.4818381,98.0570222 28.6656493,98.3139757 30.6314169,97.6787794 C30.9466687,99.7236264 32.1505214,101.548356 33.9157969,102.635467 C35.6749968,103.718984 37.858583,103.975938 39.8245756,103.340742 C40.1400525,105.385589 41.3434551,107.210093 43.1087306,108.297429 C44.873331,109.384316 47.0456662,109.640146 49.0179594,109.004725 C49.3338863,111.048674 50.5370639,112.872505 52.3018894,113.959391 C54.866883,115.539072 58.2619725,115.303007 60.5740446,113.368668 C61.1568443,112.88104 61.658412,112.299076 62.0575961,111.653099 L63.2090192,109.790635 L64.1570251,110.371925 C66.725394,111.947113 70.1195834,111.704534 72.4280552,109.765928 C73.0099548,109.277177 73.5103975,108.694315 73.9084564,108.047663 C74.6996239,106.762222 75.0270268,105.321575 74.9406194,103.919112 C75.4766151,104.047813 76.0252119,104.116993 76.5787591,104.116993 C79.0301181,104.116993 81.3489407,102.82661 82.6317751,100.742681 C83.404491,99.4871124 83.7575461,98.0556746 83.6679885,96.6148031 C84.202634,96.7428307 84.7501057,96.8115612 85.3018528,96.8115612 C87.7532117,96.8115612 90.0722594,95.5211783 91.3548688,93.4372492 C92.1282597,92.1807824 92.4810898,90.7484461 92.3908571,89.3064516 C92.9313532,89.4349284 93.480175,89.5020867 94.0265216,89.5020867 C96.4103748,89.5020867 98.7413485,88.3040184 100.078187,86.1322669 C102.124512,82.8078182 101.079973,78.4416296 97.749464,76.3990287 L96.5928654,75.6897112 L100.471971,71.6440407 L104.100405,75.2175815 C104.73676,75.8440181 105.785574,75.8579439 106.438355,75.2492515 L114.465014,67.7614368 C115.145697,67.1260159 115.1817,66.0597935 114.545121,65.3798998 Z M31.6052999,92.8977366 C30.5299332,94.6368898 28.2376628,95.1786485 26.4951142,94.1059124 C24.7525657,93.0327271 24.2098194,90.7446277 25.284736,89.00525 L34.738692,73.7113486 C35.793807,72.0043147 38.05795,71.4461595 39.7867724,72.4656631 C41.5756749,73.5213288 42.069367,75.9693503 40.9953504,77.7071558 L31.6052999,92.8977366 Z M40.7980086,98.5596988 C39.723092,100.298852 37.4305965,100.840835 35.688273,99.7678745 C33.9668762,98.707492 33.4140041,96.3881719 34.4778948,94.6672121 L42.0407896,82.4320461 C43.0959045,80.7252368 45.3600475,80.166857 47.0888699,81.1863606 C48.8777724,82.2420263 49.3714645,84.6900478 48.2972229,86.4278533 L40.7980086,98.5596988 Z M49.9918424,104.221661 C49.470698,105.064172 48.6520782,105.653997 47.6871959,105.882201 C46.7216386,106.110629 45.7254787,105.949584 44.8814317,105.429837 C43.16026,104.369454 42.6073879,102.049909 43.6712786,100.329174 L49.3435622,91.1527436 C50.3986771,89.4457097 52.6630452,88.8875545 54.3916425,89.9070581 C56.180545,90.9627238 56.6742371,93.4107453 55.6002206,95.1485508 L49.9918424,104.221661 Z M62.9025431,103.869697 L59.1847762,109.883848 C58.1224606,111.602112 55.7989125,112.153529 54.0745905,111.091799 C52.3534188,110.031641 51.8007716,107.711872 52.8644373,105.991136 L56.6458847,99.8736657 C57.7009997,98.167081 59.9653677,97.6080274 61.6939651,98.6282048 C63.4828676,99.6836459 63.9765597,102.131892 62.9025431,103.869697 Z M93.6500645,73.8847474 L85.2834012,68.7530888 C84.507535,68.2771408 83.4384689,68.5320728 82.9618783,69.3065272 C82.4850626,70.0809815 82.7404594,71.1481024 83.5163255,71.6238258 L95.9817133,79.2693165 C97.726062,80.3393573 98.2733086,82.6263336 97.2015423,84.3677328 C96.1295509,86.1089075 93.8381805,86.6551583 92.0936068,85.5853422 L78.724542,77.3852901 C77.9304493,76.8978869 76.8908607,77.1460807 76.4030191,77.9387284 C75.9151775,78.7313762 76.1633737,79.7690731 76.9574664,80.256027 L87.2588446,86.5742988 C88.9822665,87.6313122 89.539189,89.9499585 88.4786736,91.6727152 C87.4197333,93.3930011 85.0968603,93.9486856 83.3709631,92.8903245 L74.0353672,87.1643486 C73.2410495,86.6771701 72.2016859,86.9251392 71.7138443,87.717787 C71.2260027,88.5104347 71.4741989,89.5481317 72.2682916,90.0350856 L78.5359759,93.8792812 C80.2591728,94.9365192 80.8163203,97.2547162 79.7558049,98.9776975 C78.6968646,100.697759 76.3739916,101.253893 74.6480945,100.195307 C74.6480945,100.195307 69.1360245,96.8178503 69.0844952,96.7931432 C68.3138044,96.4216387 67.3714241,96.6860044 66.9141851,97.4290134 C66.4263435,98.2216611 66.6745397,99.2593581 67.4686324,99.746312 L69.8131073,101.184264 C71.557456,102.254304 72.1044776,104.541281 71.0327112,106.28268 C69.973771,108.002966 67.6508979,108.55865 65.9250008,107.500289 L64.9826204,106.922144 L65.7762631,105.63805 C66.7908746,103.996602 67.1056764,101.975114 66.6398867,100.091986 C66.1803976,98.2335655 65.0341498,96.6833091 63.4128866,95.7266962 C62.1478288,94.9805427 60.7326831,94.678218 59.3546656,94.7709818 C59.6134377,93.6614097 59.6147878,92.4920915 59.3375642,91.3710643 C58.878075,89.5126434 57.7318273,87.962387 56.1105641,87.0057741 C54.8455062,86.259396 53.4303606,85.9570713 52.0523431,86.0498351 C52.7483274,83.065221 51.4670682,79.8539756 48.8082415,78.284852 C47.5431837,77.5386985 46.128038,77.2363738 44.7500205,77.328913 C45.4460049,74.3442989 44.1647456,71.1330535 41.505919,69.5639299 C38.2051126,67.6163389 33.8813689,68.6830106 31.8674472,71.9407501 L24.9121043,83.1927993 L17.8110164,79.2221484 L28.3278955,52.3943127 L34.0541837,53.403035 C32.4254948,55.4222765 31.9675808,58.2651619 33.1151786,60.7810155 C34.3028299,63.3837931 36.8828998,64.9239421 39.5772795,64.9237175 C40.5585882,64.9237175 41.5551982,64.7193226 42.5050041,64.2876227 L52.3896468,59.7936312 C53.2267182,59.4131423 53.6074507,58.3976817 53.2260432,57.5621335 C52.8448607,56.7268099 51.8275489,56.346321 50.9904776,56.7272591 L41.1056098,61.221026 C39.242676,62.0682539 37.0359129,61.2441608 36.1871405,59.3841676 C35.3385932,57.5241744 36.1639635,55.321876 38.0273474,54.4746481 L53.8448459,47.2837675 L72.6605,48.9011822 C72.7088791,48.9054497 72.7572583,48.9074712 72.8054124,48.9074712 C73.2149473,48.9074712 73.6125562,48.758555 73.9224076,48.4858788 L75.5240942,47.0742066 L98.0678661,69.2766541 L93.6500645,73.8847474 Z" id="Fill-2"></path>
            </g>
        </g>
    </g>
</svg>