<?xml version="1.0" encoding="UTF-8"?>
<svg width="97px" height="117px" viewBox="0 0 97 117" version="1.1" xmlns="http://www.w3.org/2000/svg" xmlns:xlink="http://www.w3.org/1999/xlink">
    <!-- Generator: Sketch 58 (84663) - https://sketch.com -->
    <title>Group 12</title>
    <desc>Created with Sketch.</desc>
    <g id="Page-2" stroke="none" stroke-width="1" fill="none" fill-rule="evenodd">
        <g id="About-Us" transform="translate(-284.000000, -1156.000000)" fill="#fff">
            <g id="Group-12" transform="translate(283.306358, 1156.000000)">
                <g id="Group-3">
                    <path d="M97.268215,101.642763 L84.9717395,85.86188 C88.956222,84.6734725 92.3981236,82.1297305 94.6997975,78.6724303 C97.5955821,73.6757223 96.2861136,67.5776003 95.0190815,61.6872543 C94.2529515,58.6613916 93.7944859,55.565934 93.6510102,52.4482868 C93.7939807,49.3278659 94.2521937,46.2296347 95.0190815,43.2012504 C96.2780304,37.3068699 97.5955821,31.2127824 94.6997975,26.2241434 C91.7009529,21.0519354 85.6628479,19.137573 79.8227799,17.2897795 C76.9156284,16.4901953 74.10017,15.3895377 71.4223775,14.0057098 C68.9923838,12.4322612 66.7361776,10.6066574 64.6911434,8.55915696 C60.3585808,4.54484578 55.446053,0 49.1937449,0 C42.9414367,0 38.0289089,4.54484578 33.6943255,8.55713972 C31.6500491,10.6051445 29.3943481,12.4315048 26.9651122,14.0057098 C24.2874966,15.386764 21.472796,16.4846478 18.5666548,17.2817105 C12.7265868,19.129504 6.68848184,21.0438665 3.68963722,26.2160745 C0.793852616,31.2127824 2.10332116,37.3109044 3.37035322,43.2012504 C4.13648325,46.2298868 4.59419101,49.3278659 4.73640374,52.4482868 C4.59343321,55.5687077 4.13522026,58.666939 3.36833244,61.6953233 C2.10938351,67.5897038 0.791831831,73.6837913 3.68761643,78.6724303 C5.99232148,82.1309913 9.43801215,84.6739768 13.4257783,85.8598628 L1.11919897,101.640745 C0.434152924,102.520263 0.593037128,103.787595 1.47435189,104.47144 C1.89770631,104.799998 2.43422467,104.947005 2.96619626,104.880436 L17.4148075,103.079039 L20.9814927,115.537524 C21.1903913,116.267766 21.7925851,116.818977 22.5395177,116.963714 C22.6660694,116.987669 22.7946418,117 22.9234668,117 C23.5473841,117 24.1366955,116.713072 24.5198868,116.221369 L37.4246943,99.651745 C40.6003576,102.737873 44.7717626,104.597013 49.1937449,104.896574 C53.6157272,104.597013 57.7871322,102.737873 60.9627955,99.651745 L73.8675271,116.215317 C74.2494555,116.70929 74.8387668,117 75.4639471,117 C75.5927721,117 75.7213446,116.987669 75.8478962,116.963714 C76.5948288,116.818977 77.1970227,116.267766 77.4059213,115.537524 L80.9726065,103.081056 L95.4212177,104.882453 C96.5286078,105.021138 97.5390001,104.23744 97.6779291,103.131991 C97.744615,102.600953 97.5973503,102.065375 97.268215,101.642763 Z M23.7721964,110.607385 L20.8238714,100.307349 C20.5498025,99.3519324 19.6192311,98.7381866 18.6313199,98.8609862 L7.31492513,100.273055 L17.457244,87.2578114 L18.574738,87.6148632 C21.4781005,88.4124301 24.2900225,89.510314 26.9651122,90.8908638 C29.3951059,92.4643125 31.6513121,94.2899163 33.6963463,96.3374167 L34.3914963,96.9788996 L23.7721964,110.607385 Z M49.1937449,100.86209 C44.525732,100.86209 40.5993472,97.2310548 36.4405721,93.3821575 C34.1780509,91.1256204 31.6788453,89.1192212 28.985897,87.397001 C26.0560116,85.8659145 22.9717131,84.6487612 19.7851881,83.7659658 C14.4442539,82.0734999 9.39835425,80.4758444 7.18357412,76.6551885 C5.06983323,73.005998 6.16105701,67.9205315 7.3189667,62.5344958 C8.15228783,59.2315146 8.64131774,55.8516259 8.77797332,52.4482868 C8.64207554,49.0449478 8.15380341,45.6650591 7.32098748,42.3620778 C6.1630778,36.9780595 5.07185401,31.8925929 7.1855949,28.2413852 C9.40845817,24.4207292 14.4462746,22.8230737 19.7872088,21.1306079 C22.9732287,20.2475603 26.0565168,19.030407 28.985897,17.4995726 C31.6780875,15.7773524 34.1767879,13.7707012 36.4385513,11.5144162 C40.5993472,7.66551885 44.525732,4.0344836 49.1937449,4.0344836 C53.8617577,4.0344836 57.7881426,7.66551885 61.9469177,11.5144162 C64.2094388,13.7709533 66.7086444,15.7773524 69.4015928,17.4995726 C72.3314781,19.0306592 75.4157009,20.2478124 78.6022259,21.1306079 C83.9431601,22.8230737 88.9890597,24.4207292 91.2038398,28.2413852 C93.3175807,31.8905756 92.2263569,36.9760422 91.0684473,42.3620778 C90.2351261,45.6650591 89.7460962,49.0449478 89.6094406,52.4482868 C89.7453384,55.8516259 90.2336105,59.2315146 91.0664265,62.5344958 C92.2243362,67.9185142 93.3155599,73.0039808 91.2018191,76.6551885 C88.9789558,80.4758444 83.9411393,82.0734999 78.6002051,83.7659658 C75.4141853,84.6490134 72.3309729,85.8661667 69.4015928,87.397001 C66.7094022,89.1192212 64.2107018,91.1258725 61.9489385,93.3821575 C57.7881426,97.2310548 53.8617577,100.86209 49.1937449,100.86209 Z M79.7661979,98.8609862 C78.7782868,98.7381866 77.8477154,99.3519324 77.5736464,100.307349 L74.6152175,110.607385 L63.9980142,96.9809168 L64.6931642,96.339434 C66.7374406,94.2914292 68.9931416,92.4650689 71.4223775,90.8908638 C74.0999174,89.5098097 76.914618,88.4119258 79.8207591,87.6148632 L80.9382531,87.2578114 L91.0825928,100.273055 L79.7661979,98.8609862 Z" id="Fill-1"></path>
                    <path d="M49.6936791,16 C29.8114498,16 13.6936416,32.11775 13.6936416,52 C13.6936416,71.88225 29.8114498,88 49.6936791,88 C69.5759084,88 85.6936416,71.88225 85.6936416,52 C85.6706416,32.12725 69.5664084,16.02325 49.6936791,16 Z M49.6936791,84 C32.0206975,84 17.6936375,69.673 17.6936375,52 C17.6936375,34.327 32.0206975,20 49.6936791,20 C67.3666607,20 81.6936375,34.327 81.6936375,52 C81.6726458,69.6645 67.3581607,83.979 49.6936791,84 Z" id="Fill-2"></path>
                </g>
                <path d="M67.8359387,48.8724126 C68.6138867,48.1019505 68.8885307,46.9711948 68.5528827,45.9214327 C68.2171509,44.8716707 67.3407741,44.120988 66.2656938,43.9623259 L56.8650343,42.5744369 C56.6805118,42.5472401 56.5209951,42.429501 56.4384257,42.2594997 L52.2343515,33.604696 C51.7536197,32.6148692 50.7800729,32 49.6936644,32 C48.607256,32 47.6337091,32.6148692 47.1529774,33.604696 L42.9489031,42.259585 C42.8662498,42.429501 42.706817,42.5472401 42.5222107,42.5745221 L33.121677,43.9623259 C32.0465967,44.120988 31.1703038,44.8716707 30.8344881,45.9214327 C30.4986723,46.9711948 30.7734001,48.1019505 31.5514321,48.8724126 L38.353757,55.6092883 C38.487261,55.7416062 38.548265,55.9321543 38.5167141,56.1189511 L36.9108905,65.6315195 C36.727291,66.7194764 37.1591021,67.7982257 38.0379962,68.4470269 C38.9168903,69.0959987 40.0604848,69.1798057 41.0219483,68.6663064 L49.430013,64.1750843 C49.5951518,64.086844 49.792261,64.086844 49.9574837,64.1750843 L58.3656323,68.6663064 C58.7838496,68.8896782 59.2363869,69 59.6867425,69 C60.2716091,69 60.8527835,68.8138 61.3492907,68.4469417 C62.2281848,67.7980552 62.6600798,66.7192207 62.4763964,65.6314342 L60.8705728,56.1188658 C60.8391058,55.932069 60.9000259,55.741521 61.0335299,55.6092031 L67.8359387,48.8724126 Z" id="Fill-1"></path>
            </g>
        </g>
    </g>
</svg>