
<svg width="14px" height="15px" viewBox="0 0 14 15" version="1.1" xmlns="http://www.w3.org/2000/svg" >
    <g id="Page-2" stroke="none" stroke-width="1" fill="none" fill-rule="evenodd">
        <g id="BV4_Landing_V4" transform="translate(-547.000000, -1076.000000)" fill="#2F5495" stroke="#2F5495">
            <g id="Group-4" transform="translate(548.000000, 1077.000000)">
                <path d="M6.1138167,0.195519624 C6.37803713,-0.0651732081 6.79400578,-0.0651732081 7.05822621,0.195519624 C7.31352027,0.447405266 7.31352027,0.866627524 7.05822621,1.11792602 L2.2695285,5.84269003 L11.2418728,5.84269003 C11.6102341,5.84269003 12,6.13655661 12,6.5 C12,6.86344339 11.6102341,7.15672282 11.2418728,7.15672282 L2.2695285,7.15672282 L7.05822621,11.8726796 C7.31352027,12.1333725 7.31352027,12.5531819 7.05822621,12.8044804 C6.79400578,13.0651732 6.37803713,13.0651732 6.1138167,12.8044804 L0.191470546,6.9612032 C-0.0638235154,6.70931756 -0.0638235154,6.2900953 0.191470546,6.0387968 L6.1138167,0.195519624 Z" id="Fill-1" transform="translate(6.000000, 6.500000) scale(-1, 1) translate(-6.000000, -6.500000) "></path>
            </g>
        </g>
    </g>
</svg>