<?xml version="1.0" encoding="UTF-8"?>
<svg width="213px" height="215px" viewBox="0 0 213 215" version="1.1" xmlns="http://www.w3.org/2000/svg" xmlns:xlink="http://www.w3.org/1999/xlink">
    <!-- Generator: Sketch 58 (84663) - https://sketch.com -->
    <title>Icon 1</title>
    <desc>Created with Sketch.</desc>
    <g id="Page-2" stroke="none" stroke-width="1" fill="none" fill-rule="evenodd">
        <g id="DeepDive-+-Valuation" transform="translate(-307.000000, -877.000000)" fill="#2F5496" stroke="#2F5496">
            <g id="Icon-1" transform="translate(307.000000, 878.000000)">
                <path d="M109.5,95.172067 C109.5,77.4386508 95.9812093,62.651397 78.3733353,61.1279061 C60.7671787,59.6044153 44.924772,71.850507 41.9004219,89.323689 C38.8742684,106.795148 49.671612,123.687111 66.7591196,128.212344 L66.7591196,138.871179 L54.4068597,138.871179 C44.8663811,138.871179 42.5063137,145.982813 41.2375988,149.804035 C41.0317278,150.489089 40.7806897,151.161217 40.4827671,151.814388 C37.5904835,153.59639 34.9526728,154.463263 32.4202663,154.463263 L29.1162407,154.463263 L29.1162407,148.402906 C29.1162407,146.978942 27.964694,145.823398 26.5453648,145.823398 L3.07087582,145.823398 C1.64987218,145.823398 0.5,146.978942 0.5,148.402906 L0.5,208.683381 C0.5,210.107689 1.64987218,211.263276 3.07087582,211.263276 L26.5453648,211.263276 C27.964694,211.263276 29.1162407,210.107689 29.1162407,208.683381 L29.1162407,203.615921 L31.9633142,203.615921 C38.2934933,203.615921 44.498003,205.389607 49.8759803,208.738831 C56.1959409,212.674185 63.2376307,213 70.5,213 L89.6092979,213 C92.9903909,213.003399 96.0949857,211.123896 97.6685357,208.120688 C99.2399389,205.117524 99.022261,201.486179 97.1026588,198.692926 C99.6199094,197.266936 101.313676,194.725645 101.66531,191.845058 C102.015226,188.964514 100.980934,186.088969 98.8784303,184.096927 C100.682968,182.353486 101.710391,179.954979 101.73057,177.440573 C101.752467,174.927847 100.763256,172.512537 98.9892014,170.73885 C101.320546,168.54349 102.262958,165.239721 101.437757,162.139313 C100.614273,159.036752 98.1588479,156.641648 95.0473836,155.902738 C99.6435234,153.613193 102.470332,148.470119 102.470332,141.704889 L102.470332,141.451118 C102.470332,140.026723 101.318828,138.871179 99.8994131,138.871179 L84.1394407,138.871179 L84.1394407,128.212344 C99.0574673,124.211457 109.453201,110.670226 109.5,95.172067 Z M78.9976032,155.654137 L71.9009572,155.654137 L71.9009572,129.158063 C74.2610675,129.404941 76.6392102,129.404941 78.9976032,129.158063 L78.9976032,155.654137 Z M46.5399679,95.172067 C46.5416859,79.9263872 58.3014495,67.2834813 73.4573333,66.2339271 C88.6132171,65.183942 101.995047,76.0849154 104.083811,91.1849674 C106.174292,106.286312 96.2607129,120.433751 81.3929197,123.568196 C72.8682718,125.365277 63.9907021,123.208435 57.228516,117.699568 C50.4650419,112.19027 46.5382511,103.913182 46.5399679,95.172067 Z M23.974489,206.103485 L5.64179458,206.103485 L5.64179458,150.982845 L23.974489,150.982845 L23.974489,206.103485 Z M96.5887326,164.391374 C96.5870153,166.366828 94.991998,167.965718 93.0238799,167.969165 L87.3762738,167.969165 C87.250905,167.969165 87.1272536,167.979074 87.0031728,167.997601 L83.3644727,167.997601 C81.9450576,167.997601 80.7935539,169.153145 80.7935539,170.577583 C80.7935539,172.003615 81.9450576,173.157521 83.3644727,173.157521 L92.3978946,173.157521 C94.6957499,173.181003 96.5470862,175.058826 96.5470862,177.364958 C96.5470862,179.671091 94.6957499,181.547277 92.3978946,181.570758 L83.3644727,181.570758 C81.9450576,181.570758 80.7935539,182.726345 80.7935539,184.150697 C80.7935539,185.575006 81.9450576,186.730593 83.3644727,186.730593 L92.6018336,186.730593 C94.0362757,186.71547 95.3668163,187.474673 96.0885455,188.719274 C96.8115628,189.963874 96.8115628,191.500765 96.0885455,192.745365 C95.3668163,193.989966 94.0362757,194.74917 92.6018336,194.734047 L79.2839764,194.734047 C77.8645613,194.734047 76.7130576,195.889633 76.7130576,197.313942 C76.7130576,198.738294 77.8645613,199.893881 79.2839764,199.893881 L89.6110153,199.893881 C91.0351531,199.878758 92.3575362,200.632921 93.0741132,201.86912 C93.790261,203.103638 93.790261,204.630447 93.0741132,205.866646 C92.3575362,207.101165 91.0351531,207.855327 89.6110153,207.840427 L70.5000039,207.840427 C64.0108813,207.840427 57.7574692,207.573162 52.5872949,204.35496 C46.3944205,200.498538 39.2508471,198.454406 31.9633142,198.456087 L29.1162407,198.456087 L29.1162407,159.623141 L32.4219407,159.623141 C36.0004467,159.623141 39.5889564,158.462427 43.3951011,156.073786 C44.8882777,155.138407 45.4588774,153.421895 46.1183516,151.434808 C47.5562285,147.09958 48.993676,144.03278 54.4085771,144.03278 L66.760837,144.03278 L66.760837,152.976826 C66.3808666,151.700213 65.0936898,150.924249 63.791486,151.186207 C62.4909995,151.448165 61.602255,152.661011 61.7413629,153.986311 C62.1595451,157.874745 65.4320138,160.820477 69.3300384,160.815738 L93.0255972,160.815738 C94.991998,160.818753 96.5852979,162.418074 96.5887326,164.391374 Z M97.1662019,144.03278 C96.7145308,147.302942 95.0572585,152.051357 89.2593816,152.051357 L84.1394407,152.051357 L84.1394407,144.031056 L97.1662019,144.03278 Z" id="Fill-1"></path>
                <path d="M209.929182,84.822444 L186.453939,84.822444 C185.03458,84.822444 183.883121,85.9780033 183.883121,87.4024175 L183.883121,93.4624253 L180.57944,93.4624253 C178.047262,93.4624253 175.407751,92.5976947 172.515366,90.8135146 C172.21913,90.1620584 171.966685,89.4903519 171.760607,88.8031345 C170.493659,84.9835846 168.132354,77.8718542 158.592249,77.8718542 L146.241762,77.8718542 L146.241762,67.2111522 C162.786358,62.8289027 173.521283,46.8053201 171.320546,29.7752548 C169.118092,12.7451895 154.663895,0 137.552157,0 C120.440418,0 105.987939,12.7451895 103.785485,29.7752548 C101.584319,46.8053201 112.317956,62.8289027 128.86384,67.2111522 L128.86384,77.8701308 L113.102768,77.8701308 C111.683409,77.8701308 110.53195,79.0261209 110.53195,80.4501042 L110.53195,80.7021557 C110.53195,87.4679078 113.360365,92.6127747 117.955037,94.900196 C114.843265,95.6395471 112.387937,98.0364062 111.563197,101.136855 C110.739745,104.237304 111.679974,107.541549 114.013374,109.73849 C112.23896,111.510606 111.250217,113.927285 111.269966,116.440045 C111.291861,118.952804 112.319673,121.351387 114.123711,123.095066 C112.02172,125.08692 110.987038,127.962461 111.336941,130.843173 C111.688561,133.723885 113.380544,136.266805 115.899413,137.692942 C113.978169,140.484467 113.760499,144.117455 115.333987,147.120961 C116.907046,150.12576 120.011949,152.00516 123.39248,152 L142.502742,152 C149.765259,152 156.806244,151.674261 163.125956,147.740534 C168.503723,144.389757 174.707946,142.615918 181.037963,142.617641 L183.884839,142.617641 L183.884839,147.68323 C183.884839,149.109368 185.03458,150.263204 186.455657,150.263204 L209.929182,150.263204 C211.348541,150.263204 212.5,149.109368 212.5,147.68323 L212.5,87.4024175 C212.5,85.9780033 211.348541,84.822444 209.929182,84.822444 Z M137.552157,68.3417218 C138.737103,68.3417218 139.922049,68.2796783 141.100126,68.156884 L141.100126,94.6533148 L134.003758,94.6533148 L134.003758,68.156884 C135.183982,68.2796783 136.367211,68.3417218 137.552157,68.3417218 Z M108.644193,34.1708609 C108.645911,18.9245448 120.406931,6.2818993 135.56222,5.23190008 C150.717509,4.18233172 164.096668,15.0830212 166.185779,30.1832767 C168.276179,45.2835321 158.362988,59.4311621 143.497066,62.5669415 C134.972752,64.3640473 126.093814,62.2076065 119.332322,56.6982343 C112.568684,51.1888622 108.642476,42.9116627 108.644193,34.1708609 Z M128.862123,83.0300777 L128.862123,91.0487627 L123.742382,91.0487627 C117.944733,91.0487627 116.287955,86.3002845 115.835872,83.0300777 L128.862123,83.0300777 Z M181.036245,137.455971 C173.749256,137.454247 166.605662,139.498665 160.414748,143.354838 C155.244777,146.573342 148.99161,146.840277 142.501024,146.840277 L123.39248,146.840277 C121.968398,146.855553 120.646067,146.101122 119.929947,144.866716 C119.211681,143.630586 119.211681,142.103628 119.929947,140.869222 C120.646067,139.632662 121.968398,138.878661 123.39248,138.893741 L133.717826,138.893741 C135.138473,138.893741 136.288644,137.738182 136.288644,136.313768 C136.288644,134.889354 135.138473,133.733795 133.717826,133.733795 L120.401779,133.733795 C118.967393,133.748875 117.635187,132.989704 116.913916,131.745388 C116.192644,130.500641 116.192644,128.963773 116.913916,127.719027 C117.635187,126.47428 118.967393,125.715109 120.401779,125.730189 L129.63706,125.730189 C131.058137,125.730189 132.207878,124.57463 132.207878,123.150216 C132.207878,121.726233 131.058137,120.570673 129.63706,120.570673 L120.604422,120.570673 C118.306227,120.546976 116.455393,118.670593 116.455393,116.364645 C116.455393,114.058265 118.306227,112.180589 120.604422,112.156892 L129.63706,112.156892 C131.05642,112.156892 132.207878,111.003056 132.207878,109.57735 C132.207878,108.152935 131.05642,106.997376 129.63706,106.997376 L125.998503,106.997376 C125.874856,106.978849 125.75078,106.968509 125.627134,106.968509 L119.978461,106.968509 C118.025017,106.946966 116.451958,105.35107 116.451958,103.391101 C116.451958,101.4307 118.025017,99.8352354 119.978461,99.8132617 L143.672661,99.8132617 C147.569245,99.818432 150.842873,96.8722299 151.261468,92.9837428 C151.398424,91.6601492 150.509715,90.4459934 149.209279,90.1853247 C147.907126,89.9233635 146.621717,90.697614 146.240045,91.9742442 L146.240045,83.0300777 L158.592249,83.0300777 C164.008226,83.0300777 165.444329,86.0990741 166.883438,90.4326368 C167.542886,92.4193197 168.112175,94.1362861 169.60495,95.0734007 C173.410945,97.4616426 177.000989,98.6223722 180.57944,98.6223722 L183.883121,98.6223722 L183.883121,137.455971 L181.036245,137.455971 Z M207.358364,145.103688 L189.024757,145.103688 L189.024757,89.9823909 L207.358364,89.9823909 L207.358364,145.103688 Z" id="Fill-2"></path>
                <path d="M73.8619269,106.21288 L91.7286562,87.6028914 C92.3903391,86.9262624 92.6509628,85.9310615 92.4140321,84.9986775 C92.1771014,84.0662936 91.4770789,83.3367188 90.5819116,83.0903864 C89.6867443,82.8418105 88.7312674,83.1146158 88.0812157,83.8020134 L72.038422,100.514031 L64.9279161,93.1079053 C64.2795875,92.4133286 63.3223874,92.1369337 62.4220507,92.3837148 C61.523868,92.6300473 60.8216915,93.3614168 60.5851916,94.2991851 C60.3482609,95.2347099 60.6136233,96.2317056 61.2804755,96.9069885 L70.2144863,106.21288 C71.222088,107.262373 72.8543252,107.262373 73.8619269,106.21288 Z" id="Fill-3"></path>
                <path d="M144.238799,45.2199183 C145.220431,46.2259066 146.793469,46.2189326 147.767155,45.2046628 C148.73875,44.1917007 148.745442,42.5502138 147.780121,41.5294059 L140.555272,34.0001854 L147.780121,26.4709648 C148.745442,25.4497211 148.73875,23.8082342 147.767155,22.7957079 C146.793469,21.7810022 145.220431,21.7744642 144.238799,22.7804524 L137.01395,30.3092371 L129.789101,22.7804524 C129.157962,22.1109559 128.231956,21.8472545 127.362833,22.086983 C126.492455,22.3284551 125.814053,23.0350006 125.584016,23.9424822 C125.352724,24.8482203 125.60702,25.8132368 126.247779,26.4709648 L133.473882,34.0001854 L126.249452,41.5294059 C125.608693,42.1866981 125.353979,43.1521504 125.584016,44.0574527 C125.815726,44.9649343 126.49371,45.6719156 127.364506,45.9129518 C128.233629,46.1526804 129.159635,45.8894148 129.790774,45.2199183 L137.015623,37.6906977 L144.238799,45.2199183 Z" id="Fill-4"></path>
            </g>
        </g>
    </g>
</svg>