<?xml version="1.0" encoding="UTF-8"?>
<svg width="176px" height="176px" viewBox="0 0 176 176" version="1.1" xmlns="http://www.w3.org/2000/svg" xmlns:xlink="http://www.w3.org/1999/xlink">
    <!-- Generator: Sketch 58 (84663) - https://sketch.com -->
    <title>Group 4</title>
    <desc>Created with Sketch.</desc>
    <g id="Page-2" stroke="none" stroke-width="1" fill="none" fill-rule="evenodd">
        <g id="DeepDive-+-Valuation" transform="translate(-275.000000, -1868.000000)" fill="#2F5495" stroke="#2F5495" stroke-width="2">
            <g id="Group-4" transform="translate(275.923841, 1869.000000)">
                <path d="M147.597497,0 L26.5544661,0 C11.9533998,0 0.0761589404,11.877265 0.0761589404,26.4783611 L0.0761589404,109.695814 C0.0761589404,124.296556 11.9533998,136.173821 26.5544661,136.173821 L108.205754,136.173821 L144.919772,172.895361 C145.646031,173.614174 146.614494,174 147.597852,174 C148.081906,174 148.573762,173.90177 149.042923,173.712404 C150.457496,173.129764 151.380568,171.74533 151.380568,170.217276 L151.380568,135.90892 C164.19613,134.063126 174.076159,123.010351 174.076159,109.695459 L174.076159,26.4783611 C174.076159,11.877265 162.198209,0 147.597497,0 Z M166.510371,109.695459 C166.510371,120.128005 158.02222,128.608372 147.597497,128.608372 C145.509503,128.608372 143.814781,130.303098 143.814781,132.391096 L143.814781,161.085828 L112.449475,129.713011 C111.738464,129.009446 110.777448,128.608372 109.771395,128.608372 L26.5544661,128.608372 C16.129743,128.608372 7.64159219,120.127651 7.64159219,109.695459 L7.64159219,26.4783611 C7.64159219,16.0458152 16.129743,7.56544866 26.5544661,7.56544866 L147.597497,7.56544866 C158.02222,7.56544866 166.510371,16.0461698 166.510371,26.4783611 L166.510371,109.695459 Z" id="Fill-1"></path>
                <path d="M88.5761589,92 C82.2357058,92 77.0761589,97.1595469 77.0761589,103.5 C77.0761589,109.840453 82.2357058,115 88.5761589,115 C94.9166121,115 100.076159,109.840453 100.076159,103.5 C100.076159,97.1595469 94.9166121,92 88.5761589,92 Z M88.5761589,107.333453 C86.4601589,107.333453 84.7427058,105.608453 84.7427058,103.5 C84.7427058,101.391547 86.4601589,99.6665469 88.5761589,99.6665469 C90.6921589,99.6665469 92.4096121,101.391547 92.4096121,103.5 C92.4096121,105.608453 90.6921589,107.333453 88.5761589,107.333453 Z" id="Fill-2"></path>
                <path d="M99.9611125,26.5848968 C97.767734,24.3050051 94.667139,23 91.4506441,23 L83.6998833,23 C80.4833884,23 77.3907865,24.3050051 75.1970447,26.5848968 C73.0036662,28.8574057 71.8795461,31.9399177 72.1044428,35.1050473 L75.3830658,72.0575744 C75.8324959,78.1927156 81.1653449,83 87.575082,83 C93.9306841,83 99.2635331,78.192364 99.7053334,72.1173403 L103.046085,35.0523127 C103.278611,31.9476521 102.154491,28.8651401 99.9611125,26.5848968 Z M95.3262062,34.4599276 L91.9778252,71.5326896 C91.8150567,73.7601983 89.8774573,75.5000879 87.5133172,75.5000879 C85.2036755,75.5000879 83.2737059,73.7601983 83.1029443,71.4725722 L79.831951,34.520045 C79.7545633,33.4625409 80.1186125,32.4574198 80.8626972,31.6924168 C81.6067818,30.9274138 82.6142754,30.4999121 83.69952,30.4999121 L91.4506441,30.4999121 C92.5358887,30.4999121 93.5433822,30.9274138 94.2874669,31.6924168 C95.0315516,32.4574198 95.3959641,33.4625409 95.3262062,34.4599276 Z" id="Fill-3"></path>
            </g>
        </g>
    </g>
</svg>