<?xml version="1.0" encoding="UTF-8"?>
<svg width="171px" height="200px" viewBox="0 0 171 200" version="1.1" xmlns="http://www.w3.org/2000/svg" xmlns:xlink="http://www.w3.org/1999/xlink">
    <!-- Generator: Sketch 58 (84663) - https://sketch.com -->
    <title>Brujula</title>
    <desc>Created with Sketch.</desc>
    <g id="Page-2" stroke="none" stroke-width="1" fill="none" fill-rule="evenodd">
        <g id="DeepDive-+-Valuation" transform="translate(-903.000000, -1360.000000)" fill="#2F5496">
            <g id="Brujula" transform="translate(903.000000, 1360.000000)">
                <path d="M85.1505846,52.5862069 C50.6880261,52.5862069 22.6505846,80.6236484 22.6505846,115.086207 C22.6505846,149.548765 50.6880261,177.586207 85.1505846,177.586207 C119.613143,177.586207 147.650585,149.548765 147.650585,115.086207 C147.650585,80.6236484 119.613143,52.5862069 85.1505846,52.5862069 Z M89.1989465,169.339717 L89.1989465,164.123258 C89.1989465,161.887299 87.386544,160.074896 85.1505846,160.074896 C82.9146251,160.074896 81.1022226,161.887299 81.1022226,164.123258 L81.1022226,169.339717 C54.3241415,167.360388 32.8764036,145.91304 30.8970744,119.134959 L36.1135331,119.134959 C38.3494925,119.134959 40.161895,117.322166 40.161895,115.086597 C40.161895,112.850637 38.3494925,111.038235 36.1135331,111.038235 L30.8970744,111.038235 C32.8764036,84.2597638 54.3237515,62.8124159 81.1022226,60.8330868 L81.1022226,66.0495454 C81.1022226,68.2851149 82.9146251,70.0979074 85.1505846,70.0979074 C87.386544,70.0979074 89.1989465,68.2851149 89.1989465,66.0495454 L89.1989465,60.8330868 C115.977028,62.8124159 137.424766,84.2597638 139.404095,111.038235 L134.187636,111.038235 C131.951677,111.038235 130.139274,112.850637 130.139274,115.086597 C130.139274,117.322166 131.951677,119.134959 134.187636,119.134959 L139.404095,119.134959 C137.424376,145.91265 115.977028,167.360388 89.1989465,169.339717 Z" id="Fill-1"></path>
                <path d="M89.6290202,29.1190838 L89.6290202,23.8515159 L96.1316132,23.8515159 C98.3672573,23.8515159 100.179404,22.0362851 100.179404,19.7968363 L100.179404,4.05467958 C100.179404,1.81523083 98.3672573,0 96.1316132,0 L75.0288952,0 C72.7932511,0 70.9811042,1.81523083 70.9811042,4.05467958 L70.9811042,19.7968363 C70.9811042,22.0362851 72.7932511,23.8515159 75.0288952,23.8515159 L81.534218,23.8515159 L81.534218,29.1190838 C36.3471432,31.2432984 0.236791476,68.7303345 0.236791476,114.509933 C0.236791476,161.649294 38.5219535,200 85.5816191,200 C132.641285,200 170.926447,161.649294 170.926447,114.509933 C170.926447,68.7303345 134.815705,31.2432984 89.6290202,29.1190838 Z M79.0762963,15.7425474 L79.0762963,8.10935916 L92.0838221,8.10935916 L92.0838221,15.7425474 L79.0762963,15.7425474 Z M85.5812291,191.464079 C43.2205888,191.464079 8.75782059,156.942662 8.75782059,114.509933 C8.75782059,72.077203 43.2205888,37.5561766 85.5812291,37.5561766 C127.941869,37.5561766 162.404638,72.0775936 162.404638,114.510323 C162.404638,156.943053 127.942259,191.464079 85.5812291,191.464079 Z" id="Fill-2"></path>
                <path d="M115.411959,83.9631047 C114.200073,82.7512037 112.364026,82.418129 110.803623,83.1270514 L73.1915869,100.223568 C73.1602997,100.237825 73.1309926,100.255251 73.0997053,100.270301 C73.0371308,100.300401 72.9745563,100.331688 72.9131699,100.365352 C72.8577242,100.395452 72.8046546,100.428323 72.750793,100.461591 C72.6957433,100.495255 72.6402975,100.528127 72.5864359,100.564959 C72.5226733,100.608128 72.4616829,100.654862 72.4002965,100.701595 C72.3595043,100.732883 72.3175239,100.76219 72.2779198,100.795062 C72.0751467,100.96259 71.8890073,101.148731 71.7214818,101.351507 C71.6882144,101.3923 71.6585113,101.434677 71.626828,101.475865 C71.5804912,101.53646 71.5341543,101.596659 71.4917779,101.659631 C71.4545501,101.714285 71.4208865,101.770524 71.386431,101.826762 C71.3543516,101.87904 71.3222723,101.931318 71.2925692,101.985577 C71.2581136,102.048152 71.2268263,102.111519 71.1955391,102.175679 C71.1808856,102.205778 71.1638558,102.23469 71.1499943,102.265185 L54.0536862,139.877679 C53.3443764,141.437705 53.6778431,143.27417 54.8893332,144.485279 C55.6770593,145.273411 56.7289448,145.689655 57.797068,145.689655 C58.3717238,145.689655 58.9511322,145.568861 59.497273,145.320936 L97.1093093,128.22442 C97.1405965,128.210162 97.1695075,128.192736 97.2000027,128.178083 C97.2629733,128.147191 97.3259438,128.116299 97.3877263,128.082636 C97.442776,128.052536 97.4954495,128.02006 97.548519,127.987585 C97.6039648,127.953921 97.6598066,127.920653 97.7136682,127.883424 C97.7766388,127.840651 97.8376291,127.794314 97.8978274,127.747977 C97.9394117,127.716293 97.9817881,127.686589 98.0221843,127.653322 C98.2245614,127.48619 98.4107008,127.300049 98.5778302,127.097669 C98.6122858,127.056084 98.643177,127.012123 98.6756524,126.969746 C98.7208011,126.910339 98.7659498,126.851724 98.8079301,126.789941 C98.8455541,126.734495 98.8796136,126.67786 98.9144652,126.621226 C98.9461485,126.569344 98.9782279,126.517858 99.0075349,126.463995 C99.0419905,126.40142 99.0736738,126.337261 99.1049611,126.273101 C99.1196146,126.243398 99.1366444,126.214486 99.1505058,126.183991 L116.246814,88.5714966 C116.956916,87.0106791 116.623845,85.1746096 115.411959,83.9631047 Z M66.0739338,133.300146 L76.179718,111.067309 L88.3065007,123.194239 L66.0739338,133.300146 Z M94.1203861,117.381075 L81.9936034,105.254145 L104.22617,95.1482374 L94.1203861,117.381075 Z" id="Fill-3"></path>
            </g>
        </g>
    </g>
</svg>