<?xml version="1.0" encoding="UTF-8"?>
<svg width="200px" height="178px" viewBox="0 0 200 178" version="1.1" xmlns="http://www.w3.org/2000/svg" xmlns:xlink="http://www.w3.org/1999/xlink">
    <!-- Generator: Sketch 58 (84663) - https://sketch.com -->
    <title>Group 4</title>
    <desc>Created with Sketch.</desc>
    <g id="Page-2" stroke="none" stroke-width="1" fill="none" fill-rule="evenodd">
        <g id="Due-Diligence" transform="translate(-261.000000, -894.000000)" fill="#2F5496">
            <g id="Group-4" transform="translate(261.000000, 895.000000)">
                <path d="M103.044813,73.7015327 C102.630289,73.6116238 102.204725,73.5950253 101.785141,73.658192 C97.5768796,73.1671514 94.4023961,69.5993838 94.395495,65.3547639 C94.395495,63.3209796 92.7498244,61.6717286 90.7199952,61.6717286 C88.690626,61.6717286 87.0449554,63.3209796 87.0449554,65.3547639 C87.0559971,72.4423477 91.7859775,78.6506691 98.6051363,80.526306 L98.6051363,84.2093413 C98.6051363,86.2435867 100.250807,87.8923767 102.280176,87.8923767 C104.310005,87.8923767 105.955216,86.2435867 105.955216,84.2093413 L105.955216,80.7494644 C113.826095,79.098369 119.17533,71.7516633 118.348124,63.7364046 C117.519077,55.7211459 110.780891,49.6299366 102.739786,49.6280923 C98.1312641,49.6280923 94.395495,45.8837345 94.395495,41.2651861 C94.395495,36.6470987 98.1312641,32.9027409 102.739786,32.9027409 C107.347848,32.9027409 111.084077,36.6470987 111.084077,41.2651861 C111.084077,43.2994314 112.729748,44.9486825 114.759117,44.9486825 C116.788946,44.9486825 118.434617,43.2994314 118.434617,41.2651861 C118.423575,33.8234997 113.221563,27.40493 105.955216,25.8691024 L105.955216,22.5171161 C105.955216,20.4828707 104.310005,18.8340807 102.280176,18.8340807 C100.250807,18.8340807 98.6051363,20.4828707 98.6051363,22.5171161 L98.6051363,26.0941051 C91.0218011,28.1693858 86.1404576,35.5483664 87.1848167,43.3570653 C88.2291758,51.1657642 94.8781085,56.994163 102.739786,56.9923187 C107.287119,56.9923187 110.996204,60.6412348 111.078556,65.1966166 C111.163209,69.7519983 107.588465,73.5360082 103.044813,73.7015327 Z" id="Fill-1"></path>
                <path d="M48.5915674,53.7556054 C48.5915674,83.4444665 72.6583117,107.511211 102.347173,107.511211 C132.036034,107.511211 156.102778,83.4444665 156.102778,53.7556054 C156.102778,24.0667442 132.036034,0 102.347173,0 C72.6726976,0.032948436 48.6259081,24.0815942 48.5915674,53.7556054 Z M102.347173,7.41432623 C127.941611,7.41432623 148.688452,28.1611675 148.688452,53.7556054 C148.688452,79.3500433 127.941611,100.097349 102.347173,100.097349 C76.7527349,100.097349 56.0054296,79.3500433 56.0054296,53.7556054 C56.0346655,28.1741612 76.7652646,7.4430981 102.347173,7.41432623 Z" id="Fill-2" stroke="#2F5496"></path>
                <path d="M174.126945,116.744575 L145.170448,130.424268 C141.172826,122.988633 133.503815,118.25666 125.063877,118.018373 L98.333165,117.284077 C94.1004706,117.163314 89.9473678,116.091251 86.183893,114.147473 L83.4638999,112.738107 C69.5372387,105.47936 52.9373212,105.497405 39.0251901,112.784839 L39.194831,106.623603 C39.2507765,104.582196 37.6426117,102.882258 35.6012749,102.826272 L6.28939205,102.019333 C4.24800895,101.96381 2.54960968,103.571672 2.49361799,105.612616 L0.721612288,169.92993 C0.667039381,171.971059 2.27525038,173.671137 4.31658721,173.727076 L33.6284701,174.533784 L33.7295327,174.533784 C35.7330173,174.533784 37.3718618,172.940219 37.4260488,170.938789 L37.5108693,167.861687 L45.1257859,163.784796 C48.1146317,162.176795 51.6092538,161.794193 54.8743561,162.718194 L100.347478,175.479484 C100.426607,175.502943 100.506198,175.520988 100.587178,175.539033 C103.874029,176.226643 107.223813,176.57135 110.581001,176.569507 C117.692409,176.573155 124.720986,175.040943 131.184093,172.073963 C131.343276,172.001736 131.496443,171.916924 131.64267,171.821285 L197.574508,129.179019 C199.21724,128.11621 199.747541,125.959593 198.785502,124.25549 C193.890625,115.571183 183.034252,112.263382 174.126945,116.744575 Z M8.21522866,166.43955 L9.7818855,109.510815 L31.7026334,110.113705 L30.1359766,167.044153 L8.21522866,166.43955 Z M127.854207,165.472242 C119.824258,169.096155 110.855406,170.095945 102.224356,168.33271 L56.8738612,155.603947 C51.769825,154.16196 46.3062388,154.759298 41.6369018,157.269692 L37.7454791,159.354176 L38.7869246,121.503385 C51.1182853,113.302593 66.9329308,112.460027 80.065528,119.301886 L82.7855212,120.711253 C87.5397249,123.165845 92.7830462,124.519226 98.1309471,124.674228 L124.86351,125.408987 C132.37195,125.625528 138.748525,130.971126 140.271869,138.327223 L100.453908,137.22814 C98.4122938,137.1722 96.7140333,138.782005 96.6561907,140.821376 C96.600199,142.862506 98.2100758,144.562583 100.249839,144.618522 L144.192213,145.827681 L144.295404,145.827681 C146.29676,145.825877 147.933939,144.232312 147.988079,142.23264 C148.033428,140.626443 147.914041,139.018442 147.630843,137.437462 L177.330503,123.405521 C177.359656,123.393028 177.388346,123.378685 177.417499,123.364341 C181.629832,121.232709 186.723225,121.945721 190.188695,125.152654 L127.854207,165.472242 Z" id="Fill-3"></path>
            </g>
        </g>
    </g>
</svg>