<?xml version="1.0" encoding="UTF-8"?>
<svg width="207px" height="206px" viewBox="0 0 207 206" version="1.1" xmlns="http://www.w3.org/2000/svg" xmlns:xlink="http://www.w3.org/1999/xlink">
    <!-- Generator: Sketch 58 (84663) - https://sketch.com -->
    <title>Group 3</title>
    <desc>Created with Sketch.</desc>
    <g id="Page-2" stroke="none" stroke-width="1" fill="none" fill-rule="evenodd">
        <g id="Due-Diligence" transform="translate(-982.000000, -1421.000000)" fill="#2F5496">
            <g id="Group-3" transform="translate(982.000000, 1421.000000)">
                <path d="M201.346673,178.202576 L147.739413,124.59559 C156.472718,111.441073 161.072687,96.207825 161.072687,80.32206 C161.072687,36.0326283 125.040058,0 80.7500782,0 C36.4605917,0 0.428018242,36.0326283 0.428018242,80.32206 C0.428018242,124.61204 36.4605917,160.644504 80.7500782,160.644504 C96.6363916,160.644504 111.86964,156.044097 125.023608,147.311943 L139.84122,162.129281 C139.842865,162.13131 139.845058,162.133284 139.847252,162.135696 L178.63032,200.91849 C181.665345,203.953516 185.698885,205.625 189.988497,205.625 C194.278108,205.625 198.311648,203.953516 201.345577,200.919697 C204.38115,197.886372 206.053018,193.852558 206.053018,189.560533 C206.053018,185.268509 204.38115,181.234749 201.346673,178.202576 Z M123.1346,138.84787 C123.1346,138.848418 123.1346,138.848418 123.134052,138.848418 C110.737332,147.8526 96.0820266,152.612298 80.7500782,152.612298 C40.8895349,152.612298 8.46022424,120.183152 8.46022424,80.32206 C8.46022424,40.4615167 40.8895349,8.03198667 80.7500782,8.03198667 C120.61117,8.03198667 153.040152,40.4615167 153.040152,80.32206 C153.040152,95.6540083 148.280618,110.309313 139.276437,122.706582 C134.77133,128.912618 129.340637,134.343312 123.1346,138.84787 Z M131.56029,142.488803 C135.717205,139.088588 139.516607,135.288638 142.916822,131.132272 L154.311188,142.526638 C150.845722,146.616108 147.044127,150.418252 142.954657,153.883005 L131.56029,142.488803 Z M195.667037,195.238909 C194.148702,196.757024 192.13248,197.592794 189.988497,197.592794 C187.844513,197.592794 185.828292,196.757024 184.309957,195.238909 L148.649098,159.577831 C152.716087,156.08747 156.515488,152.288617 160.00563,148.221628 L195.667585,183.883748 C197.184823,185.399451 198.021032,187.415124 198.021032,189.560533 C198.021032,191.705942 197.184823,193.721616 195.667037,195.238909 Z" id="Fill-1"></path>
                <path d="M135.064999,49.2361544 C134.447762,48.7642034 133.656686,48.6488253 132.946479,48.9339739 L114.073439,56.3923389 C111.733219,57.3159125 109.870506,59.1784435 108.828024,61.6348965 C108.632731,62.0953098 108.504552,62.5738538 108.375824,63.0518485 C105.135054,62.0508068 99.1123173,59.9597175 93.1264384,56.6088101 C84.0818805,51.5442643 77.1717965,54.0457697 71.2453308,58.957577 C68.2422141,59.021859 64.1036453,59.4075512 60.0349421,59.7970894 C57.4394659,60.0459763 54.9866913,60.2750841 52.9977248,60.4069447 C52.9488739,59.1092166 52.6693569,57.8208287 52.1536174,56.6038653 C51.111411,54.1468628 49.2485325,52.2848813 46.9084229,51.3613077 L28.0345029,43.9023933 C27.3269908,43.6199918 26.5310741,43.7353698 25.9162026,44.2045738 C25.2965451,44.6765248 24.9280182,45.4451622 24.9280182,46.2659945 L24.9280182,96.5779548 C24.9280182,97.9685347 25.9635131,99.0937451 27.2432072,99.0937451 L34.0053084,99.0937451 C36.8813469,99.0937451 39.5570309,97.6196535 41.2866149,95.2395697 C42.2079594,96.0010647 43.2992367,96.8922226 44.4437108,97.8262351 C47.1454156,100.0349 50.1025971,102.444653 51.4002801,103.626453 C60.021189,111.467763 70.3843897,119.935961 72.4484479,121.410052 C74.3771761,122.785798 77.8495469,124.25 80.4906833,124.25 C81.5238126,124.25 84.1258903,124.25 85.9528459,122.572074 C87.8359139,123.375325 89.8664147,123.336316 91.7538837,122.431972 C93.6375019,121.530375 95.1613402,119.830472 96.0475869,117.764107 C97.8558384,118.166831 99.9336497,117.872342 101.816718,116.845478 C103.58261,115.884544 104.882548,114.430231 105.579003,112.730329 C107.251924,112.897352 109.038171,112.305628 110.636276,110.976033 C112.920383,109.079438 113.965615,106.27795 113.670199,103.514372 L119.542753,99.9843536 C121.262435,102.517176 123.995992,104.124776 126.975453,104.124776 L133.737554,104.124776 C135.017138,104.124776 136.053018,102.999566 136.053018,101.608986 L136.053018,51.2970257 C136.053018,50.4767429 135.684436,49.7075561 135.064999,49.2361544 Z M38.3415911,90.7975159 C37.6679115,92.750701 35.9248496,94.0627139 34.0053084,94.0627139 L29.5581761,94.0627139 L29.5581761,49.8575475 L45.3253365,56.0874113 C46.4964915,56.5522199 47.4280133,57.4829359 47.9478237,58.7114372 C48.4699996,59.939389 48.5153847,61.315684 48.0789178,62.5804469 L38.3415911,90.7975159 Z M107.826252,106.979558 C107.041778,107.633367 105.943184,107.997083 105.454675,107.466344 C105.42992,107.439422 105.391411,107.44162 105.365556,107.415797 C105.321546,107.371294 105.299541,107.310858 105.25168,107.269652 C103.596363,105.849403 96.1807165,97.6053686 91.5981992,92.4117093 C90.7141529,91.4068217 89.2469772,91.3700106 88.3266229,92.3353401 C87.4024177,93.2962742 87.3705106,94.8879415 88.2567574,95.8906314 C89.3322461,97.110342 97.9669631,106.882311 101.42283,110.299698 C101.164823,111.40458 100.222464,112.086409 99.7438575,112.347383 C98.2607283,113.155579 96.714335,113.020422 96.1356065,112.43584 C96.1185527,112.418258 96.092697,112.419357 96.0750931,112.402325 C96.0470368,112.374854 96.034384,112.336395 96.0041273,112.310572 C93.228211,109.90082 86.2625646,101.857323 84.6864648,99.995342 C83.8205725,98.9706752 82.3577978,98.9069426 81.4148885,99.8458999 C80.4747297,100.786506 80.4114657,102.378722 81.2773579,103.400642 C81.3532748,103.489648 88.1797403,111.491388 92.0135414,115.20766 C91.6367077,116.383966 90.8692874,117.358086 89.8840186,117.830587 C89.1573073,118.181665 88.020755,118.361325 86.7213665,117.318528 C83.3969785,114.255516 76.7250973,106.537825 75.4125059,105.012088 C74.5422127,103.994564 73.0728365,103.943468 72.1409296,104.891765 C71.2073724,105.840063 71.1578614,107.43173 72.0303551,108.446507 C73.5861004,110.255745 78.1845713,115.551596 81.6805974,119.137655 C81.2900107,119.1893 80.8796196,119.218969 80.4906833,119.218969 C78.9574929,119.218969 76.3235082,118.155293 74.9922126,117.204249 C73.3688022,116.044425 63.1766895,107.780611 54.3755056,99.7717284 C53.043935,98.5580614 50.0053905,96.0746869 47.2244131,93.8044869 C45.7340222,92.5886223 44.3608074,91.4678072 43.3487477,90.6217017 L52.016912,65.5011591 C54.2669666,65.3945718 57.2667275,65.1127198 60.4414823,64.8083415 C62.2370809,64.6363734 64.0343299,64.4688005 65.7523613,64.3237539 C63.1117751,67.2686405 59.1866537,72.5430644 59.7043187,77.4872874 C59.9419714,79.7377083 61.0746729,81.611777 62.9846969,82.9089556 C66.7673367,85.4813361 73.7692911,83.3243165 77.1420899,78.8163323 C79.3194733,78.4745936 80.7916001,77.870782 82.3963063,77.0059962 C85.1095087,79.776717 88.7469162,83.0347726 92.5680645,86.4565551 C99.2195911,92.4117093 106.759015,99.1624225 108.753208,102.94792 C109.863354,105.053844 108.324112,106.566944 107.826252,106.979558 Z M111.798134,98.8893612 C108.713599,94.4055515 102.026864,88.4069931 95.5112179,82.5727111 C91.1685538,78.6839223 87.0673933,75.0110553 84.4422105,72.1590204 C83.7187999,71.3777464 82.6086535,71.2008334 81.7136048,71.7194851 C79.3552312,73.0924836 78.2929454,73.6600336 75.6298042,73.9495775 C74.9195965,74.0281444 74.2820049,74.4561419 73.9024207,75.111599 C72.0870176,78.2416399 67.0407474,79.7300164 65.439892,78.6443641 C64.5310902,78.0251688 64.3550511,77.3966332 64.30499,76.9175397 C64.0810903,74.7775521 66.075283,71.0728188 69.3831674,67.476321 C77.5739358,58.5757306 83.4294357,56.8340719 91.0057176,61.0794337 C98.2035156,65.1121703 105.307793,67.3922598 108.290005,68.2531997 C108.375824,68.6301012 108.438538,69.0108487 108.565616,69.3806078 L117.554612,95.4291194 L111.798134,98.8893612 Z M131.42264,99.0937451 L126.975453,99.0937451 C125.056077,99.0937451 123.31329,97.7817322 122.63939,95.8290965 L112.901679,67.6142252 C112.465432,66.3467152 112.510542,64.9709696 113.033158,63.7424684 C113.553023,62.5139672 114.48438,61.5832511 115.65559,61.1189919 L131.42264,54.8885787 L131.42264,99.0937451 Z" id="Fill-2"></path>
            </g>
        </g>
    </g>
</svg>