<?xml version="1.0" encoding="UTF-8"?>
<svg width="169px" height="195px" viewBox="0 0 169 195" version="1.1" xmlns="http://www.w3.org/2000/svg" xmlns:xlink="http://www.w3.org/1999/xlink">
    <!-- Generator: Sketch 58 (84663) - https://sketch.com -->
    <title>Group 6</title>
    <desc>Created with Sketch.</desc>
    <g id="Page-2" stroke="none" stroke-width="1" fill="none" fill-rule="evenodd">
        <g id="Due-Diligence" transform="translate(-267.000000, -1928.000000)" fill="#2F5496">
            <g id="Group-6" transform="translate(266.500000, 1928.750000)">
                <path d="M85.2784324,14.875 C83.0957161,14.875 81.3409324,16.4376747 81.3409324,18.3752511 C81.3409324,20.1786338 82.8670894,21.679292 84.8842741,21.8572827 C87.2195319,22.0633035 89.2159324,20.4463206 89.2159324,18.3752511 C89.2159324,16.4348717 87.4578084,14.875 85.2784324,14.875 Z" id="Fill-1"></path>
                <path d="M164.840735,22.6611328 C153.812696,22.6611328 144.840879,14.189646 144.840879,3.77685547 C144.840879,1.69127588 143.049453,0 140.840681,0 L28.8409198,0 C26.6321103,0 24.8409109,1.69127588 24.8409109,3.77685547 C24.8409109,14.189646 15.8689052,22.6611328 4.84093238,22.6611328 C2.63213184,22.6611328 0.840932377,24.3524087 0.840932377,26.4379883 L0.840932377,88.0724927 C0.840932377,136.105407 33.9989143,179.145697 83.6920998,193.215994 C84.0668829,193.321746 84.4537193,193.375 84.8409324,193.375 C85.2281454,193.375 85.6157352,193.321746 85.9901416,193.215617 C134.606852,179.445579 168.840932,137.156129 168.840932,88.0724927 L168.840932,26.4379883 C168.840932,24.3524087 167.049507,22.6611328 164.840735,22.6611328 Z M160.840913,88.0724927 C160.840913,133.186276 130.352405,172.25558 84.8409324,185.648687 C39.6921895,172.362465 8.84091265,132.93927 8.84091265,88.0724927 L8.84091265,29.9459316 C21.0853207,28.2848706 30.7969108,19.1150432 32.5560936,7.55371094 L137.12562,7.55371094 C138.884653,19.1150432 148.596619,28.2848706 160.840913,29.9459316 L160.840913,88.0724927 Z" id="Fill-2"></path>
                <path d="M150.686904,34.7451355 C142.31458,31.2878304 135.684316,25.0360626 132.017596,17.1417627 C131.377555,15.7645946 129.934912,14.875 128.340291,14.875 L100.891498,14.875 C98.6746048,14.875 96.8769708,16.5701508 96.8769708,18.6605088 C96.8769708,20.7508667 98.6746048,22.4460175 100.891498,22.4460175 L125.801677,22.4460175 C130.043412,30.2748282 136.758738,36.6064702 145.061501,40.6062388 L145.061501,88.0072439 C145.061501,125.053368 121.475635,157.018204 84.8409513,169.813603 C48.2062671,157.017826 24.6203264,125.053368 24.6203264,88.0072439 L24.6203264,40.6062388 C32.923127,36.6064702 39.6381122,30.2748282 43.880226,22.4460175 L68.7900268,22.4460175 C71.0069197,22.4460175 72.8049317,20.7508667 72.8049317,18.6605088 C72.8049317,16.5701508 71.0069197,14.875 68.7900268,14.875 L41.3416114,14.875 C39.746991,14.875 38.3040447,15.7649731 37.6641173,17.1417627 C33.9974732,25.0360626 27.3672094,31.2878304 18.9949229,34.7451355 C17.5347753,35.3485456 16.5909324,36.709436 16.5909324,38.2126616 L16.5909324,88.0072439 C16.5909324,128.592819 43.2129654,163.964613 83.5015155,177.40809 C83.9347623,177.552697 84.3876678,177.625 84.8409513,177.625 C85.2942348,177.625 85.7471403,177.552697 86.1803871,177.40809 C126.435291,163.97597 153.090932,128.625753 153.090932,88.0072439 L153.090932,38.2126616 C153.090932,36.7090575 152.146938,35.3485456 150.686904,34.7451355 Z" id="Fill-3"></path>
                <path d="M85.2784324,46.375 C60.9133693,46.375 41.0909324,66.197437 41.0909324,90.5625 C41.0909324,114.927563 60.9133693,134.75 85.2784324,134.75 C109.643495,134.75 129.465932,114.927563 129.465932,90.5625 C129.465932,66.197437 109.643495,46.375 85.2784324,46.375 Z M85.2784324,124.930556 C66.3276599,124.930556 50.9103768,109.512895 50.9103768,90.5625 C50.9103768,71.6121052 66.3276599,56.1944444 85.2784324,56.1944444 C104.228827,56.1944444 119.646488,71.6121052 119.646488,90.5625 C119.646488,109.512895 104.228827,124.930556 85.2784324,124.930556 Z" id="Fill-4"></path>
                <path d="M105.292384,74.0889383 C103.393571,72.1370206 100.316508,72.1370206 98.417321,74.0889383 L77.5494527,95.5534947 L71.2648242,89.0896663 C69.3660115,87.1377486 66.2889479,87.1377486 64.3897614,89.0896663 C62.4913227,91.0419686 62.4913227,94.2081138 64.3897614,96.1611853 L74.1119213,106.161158 C75.0617015,107.13654 76.3050162,107.625 77.5494527,107.625 C78.7938891,107.625 80.0375778,107.13654 80.9869841,106.160389 L105.292384,81.1604573 C107.190449,79.208155 107.190449,76.0420098 105.292384,74.0889383 Z" id="Fill-5"></path>
            </g>
        </g>
    </g>
</svg>