<?xml version="1.0" encoding="UTF-8"?>
<svg width="156px" height="204px" viewBox="0 0 156 204" version="1.1" xmlns="http://www.w3.org/2000/svg" xmlns:xlink="http://www.w3.org/1999/xlink">
    <!-- Generator: Sketch 58 (84663) - https://sketch.com -->
    <title>Group 5</title>
    <desc>Created with Sketch.</desc>
    <g id="Page-2" stroke="none" stroke-width="1" fill="none" fill-rule="evenodd">
        <g id="Finantial-Modeling" transform="translate(-283.000000, -848.000000)" fill="#2F5496">
            <g id="Group-5" transform="translate(283.000000, 848.000000)">
                <path d="M134.899211,134.659713 L134.899211,113.435942 L125.951529,116.920595 L125.925327,116.861872 L125.711731,116.474181 C122.282802,111.130325 116.737848,107.412487 110.493438,106.279633 L88.9618143,102.357688 L88.9618143,100.656411 C97.0141016,95.9761893 102.910493,87.9920468 104.747988,78.5529248 C110.7133,77.3180168 115.211918,72.0197708 115.211918,65.6878737 L115.211918,33.2478761 C115.211918,24.0812777 109.21357,16.0868727 100.511951,13.485926 L98.8709635,11.8433728 C91.2390332,4.20416075 81.0935044,0 70.3014913,0 C48.0247874,0 29.8991382,18.1399217 29.8991382,40.440674 L29.8991382,65.6878737 C29.8991382,72.0197708 34.3977564,77.3180168 40.3630677,78.5529248 C42.2038671,87.9920468 48.0970114,95.9796101 56.1491848,100.656411 L56.1491848,102.357688 L34.6208646,106.276212 C28.3832326,107.409066 22.8411833,111.120632 19.4090076,116.461068 L19.2121005,116.94055 L10.2116175,113.435942 L10.2116175,134.659713 C4.78445444,134.659713 0.367857143,139.080525 0.367857143,144.512752 L0.367857143,157.650555 C0.367857143,163.082896 4.78445444,167.503707 10.2116175,167.503707 L10.2116175,179.603412 L72.5553571,203.875 L134.899211,179.603412 L134.899211,167.503707 C140.32626,167.503707 144.742857,163.082896 144.742857,157.650555 L144.742857,144.512752 C144.742857,139.080525 140.32626,134.659713 134.899211,134.659713 Z M95.1111029,110.154827 L109.318944,112.73981 C113.50201,113.502078 117.20662,115.918872 119.6775,119.361335 L87.9314268,131.717257 L95.1111029,110.154827 Z M62.9908096,103.668424 C66.0193172,104.59432 69.2283846,105.100598 72.5553571,105.100598 C75.8828992,105.100598 79.0919667,104.59432 82.1204743,103.668424 L72.5553571,110.848109 L62.9908096,103.668424 Z M67.5611961,115.308259 L60.8645318,122.008462 L56.5199876,108.9661 L58.6100964,108.588101 L67.5611961,115.308259 Z M86.5006179,108.591522 L88.5910115,108.96952 L84.2467521,122.011883 L77.5495182,115.31168 L86.5006179,108.591522 Z M105.368271,71.343593 L105.368271,60.0321543 C107.320255,61.1718502 108.649107,63.267089 108.649107,65.6878737 C108.649107,68.1080883 107.320255,70.2038972 105.368271,71.343593 Z M39.7428986,71.343593 C37.7905735,70.2038972 36.4616641,68.1080883 36.4616641,65.6878737 C36.4616641,63.267089 37.7905735,61.1718502 39.7428986,60.0321543 L39.7428986,71.343593 Z M39.7428986,49.2657627 L39.7428986,53.0166677 C38.5747843,53.322259 37.4788371,53.7817862 36.4616641,54.3764349 L36.4616641,40.440674 C36.4616641,21.7653974 51.6407697,6.5685023 70.3014913,6.5685023 C79.3380294,6.5685023 87.8397229,10.0930645 94.2316567,16.491097 L97.1257411,19.3907935 L98.0080353,19.6080142 C104.275229,21.1741695 108.649107,26.7842782 108.649107,33.2478761 L108.649107,54.3764349 C107.63182,53.7817862 106.53593,53.3188382 105.368271,53.0166677 L105.368271,49.2657627 L94.9630097,49.2657627 C86.0711473,49.2657627 77.5723018,45.0159913 72.2403741,37.898451 L69.631654,34.4103773 L63.1121322,40.9401105 C57.7437507,46.3096231 50.6104392,49.2657627 43.02419,49.2657627 L39.7428986,49.2657627 Z M46.3054245,72.256376 L46.3054245,55.6837499 C54.4068674,54.9311744 61.9239684,51.4140239 67.751439,45.5838438 L69.0278891,44.3061758 C75.6072179,51.5748014 85.0834791,55.8348352 94.9630097,55.8348352 L98.8054607,55.8348352 L98.8054607,72.256376 C98.8054607,86.7440257 87.029197,98.5315255 72.5553571,98.5315255 C58.0820869,98.5315255 46.3054245,86.7440257 46.3054245,72.256376 Z M35.7922825,112.73981 L50.000124,110.154827 L57.1795153,131.717257 L25.4267781,119.357914 C27.8976006,115.9126 31.6087043,113.502078 35.7922825,112.73981 Z M6.93038303,157.650555 L6.93038303,144.512752 C6.93038303,142.700299 8.40362638,141.228786 10.2116175,141.228786 C15.6388375,141.228786 20.0553779,145.649597 20.0553779,151.081767 C20.0553779,156.514166 15.6388375,160.93492 10.2116175,160.93492 C8.40362638,160.93492 6.93038303,159.463521 6.93038303,157.650555 Z M69.2739518,195.545813 L16.7741434,175.113615 L16.7741434,166.1111 C22.5590087,163.568991 26.6179037,157.798333 26.6179037,151.081767 C26.6179037,144.365088 22.5590087,138.594771 16.7741434,136.052548 L16.7741434,123.039833 L69.2739518,143.47511 L69.2739518,195.545813 Z M59.5322619,132.636882 L72.5553571,119.59737 L85.579022,132.633461 L72.5553571,137.704224 L59.5322619,132.636882 Z M128.33697,175.110365 L75.8367625,195.542506 L75.8367625,143.47511 L128.33697,123.039833 L128.33697,136.052548 C122.552218,138.594771 118.493323,144.365088 118.493323,151.081767 C118.493323,157.798333 122.552218,163.568991 128.33697,166.1111 L128.33697,175.110365 Z M138.180616,157.650555 C138.180616,159.463521 136.707088,160.93492 134.899211,160.93492 C129.472162,160.93492 125.055564,156.514166 125.055564,151.081767 C125.055564,145.649597 129.472162,141.228786 134.899211,141.228786 C136.707088,141.228786 138.180616,142.700299 138.180616,144.512752 L138.180616,157.650555 Z" id="Fill-1"></path>
                <path d="M150.27502,103.298039 C149.360725,102.219441 147.718173,102.063561 146.605476,102.949736 L143.069574,105.768137 C141.957466,106.654312 141.796743,108.247942 142.710449,109.326539 C143.624744,110.405708 145.267885,110.561588 146.379993,109.674843 L149.915896,106.857013 C151.028004,105.970267 151.189315,104.377208 150.27502,103.298039 Z" id="Fill-2"></path>
                <path d="M139.35744,102.878407 L141.75311,99.0969417 C142.507131,97.9076958 142.054348,96.3886025 140.743007,95.705908 C139.431667,95.0220916 137.757233,95.4321571 137.003831,96.6219639 L134.607542,100.402868 C134.023625,101.324534 134.163418,102.443098 134.866099,103.218352 C135.070223,103.44386 135.322594,103.640198 135.617646,103.794463 C136.929604,104.477718 138.604038,104.067653 139.35744,102.878407 Z" id="Fill-3"></path>
                <path d="M155.115863,113.8554 C154.692978,112.426723 153.336939,111.661514 152.087701,112.144934 L148.115597,113.682751 C146.866359,114.16617 146.196431,115.716319 146.619856,117.14438 C146.714789,117.466249 146.857729,117.75482 147.035729,118.00208 C147.648481,118.854847 148.680344,119.229743 149.648018,118.854847 L153.619582,117.317646 C154.86936,116.83361 155.539288,115.284078 155.115863,113.8554 Z" id="Fill-4"></path>
            </g>
        </g>
    </g>
</svg>