<?xml version="1.0" encoding="UTF-8"?>
<svg width="200px" height="200px" viewBox="0 0 200 200" version="1.1" xmlns="http://www.w3.org/2000/svg" xmlns:xlink="http://www.w3.org/1999/xlink">
    <!-- Generator: Sketch 58 (84663) - https://sketch.com -->
    <title>Group 2</title>
    <desc>Created with Sketch.</desc>
    <g id="Page-2" stroke="none" stroke-width="1" fill="none" fill-rule="evenodd">
        <g id="Finantial-Modeling" transform="translate(-985.000000, -1342.000000)" fill="#2F5495">
            <g id="Group-2" transform="translate(985.000000, 1342.000000)">
                <path d="M105.232039,94.3035666 C103.793195,92.8645432 101.463814,92.8645432 100.024971,94.3035666 C98.5898072,95.7389095 98.5898072,98.0685816 100.024971,99.5076049 C101.463814,100.942948 103.793195,100.942948 105.232039,99.5076049 C106.667202,98.0685816 106.667202,95.7389095 105.232039,94.3035666 Z" id="Fill-1"></path>
                <path d="M154.527067,45.0055181 C146.85599,37.3348055 134.437797,37.3344129 126.766328,45.0055181 C119.115274,52.6566014 119.114881,65.1093883 126.767506,72.766753 C134.421309,80.4158734 146.874049,80.419014 154.527067,72.7659678 C162.197358,65.0956478 162.198928,52.6770158 154.527067,45.0055181 Z M148.975154,67.2136423 C144.384679,71.8045278 136.912249,71.8045278 132.319418,67.2144275 C127.728157,62.6204012 127.727765,55.147944 132.318633,50.557451 C136.920886,45.9551805 144.372116,45.9543953 148.975154,50.557451 C153.577408,55.1593289 153.578193,62.6109792 148.975154,67.2136423 Z" id="Fill-2"></path>
                <path d="M198.398585,1.13435866 C197.637981,0.37414304 196.600089,-0.0379147364 195.521147,0.00274885999 C194.645523,0.0341179201 173.796686,0.872175278 149.013156,9.63188848 C129.153801,16.6438416 112.600595,26.6831026 99.8132307,39.4708355 C96.9477985,42.3362636 94.1594335,45.3748024 91.4915104,48.5314593 C78.8478244,41.0888594 68.7159905,43.4225625 62.3108839,46.8503101 C47.5631441,54.7429205 38.4345794,76.1730231 38.4345794,91.5012625 C38.4345794,93.0673919 39.3795253,94.4797742 40.8265318,95.0788845 C41.3055884,95.2775552 41.8090432,95.373986 42.3078507,95.373986 C43.3159221,95.373986 44.306179,94.98013 45.047032,94.2396653 C52.8246339,86.4620748 62.4177712,86.9484888 65.5515836,87.3605466 L66.9078133,88.7167744 C64.2387284,95.0680409 62.0885892,101.383678 60.5116139,107.526205 C59.9423227,109.749148 60.1344101,112.10144 60.9806014,114.253126 C57.2519378,115.971453 53.6545597,118.494532 50.5222964,121.626791 C40.5535044,131.595956 38.529074,155.891099 38.4477467,156.920469 C38.3586739,158.050143 38.7684087,159.162389 39.5696763,159.96381 C40.2990661,160.692657 41.2854502,161.098131 42.3078507,161.098131 C42.4093162,161.098131 42.511169,161.094258 42.6130218,161.086125 C43.6423932,161.005185 67.9383465,158.980758 77.9071385,149.011981 C81.03824,145.880884 83.5609358,142.283898 85.2792657,138.556014 C87.5572049,139.451775 89.9017551,139.562148 92.0100689,139.021903 C98.1498936,137.445317 104.464766,135.295956 110.816816,132.626488 L112.173046,133.982715 C112.584717,137.11691 113.071132,146.710034 105.293917,154.48685 C104.186704,155.594449 103.855198,157.260107 104.454697,158.706956 C105.053808,160.154348 106.465805,161.098131 108.032324,161.098131 C123.360586,161.098131 144.790332,151.969192 152.682954,137.221474 C156.110707,130.817151 158.444413,120.685332 151.001802,108.041277 C154.156915,105.37452 157.195845,102.586159 160.062439,99.719569 C172.850191,86.9318361 182.889079,70.3786542 189.901043,50.5208774 C198.661156,25.7362217 199.498827,4.88702769 199.530196,4.01179219 C199.568924,2.93711143 199.158801,1.89496155 198.398585,1.13435866 Z M47.0933821,83.1714216 C49.4991214,71.5288531 56.4866865,58.7531256 65.9671274,53.6790834 C72.302525,50.2889012 79.2273519,50.6211809 86.5901845,54.6515242 C80.3175251,62.9011997 74.8643353,71.7891001 70.3189131,81.1746454 C70.2612094,81.1390164 69.5641182,80.262619 68.2690776,79.9706157 C67.7365773,79.850174 57.4897234,77.6462071 47.0933821,83.1714216 Z M72.430325,143.534788 C67.1053225,148.859783 54.6138347,151.668282 46.7185019,152.814995 C47.8656043,144.919286 50.6744947,132.428204 55.99911,127.103597 C58.9811114,124.1216 62.4386839,121.860704 65.914071,120.587352 L78.946579,133.619841 C77.6732257,137.095223 75.4127137,140.552791 72.430325,143.534788 Z M90.086097,131.518889 C88.9653292,131.805857 87.6671904,131.384505 86.7021063,130.420972 C81.6919567,125.410829 79.7319685,123.450844 79.1169791,122.836243 C77.9892404,121.708506 75.2237245,118.942994 69.1152689,112.83416 C68.1494103,111.866366 67.7280573,110.568617 68.014252,109.449787 C69.2546871,104.618951 70.8769734,99.66264 72.8497416,94.658694 L104.875275,126.684181 C99.8705471,128.657333 94.915003,130.27923 90.086097,131.518889 Z M145.854945,133.566785 C140.780896,143.046825 128.005537,150.034767 116.363339,152.440115 C120.075349,145.454884 120.893657,136.562724 119.537427,131.170731 C119.222574,129.918292 118.405429,129.288587 118.35973,129.214618 C127.744515,124.669203 136.632041,119.216021 144.882503,112.943371 C148.912852,120.306967 149.244745,127.232558 145.854945,133.566785 Z M154.5864,94.2427635 C151.096684,97.7320873 147.338975,101.103293 143.41745,104.262274 C133.990452,111.852812 123.614637,118.282307 112.544828,123.400498 L76.1334286,86.989927 C81.2516274,75.9193597 87.6811323,65.543559 95.2709068,56.1177373 C98.4326028,52.1935066 101.803426,48.4354158 105.291593,44.947641 C116.764553,33.4743105 131.571546,24.3432031 149.313292,17.7704168 L181.763664,50.2207413 C175.191643,67.9620748 166.060522,82.7690457 154.5864,94.2427635 Z M184.550093,42.0527802 L157.481265,14.9839923 C172.229005,10.403335 185.058969,8.68810578 191.462914,8.0715682 C190.845988,14.4766655 189.130369,27.3066111 184.550093,42.0527802 Z" id="Fill-3"></path>
                <path d="M92.9008552,160.603064 C91.3787997,159.081949 88.9120334,159.082727 87.3911465,160.603843 L76.3740666,171.622525 C74.8531797,173.143874 74.8535693,175.610127 76.3748457,177.130698 C77.8969013,178.651268 80.3636675,178.651268 81.8845544,177.129919 L92.9016344,166.111237 C94.4225212,164.589887 94.4221317,162.123634 92.9008552,160.603064 Z" id="Fill-4"></path>
                <path d="M38.9298409,104.996493 C37.4092706,103.474819 34.9434072,103.474819 33.4216684,104.995714 L22.4029864,116.012851 C20.8816371,117.533746 20.8812476,120.000525 22.4018179,121.522198 C23.9219988,123.043093 26.3878622,123.044651 27.9099905,121.522978 L38.9286724,110.505841 C40.4501775,108.984946 40.450567,106.518167 38.9298409,104.996493 Z" id="Fill-5"></path>
                <path d="M65.909674,166.33356 C64.3818572,164.804766 61.9028248,164.804766 60.3738337,166.333169 L33.8570726,192.849228 C32.3280815,194.378022 32.3280815,196.856978 33.8566812,198.385772 C35.3844979,199.914566 37.8635304,199.915349 39.392678,198.386164 L65.9092825,171.870104 C67.4382736,170.34131 67.4382736,167.862354 65.909674,166.33356 Z" id="Fill-6"></path>
                <path d="M34.8349024,166.33356 C33.3066872,164.804766 30.8276435,164.804766 29.2990369,166.333169 L2.78231151,192.849228 C1.25331344,194.378022 1.25331344,196.856978 2.78192006,198.385772 C4.30974378,199.914566 6.7887875,199.915349 8.31778557,198.386164 L34.8345109,171.870104 C36.363509,170.34131 36.363509,167.862354 34.8349024,166.33356 Z" id="Fill-7"></path>
                <path d="M33.1988662,132.804982 C31.6704768,131.276779 29.1911505,131.276779 27.6623697,132.805374 L1.14653671,159.321903 C-0.382244147,160.851046 -0.382244147,163.329289 1.14692821,164.858275 C2.67570907,166.386871 5.15464387,166.386871 6.68342473,164.857884 L33.1992577,138.341198 C34.7280385,136.812212 34.7280385,134.333969 33.1988662,132.804982 Z" id="Fill-8"></path>
                <path d="M122.288734,77.2439766 C120.698227,75.6538769 118.120677,75.6538769 116.529763,77.2439766 L110.772014,83.0017257 C109.181914,84.5918254 109.181914,87.1701893 110.772014,88.7606962 C112.362521,90.350796 114.940478,90.350796 116.530985,88.7606962 L122.288734,83.0029472 C123.878833,81.4128475 123.878833,78.8344836 122.288734,77.2439766 Z" id="Fill-9"></path>
            </g>
        </g>
    </g>
</svg>