<?xml version="1.0" encoding="UTF-8"?>
<svg width="181px" height="181px" viewBox="0 0 181 181" version="1.1" xmlns="http://www.w3.org/2000/svg" xmlns:xlink="http://www.w3.org/1999/xlink">
    <!-- Generator: Sketch 58 (84663) - https://sketch.com -->
    <title>Group 12</title>
    <desc>Created with Sketch.</desc>
    <g id="Page-2" stroke="none" stroke-width="1" fill="none" fill-rule="evenodd">
        <g id="Finantial-Modeling" transform="translate(-274.000000, -1823.000000)" fill="#2F5495">
            <g id="Group-12" transform="translate(274.000000, 1823.000000)">
                <polygon id="Fill-1" points="17.9871622 168.875 24.1121622 168.875 24.1121622 162.75 17.9871622 162.75"></polygon>
                <polygon id="Fill-2" points="28.4871622 168.875 34.6121622 168.875 34.6121622 162.75 28.4871622 162.75"></polygon>
                <polygon id="Fill-3" points="39.8621622 168.875 45.9871622 168.875 45.9871622 162.75 39.8621622 162.75"></polygon>
                <polygon id="Fill-4" points="138.737162 168.875 162.362162 168.875 162.362162 162.75 138.737162 162.75"></polygon>
                <path d="M174.922646,151.177419 L174.922646,55.2379032 C174.922646,47.2229561 168.401303,40.7016129 160.386356,40.7016129 L151.664582,40.7016129 C151.664582,18.2568538 133.407728,0 110.962969,0 C88.5182095,0 70.2613557,18.2568538 70.2613557,40.7016129 L20.8379686,40.7016129 C12.8231306,40.7016129 6.30167829,47.2229561 6.30167829,55.2379032 L6.30167829,151.177419 L0.487162162,151.177419 L0.487162162,165.71371 C0.487162162,173.728548 7.00861443,180.25 15.0234525,180.25 L166.200872,180.25 C174.215819,180.25 180.737162,173.728548 180.737162,165.71371 L180.737162,151.177419 L174.922646,151.177419 Z M160.386356,46.516129 C165.194234,46.516129 169.10813,50.4300252 169.10813,55.2379032 L169.10813,151.177419 L163.293614,151.177419 L163.293614,58.1451613 C163.293614,54.9384556 160.685803,52.3306452 157.479098,52.3306452 L149.949663,52.3306452 C150.5104,50.4467419 150.915236,48.5021497 151.199057,46.516129 L160.386356,46.516129 Z M77.7649888,30.0181663 L108.622262,42.8762419 L119.187965,74.5678987 C116.544541,75.2111295 113.800816,75.5887097 110.962969,75.5887097 C91.7249152,75.5887097 76.0758718,59.9393029 76.0758718,40.7016129 C76.0758718,36.9737813 76.6776743,33.3865882 77.7649888,30.0181663 Z M124.711392,72.7537697 L114.288872,41.4865726 L137.575282,18.1987087 C142.726943,24.2788755 145.850065,32.1273821 145.850065,40.7016129 C145.850065,55.0576532 137.128291,67.4076855 124.711392,72.7537697 Z M110.962969,5.81451613 C119.537199,5.81451613 127.385706,8.9376381 133.46878,14.0863921 L110.285941,37.2677777 L80.0181138,24.6589995 C85.8351738,13.4787752 97.5110855,5.81451613 110.962969,5.81451613 Z M12.1161944,55.2379032 C12.1161944,50.4300252 16.0299089,46.516129 20.8379686,46.516129 L70.7268804,46.516129 C71.0110649,48.5021497 71.4126299,50.4467419 71.9762746,52.3306452 L23.7452267,52.3306452 C20.5384484,52.3306452 17.9307105,54.9384556 17.9307105,58.1451613 L17.9307105,151.177419 L12.1161944,151.177419 L12.1161944,55.2379032 Z M174.922646,165.71371 C174.922646,170.521769 171.00875,174.435484 166.200872,174.435484 L15.0234525,174.435484 C10.2153928,174.435484 6.30167829,170.521769 6.30167829,165.71371 L6.30167829,156.991935 L66.1970089,156.991935 C70.377646,160.750911 75.7266375,162.806452 81.3936102,162.806452 L99.8336213,162.806452 C105.500594,162.806452 110.849586,160.750911 115.029859,156.991935 L151.664582,156.991935 L151.664582,151.177419 L112.666622,151.177419 L111.814795,152.029137 C108.613541,155.230246 104.360586,156.991935 99.8307141,156.991935 L81.390703,156.991935 C76.8637388,156.991935 72.6078764,155.230246 69.4066218,152.029137 L68.5580659,151.177419 L23.7452267,151.177419 L23.7452267,58.1451613 L74.2446627,58.1451613 C80.7943517,71.8735973 94.7673608,81.4032258 110.962969,81.4032258 C127.158576,81.4032258 141.131586,71.8735973 147.681275,58.1451613 L157.479098,58.1451613 L157.479098,156.991935 L174.922646,156.991935 L174.922646,165.71371 Z" id="Fill-5"></path>
                <path d="M143.174662,121.75 C141.397344,121.75 139.7431,122.299312 138.364321,123.23307 L128.261482,115.549305 C128.51885,114.717625 128.695495,113.851062 128.695495,112.9375 C128.695495,108.079609 124.79698,104.125 120.007995,104.125 C115.219011,104.125 111.320495,108.079609 111.320495,112.9375 C111.320495,113.948734 111.522842,114.905258 111.832334,115.810375 L95.6138575,128.973312 C94.285032,128.13282 92.7296075,127.625 91.0496622,127.625 C89.1011283,127.625 87.3194668,128.303562 85.8690163,129.405125 L73.381821,120.959812 C73.555933,120.269867 73.6746622,119.558258 73.6746622,118.8125 C73.6746622,113.954609 69.7761465,110 64.9871622,110 C60.1981778,110 56.2996622,113.954609 56.2996622,118.8125 C56.2996622,119.558258 56.4183913,120.269867 56.5925033,120.959812 L44.10567,129.405125 C42.6548575,128.300625 40.873196,127.625 38.9246622,127.625 C34.1354968,127.625 30.2371622,131.579609 30.2371622,136.4375 C30.2371622,141.295391 34.1354968,145.25 38.9246622,145.25 C43.7136465,145.25 47.6121622,141.295391 47.6121622,136.4375 C47.6121622,135.691742 47.493433,134.980133 47.319321,134.290188 L59.8065163,125.844875 C61.2569668,126.949375 63.0386283,127.625 64.9871622,127.625 C66.935696,127.625 68.7173575,126.949375 70.16817,125.844875 L82.6550033,134.290188 C82.4808913,134.980133 82.3621622,135.69468 82.3621622,136.4375 C82.3621622,141.295391 86.2606778,145.25 91.0496622,145.25 C95.8386465,145.25 99.7371622,141.295391 99.7371622,136.4375 C99.7371622,135.426266 99.5348158,134.469742 99.2253236,133.564625 L115.4438,120.401687 C116.772988,121.24218 118.32805,121.75 120.007995,121.75 C121.785313,121.75 123.439558,121.200687 124.818337,120.26693 L134.921175,127.950695 C134.663808,128.782375 134.487162,129.648937 134.487162,130.5625 C134.487162,135.420391 138.385678,139.375 143.174662,139.375 C147.963647,139.375 151.862162,135.420391 151.862162,130.5625 C151.862162,125.704609 147.963647,121.75 143.174662,121.75 Z M38.9246622,139.375 C37.3297096,139.375 36.0288288,138.055328 36.0288288,136.4375 C36.0288288,134.819672 37.3297096,133.5 38.9246622,133.5 C40.5195424,133.5 41.8204955,134.819672 41.8204955,136.4375 C41.8204955,138.055328 40.5195424,139.375 38.9246622,139.375 Z M64.9871622,121.75 C63.392282,121.75 62.0913288,120.430328 62.0913288,118.8125 C62.0913288,117.194672 63.392282,115.875 64.9871622,115.875 C66.5820424,115.875 67.8829955,117.194672 67.8829955,118.8125 C67.8829955,120.430328 66.5820424,121.75 64.9871622,121.75 Z M91.0496622,139.375 C89.454782,139.375 88.1538288,138.055328 88.1538288,136.4375 C88.1538288,134.819672 89.454782,133.5 91.0496622,133.5 C92.6445424,133.5 93.9454955,134.819672 93.9454955,136.4375 C93.9454955,138.055328 92.6445424,139.375 91.0496622,139.375 Z M120.007995,115.875 C118.413115,115.875 117.112162,114.555328 117.112162,112.9375 C117.112162,111.319672 118.413115,110 120.007995,110 C121.602876,110 122.903829,111.319672 122.903829,112.9375 C122.903829,114.555328 121.602876,115.875 120.007995,115.875 Z M143.174662,133.5 C141.579782,133.5 140.278829,132.180328 140.278829,130.5625 C140.278829,128.944672 141.579782,127.625 143.174662,127.625 C144.769542,127.625 146.070495,128.944672 146.070495,130.5625 C146.070495,132.180328 144.769542,133.5 143.174662,133.5 Z" id="Fill-6"></path>
                <path d="M29.3621622,104.125 L75.7371622,104.125 L75.7371622,63 L29.3621622,63 L29.3621622,104.125 Z M69.9402872,98.25 L35.1590372,98.25 L35.1590372,68.875 L69.9402872,68.875 L69.9402872,98.25 Z" id="Fill-7"></path>
                <polygon id="Fill-8" points="41.6121622 82.25 65.2371622 82.25 65.2371622 76.125 41.6121622 76.125"></polygon>
                <polygon id="Fill-9" points="41.6121622 93.625 65.2371622 93.625 65.2371622 87.5 41.6121622 87.5"></polygon>
                <polygon id="Fill-10" points="80.9871622 99.75 87.1121622 99.75 87.1121622 93.625 80.9871622 93.625"></polygon>
                <polygon id="Fill-11" points="93.2371622 99.75 151.862162 99.75 151.862162 93.625 93.2371622 93.625"></polygon>
            </g>
        </g>
    </g>
</svg>