<?xml version="1.0" encoding="UTF-8"?>
<svg width="150px" height="113px" viewBox="0 0 150 113" version="1.1" xmlns="http://www.w3.org/2000/svg" xmlns:xlink="http://www.w3.org/1999/xlink">
    <!-- Generator: Sketch 58 (84663) - https://sketch.com -->
    <title>Group 2</title>
    <desc>Created with Sketch.</desc>
    <g id="Page-2" stroke="none" stroke-width="1" fill="none" fill-rule="evenodd">
        <g id="Investors" transform="translate(-643.000000, -808.000000)">
            <g id="Group-2" transform="translate(643.000000, 808.000000)">
                <g id="Group-5" transform="translate(102.863971, 52.500000) scale(-1, 1) translate(-102.863971, -52.500000) translate(56.863971, 6.000000)">
                    <path d="M81.8220526,9.8671216 C68.9238324,-3.28931299 47.9375588,-3.28876807 35.0396947,9.8671216 C22.6998976,22.4550201 22.1680068,42.5939139 33.4402827,55.8349931 L29.4998029,59.8545254 L25.4848904,55.7590672 C24.5685494,54.8247062 23.0834574,54.8247062 22.1667603,55.7590672 L3.35643142,74.9465258 C-0.686615902,79.0708649 -0.686615902,85.7817709 3.35643142,89.9066549 C5.37822218,91.9690061 8.03411519,93 10.6892959,93 C13.3448328,93 16.0005477,91.9688244 18.0223385,89.9068365 L36.8326674,70.7191963 C37.7488303,69.7846537 37.7488303,68.2692234 36.8326674,67.3344991 L32.8175768,63.2390409 L36.7580566,59.2195087 C42.9550216,64.7088794 50.6924579,67.4552903 58.4309627,67.4552903 C66.9018636,67.4552903 75.3731206,64.1661363 81.8220526,57.5880098 C94.7197386,44.4310303 94.7197386,23.0237378 81.8220526,9.8671216 Z M14.7042084,86.5221393 C12.4902816,88.7802994 8.88831022,88.7808444 6.67420538,86.5221393 C4.46010054,84.2639792 4.46010054,80.5892014 6.67420538,78.3310413 L17.1708145,67.6238531 L25.200871,75.8149511 L14.7042084,86.5221393 Z M28.5190011,72.4304356 L20.488998,64.2393376 L23.8256473,60.8357497 L31.8554722,69.0266661 L28.5190011,72.4304356 Z M78.5041006,54.2033126 C67.4357132,65.4933866 49.4260341,65.4937499 38.3576468,54.2033126 C27.2892594,42.9128753 27.2892594,24.5418928 38.3576468,13.2514555 C43.8925527,7.60551031 51.1602441,4.78371838 58.4311408,4.78371838 C65.6995445,4.78371838 72.9707972,7.60696344 78.5041006,13.2514555 C89.5723099,24.5418928 89.5723099,42.913057 78.5041006,54.2033126 Z" id="Fill-1" fill="#FFFFFF"></path>
                    <path d="M81.8220526,9.8671216 C68.9238324,-3.28931299 47.9375588,-3.28876807 35.0396947,9.8671216 C22.6998976,22.4550201 22.1680068,42.5939139 33.4402827,55.8349931 L29.4998029,59.8545254 L25.4848904,55.7590672 C24.5685494,54.8247062 23.0834574,54.8247062 22.1667603,55.7590672 L3.35643142,74.9465258 C-0.686615902,79.0708649 -0.686615902,85.7817709 3.35643142,89.9066549 C5.37822218,91.9690061 8.03411519,93 10.6892959,93 C13.3448328,93 16.0005477,91.9688244 18.0223385,89.9068365 L36.8326674,70.7191963 C37.7488303,69.7846537 37.7488303,68.2692234 36.8326674,67.3344991 L32.8175768,63.2390409 L36.7580566,59.2195087 C42.9550216,64.7088794 50.6924579,67.4552903 58.4309627,67.4552903 C66.9018636,67.4552903 75.3731206,64.1661363 81.8220526,57.5880098 C94.7197386,44.4310303 94.7197386,23.0237378 81.8220526,9.8671216 Z M14.7042084,86.5221393 C12.4902816,88.7802994 8.88831022,88.7808444 6.67420538,86.5221393 C4.46010054,84.2639792 4.46010054,80.5892014 6.67420538,78.3310413 L17.1708145,67.6238531 L25.200871,75.8149511 L14.7042084,86.5221393 Z M28.5190011,72.4304356 L20.488998,64.2393376 L23.8256473,60.8357497 L31.8554722,69.0266661 L28.5190011,72.4304356 Z M78.5041006,54.2033126 C67.4357132,65.4933866 49.4260341,65.4937499 38.3576468,54.2033126 C27.2892594,42.9128753 27.2892594,24.5418928 38.3576468,13.2514555 C43.8925527,7.60551031 51.1602441,4.78371838 58.4311408,4.78371838 C65.6995445,4.78371838 72.9707972,7.60696344 78.5041006,13.2514555 C89.5723099,24.5418928 89.5723099,42.913057 78.5041006,54.2033126 Z" id="Stroke-2" stroke="#FFFFFF" stroke-linejoin="round"></path>
                </g>
                <g id="Group-8" transform="translate(48.863971, 56.500000) scale(-1, 1) translate(-48.863971, -56.500000) translate(0.863971, 0.000000)" fill="#FFFFFF">
                    <path d="M95.2249489,20.7275547 L74.9896927,0.646439453 C74.5727575,0.232621094 74.0072821,0 73.4175689,0 L7.37502946,0 C3.69666014,0 0.704065878,2.97022266 0.704065878,6.62109375 L5.15137493,6.62109375 C5.15137493,5.40413672 6.14890635,4.4140625 7.37502946,4.4140625 L71.1939144,4.4140625 L71.1939144,17.8769531 C71.1939144,21.5278242 74.1865087,24.4980469 77.864878,24.4980469 L91.4291706,24.4980469 L91.4291706,106.378906 C91.4291706,107.595863 90.4316392,108.585938 89.2055161,108.585938 L7.37502946,108.585938 C6.14890635,108.585938 5.15137493,107.595863 5.15137493,106.378906 L5.15137493,87.4719316 C5.15137493,86.253209 4.15562244,85.2649004 2.92772041,85.2649004 C1.69981838,85.2649004 0.704065878,86.253209 0.704065878,87.4719316 L0.704065878,106.378906 C0.704065878,110.029777 3.69666014,113 7.37502946,113 L89.2055161,113 C92.8838854,113 95.8764797,110.029777 95.8764797,106.378906 L95.8764797,22.2881465 C95.8764797,21.7028418 95.6421065,21.141373 95.2249489,20.7275547 Z M77.864878,20.0839844 C76.6387549,20.0839844 75.6412235,19.0939102 75.6412235,17.8769531 L75.6412235,7.53480469 L88.286702,20.0839844 L77.864878,20.0839844 Z" id="Fill-1"></path>
                    <path d="M5.06316933,77.0497978 C4.67854864,76.6632298 4.14475553,76.4411765 3.6006176,76.4411765 C3.05647967,76.4411765 2.52268657,76.6632298 2.13785898,77.0497978 C1.75303139,77.4361581 1.53165208,77.9720772 1.53165208,78.5183824 C1.53165208,79.0646875 1.7528245,79.6006066 2.13785898,79.9867592 C2.52268657,80.3733272 3.05647967,80.5955882 3.6006176,80.5955882 C4.14475553,80.5955882 4.67854864,80.3733272 5.06316933,79.9867592 C5.44820381,79.6006066 5.66958312,79.0646875 5.66958312,78.5183824 C5.66958312,77.9720772 5.44820381,77.4361581 5.06316933,77.0497978 Z" id="Fill-2"></path>
                    <path d="M78.5586625,69.7941176 C74.9419215,69.7941176 71.9994659,72.7267393 71.9994659,76.3313928 C71.9994659,77.2348442 72.1844353,78.0958033 72.5182984,78.8791868 L59.9217987,91.4335878 C59.0562034,91.0132411 58.0845678,90.7768096 57.0587094,90.7768096 C56.0571201,90.7768096 55.1077857,91.0025635 54.2579325,91.4041701 L45.8932078,83.0674011 C46.1831243,82.3299964 46.3440433,81.5283086 46.3440433,80.6893583 C46.3440433,77.0847048 43.4015877,74.1520832 39.7848467,74.1520832 C36.1681058,74.1520832 33.2256502,77.0847048 33.2256502,80.6893583 C33.2256502,81.6660272 33.4431969,82.592577 33.8301895,83.4256437 L25.8071989,91.4218207 C24.9525356,91.0143306 23.9962048,90.7857439 22.9874003,90.7857439 C19.3706594,90.7857439 16.4282038,93.7183655 16.4282038,97.323019 C16.4282038,100.927672 19.3706594,103.860294 22.9874003,103.860294 C26.6041413,103.860294 29.5465969,100.927672 29.5465969,97.323019 C29.5465969,96.3125742 29.3152759,95.3550813 28.902921,94.5002236 L36.8810904,86.548718 C37.7571804,86.9819214 38.742809,87.2266334 39.785284,87.2266334 C40.9626598,87.2266334 42.0674471,86.9143696 43.0235593,86.3709041 L51.1523716,94.4725491 C50.7343321,95.3322008 50.4995129,96.296231 50.4995129,97.3140847 C50.4995129,100.918738 53.4419685,103.85136 57.0587094,103.85136 C60.6754504,103.85136 63.617906,100.918738 63.617906,97.3140847 C63.617906,96.3208547 63.3935814,95.3790513 62.9941264,94.535307 L75.4729978,82.0981411 C76.393253,82.5893083 77.4438177,82.8686679 78.5586625,82.8686679 C82.1754034,82.8686679 85.117859,79.9360463 85.117859,76.3313928 C85.117859,72.7267393 82.1754034,69.7941176 78.5586625,69.7941176 Z M22.9871817,99.5023286 C21.7816014,99.5023286 20.8007829,98.5247881 20.8007829,97.3232369 C20.8007829,96.1216857 21.7816014,95.1441452 22.9871817,95.1441452 C23.5742298,95.1441452 24.1066179,95.3770901 24.4997324,95.7536372 C24.508478,95.7627893 24.5161304,95.7725952 24.5250946,95.7815295 C24.5355894,95.7919892 24.5469586,95.8007055 24.557672,95.8107294 C24.9381054,96.2029659 25.1735805,96.7359717 25.1735805,97.3232369 C25.1735805,98.5245702 24.192762,99.5023286 22.9871817,99.5023286 Z M39.7848467,82.86845 C38.5792664,82.86845 37.5984479,81.8909094 37.5984479,80.6893583 C37.5984479,79.4878071 38.5792664,78.5102666 39.7848467,78.5102666 C40.9904271,78.5102666 41.9712456,79.4878071 41.9712456,80.6893583 C41.9712456,81.8909094 40.9904271,82.86845 39.7848467,82.86845 Z M57.0582721,99.4931764 C55.8526918,99.4931764 54.8718733,98.5156359 54.8718733,97.3140847 C54.8718733,96.1125336 55.8526918,95.134993 57.0582721,95.134993 C58.2638525,95.134993 59.244671,96.1125336 59.244671,97.3140847 C59.244671,98.5156359 58.2638525,99.4931764 57.0582721,99.4931764 Z M78.5582252,78.5102666 C77.3526448,78.5102666 76.3718263,77.532726 76.3718263,76.3311749 C76.3718263,75.1296237 77.3528635,74.1520832 78.5582252,74.1520832 C79.7638055,74.1520832 80.744624,75.1296237 80.744624,76.3311749 C80.744624,77.532726 79.7638055,78.5102666 78.5582252,78.5102666 Z" id="Fill-3"></path>
                    <path d="M68.060775,52.3455882 L56.6577016,52.3455882 C55.4646557,52.3455882 54.4971693,53.275761 54.4971693,54.4227941 C54.4971693,55.5698272 55.4644396,56.5 56.6577016,56.5 L68.060775,56.5 C69.2538209,56.5 70.2213073,55.5698272 70.2213073,54.4227941 C70.2213073,53.275761 69.2538209,52.3455882 68.060775,52.3455882 Z" id="Fill-4"></path>
                    <path d="M79.5459279,52.9542096 C79.1613073,52.5678493 78.6275142,52.3455882 78.0833762,52.3455882 C77.5392383,52.3455882 77.0054452,52.5676415 76.6206176,52.9542096 C76.23579,53.3405699 76.0144107,53.876489 76.0144107,54.4227941 C76.0144107,54.9690993 76.2355831,55.5050184 76.6206176,55.891171 C77.0054452,56.2775312 77.5371693,56.5 78.0833762,56.5 C78.6275142,56.5 79.1613073,56.277739 79.5459279,55.891171 C79.9307555,55.5050184 80.1523417,54.9690993 80.1523417,54.4227941 C80.1523417,53.876489 79.9309624,53.3405699 79.5459279,52.9542096 Z" id="Fill-5"></path>
                    <path d="M83.7331771,31.5735294 L56.7094374,31.5735294 C55.487823,31.5735294 54.4971693,32.5037022 54.4971693,33.6507353 C54.4971693,34.7977684 55.4876018,35.7279412 56.7094374,35.7279412 L83.7331771,35.7279412 C84.9547915,35.7279412 85.9454452,34.7977684 85.9454452,33.6507353 C85.9454452,32.5037022 84.9547915,31.5735294 83.7331771,31.5735294 Z" id="Fill-6"></path>
                    <path d="M83.7331771,42.375 L56.7094374,42.375 C55.487823,42.375 54.4971693,43.3051728 54.4971693,44.4522059 C54.4971693,45.599239 55.4876018,46.5294118 56.7094374,46.5294118 L83.7331771,46.5294118 C84.9547915,46.5294118 85.9454452,45.599239 85.9454452,44.4522059 C85.9454452,43.3051728 84.9547915,42.375 83.7331771,42.375 Z" id="Fill-7"></path>
                </g>
            </g>
        </g>
    </g>
</svg>