<?xml version="1.0" encoding="UTF-8"?>
<svg width="143px" height="117px" viewBox="0 0 143 117" version="1.1" xmlns="http://www.w3.org/2000/svg" xmlns:xlink="http://www.w3.org/1999/xlink">
    <!-- Generator: Sketch 58 (84663) - https://sketch.com -->
    <title>Group 3</title>
    <desc>Created with Sketch.</desc>
    <g id="Page-2" stroke="none" stroke-width="1" fill="none" fill-rule="evenodd">
        <g id="Investors" transform="translate(-1035.000000, -806.000000)" fill="#FFFFFF">
            <g id="Group-3" transform="translate(1036.000000, 807.000000)">
                <path d="M0,86.25 L0,113.083333 C0,114.134769 0.780589063,115 1.72916667,115 L81.2708333,115 C82.2194974,115 83,114.134769 83,113.083333 L83,86.25 C83,85.3970833 82.4855729,84.6423958 81.7457057,84.4083229 L81.7459219,84.407125 L58.0967578,76.9175104 L53.6041667,70.2776979 L53.6041667,63.25 C53.6041667,62.1984687 52.8236641,61.3333333 51.875,61.3333333 L50.1458333,61.3333333 L50.1458333,55.56225 C51.3022135,55.1084792 52.2772474,54.2157917 52.8973698,53.0427917 L62.1164219,35.5251771 C63.503862,32.8868854 64.2355156,29.8873021 64.2361641,26.8333333 L64.2361641,15.3333333 C64.2277344,6.92539583 57.9884687,0.00934375 50.4028307,0 L32.5971693,0 C25.0115313,0.00934375 18.7722656,6.92539583 18.7637495,15.3333333 L18.7637495,26.8333333 C18.7644844,29.8873021 19.4960732,32.8868854 20.8836214,35.5251771 L30.1026302,53.0427917 C30.7227526,54.2157917 31.6977865,55.1084792 32.8541667,55.56225 L32.8541667,61.3333333 L31.125,61.3333333 C30.1763359,61.3333333 29.3958333,62.1984687 29.3958333,63.25 L29.3958333,70.2776979 L24.9032422,76.9175104 L1.2540349,84.407125 L1.2543375,84.4083229 C0.514427083,84.6423958 0,85.3970833 0,86.25 Z M26.1377116,80 L56.8623751,80 L69,84 L14,84 L26.1377116,80 Z M79,88 L79,102 L3,102 L3,88 L79,88 Z M3,111 L3,105 L79,105 L79,111 L3,111 Z M43,66 L43,70 L39,70 L39,66 L43,66 Z M47,66 L51,66 L51,70 L47,70 L47,66 Z M32.4945677,4 L50.5054323,4 C56.2601722,4.0075 60.9936595,9.41975 61,16 L61,18 L22,18 L22,16 C22.0063405,9.41975 26.7398278,4.0075 32.4945677,4 Z M23.6675431,33.5188665 C22.576108,31.4654339 22.0004373,29.1307781 22,26.7539268 L22,21 L61,21 L61,26.7539268 C60.9995627,29.1307781 60.423892,31.4654339 59.3324569,33.5188665 L50.007159,51.0482046 C49.6931965,51.6358244 49.1173071,51.9985615 48.4963785,52 L34.5036215,52 C33.8826929,51.9985615 33.3068035,51.6358244 32.992841,51.0482046 L23.6675431,33.5188665 Z M36,56 L47,56 L47,61 L36,61 L36,56 Z M33,66 L37,66 L37,70 L33,70 L33,66 Z M32.5714286,72 L51.4285714,72 L54,76 L30,76 L32.5714286,72 Z" id="Fill-1" stroke="#FFFFFF"></path>
                <g id="Group-6" transform="translate(74.000000, 0.000000)">
                    <path d="M0.338666667,34 C0.338666667,30.5844972 3.56685157,28.2199602 4.23683908,25.9327559 C4.90684443,23.6453706 3.38412446,19.9208987 4.90684443,17 C6.4295644,14.0791013 10.4952426,13.6000724 12.1245653,11.9463816 C13.753888,10.2926907 14.2259271,6.22828044 17.0886577,4.54362023 C19.951317,2.85914113 23.5144957,4.51283199 25.8899481,3.8791375 C28.0369917,3.29180649 30.4886399,0 33.8385774,0 C37.1886934,0 39.5336319,3.21465478 41.7872068,3.8791375 C44.0409601,4.54362023 47.7106701,2.9055046 50.5886221,4.54362023 C53.466574,6.18191697 53.9690736,10.3236601 55.5679358,11.9617757 C57.166798,13.6000724 61.1867945,14.1100706 62.8465062,17 C64.5063965,19.8899294 62.953216,23.7690669 63.5165651,25.9327559 C64.0799142,28.0962639 67.3386667,30.6154666 67.3386667,34 L64.2381945,34 C64.2490796,33.0004687 63.6803771,32.0375212 62.5877618,30.4454068 C60.455886,27.3390542 60.1055996,26.1953615 60.455886,22.3317992 C60.8061725,18.468237 60.5472496,18.0509657 57.0449205,16.3972749 C53.5427698,14.743584 52.8118614,14.0173437 51.1824852,10.4317811 C49.5531089,6.84639969 49.1876547,6.64555168 45.3200499,6.98549011 C41.4522665,7.32542853 40.538631,7.12458052 37.3257388,4.82180106 C34.1126681,2.5192027 33.4274414,2.65829312 30.3515946,4.82180106 C27.2757477,6.98549011 26.1031892,7.34100376 22.3572835,6.98549011 C18.6113777,6.62997646 18.1088782,6.84639969 16.4947946,10.4317811 C14.8806933,14.0173437 14.1802453,14.743584 10.6322879,16.3972749 C7.08434844,18.0509657 6.87116087,18.3291466 7.22139378,22.3317992 C7.57160884,26.3344519 7.26707555,27.3544483 5.08957154,30.4454068 C4.20548639,31.4456625 3.61479959,32.67683 3.38412446,34 L0.338666667,34 Z" id="Fill-1"></path>
                    <path d="M0.338666667,34 C0.338666667,30.5844972 3.56685157,28.2199602 4.23683908,25.9327559 C4.90684443,23.6453706 3.38412446,19.9208987 4.90684443,17 C6.4295644,14.0791013 10.4952426,13.6000724 12.1245653,11.9463816 C13.753888,10.2926907 14.2259271,6.22828044 17.0886577,4.54362023 C19.951317,2.85914113 23.5144957,4.51283199 25.8899481,3.8791375 C28.0369917,3.29180649 30.4886399,0 33.8385774,0 C37.1886934,0 39.5336319,3.21465478 41.7872068,3.8791375 C44.0409601,4.54362023 47.7106701,2.9055046 50.5886221,4.54362023 C53.466574,6.18191697 53.9690736,10.3236601 55.5679358,11.9617757 C57.166798,13.6000724 61.1867945,14.1100706 62.8465062,17 C64.5063965,19.8899294 62.953216,23.7690669 63.5165651,25.9327559 C64.0799142,28.0962639 67.3386667,30.6154666 67.3386667,34 L64.2381945,34 C64.2490796,33.0004687 63.6803771,32.0375212 62.5877618,30.4454068 C60.455886,27.3390542 60.1055996,26.1953615 60.455886,22.3317992 C60.8061725,18.468237 60.5472496,18.0509657 57.0449205,16.3972749 C53.5427698,14.743584 52.8118614,14.0173437 51.1824852,10.4317811 C49.5531089,6.84639969 49.1876547,6.64555168 45.3200499,6.98549011 C41.4522665,7.32542853 40.538631,7.12458052 37.3257388,4.82180106 C34.1126681,2.5192027 33.4274414,2.65829312 30.3515946,4.82180106 C27.2757477,6.98549011 26.1031892,7.34100376 22.3572835,6.98549011 C18.6113777,6.62997646 18.1088782,6.84639969 16.4947946,10.4317811 C14.8806933,14.0173437 14.1802453,14.743584 10.6322879,16.3972749 C7.08434844,18.0509657 6.87116087,18.3291466 7.22139378,22.3317992 C7.57160884,26.3344519 7.26707555,27.3544483 5.08957154,30.4454068 C4.20548639,31.4456625 3.61479959,32.67683 3.38412446,34 L0.338666667,34 Z" id="Fill-2"></path>
                    <path d="M67.3386667,33 C67.3386667,36.4153399 64.1104282,38.7798895 63.4403693,41.0672871 C62.7704889,43.3545035 64.2931553,47.0789952 62.7704889,49.9999638 C61.247644,52.9208781 57.1819658,53.3999819 55.552768,55.0536091 C53.9233918,56.7072545 53.4514063,60.7718132 50.5886221,62.4563556 C47.7258378,64.140898 44.1626592,62.4872708 41.7872068,63.1208962 C39.6401632,63.708176 37.1886934,67 33.8385774,67 C30.4886399,67 28.1437015,63.7854549 25.8899481,63.1208962 C23.6363733,62.4563556 19.9666633,64.0945343 17.0886577,62.4563556 C14.2107058,60.8181769 13.7082062,56.6763393 12.109344,55.0381606 C10.5104818,53.3999819 6.49048534,52.889981 4.83070219,49.9999638 C3.17093688,47.1099647 4.72411732,43.2308065 4.16071468,41.0672871 C3.59729419,38.9035865 0.338666667,36.3845515 0.338666667,33 L3.43915672,33 C3.42827161,33.9993555 3.99688483,34.9623082 5.08957154,36.554431 C7.22139378,39.6608002 7.57160884,40.8044989 7.22139378,44.6680818 C6.87116087,48.5318458 7.13003022,48.9490649 10.6322879,50.6026921 C14.1345635,52.2563375 14.865472,52.9827084 16.4947946,56.5681633 C18.1240995,60.1536182 18.4895002,60.3545397 22.3572835,60.014527 C26.2250668,59.6745324 27.1387024,59.8754359 30.3515946,62.1781733 C33.5644868,64.4809107 34.2497134,64.3418195 37.3257388,62.1781733 C40.4015856,60.014527 41.5741441,59.6590839 45.3200499,60.014527 C49.0659556,60.3699882 49.5684552,60.1536182 51.1824852,56.5681633 C52.7965152,52.9827084 53.497088,52.2563375 57.0449205,50.6026921 C60.5929314,48.9490649 60.8061725,48.6709369 60.455886,44.6680818 C60.1055996,40.6654078 60.4102042,39.645406 62.5877618,36.554431 C63.4717756,35.55417 64.0624267,34.3231771 64.2931553,33 L67.3386667,33 Z" id="Fill-3"></path>
                    <path d="M33.8386403,57 C46.2651588,57 56.3386667,46.7025106 56.3386667,34.000027 C56.3386667,21.2973636 46.2651588,11 33.8386403,11 C21.4122976,11 11.3386667,21.2973636 11.3386667,34.000027 C11.3386667,46.7025106 21.4122976,57 33.8386403,57 Z M33.8386403,14.0665505 C44.6082428,14.0665505 53.3387803,22.9911 53.3387803,34.000027 C53.3387803,45.0087742 44.6082428,53.9333237 33.8386403,53.9333237 C23.0692136,53.9333237 14.338676,45.0087742 14.338676,34.000027 C14.338676,28.7132551 16.3931394,23.6431867 20.0501671,19.9049636 C23.7071245,16.1667404 28.6669741,14.0665505 33.8386403,14.0665505 Z" id="Fill-4"></path>
                    <path d="M39.6937713,26.6169436 L31.2699353,34.9194305 L28.9836058,32.6659897 C28.1497103,31.8440896 26.7975893,31.8440896 25.9636938,32.6659897 C25.1303243,33.4878897 25.1303243,34.8203876 25.9636938,35.641942 L29.76033,39.383791 C30.1773655,39.7948275 30.7236504,40 31.2699353,40 C31.8162202,40 32.3626805,39.7948275 32.7795406,39.383791 L42.713508,29.592723 C43.5470529,28.770823 43.5470529,27.4383251 42.713508,26.6169436 C41.8796125,25.7943521 40.5276669,25.7943521 39.6937713,26.6169436 Z" id="Fill-5"></path>
                </g>
            </g>
        </g>
    </g>
</svg>