<?xml version="1.0" encoding="UTF-8"?>
<svg width="146px" height="102px" viewBox="0 0 146 102" version="1.1" xmlns="http://www.w3.org/2000/svg" xmlns:xlink="http://www.w3.org/1999/xlink">
    <!-- Generator: Sketch 58 (84663) - https://sketch.com -->
    <title>Group 4</title>
    <desc>Created with Sketch.</desc>
    <g id="Page-2" stroke="none" stroke-width="1" fill="none" fill-rule="evenodd">
        <g id="Investors" transform="translate(-259.000000, -819.000000)" fill="#FFFFFF">
            <g id="Group-4" transform="translate(259.000000, 819.000000)">
                <path d="M142.587535,53.5594295 C141.588633,51.514191 120.217598,15.9175911 119.676086,15.0286702 C115.68675,8.48667339 108.771711,4.58118427 101.178285,4.58118427 C100.094977,4.58118427 99.0310586,4.66416943 97.9896679,4.8197666 C97.9888125,4.8177496 97.9859609,4.81342746 97.9851054,4.81227489 C96.1449922,1.79916439 92.960082,0 89.4657773,0 C83.9485742,0 79.4596445,4.53565769 79.4596445,10.110935 L79.4596445,27.7775537 L66.5403554,27.7775537 L66.5403554,10.110935 C66.5403554,4.53594583 62.0517109,0 56.5342226,0 C53.0461914,0 49.8672695,1.7925371 48.0109023,4.8197666 C46.9697969,4.66416943 45.9053086,4.58118427 44.8217148,4.58118427 C37.228289,4.58118427 30.31325,8.48696153 26.3236289,15.0292465 C26.2685937,15.1194352 26.101207,15.3943236 22.0799336,22.2063103 C21.3887148,23.3773232 21.7679726,24.8929549 22.9265625,25.5914133 C24.0854375,26.2895836 25.5853594,25.907218 26.2765781,24.735917 C29.5855312,19.130961 30.3913828,17.772079 30.4846289,17.6190751 C33.5774336,12.5471834 38.9372305,9.51908947 44.822,9.51908947 C54.1032656,9.51908947 61.6536328,17.1488258 61.6536328,26.5270134 L61.6536328,26.5284541 L61.6536328,50.858954 C55.799375,41.211641 45.2665586,34.762138 33.2703203,34.762138 C27.8526367,34.762138 22.7337969,36.0783749 18.2092227,38.4091629 C19.3712344,36.4391298 20.598832,34.3578735 21.830707,32.2705662 C22.5216406,31.0992652 22.1423828,29.5836335 20.9832226,28.8854632 C19.8240625,28.1872929 18.3244258,28.570523 17.633207,29.7418239 C12.4416523,38.5399798 4.2705,51.7415358 3.23823437,53.9210488 C1.1634375,58.3028382 0,63.2070307 0,68.3812131 C0,86.9185996 14.9250781,102 33.2703203,102 C51.6155625,102 66.5403554,86.9185996 66.5403554,68.3812131 L66.5403554,61.8210632 L79.4596445,61.8210632 L79.4596445,68.3812131 C79.4596445,86.9185996 94.3847226,102 112.72968,102 C131.074922,102 146,86.9185996 146,68.3812131 C146,63.0643999 144.772117,58.0328483 142.587535,53.5594295 Z M61.6536328,12.6768477 C59.3963359,9.88099697 56.4723437,7.65710993 53.1283164,6.25298948 C54.0533633,5.41449359 55.2527304,4.9379052 56.5345078,4.9379052 C59.3572695,4.9379052 61.6536328,7.25832013 61.6536328,10.1106469 L61.6536328,12.6768477 Z M33.2703203,97.0615185 C17.6195195,97.0615185 4.88672265,84.195649 4.88672265,68.3809249 C4.88672265,52.5662008 17.6195195,39.7000432 33.2703203,39.7000432 C48.9211211,39.7000432 61.6536328,52.5662008 61.6536328,68.3809249 C61.6536328,84.195649 48.9208359,97.0615185 33.2703203,97.0615185 Z M66.5400703,47.4026797 L66.5400703,32.7151707 L79.4593593,32.7151707 L79.4593593,47.4026797 L66.5400703,47.4026797 Z M79.4596445,56.883158 L66.5403554,56.883158 L66.5403554,52.3408731 L79.4596445,52.3408731 L79.4596445,56.883158 Z M84.3463672,10.110935 C84.3463672,7.25860827 86.6427304,4.93819334 89.4654922,4.93819334 C90.7512617,4.93819334 91.9546211,5.4179513 92.8748203,6.25212505 C89.5296523,7.6562455 86.6042343,9.88070883 84.3463672,12.6771359 L84.3463672,10.110935 Z M84.346082,26.5284541 L84.346082,26.5270134 C84.346082,17.1485377 91.8970195,9.51908947 101.178,9.51908947 C107.063055,9.51908947 112.422566,12.5474715 115.515371,17.6190751 C115.808512,18.0999856 121.915418,28.4486385 127.790777,38.4091629 C123.265918,36.0780867 118.147078,34.7618499 112.729394,34.7618499 C100.733156,34.7618499 90.2003398,41.211641 84.346082,50.8586659 L84.346082,26.5284541 L84.346082,26.5284541 Z M112.729965,97.0615185 C97.079164,97.0615185 84.3466523,84.1953609 84.3466523,68.3806368 C84.3466523,52.5659127 97.0794492,39.6997551 112.729965,39.6997551 C128.380766,39.6997551 141.113562,52.5659127 141.113562,68.3806368 C141.113562,84.1953609 128.38048,97.0615185 112.729965,97.0615185 Z" id="Fill-1"></path>
                <path d="M134.649534,61.2188252 C134.187851,59.9357959 132.773982,59.2692086 131.490377,59.7306034 C130.207348,60.1919983 129.54076,61.606443 130.002155,62.8897604 C130.704766,64.8445645 131.061259,66.9005238 131.061259,69.0002882 C131.061259,78.9593274 122.959327,87.0615477 113,87.0615477 C103.040961,87.0615477 94.9387405,78.9593274 94.9387405,69.0002882 C94.9387405,59.041249 103.040961,50.9390287 113,50.9390287 C117.998108,50.9390287 122.818402,53.0387931 126.225403,56.6996918 C127.154533,57.6979877 128.71682,57.754185 129.715693,56.8250551 C130.713988,55.8959252 130.770186,54.3336382 129.841056,53.3347659 C125.503483,48.673554 119.365001,46 113,46 C100.31755,46 90,56.3175496 90,69 C90,81.6824504 100.31755,92 113,92 C125.68245,92 136,81.6824504 136,69 C136,66.3296161 135.54581,63.7113948 134.649534,61.2188252 Z" id="Fill-2"></path>
                <path d="M32,46 C19.3175496,46 9,56.3175496 9,69 C9,81.6824504 19.3175496,92 32,92 C44.6824504,92 55,81.6824504 55,69 C55,56.3175496 44.6821622,46 32,46 Z M32,87.0609713 C22.0409608,87.0609713 13.9387405,78.9590392 13.9387405,68.9997118 C13.9387405,59.0406726 22.0406726,50.9384523 32,50.9384523 C41.9593274,50.9384523 50.0612595,59.0403844 50.0612595,68.9997118 C50.0612595,78.9590392 41.958751,87.0609713 32,87.0609713 Z" id="Fill-3"></path>
            </g>
        </g>
    </g>
</svg>