<?xml version="1.0" encoding="UTF-8"?>
<svg width="34px" height="34px" viewBox="0 0 34 34" version="1.1" xmlns="http://www.w3.org/2000/svg" xmlns:xlink="http://www.w3.org/1999/xlink">
    <!-- Generator: Sketch 58 (84663) - https://sketch.com -->
    <title>Group 7</title>
    <desc>Created with Sketch.</desc>
    <g id="Page-2" stroke="none" stroke-width="1" fill="none" fill-rule="evenodd">
        <g id="BV4_Landing_V4" transform="translate(-1202.000000, -2287.000000)">
            <g id="Group-10" transform="translate(0.000000, 1846.000000)">
                <g id="Group-7" transform="translate(1202.000000, 441.000000)">
                    <g id="Group-5">
                        <polygon id="Fill-1" fill="#0084B1" points="0 34 34 34 34 0 0 0"></polygon>
                        <path d="M9.785125,8.5 C10.9455286,8.50095135 11.9025024,9.46139616 11.9,10.6300517 C11.8972167,11.8537139 10.8839304,12.7759936 9.77089441,12.7494409 C8.64193367,12.7723264 7.64977641,11.827365 7.65,10.6219704 C7.65,9.45283956 8.61076189,8.49911779 9.785125,8.5 Z" id="Fill-2" fill="#FFFFFF"></path>
                        <path d="M11.2206147,27.2 L8.32938531,27.2 C7.95419062,27.2 7.65,26.9167443 7.65,26.5673802 L7.65,15.0826125 C7.65,14.7332484 7.95419062,14.45 8.32938531,14.45 L11.2206147,14.45 C11.5958094,14.45 11.9,14.7332484 11.9,15.0826125 L11.9,26.5674535 C11.8999212,26.9167443 11.5958094,27.2 11.2206147,27.2 Z" id="Fill-3" fill="#FFFFFF"></path>
                        <path d="M27.2,18.1334351 C27.2,15.6297061 25.1870652,13.6 22.7039486,13.6 L21.9919028,13.6 C20.6334235,13.6 19.4332605,14.2834109 18.7113011,15.3280621 C18.6325969,15.4419894 18.5597199,15.5601899 18.4928214,15.682282 C18.4696642,15.6787719 18.4558909,15.6769405 18.4555882,15.677551 L18.4555882,14.2116055 C18.4555882,14.0608217 18.3343535,13.9385006 18.1847399,13.9385006 L14.7208483,13.9385006 C14.5713104,13.9385006 14.45,14.0607453 14.45,14.2116055 L14.45,26.924148 C14.45,27.0749852 14.571159,27.1972453 14.7207726,27.1973063 L18.2601143,27.1981839 C18.4097279,27.1982449 18.5310383,27.0759314 18.5310383,26.9250637 L18.5310383,19.5806852 C18.5310383,18.3111555 19.5351976,17.2570422 20.7942373,17.2426963 C21.4368871,17.2353708 22.019525,17.4950456 22.4394571,17.9187055 C22.8538649,18.336337 23.1100318,18.9137567 23.1100318,19.5512305 L23.1100318,26.9259794 C23.1100318,27.0768013 23.2313422,27.1990614 23.3808044,27.1991224 L26.9289247,27.2 C27.0785383,27.2 27.1998486,27.0777399 27.1998486,26.926895 L27.1998486,18.1334351 L27.2,18.1334351 Z" id="Fill-4" fill="#FFFFFF"></path>
                    </g>
                </g>
            </g>
        </g>
    </g>
</svg>