<?xml version="1.0" encoding="UTF-8"?>
<svg width="297px" height="40px" viewBox="0 0 297 40" version="1.1" xmlns="http://www.w3.org/2000/svg" xmlns:xlink="http://www.w3.org/1999/xlink">
    <!-- Generator: Sketch 58 (84663) - https://sketch.com -->
    <title>Group</title>
    <desc>Created with Sketch.</desc>
    <defs>
        <polygon id="path-1" points="0 0 75 0 75 40 0 40"></polygon>
    </defs>
    <g id="Page-2" stroke="none" stroke-width="1" fill="none" fill-rule="evenodd">
        <g id="BV4_Landing_V3" transform="translate(-118.000000, -48.000000)">
            <g id="Group" transform="translate(118.000000, 48.000000)">
                <g id="Group-5">
                    <mask id="mask-2" fill="white">
                        <use xlink:href="#path-1"></use>
                    </mask>
                    <g id="Clip-2"></g>
                    <path d="M38.6230797,26.8217132 C40.7396529,19.7684054 42.8046992,12.8418996 44.9093793,5.92727719 C45.1511559,5.13454242 45.2244817,4.60143237 44.1879942,4.58557471 C43.2288067,4.5717042 42.9909846,4.00490156 43.0563818,3.17054538 C43.0821452,2.85147421 43.0880966,2.52447421 43.0544045,2.20539315 C42.9572925,1.28186234 43.3060969,0.968732853 44.2712359,1.00242544 C46.4809468,1.07971671 48.6966092,1.0618719 50.9083073,1.00836712 C51.6792321,0.990532194 52.0200979,1.21844159 51.9883929,1.99135427 C51.9725355,2.39169101 51.9764998,2.79399513 51.9963118,3.19630914 C52.0379326,4.04255857 51.7327361,4.59944522 50.8032666,4.56576252 C49.713275,4.52611837 49.4437479,5.23165577 49.1821495,6.10564622 C46.7306521,14.3461135 44.0631415,22.5171688 41.3143764,30.6644971 C40.9754878,31.4790282 40.9972869,31.6316295 40.7356885,31.7208121 C39.2869865,32.2043798 36.6293819,31.9625959 36.147806,31.7208121 C35.8426095,31.5682107 35.0974481,29.2692799 34.699104,28.0980176 C32.198067,20.7593214 29.9962749,13.3492459 27.7687292,5.92331277 C27.5368586,5.14842282 27.2851662,4.59549069 26.369567,4.60340964 C25.307316,4.61332562 24.8911372,4.04453583 25.0239186,3.01002116 C25.0655394,2.69292726 25.0635622,2.36592726 25.0377988,2.0468462 C24.9783433,1.30167453 25.2141782,0.990532194 26.0465358,1.00836712 C28.5000104,1.06583631 30.9534851,1.05593022 33.4069696,1.01233154 C34.1501439,0.998461025 34.4335413,1.25609859 34.3998492,1.96757767 C34.3800373,2.36790452 34.3820145,2.77418294 34.4117423,3.17253253 C34.4751621,4.03066532 34.1699657,4.56773979 33.2404961,4.58359745 C32.2238304,4.60143237 32.2476066,5.08697933 32.4953347,5.90944226 C34.3324748,11.9857441 36.1240198,18.0739392 37.9235035,24.1620947 C38.1712315,25.0023926 38.3713971,25.8585481 38.6230797,26.8217132 Z" id="Fill-1" fill="#2F5495" mask="url(#mask-2)"></path>
                    <path d="M57.2266781,30.6958721 C55.3436678,30.6958721 53.4587384,30.7350609 51.5757281,30.7135072 C49.6791969,30.6899947 48.4999033,29.2576644 49.2074775,27.825332 C51.6144008,22.946392 51.0518151,23.9476504 52.2755775,21.3455477 C55.2624745,14.9970933 58.3943699,8.72697147 61.7582529,2.57440732 C62.0753106,1.99638384 62.4097662,1.96502732 62.9646077,2.01793656 C66.0269116,2.30989042 66.0481767,2.32164911 64.7045485,5.01780178 C61.2710741,11.8992585 57.8317843,18.7787603 54.3983002,25.6601778 C53.8028573,26.8534656 53.8105919,26.8632596 55.1078129,26.8652145 C57.7370604,26.869134 60.3682367,26.8397422 62.9955458,26.8828574 C63.8094457,26.896571 64.0936365,26.6516422 64.0743099,25.8051724 C64.0259739,23.5381389 64.111044,21.2691309 64.0317796,19.0040913 C63.9989127,18.0733656 64.3488277,17.7050046 65.1724006,17.618784 C65.3676637,17.5991959 65.5609883,17.5756785 65.7562513,17.5658845 C68.0897062,17.4581111 68.2907653,17.6501405 68.2907653,19.9426463 C68.2907653,21.9314201 68.3139689,23.9202232 68.2791636,25.9090263 C68.265633,26.6281345 68.4937533,26.896571 69.2206639,26.8769732 C70.7885452,26.8338677 72.3602937,26.8906868 73.9301039,26.8515009 C74.6222187,26.8338677 74.860012,27.0454852 74.9141441,27.7841815 C75.1287338,30.6958721 75.1596623,30.6919535 72.2732948,30.6919535 C71.25253,30.6919535 70.2298365,30.7291826 69.2129293,30.6801968 C68.4744266,30.6449276 68.2695002,30.9466774 68.2791636,31.6559848 C68.3101017,34.0033626 68.2462966,36.3507395 68.3139689,38.6961575 C68.3391013,39.607285 67.9157083,39.8874811 67.1733383,39.9756547 C66.9800137,39.9991677 66.7808833,39.9893706 66.5856203,39.9932894 C64.1091056,40.0324777 64.0588408,39.981533 64.0588408,37.4852405 C64.0588408,35.5356233 64.0337084,33.5860071 64.0723714,31.6383507 C64.0859117,30.90357 63.8268532,30.668441 63.1154117,30.6821566 C61.1512082,30.7213444 59.1889431,30.6958721 57.2266781,30.6958721 Z" id="Fill-3" fill="#EAE2CC" mask="url(#mask-2)"></path>
                    <path d="M17.7580588,14.7714699 C18.2179366,14.4664931 18.5435963,14.2559676 18.8633388,14.0375704 C20.2627226,13.081328 21.2712872,11.8279805 21.7706368,10.196867 C23.2509138,5.35861887 20.6337716,1.15392005 15.4665764,0.386570461 C10.6092778,-0.335531215 5.71644376,0.144557942 0.837428509,0.309835502 C0.466370743,0.32163333 0.27886817,0.447561895 0.1821563,0.837135602 C-0.321140141,2.8794751 0.176235133,3.65666929 2.2052111,3.92622317 C2.2446849,3.93213189 2.28613277,3.92622317 2.32560754,3.93803081 C3.24338302,4.193814 3.44272803,4.29612728 3.43878084,5.16185426 C3.40325325,11.9106242 3.38746354,18.6593843 3.44864929,25.4061421 C3.45851774,26.5847176 3.17035572,27.0746416 1.95060161,27.1848266 C0.107155311,27.3501042 0.0834707212,27.5330883 0.117023857,29.3688284 C0.120971236,29.6088779 0.117023857,29.8489176 0.117023857,30.0889572 C0.117023857,30.5690484 0.401238299,30.7618702 0.965719805,30.7618702 C5.5269672,30.7599033 10.0862392,31.2596659 14.6494634,30.8169627 C19.3074238,30.3644208 22.1061621,27.9895622 22.8226214,23.9147278 C23.5568426,19.719903 22.0390629,16.904315 17.7580588,14.7714699 Z M8.50727187,3.67043997 C9.26517711,3.62321921 13.1139121,3.56419081 14.2527465,3.88293829 C16.5481771,4.52436912 17.5508146,6.00988451 17.4777882,8.67987435 C17.4087101,11.1806507 16.1396157,12.8648938 13.9369522,13.3095698 C12.073772,13.6873359 10.1809756,13.4315527 8.3020056,13.5004159 C7.77897196,13.5200953 7.73949817,13.193476 7.73949817,12.7999665 C7.74344536,10.004048 7.75528789,7.20616661 7.73160282,4.4102482 C7.72568156,3.81603813 7.81252547,3.71372485 8.50727187,3.67043997 Z M14.6751215,27.1533494 C12.5790388,27.6393375 10.4533498,27.4110956 8.33358502,27.3146911 C7.74541944,27.2871399 7.73555099,26.9329793 7.73752409,26.5060197 C7.74541944,25.028376 7.73949817,23.5507226 7.73949817,22.073079 C7.73949817,20.5954354 7.74739254,19.117831 7.73555099,17.6401874 C7.73160282,17.1837135 7.79476168,16.9003792 8.3750329,16.9003792 C10.6961178,16.9003792 12.4625925,16.7114961 14.4856489,17.1246851 C16.9843659,17.6382145 18.3166211,19.2791727 18.3639892,21.8664894 C18.4192537,24.7588123 17.1817348,26.570947 14.6751215,27.1533494 Z" id="Fill-4" fill="#2F5495" mask="url(#mask-2)"></path>
                </g>
                <text id="Certified-Valuation" font-family="Futura-Bold, Futura" font-size="14" font-weight="bold" fill="#2F5496">
                    <tspan x="91" y="27"> Certified Valuation Experts</tspan>
                </text>
            </g>
        </g>
    </g>
</svg>