<?xml version="1.0" encoding="UTF-8"?>
<svg width="111px" height="59px" viewBox="0 0 111 59" version="1.1" xmlns="http://www.w3.org/2000/svg" xmlns:xlink="http://www.w3.org/1999/xlink">
    <!-- Generator: Sketch 58 (84663) - https://sketch.com -->
    <title>Group 5</title>
    <desc>Created with Sketch.</desc>
    <defs>
        <polygon id="path-1" points="0 0 111 0 111 59 0 59"></polygon>
    </defs>
    <g id="Page-2" stroke="none" stroke-width="1" fill="none" fill-rule="evenodd">
        <g id="DeepDive-+-Valuation" transform="translate(-956.000000, -4419.000000)">
            <g id="Group-11" transform="translate(-2.000000, 4315.000000)">
                <g id="Group-10">
                    <g id="Group-5" transform="translate(958.000000, 104.000000)">
                        <mask id="mask-2" fill="white">
                            <use xlink:href="#path-1"></use>
                        </mask>
                        <g id="Clip-2"></g>
                        <path d="M57.6868988,40.3160905 C60.9009543,29.8498919 64.0367655,19.5718511 67.2327612,9.31144357 C67.5999034,8.13512747 67.71125,7.34406094 66.1373245,7.32053022 C64.6807806,7.29994817 64.3196433,6.45888619 64.4189501,5.22080928 C64.4580723,4.74734883 64.4671097,4.26212302 64.4159476,3.78864791 C64.2684812,2.41824735 64.7981472,1.95360359 66.2637286,2.00359904 C69.6192155,2.11828931 72.9837399,2.09180991 76.3422444,2.01241573 C77.512908,1.985951 78.0305191,2.32413913 77.9823744,3.47104183 C77.9582946,4.06508989 77.9643146,4.66205729 77.9943993,5.25903937 C78.0576014,6.51476432 77.5941549,7.34111227 76.1827381,7.29113148 C74.5275657,7.23230468 74.1182838,8.27923114 73.7210418,9.5761202 C69.9983976,21.8039103 65.9477335,33.9287022 61.7736827,46.018286 C61.2590741,47.2269451 61.2921764,47.4533857 60.8949344,47.5857211 C58.6950536,48.3032732 54.6594318,47.9444972 53.9281499,47.5857211 C53.4647034,47.3592804 52.333162,43.9479637 51.7282691,42.2099617 C47.930398,31.3202834 44.5869359,20.3246875 41.2043666,9.30556089 C40.8522668,8.15572419 40.4700672,7.33524426 39.0797128,7.34699495 C37.466665,7.36170898 36.8346898,6.51769833 37.0363208,4.98261205 C37.0995228,4.51208561 37.0965204,4.0268598 37.0573982,3.55338469 C36.9671138,2.44764608 37.3252336,1.985951 38.589184,2.01241573 C42.3148307,2.09769259 46.0404773,2.08299323 49.766139,2.01829841 C50.8946629,1.99771636 51.3250072,2.38001726 51.273845,3.43576041 C51.2437603,4.02979381 51.2467628,4.63265856 51.2919049,5.22375795 C51.3882092,6.49711628 50.9247627,7.29406549 49.5133459,7.31759621 C47.9695202,7.34406094 48.0056249,8.06454997 48.3818045,9.28497884 C51.1715358,18.3014267 53.8920301,27.3355227 56.6245794,36.3695599 C57.000759,37.6164535 57.3047142,38.8868778 57.6868988,40.3160905 Z" id="Fill-1" fill="#2F5495" mask="url(#mask-2)"></path>
                        <path d="M85.7071957,45.2886537 C83.0275273,45.2886537 80.3451277,45.3464056 77.6654592,45.3146423 C74.9665494,45.2799922 73.2883239,43.1691896 74.2952565,41.0583841 C77.7204934,33.8683672 76.9198908,35.3439058 78.6613987,31.5092282 C82.911983,22.1536111 87.368911,12.9134316 92.1559752,3.84649499 C92.6071728,2.99467092 93.0831289,2.94846131 93.8727109,3.02643283 C98.2306049,3.45668062 98.2608669,3.47400922 96.3487805,7.44728683 C91.4626823,17.5883809 86.5683084,27.7265941 81.6821965,37.8676305 C80.8348354,39.6261598 80.8458423,39.6405931 82.6918876,39.643474 C86.4335091,39.6492502 90.1778754,39.6059359 93.9167383,39.6694741 C95.0749804,39.6896836 95.4794058,39.3287358 95.4519025,38.0813068 C95.3831167,34.7404152 95.5041781,31.3966139 95.3913787,28.0586608 C95.3446065,26.6870651 95.8425625,26.1442173 97.0145701,26.0171553 C97.2924444,25.9882887 97.5675602,25.9536315 97.8454346,25.9391982 C101.16612,25.7803743 101.452243,26.0633649 101.452243,29.4417946 C101.452243,32.3726191 101.485263,35.3034868 101.435733,38.2343545 C101.416478,39.294093 101.74111,39.6896836 102.77556,39.6608026 C105.006776,39.5972788 107.243495,39.6810121 109.477455,39.6232645 C110.462388,39.5972788 110.800786,39.909136 110.87782,40.9977412 C111.183198,45.2886537 111.227212,45.2828789 107.119689,45.2828789 C105.667062,45.2828789 104.21169,45.3377427 102.764553,45.2655532 C101.713607,45.2135775 101.421981,45.6582614 101.435733,46.7035566 C101.47976,50.1628502 101.388961,53.6221424 101.485263,57.0785479 C101.521029,58.4212621 100.918508,58.8341827 99.8620583,58.9641227 C99.5869425,58.9987734 99.3035648,58.9843357 99.0256904,58.9901108 C95.5014195,59.0478619 95.4298888,58.9727854 95.4298888,55.2940387 C95.4298888,52.4209186 95.3941235,49.5478 95.4491439,46.6775694 C95.4684127,45.5947347 95.0997526,45.2482289 94.0873166,45.2684413 C91.2921039,45.3261918 88.4996498,45.2886537 85.7071957,45.2886537 Z" id="Fill-3" fill="#EAE2CC" mask="url(#mask-2)"></path>
                        <path d="M25.478954,21.9189553 C26.1387786,21.4664091 26.6060295,21.1540165 27.0647904,20.8299432 C29.0726021,19.4110028 30.519673,17.5511969 31.2361311,15.1308348 C33.3600067,7.95149897 29.6049766,1.71226846 22.1911748,0.573620684 C15.2220073,-0.497885029 8.20185409,0.214505333 1.20152786,0.459755906 C0.669140631,0.477262361 0.400115201,0.664124102 0.261354692,1.24220122 C-0.46076629,4.2727695 0.252859104,5.4260254 3.16399854,5.82600857 C3.22063485,5.83477636 3.28010354,5.82600857 3.33674126,5.84352959 C4.65354955,6.22307884 4.9395663,6.37489855 4.93390295,7.65952568 C4.88292858,17.6738294 4.86027377,27.6881186 4.94806203,37.6994367 C4.9622211,39.4482907 4.54877125,40.1752746 2.79868927,40.338775 C0.153744576,40.5840256 0.119762339,40.8555504 0.167903794,43.5795518 C0.173567425,43.9357543 0.167903794,44.2919422 0.167903794,44.6481301 C0.167903794,45.3605234 0.575689734,45.6466461 1.38559798,45.6466461 C7.92999642,45.6437274 14.4715607,46.3853107 21.0187953,45.7283963 C27.7019559,45.0568825 31.7175369,41.5328987 32.7455003,35.4863703 C33.798948,29.2617916 31.6212642,25.0838223 25.478954,21.9189553 Z M12.2060857,5.44645931 C13.293515,5.3763898 18.815613,5.28879927 20.4495928,5.7617794 C23.7430367,6.71357999 25.1816035,8.91789314 25.0768266,12.8798135 C24.9777145,16.590643 23.1568399,19.0898424 19.9964966,19.7496842 C17.323238,20.3102403 14.6074867,19.9306911 11.9115732,20.0328752 C11.1611337,20.0620769 11.1044974,19.5774161 11.1044974,18.9934986 C11.1101607,14.8447165 11.1271522,10.6930214 11.0931693,6.54423927 C11.0846735,5.66250819 11.2092757,5.51068848 12.2060857,5.44645931 Z M21.0556092,40.2920669 C18.0481862,41.0132104 14.9982845,40.674529 11.9568829,40.5314771 C11.1129931,40.4905947 11.098834,39.9650661 11.101665,39.331513 C11.1129931,37.1388806 11.1044974,34.9462335 11.1044974,32.7536011 C11.1044974,30.5609686 11.1158241,28.3683944 11.098834,26.1757619 C11.0931693,25.4984136 11.1837885,25.077982 12.0163515,25.077982 C15.3466038,25.077982 17.881111,24.7977039 20.7837572,25.4108231 C24.3688728,26.1728345 26.2803693,28.6078046 26.3483323,32.4470488 C26.4276249,36.7388828 24.6520543,39.4278568 21.0556092,40.2920669 Z" id="Fill-4" fill="#2F5495" mask="url(#mask-2)"></path>
                    </g>
                </g>
            </g>
        </g>
    </g>
</svg>