<?xml version="1.0" encoding="UTF-8"?>
<svg width="168px" height="175px" viewBox="0 0 168 175" version="1.1" xmlns="http://www.w3.org/2000/svg" xmlns:xlink="http://www.w3.org/1999/xlink">
    <!-- Generator: Sketch 58 (84663) - https://sketch.com -->
    <title>Group 5</title>
    <desc>Created with Sketch.</desc>
    <defs>
        <filter x="-7.5%" y="-7.2%" width="114.9%" height="114.4%" filterUnits="objectBoundingBox" id="filter-1">
            <feOffset dx="0" dy="2" in="SourceAlpha" result="shadowOffsetOuter1"></feOffset>
            <feGaussianBlur stdDeviation="2" in="shadowOffsetOuter1" result="shadowBlurOuter1"></feGaussianBlur>
            <feColorMatrix values="0 0 0 0 0   0 0 0 0 0   0 0 0 0 0  0 0 0 0.145951705 0" type="matrix" in="shadowBlurOuter1" result="shadowMatrixOuter1"></feColorMatrix>
            <feMerge>
                <feMergeNode in="shadowMatrixOuter1"></feMergeNode>
                <feMergeNode in="SourceGraphic"></feMergeNode>
            </feMerge>
        </filter>
    </defs>
    <g id="Page-2" stroke="none" stroke-width="1" fill="none" fill-rule="evenodd">
        <g id="BV4_Landing_V4" transform="translate(-401.000000, -860.000000)" fill="#2F5496">
            <g id="Group-8" transform="translate(222.000000, 667.000000)">
                <g id="Group-5" filter="url(#filter-1)" transform="translate(182.000000, 195.000000)">
                    <path d="M160.141212,106.841033 L140.141824,81.7910333 L140.121824,81.80495 C139.841833,81.45425 139.493272,81.1508667 139.059,80.9588167 L113.971196,69.9590833 C113.039796,66.2266333 111.445559,62.6806667 109.194199,59.3907667 C108.974206,56.1815833 108.205658,53.0364167 106.879984,50.0972167 L152.170027,50.0972167 C153.747122,50.0972167 155.027082,48.8502833 155.027082,47.3138833 L155.027082,2.78333333 C155.027082,1.24693333 153.747122,0 152.170027,0 L35.030861,0 C30.3052913,0 26.4596946,3.74636667 26.4596946,8.35 C26.4596946,10.49595 27.3196683,12.4359333 28.6881979,13.9166667 C27.3196683,15.3974 26.4596946,17.3373833 26.4596946,19.4833333 C26.4596946,21.6292833 27.3196683,23.5692667 28.6881979,25.05 C27.3168113,26.5307333 26.4596946,28.4707167 26.4596946,30.6166667 C26.4596946,35.2203 30.3052913,38.9666667 35.030861,38.9666667 L63.6727346,38.9666667 C57.1729335,43.7094667 52.818781,51.0658167 52.2645123,59.4353 C50.0188667,62.7252 48.4274868,66.2683833 47.510372,69.9618667 L22.4255324,80.9616 C21.9912599,81.1508667 21.6426992,81.45425 21.3627077,81.8077333 L21.3427083,81.7938167 L1.34332026,106.843817 C0.817622057,107.500683 0.623342287,108.355167 0.811907946,109.1679 C1.00047361,109.980633 1.55474236,110.668117 2.32043322,111.041083 L20.7455838,120.011767 L20.7455838,139.166667 C20.7455838,140.2633 21.4055636,141.254167 22.4312465,141.705067 L79.5722482,166.755067 C79.9436654,166.919283 80.3436531,167 80.7436409,167 C81.1436287,167 81.5436164,166.919283 81.9150336,166.755067 L139.056142,141.705067 C140.081825,141.254167 140.741805,140.2633 140.741805,139.166667 L140.741805,120.011767 L159.161242,111.0383 C159.926932,110.665333 160.481201,109.97785 160.669767,109.165117 C160.86119,108.352383 160.664053,107.500683 160.141212,106.841033 Z M130.919249,83.5 L111.882688,91.8360833 C113.922626,87.5024333 115.028306,82.7763333 115.028306,77.9333333 C115.028306,77.4434667 114.976879,76.97865 114.954023,76.4999167 L130.919249,83.5 Z M80.7436409,38.9666667 L80.7436409,33.4 L35.030861,33.4 C33.4566234,33.4 32.1738055,32.1502833 32.1738055,30.6166667 C32.1738055,29.08305 33.4566234,27.8333333 35.030861,27.8333333 L80.7436409,27.8333333 L80.7436409,22.2666667 L35.030861,22.2666667 C33.4566234,22.2666667 32.1738055,21.01695 32.1738055,19.4833333 C32.1738055,17.9497167 33.4566234,16.7 35.030861,16.7 L80.7436409,16.7 L80.7436409,11.1333333 L35.030861,11.1333333 C33.4566234,11.1333333 32.1738055,9.88361667 32.1738055,8.35 C32.1738055,6.81638333 33.4566234,5.56666667 35.030861,5.56666667 L149.312971,5.56666667 L149.312971,44.5333333 L102.062989,44.5333333 C101.008735,44.5333333 100.040193,45.1011333 99.5430657,46.0057167 C99.0459381,46.9103 99.1030792,48.0125 99.6916326,48.8642 C100.168761,49.5600333 100.60589,50.27535 101.000164,51.01015 C95.1860562,46.8602 88.1034157,44.5333333 80.7436409,44.5333333 C71.2896444,44.5333333 63.6013082,52.0232833 63.6013082,61.2333333 C63.6013082,65.7618167 65.4298237,69.99805 68.7497222,73.1654833 C69.2954197,73.6859667 69.5982676,74.3818 69.6068388,75.12495 C69.6125529,75.8681 69.3239903,76.5695 68.7868639,77.1039 C68.2554516,77.6327333 67.5440448,77.93055 66.784068,77.939384 C66.0412336,77.9528167 65.2983992,77.6661333 64.7527016,77.1400833 C60.3271227,72.9177667 57.8871974,67.2676 57.8871974,61.2333333 C57.8871974,48.95605 68.1411693,38.9666667 80.7436409,38.9666667 Z M52.7502117,72.4807833 C52.9444914,71.5149667 53.1959123,70.5630667 53.4959031,69.6223 C54.8844321,73.9281167 57.3443568,77.8609667 60.755681,81.1146833 C62.3699173,82.6594333 64.4984237,83.5055667 66.7554975,83.5027833 L66.8526373,83.5027833 C69.1411387,83.4777333 71.2839303,82.5842833 72.8781673,80.9922167 C73.6752857,80.1989667 74.2895527,79.2776833 74.7066827,78.2784667 C76.2523497,79.78425 78.3865702,80.7166667 80.7436409,80.7166667 C82.3178784,80.7166667 83.6006963,81.9663833 83.6006963,83.5 L83.6006963,86.2833333 C83.6006963,87.81695 82.3178784,89.0666667 80.7436409,89.0666667 C79.1694033,89.0666667 77.8865855,87.81695 77.8865855,86.2833333 L72.1724746,86.2833333 C72.1724746,89.9072333 74.5695441,92.9689 77.8865855,94.1212 L77.8865855,97.4166667 L83.6006963,97.4166667 L83.6006963,94.1212 C86.9177377,92.9689 89.3148072,89.9072333 89.3148072,86.2833333 L89.3148072,83.5 C89.3148072,78.8963667 85.4692106,75.15 80.7436409,75.15 C79.1694033,75.15 77.8865855,73.9002833 77.8865855,72.3666667 L77.8865855,69.5833333 C77.8865855,68.0497167 79.1694033,66.8 80.7436409,66.8 C82.3178784,66.8 83.6006963,68.0497167 83.6006963,69.5833333 L89.3148072,69.5833333 C89.3148072,65.9594333 86.9177377,62.8977667 83.6006963,61.7454667 L83.6006963,58.45 L77.8865855,58.45 L77.8865855,61.7454667 C74.8666779,62.7947833 72.6496028,65.4306 72.2724715,68.6314333 C70.3868149,66.5884667 69.3154191,64.0055333 69.3154191,61.2333333 C69.3154191,55.0933 74.4409766,50.1 80.7436409,50.1 C89.9919294,50.1 98.7116626,54.5115833 104.074356,61.9041167 C106.417141,65.1606167 107.988522,68.7177167 108.751355,72.5420167 C109.12563,74.2148 109.314195,76.02675 109.314195,77.9333333 C109.314195,84.5660167 106.862842,90.95655 102.434406,95.9971667 L80.7436409,105.499467 L59.052876,95.99995 C54.62444,90.95655 52.1730865,84.5660167 52.1730865,77.9333333 C52.1730865,76.02675 52.3616521,74.2148 52.7502117,72.4807833 Z M46.533259,76.4971333 C46.5132596,76.97865 46.4589756,77.4434667 46.4589756,77.9333333 C46.4589756,82.7763333 47.5646561,87.5024333 49.6045936,91.8333 L30.5681404,83.5 L46.533259,76.4971333 Z M24.4797552,86.9346333 L55.7215493,100.614717 C55.8301174,100.678733 55.9415426,100.737183 56.0586819,100.790067 L76.4237731,109.71065 L59.8185668,132.820667 L7.99740238,107.578617 L24.4797552,86.9346333 Z M26.4596946,122.7951 L59.467149,138.871633 C59.8757079,139.072033 60.3128374,139.166667 60.7442528,139.166667 C61.6499394,139.166667 62.5356266,138.746383 63.0870383,137.978183 L77.8865855,117.378733 L77.8865855,159.91085 L26.4596946,137.36585 L26.4596946,122.7951 Z M135.027694,137.368633 L83.6006963,159.913633 L83.6006963,117.378733 L98.4031006,137.978183 C98.9545123,138.746383 99.8373424,139.166667 100.743029,139.166667 C101.174444,139.166667 101.611574,139.072033 102.020133,138.874417 L135.027694,122.7951 L135.027694,137.368633 Z M101.671572,132.820667 L85.0663658,109.71065 L105.431457,100.790067 C105.545739,100.739967 105.657164,100.681517 105.762875,100.6175 L137.010491,86.9346333 L153.492844,107.578617 L101.671572,132.820667 Z" id="Fill-1"></path>
                    <polygon id="Fill-2" points="136.741463 17 142.741463 17 142.741463 12 136.741463 12"></polygon>
                    <polygon id="Fill-3" points="125.741463 17 131.741463 17 131.741463 12 125.741463 12"></polygon>
                    <polygon id="Fill-4" points="136.741463 28 142.741463 28 142.741463 23 136.741463 23"></polygon>
                </g>
            </g>
        </g>
    </g>
</svg>