<?xml version="1.0" encoding="UTF-8"?>
<svg width="161px" height="176px" viewBox="0 0 161 176" version="1.1" xmlns="http://www.w3.org/2000/svg" xmlns:xlink="http://www.w3.org/1999/xlink">
    <!-- Generator: Sketch 58 (84663) - https://sketch.com -->
    <title>Rocket</title>
    <desc>Created with Sketch.</desc>
    <defs>
        <filter x="-7.8%" y="-7.1%" width="115.7%" height="114.3%" filterUnits="objectBoundingBox" id="filter-1">
            <feOffset dx="0" dy="2" in="SourceAlpha" result="shadowOffsetOuter1"></feOffset>
            <feGaussianBlur stdDeviation="2" in="shadowOffsetOuter1" result="shadowBlurOuter1"></feGaussianBlur>
            <feColorMatrix values="0 0 0 0 0   0 0 0 0 0   0 0 0 0 0  0 0 0 0.16 0" type="matrix" in="shadowBlurOuter1" result="shadowMatrixOuter1"></feColorMatrix>
            <feMerge>
                <feMergeNode in="shadowMatrixOuter1"></feMergeNode>
                <feMergeNode in="SourceGraphic"></feMergeNode>
            </feMerge>
        </filter>
    </defs>
    <g id="Page-2" stroke="none" stroke-width="1" fill="none" fill-rule="evenodd">
        <g id="BV4_Landing_V4" transform="translate(-886.000000, -860.000000)" fill="#2F5496">
            <g id="Group-7" transform="translate(701.000000, 667.000000)">
                <g id="Rocket" transform="translate(188.000000, 195.000000)">
                    <g id="Group-9" filter="url(#filter-1)" transform="translate(0.790244, 0.000000)">
                        <path d="M116.327142,131.342104 C112.104985,128.005727 106.712544,126.000042 100.844195,126.000042 L98.1235406,126.000042 L98.1235406,120.75013 L106.285505,120.75013 C107.787327,120.75013 109.00616,119.574131 109.00616,118.12534 L109.00616,113.263658 L121.632387,117.949356 C121.947955,118.067455 122.280131,118.12534 122.609114,118.12534 C123.150498,118.12534 123.689327,117.967653 124.148944,117.663258 C124.888996,117.174894 125.329769,116.366499 125.329769,115.500218 L125.329769,82.1840216 C125.329769,81.0971791 124.63603,80.1231127 123.585841,79.7348834 L109.00616,74.3219621 L109.00616,31.5006342 C109.00616,30.805015 108.720296,30.1356771 108.208936,29.6446518 L78.2823721,0.769971515 C77.2184485,-0.256657172 75.4991148,-0.256657172 74.4351912,0.769971515 L44.5086277,29.6446518 C43.9969479,30.1356771 43.7114037,30.805015 43.7114037,31.5006342 L43.7114037,74.3219621 L29.1316263,79.732222 C28.0814689,80.1231127 27.3876988,81.0971791 27.3876988,82.1840216 L27.3876988,115.500218 C27.3876988,116.366499 27.8284397,117.174894 28.5684591,117.663258 C29.0282363,117.967653 29.5669055,118.12534 30.1083216,118.12534 C30.4374959,118.12534 30.7694171,118.067455 31.0850168,117.952018 L43.7114037,113.263658 L43.7114037,118.12534 C43.7114037,119.574131 44.9302366,120.75013 46.4320585,120.75013 L54.5937033,120.75013 L54.5937033,126.000042 L51.873368,126.000042 C46.0047004,126.000042 40.6125786,128.005727 36.390102,131.342104 C16.2631018,132.29754 0.181566456,148.346714 0.181566456,168 L5.62278014,168 C5.62278014,153.040197 16.4998096,140.505879 31.0169845,137.311254 C28.7316728,140.902259 27.3876988,145.110106 27.3876988,149.625076 L32.8287847,149.625076 C32.8287847,139.492624 41.3717939,131.250286 51.873368,131.250286 L57.3143581,131.250286 C58.8161799,131.250286 60.0350128,130.074287 60.0350128,128.625164 L60.0350128,120.75013 L92.6825505,120.75013 L92.6825505,128.625164 C92.6825505,130.074287 93.9013834,131.250286 95.4028858,131.250286 L100.844195,131.250286 C111.345769,131.250286 119.888459,139.492624 119.888459,149.625076 L125.329769,149.625076 C125.329769,145.110106 123.985731,140.902259 121.700419,137.311254 C136.217818,140.505879 147.094687,153.040197 147.094687,168 L152.535997,168 C152.535997,148.346714 136.454493,132.29754 116.327142,131.342104 Z M119.888459,83.9871089 L119.888459,111.678139 L109.00616,107.638491 L109.00616,79.9474614 L119.888459,83.9871089 Z M32.8287847,111.678139 L32.8287847,83.9871089 L43.7114037,79.9474614 L43.7114037,107.638491 L32.8287847,111.678139 Z M49.1527132,109.441911 L49.1527132,32.5874766 L76.3586219,6.3375858 L103.56485,32.5874766 L103.56485,76.1253821 L103.56485,109.441911 L103.56485,115.500218 L49.1527132,115.500218 L49.1527132,109.441911 Z" id="Fill-3"></path>
                        <path d="M49.1953437,144.55814 L43.8321015,144.55814 C43.8321015,147.47275 44.4085335,150.251923 45.4115442,152.825314 C38.3615063,154.487081 33.1056171,160.649666 33.1056171,168 L38.4688593,168 C38.4688593,162.65526 42.6496445,158.287271 47.9939976,157.698612 C52.3381734,163.910712 59.6693439,168 67.9663766,168 L67.9663766,162.790698 C57.6154702,162.790698 49.1953437,154.612088 49.1953437,144.55814 Z" id="Fill-4"></path>
                        <path d="M106.054984,136.744186 C96.9951657,136.744186 88.7900651,140.299545 82.8699616,146.027163 C80.3233749,140.565206 74.6073689,136.744186 67.9663766,136.744186 L67.9663766,141.953488 C73.4728554,141.953488 77.9891901,145.902156 78.7017744,150.991634 C75.3662664,155.890977 73.4076975,161.725381 73.4076975,168 L78.848699,168 C78.848699,153.637943 91.0533429,141.953488 106.054984,141.953488 L106.054984,136.744186 Z" id="Fill-5"></path>
                        <path d="M104.118275,152.372093 L104.118275,157.581395 C110.052344,157.581395 114.87798,162.254128 114.87798,168 L120.257516,168 C120.257516,159.381208 113.019221,152.372093 104.118275,152.372093 Z" id="Fill-6"></path>
                        <polygon id="Fill-7" points="78.9410601 131.534884 84.7511867 131.534884 84.7511867 126.325581 78.9410601 126.325581"></polygon>
                        <polygon id="Fill-8" points="67.9663766 131.534884 73.7765032 131.534884 73.7765032 126.325581 67.9663766 126.325581"></polygon>
                    </g>
                    <g id="Group-2" transform="translate(58.000000, 32.000000)" stroke="#2F5496" stroke-width="2">
                        <path d="M38,19.6428571 C38,8.81178571 29.4766,0 19,0 C8.5234,0 0,8.81178571 0,19.6428571 C0,27.8702679 4.9343,35.1725 12.35,38.0334821 L12.35,41.4307143 C11.24705,41.8373214 10.45,42.9176786 10.45,44.1964286 C10.45,44.9536607 10.73595,45.6382143 11.191,46.1607143 C10.735,46.6832143 10.45,47.3677679 10.45,48.125 C10.45,49.7494643 11.7287,51.0714286 13.3,51.0714286 L13.8567,51.0714286 L17.37835,54.7122321 C17.556,54.896875 17.79825,55 18.05,55 L19.95,55 C20.20175,55 20.444,54.896875 20.62165,54.7122321 L24.1433,51.0714286 L24.7,51.0714286 C26.2713,51.0714286 27.55,49.7494643 27.55,48.125 C27.55,47.3677679 27.26405,46.6832143 26.809,46.1607143 C27.265,45.6382143 27.55,44.9536607 27.55,44.1964286 C27.55,42.9176786 26.75295,41.8373214 25.65,41.4307143 L25.65,38.0334821 C33.0657,35.1725 38,27.8702679 38,19.6428571 Z M19.5567,53.0357143 L18.4433,53.0357143 L16.5433,51.0714286 L21.4567,51.0714286 L19.5567,53.0357143 Z M24.7,49.1071429 L13.3,49.1071429 C12.77655,49.1071429 12.35,48.6661607 12.35,48.125 C12.35,47.5838393 12.77655,47.1428571 13.3,47.1428571 L24.7,47.1428571 C25.22345,47.1428571 25.65,47.5838393 25.65,48.125 C25.65,48.6661607 25.22345,49.1071429 24.7,49.1071429 Z M24.7,45.1785714 L13.3,45.1785714 C12.77655,45.1785714 12.35,44.7375893 12.35,44.1964286 C12.35,43.6552679 12.77655,43.2142857 13.3,43.2142857 L24.7,43.2142857 C25.22345,43.2142857 25.65,43.6552679 25.65,44.1964286 C25.65,44.7375893 25.22345,45.1785714 24.7,45.1785714 Z M24.3998,36.4070536 C24.01125,36.540625 23.75,36.9158036 23.75,37.3391071 L23.75,41.25 L14.25,41.25 L14.25,37.3391071 C14.25,36.9158036 13.98875,36.540625 13.6002,36.4070536 C6.60155,33.9978571 1.9,27.2613393 1.9,19.6428571 C1.9,9.89508929 9.57125,1.96428571 19,1.96428571 C28.42875,1.96428571 36.1,9.89508929 36.1,19.6428571 C36.1,27.2613393 31.39845,33.9978571 24.3998,36.4070536 Z" id="Fill-1"></path>
                        <path d="M28.9276216,20.6174405 C28.7803744,20.2444538 28.4336309,20.0004625 28.0498382,20.0004625 L22.3499461,20.0004625 L22.3499461,10.0008182 C22.3499461,9.59683261 22.1181504,9.23184559 21.7638072,9.0768511 C21.4075639,8.92085665 21.0000216,9.00685359 20.7283268,9.29384338 L10.2785245,20.2934521 C10.0068297,20.5794419 9.92513121,21.0094266 10.0723784,21.3834133 C10.2196256,21.7564 10.5663691,22.0003913 10.9501618,22.0003913 L16.6500539,22.0003913 L16.6500539,32.0000356 C16.6500539,32.4040212 16.8818496,32.7690082 17.2361928,32.9240027 C17.3539906,32.9750009 17.4774883,33 17.600036,33 C17.8470313,33 18.0902267,32.8980036 18.2716732,32.7070104 L28.7214755,21.7074018 C28.9931703,21.4214119 29.0748688,20.9914272 28.9276216,20.6174405 Z M18.550018,29.5861215 L18.550018,21.0004269 C18.550018,20.4484465 18.124426,20.0004625 17.600036,20.0004625 L13.2434184,20.0004625 L20.449982,12.4147324 L20.449982,21.0004269 C20.449982,21.5524073 20.875574,22.0003913 21.399964,22.0003913 L25.7565816,22.0003913 L18.550018,29.5861215 Z" id="Fill-9"></path>
                    </g>
                </g>
            </g>
        </g>
    </g>
</svg>