<?xml version="1.0" encoding="UTF-8"?>
<svg width="168px" height="168px" viewBox="0 0 168 168" version="1.1" xmlns="http://www.w3.org/2000/svg" xmlns:xlink="http://www.w3.org/1999/xlink">
    <!-- Generator: Sketch 58 (84663) - https://sketch.com -->
    <title>Fill 1</title>
    <desc>Created with Sketch.</desc>
    <g id="Page-2" stroke="none" stroke-width="1" fill="none" fill-rule="evenodd">
        <g id="Rating" transform="translate(-1000.000000, -1430.000000)" fill="#2F5496" stroke="#2F5495" stroke-width="3">
            <path d="M1164.02989,1502.25265 C1162.30185,1499.68416 1159.68289,1497.91447 1156.63804,1497.24345 C1158.60217,1493.54482 1158.52228,1488.92956 1156.02006,1485.2107 C1154.24018,1482.56354 1151.55502,1480.85357 1148.63213,1480.20663 C1149.15357,1479.22771 1149.5387,1478.17142 1149.76893,1477.05734 C1150.40712,1473.95941 1149.78393,1470.80241 1148.01057,1468.16778 C1146.28286,1465.598 1143.66357,1463.82799 1140.61872,1463.15857 C1142.58318,1459.45962 1142.50296,1454.84468 1140.00107,1451.12454 C1136.34314,1445.68607 1128.87008,1444.19025 1123.34486,1447.79256 L1111.38133,1455.59308 C1105.00399,1452.40879 1098.22131,1450.14947 1091.18165,1448.86266 C1088.95695,1445.5371 1086.36963,1442.44528 1083.47348,1439.68158 L1078.52416,1434.95876 C1074.89949,1431.49932 1069.21513,1430.97984 1065.00673,1433.7246 C1060.02806,1436.97053 1058.66037,1443.59949 1061.95698,1448.50114 C1062.08645,1448.69506 1062.21363,1448.89027 1062.33951,1449.08548 C1046.11572,1452.3176 1031.32967,1460.79395 1020.38577,1473.21455 C1008.50992,1486.694 1001.96875,1503.95749 1001.96875,1521.82426 C1001.96875,1525.24902 1002.20648,1528.67989 1002.67689,1532.01925 C1006.30156,1557.98094 1023.86676,1580.35371 1048.51586,1590.40862 C1057.65695,1594.13869 1067.35633,1596.03125 1077.3404,1596.03125 C1093.15231,1596.03125 1108.28788,1591.26352 1121.11234,1582.24505 C1133.65798,1573.42057 1143.04462,1561.24293 1148.25841,1547.02856 C1148.74528,1545.70418 1148.04742,1544.24111 1146.70223,1543.76272 C1145.35606,1543.28466 1143.87097,1543.97045 1143.3854,1545.29611 C1138.53,1558.53285 1129.78677,1569.87326 1118.09912,1578.09315 C1106.15971,1586.4908 1092.0654,1590.92932 1077.3404,1590.92932 C1069.72744,1590.92932 1062.29385,1589.74647 1055.17919,1587.41331 L1076.26098,1573.6684 C1076.26229,1573.66715 1076.26359,1573.66715 1076.2649,1573.6659 C1076.2662,1573.6659 1076.2662,1573.66465 1076.26751,1573.66339 L1093.78789,1562.24047 L1093.7892,1562.24047 C1095.36201,1561.21403 1096.4362,1559.64693 1096.81253,1557.82555 C1097.18886,1556.00449 1096.82264,1554.14682 1095.7804,1552.59866 L1095.54887,1552.2532 L1098.95244,1550.0337 C1101.38063,1548.45055 1104.30091,1547.82961 1107.17684,1548.28391 C1111.34057,1548.94241 1115.56919,1548.04119 1119.08298,1545.74913 L1147.3127,1527.34427 C1147.11932,1529.75512 1146.80137,1532.15217 1146.35786,1534.50908 C1146.096,1535.89478 1147.02507,1537.22655 1148.43255,1537.48308 C1148.59169,1537.51294 1148.75181,1537.52674 1148.90801,1537.52674 C1150.13254,1537.52674 1151.22076,1536.66822 1151.45197,1535.44016 C1152.17038,1531.63622 1152.58356,1527.73982 1152.69052,1523.83828 L1160.64523,1518.6512 C1163.32158,1516.90623 1165.14843,1514.23885 1165.78662,1511.14221 C1166.42612,1508.04429 1165.80195,1504.88761 1164.02989,1502.25265 Z M1106.04364,1459.2233 L1098.21824,1464.49215 L1096.67746,1460.27196 C1096.03408,1458.51152 1095.29657,1456.7855 1094.47976,1455.0965 C1098.44936,1456.11993 1102.31516,1457.49957 1106.04364,1459.2233 Z M1024.14645,1476.26628 C1034.64561,1464.3968 1048.9466,1456.41783 1064.59164,1453.65102 C1067.10204,1459.61529 1067.70359,1466.27869 1066.20361,1472.62987 L1059.89735,1499.34699 C1058.90647,1498.30916 1057.61937,1497.59343 1056.17017,1497.30484 C1054.32253,1496.93517 1052.44038,1497.29463 1050.87073,1498.31522 L1033.00839,1509.91464 C1033.00712,1509.91464 1033.00712,1509.91464 1033.00585,1509.91591 C1033.00585,1509.91591 1033.00458,1509.91591 1033.00458,1509.91719 L1007.24243,1526.64799 C1007.10155,1524.86602 1007.02795,1523.07 1007.02795,1521.27526 C1007.02795,1504.73249 1013.10807,1488.7471 1024.14645,1476.26628 Z M1091.55027,1556.86881 C1091.4497,1557.35373 1091.16203,1557.77258 1090.74081,1558.04647 L1090.74211,1558.04647 L1075.33359,1568.06799 L1046.7353,1526.17793 C1045.93727,1525.00893 1044.32553,1524.69752 1043.13533,1525.48166 C1041.94612,1526.26548 1041.62808,1527.84723 1042.42612,1529.01623 L1071.00644,1570.8825 L1049.01022,1585.19012 C1027.15261,1575.80008 1011.51118,1555.96986 1007.75069,1532.89492 L1033.62332,1516.12167 L1036.60086,1520.48528 C1037.10241,1521.21779 1037.92232,1521.61419 1038.75856,1521.61419 C1039.2552,1521.61419 1039.75806,1521.47532 1040.20083,1521.18283 C1041.39135,1520.39901 1041.70939,1518.81597 1040.91135,1517.64698 L1037.95399,1513.31448 L1053.70112,1503.10556 C1054.12006,1502.83167 1054.62291,1502.73674 1055.11695,1502.83552 C1055.61066,1502.9343 1056.0371,1503.21685 1056.31596,1503.62928 L1091.27533,1555.4782 C1091.55288,1555.88968 1091.65084,1556.38357 1091.55027,1556.86881 Z M1160.11105,1510.33184 C1159.74982,1512.09995 1158.71795,1513.62197 1157.20498,1514.61796 L1148.17025,1520.56652 C1148.16766,1520.56781 1148.16507,1520.57039 1148.16118,1520.57168 L1115.91418,1541.8051 C1113.50152,1543.39379 1110.60031,1544.01773 1107.74316,1543.56065 C1103.60793,1542.90127 1099.40725,1543.80417 1095.91478,1546.10377 L1092.53344,1548.33026 L1064.12459,1505.67884 L1071.46816,1474.13891 C1073.35889,1466.01378 1072.36234,1457.45541 1068.76004,1449.99965 C1068.72732,1449.9217 1068.69201,1449.84632 1068.65151,1449.77223 C1067.9595,1448.36329 1067.17385,1446.99557 1066.29588,1445.67714 C1064.5882,1443.11275 1065.29673,1439.64546 1067.87721,1437.94629 C1070.05724,1436.51093 1073.00284,1436.78215 1074.87964,1438.59181 L1079.79695,1443.33115 C1085.11567,1448.45863 1089.29011,1454.81822 1091.8667,1461.72284 L1094.54436,1468.89481 C1094.54922,1468.90834 1094.5544,1468.91994 1094.55959,1468.9325 C1094.56574,1468.94861 1094.57352,1468.96632 1094.57967,1468.98275 C1094.59879,1469.02656 1094.61628,1469.06682 1094.6354,1469.10065 C1094.68691,1469.20856 1094.74393,1469.3155 1094.81197,1469.41697 C1095.59761,1470.59624 1097.19417,1470.91901 1098.37895,1470.13787 L1125.83401,1452.06153 C1128.9565,1450.00577 1133.17888,1450.85874 1135.2465,1453.963 C1137.31412,1457.06726 1136.45655,1461.26543 1133.33407,1463.32151 L1130.9509,1464.8912 C1130.9509,1464.8912 1130.9496,1464.8912 1130.94831,1464.89249 L1125.63218,1468.3936 C1125.6244,1468.39875 1125.61954,1468.40358 1125.61176,1468.40745 C1125.58163,1468.42871 1125.55248,1468.449 1125.5285,1468.46897 C1124.42957,1469.27137 1124.14545,1470.79725 1124.90712,1471.94012 C1125.69146,1473.1194 1127.28931,1473.44216 1128.47507,1472.66102 L1133.79509,1469.15702 C1135.30709,1468.16392 1137.11714,1467.81346 1138.89415,1468.17262 C1140.67149,1468.53178 1142.20357,1469.55773 1143.20369,1471.06235 C1144.20542,1472.56536 1144.55921,1474.36761 1144.19797,1476.13443 C1143.83674,1477.90254 1142.80455,1479.42487 1141.29158,1480.42054 L1133.58936,1485.49295 C1132.40328,1486.2728 1132.07866,1487.8602 1132.8643,1489.03915 C1133.35934,1489.7826 1134.17803,1490.18589 1135.01291,1490.18589 C1135.5005,1490.18589 1135.99424,1490.04771 1136.43128,1489.76005 L1137.62352,1488.97537 L1141.74871,1486.25894 C1144.87217,1484.20318 1149.09358,1485.05583 1151.1612,1488.16009 C1153.22882,1491.26596 1152.37125,1495.46284 1149.24877,1497.51989 L1145.40155,1500.05271 C1145.38146,1500.06528 1145.36105,1500.07913 1145.34096,1500.09298 L1141.54655,1502.59069 C1140.3608,1503.37086 1140.03617,1504.95923 1140.82181,1506.1385 C1141.31685,1506.88195 1142.13521,1507.28525 1142.9701,1507.28525 C1143.45769,1507.28525 1143.95143,1507.14706 1144.38847,1506.8594 L1145.58103,1506.0744 C1145.58103,1506.0744 1145.58103,1506.07311 1145.582,1506.07311 L1149.70719,1503.3583 C1151.21919,1502.3623 1153.03054,1502.01055 1154.80885,1502.371 C1156.58716,1502.72888 1158.11795,1503.75611 1159.11968,1505.25944 C1160.12012,1506.76277 1160.47228,1508.5647 1160.11105,1510.33184 Z" id="Fill-1"></path>
        </g>
    </g>
</svg>