<?xml version="1.0" encoding="UTF-8"?>
<svg width="166px" height="166px" viewBox="0 0 166 166" version="1.1" xmlns="http://www.w3.org/2000/svg" xmlns:xlink="http://www.w3.org/1999/xlink">
    <!-- Generator: Sketch 58 (84663) - https://sketch.com -->
    <title>Group 11</title>
    <desc>Created with Sketch.</desc>
    <g id="Page-2" stroke="none" stroke-width="1" fill="none" fill-rule="evenodd">
        <g id="Rating" transform="translate(-278.000000, -966.000000)" fill="#2F5496" stroke="#2F5495">
            <g id="Group-11" transform="translate(279.000000, 967.000000)">
                <path d="M16.3574258,30.2734375 L32.4707936,30.2734375 C33.9540417,30.2734375 35.15625,28.9616269 35.15625,27.3435783 C35.15625,25.7255298 33.9540417,24.4140625 32.4707936,24.4140625 L16.3574258,24.4140625 C14.8742407,24.4140625 13.671875,25.7255298 13.671875,27.3435783 C13.671875,28.9616269 14.8742407,30.2734375 16.3574258,30.2734375 Z" id="Fill-1"></path>
                <path d="M46.6088634,30.2734375 L70.5789487,30.2734375 C72.0496133,30.2734375 73.2421875,28.9616269 73.2421875,27.3435783 C73.2421875,25.7255298 72.0496133,24.4140625 70.5789487,24.4140625 L46.6088634,24.4140625 C45.1378867,24.4140625 43.9453125,25.7255298 43.9453125,27.3435783 C43.9453125,28.9616269 45.1378867,30.2734375 46.6088634,30.2734375 Z" id="Fill-2"></path>
                <path d="M15.452655,60.546875 L103.688067,60.546875 C105.210643,60.546875 106.445313,59.2353308 106.445313,57.6171875 C106.445313,55.9990442 105.210643,54.6875 103.688067,54.6875 L15.452655,54.6875 C13.9298205,54.6875 12.6953125,55.9990442 12.6953125,57.6171875 C12.6953125,59.2353308 13.9298205,60.546875 15.452655,60.546875 Z" id="Fill-3"></path>
                <path d="M16.418447,71.2890625 L54.8707121,71.2890625 C56.3873407,71.2890625 57.6171875,69.9772519 57.6171875,68.3592033 C57.6171875,66.7411548 56.3873407,65.4296875 54.8707121,65.4296875 L16.418447,65.4296875 C14.9015608,65.4296875 13.671875,66.7411548 13.671875,68.3592033 C13.671875,69.9772519 14.9015608,71.2890625 16.418447,71.2890625 Z" id="Fill-4"></path>
                <path d="M16.418447,92.7734375 L54.8707121,92.7734375 C56.3873407,92.7734375 57.6171875,91.4618933 57.6171875,89.84375 C57.6171875,88.2256067 56.3873407,86.9140625 54.8707121,86.9140625 L16.418447,86.9140625 C14.9015608,86.9140625 13.671875,88.2256067 13.671875,89.84375 C13.671875,91.4618933 14.9015608,92.7734375 16.418447,92.7734375 Z" id="Fill-5"></path>
                <path d="M16.418447,115.234375 L54.8707121,115.234375 C56.3873407,115.234375 57.6171875,113.922564 57.6171875,112.304859 C57.6171875,110.686811 56.3873407,109.375 54.8707121,109.375 L16.418447,109.375 C14.9015608,109.375 13.671875,110.686811 13.671875,112.304859 C13.671875,113.922564 14.9015608,115.234375 16.418447,115.234375 Z" id="Fill-6"></path>
                <path d="M16.418447,136.71875 L54.8707121,136.71875 C56.3873407,136.71875 57.6171875,135.407073 57.6171875,133.789045 C57.6171875,132.171018 56.3873407,130.859375 54.8707121,130.859375 L16.418447,130.859375 C14.9015608,130.859375 13.671875,132.171018 13.671875,133.789045 C13.671875,135.407073 14.9015608,136.71875 16.418447,136.71875 Z" id="Fill-7"></path>
                <path d="M162.421872,79.6523438 L131.249998,66.1908875 L131.249998,8.203125 C131.249998,3.67250061 127.577177,0 123.046873,0 L19.140614,0 C14.6101499,0 10.9374891,3.67250061 10.9374891,8.203125 L10.9374891,10.9373932 L8.20312485,10.9373932 C3.67266076,10.9373932 0,14.6102142 0,19.1405182 L0,155.859343 C0,160.389807 3.67266076,164.0625 8.20312485,164.0625 L112.10948,164.0625 C114.32144,164.057501 116.437589,163.156888 117.974714,161.565962 L120.216795,163.160124 C121.911573,164.363292 124.182172,164.363292 125.876951,163.160124 L152.332028,144.328473 C159.665814,139.123398 164.034619,130.69725 164.0625,121.704254 L164.0625,82.1623077 C164.0625,81.0737915 163.419705,80.0878143 162.421872,79.6523438 Z M16.4062497,8.203125 C16.4062497,6.69291687 17.63047,5.46885681 19.140614,5.46885681 L123.046873,5.46885681 C124.557081,5.46885681 125.781141,6.69291687 125.781141,8.203125 L125.781141,63.8283234 L124.140516,63.1147156 C123.449659,62.8167114 122.666197,62.8167114 121.975019,63.1147156 L120.334394,63.8283234 L120.334394,46.4844818 C120.334394,46.4242401 120.304273,46.3668823 120.298826,46.3066406 C120.285368,46.0775299 120.241148,45.8513031 120.167448,45.6340485 C120.148542,45.5709229 120.151106,45.5055542 120.126432,45.4453125 C120.102079,45.3850708 120.082853,45.3850708 120.069074,45.3523865 C119.936094,45.0547028 119.750883,44.7836151 119.522413,44.5509796 L86.7099136,11.7384796 C86.4772781,11.5100098 86.2061905,11.3247986 85.9085067,11.1918182 C85.8729385,11.1754761 85.8485855,11.1479187 85.8155807,11.1344604 C85.7828964,11.1206818 85.6899704,11.1123505 85.6297287,11.0934448 C85.4092697,11.0200653 85.1804794,10.974884 84.9488052,10.9591827 C84.8805527,10.967514 84.8257583,10.9373932 84.7655166,10.9373932 L16.4062497,10.9373932 L16.4062497,8.203125 Z M87.5001052,20.2726135 L110.977384,43.7498932 L90.2343734,43.7498932 C88.7241653,43.7498932 87.5001052,42.5258331 87.5001052,41.015625 L87.5001052,20.2726135 Z M112.10948,158.593707 L8.20312485,158.593707 C6.69298084,158.593707 5.46876058,157.369487 5.46876058,155.859343 L5.46876058,19.1405182 C5.46876058,17.6303101 6.69298084,16.40625 8.20312485,16.40625 L82.0312485,16.40625 L82.0312485,41.015625 C82.0312485,45.545929 85.7040695,49.21875 90.2343734,49.21875 L114.843748,49.21875 L114.843748,66.1908875 L106.041731,69.9998932 C106.419523,69.5355835 106.630369,68.95784 106.640623,68.3592682 C106.640623,66.8490601 105.416243,65.625 103.906355,65.625 L65.6249988,65.625 C64.1147907,65.625 62.8907307,66.8490601 62.8907307,68.3592682 C62.8907307,69.8694763 64.1147907,71.0938568 65.6249988,71.0938568 L103.493315,71.0938568 L90.8332656,76.5623932 L16.4062497,76.5623932 C14.8961057,76.5623932 13.6718854,77.7867737 13.6718854,79.2969818 C13.6718854,80.8068695 14.8961057,82.03125 16.4062497,82.03125 L82.0504746,82.03125 C82.0504746,82.0748291 82.0312485,82.1158447 82.0312485,82.1623077 L82.0312485,87.5001068 L65.6249988,87.5001068 C64.1147907,87.5001068 62.8907307,88.7241669 62.8907307,90.234375 C62.8907307,91.7445831 64.1147907,92.9686432 65.6249988,92.9686432 L82.0312485,92.9686432 L82.0312485,98.4375 L16.4062497,98.4375 C14.8961057,98.4375 13.6718854,99.6615601 13.6718854,101.171768 C13.6718854,102.681976 14.8961057,103.906357 16.4062497,103.906357 L82.0312485,103.906357 L82.0312485,109.374893 L65.6249988,109.374893 C64.1147907,109.374893 62.8907307,110.599274 62.8907307,112.109482 C62.8907307,113.61937 64.1147907,114.84375 65.6249988,114.84375 L82.0312485,114.84375 L82.0312485,120.312607 L16.4062497,120.312607 C14.8961057,120.312607 13.6718854,121.536667 13.6718854,123.046875 C13.6718854,124.557083 14.8961057,125.781143 16.4062497,125.781143 L82.3731522,125.781143 C82.6448807,127.646713 83.1085495,129.479599 83.7567886,131.25 L65.6249988,131.25 C64.1147907,131.25 62.8907307,132.474188 62.8907307,133.984332 C62.8907307,135.494476 64.1147907,136.718697 65.6249988,136.718697 L86.5182937,136.718697 C87.8106063,138.730545 89.3554214,140.56843 91.1149275,142.187457 L16.4062497,142.187457 C14.8961057,142.187457 13.6718854,143.411678 13.6718854,144.921822 C13.6718854,146.431998 14.8961057,147.656218 16.4062497,147.656218 L98.4374982,147.656218 L113.334501,158.260103 C112.958952,158.468225 112.538542,158.582684 112.10948,158.593707 Z M158.59364,121.704254 C158.567044,128.92717 155.054761,135.693178 149.162931,139.871452 L123.046873,158.462457 L96.9308149,139.868697 C91.0396254,135.690999 87.5273422,128.926208 87.5001052,121.704254 L87.5001052,83.9698792 L92.4492171,81.8316193 L92.5011275,81.8098297 L123.046873,68.6027985 L158.59364,83.9589844 L158.59364,121.704254 Z" id="Fill-8"></path>
                <path d="M121.946134,74.4465955 L94.4247129,86.2350841 C93.4204039,86.6696695 92.7718279,87.6536425 92.7734375,88.7402658 L92.7734375,121.027498 C92.7985966,126.469569 95.4715938,131.565059 99.9509926,134.709775 L121.450753,149.884736 C122.406039,150.559255 123.687711,150.559255 124.642997,149.884736 L146.142757,134.709775 C150.621511,131.564451 153.294186,126.469249 153.320312,121.027498 L153.320312,88.7402658 C153.321922,87.6536425 152.673346,86.6696695 151.669037,86.2350841 L124.147616,74.4465955 C123.445825,74.1428015 122.647925,74.1428015 121.946134,74.4465955 Z M147.815961,90.5467212 L147.815961,121.027498 C147.795965,124.710761 145.982468,128.157385 142.94761,130.281065 L123.046875,144.312481 L103.14614,130.264437 C100.11483,128.145233 98.3019778,124.705325 98.2777893,121.027498 L98.2777893,90.5329706 L123.046875,79.926081 L147.815961,90.5467212 Z" id="Fill-9"></path>
                <path d="M108.844808,114.648561 C108.067275,114.055211 107.037896,113.929084 106.144004,114.317517 C105.250112,114.705626 104.62815,115.549608 104.511791,116.530742 C104.395432,117.5122 104.802847,118.48231 105.58038,119.075335 L116.461698,127.375739 C117.637083,128.272896 119.300538,128.058253 120.218658,126.891657 L141.981612,99.2234263 C142.920453,98.029919 142.730453,96.2884553 141.556981,95.3332603 C140.383828,94.3783896 138.671279,94.5716333 137.732118,95.7651407 L117.617955,121.34141 L108.844808,114.648561 Z" id="Fill-10"></path>
            </g>
        </g>
    </g>
</svg>