<?xml version="1.0" encoding="UTF-8"?>
<svg width="166px" height="166px" viewBox="0 0 166 166" version="1.1" xmlns="http://www.w3.org/2000/svg" xmlns:xlink="http://www.w3.org/1999/xlink">
    <!-- Generator: Sketch 58 (84663) - https://sketch.com -->
    <title>Fill 1</title>
    <desc>Created with Sketch.</desc>
    <g id="Page-2" stroke="none" stroke-width="1" fill="none" fill-rule="evenodd">
        <g id="Rating" transform="translate(-275.000000, -1912.000000)" fill="#2F5495" stroke="#2F5495">
            <path d="M440.03125,1997.64617 L440.03125,1976.41364 C440.03125,1970.52558 436.241605,1965.43203 430.602949,1963.7408 L413.569556,1958.63072 L413.569556,1954.61119 C418.361769,1951.25948 421.508065,1945.7098 421.508065,1939.43309 L421.508065,1931.49194 C421.508065,1921.27805 413.198762,1912.96875 402.984879,1912.96875 C392.770996,1912.96875 384.461694,1921.27805 384.461694,1931.49194 L384.461694,1939.43044 C384.461694,1945.7098 387.607989,1951.25948 392.400202,1954.60854 L392.400202,1958.62807 L377.388814,1963.13218 C371.75545,1958.09454 364.578046,1955.30746 356.957409,1955.30746 C349.367534,1955.30746 342.423986,1958.08792 337.058216,1962.66976 L323.599798,1958.63072 L323.599798,1954.61119 C328.392011,1951.25948 331.538306,1945.7098 331.538306,1939.43309 L331.538306,1931.49194 C331.538306,1921.27805 323.229004,1912.96875 313.015121,1912.96875 C302.801271,1912.96875 294.491935,1921.27805 294.491935,1931.49194 L294.491935,1939.43044 C294.491935,1945.7098 297.638132,1951.25948 302.430444,1954.60854 L302.430444,1958.62807 L285.397018,1963.73816 C279.758395,1965.43203 275.96875,1970.52558 275.96875,1976.41364 L275.96875,1997.64617 L281.261089,1997.64617 L281.261089,1976.41364 C281.261089,1972.881 283.53385,1969.82401 286.919095,1968.81086 L303.95768,1963.69813 C305.497817,1965.69831 308.477371,1968.53831 313.015121,1968.53831 C317.552971,1968.53831 320.532557,1965.69831 322.072628,1963.69813 L332.924568,1966.95292 C329.479917,1971.28536 327.185358,1976.55818 326.488754,1982.32749 C323.110257,1978.73664 318.325652,1976.47681 313.015121,1976.47681 C302.801271,1976.47681 294.491935,1984.78612 294.491935,1995 L294.491935,2002.93851 C294.491935,2009.21787 297.638132,2014.76755 302.430444,2018.1166 L302.430444,2022.13614 L285.397018,2027.24622 C279.758395,2028.9401 275.96875,2034.03364 275.96875,2039.9217 L275.96875,2063.8004 L307.722782,2063.8004 C309.18016,2063.8004 310.368952,2064.9891 310.368952,2066.44657 L310.368952,2077.03125 L405.631048,2077.03125 L405.631048,2066.44657 C405.631048,2064.9891 406.81984,2063.8004 408.277218,2063.8004 L440.03125,2063.8004 L440.03125,2039.9217 C440.03125,2034.03364 436.241605,2028.9401 430.602949,2027.24887 L413.569556,2022.13878 L413.569556,2018.11925 C418.361769,2014.76755 421.508065,2009.21787 421.508065,2002.94115 L421.508065,1995.00265 C421.508065,1984.78876 413.198762,1976.47946 402.984879,1976.47946 C397.803679,1976.47946 393.11996,1978.62286 389.754032,1982.06255 L389.754032,1979.55464 C389.754032,1974.32812 386.914031,1969.62357 382.482359,1967.1365 L393.927372,1963.70078 C395.467443,1965.69831 398.447029,1968.53831 402.984879,1968.53831 C407.522729,1968.53831 410.502315,1965.69831 412.042386,1963.69813 L429.083386,1968.81086 C432.466183,1969.82401 434.738911,1972.881 434.738911,1976.41364 L434.738911,1997.64617 L440.03125,1997.64617 Z M312.817012,1918.23279 C320.073159,1918.23279 325.977106,1924.13673 325.977106,1931.39288 L313.906997,1931.39288 C312.234678,1931.39288 310.59493,1930.71448 309.413812,1929.53204 L307.552975,1927.67121 L305.692072,1929.53204 C304.510986,1930.71448 302.871107,1931.39288 301.199117,1931.39288 L299.656918,1931.39288 C299.656918,1924.13673 305.560964,1918.23279 312.817012,1918.23279 Z M299.656918,1939.38707 L299.656918,1936.77467 L301.199117,1936.77467 C303.491868,1936.77467 305.681774,1936.12157 307.552975,1934.90224 C309.42434,1936.12157 311.614179,1936.77467 313.906997,1936.77467 L325.977106,1936.77467 L325.977106,1939.38707 C325.977106,1946.58911 320.073159,1952.44903 312.817012,1952.44903 C305.560964,1952.44903 299.656918,1946.58911 299.656918,1939.38707 Z M312.817012,1962.97711 C310.019176,1962.97711 308.205847,1960.58699 307.552975,1959.56538 L307.552975,1956.83807 C309.221016,1957.34386 310.988088,1957.62485 312.817012,1957.62485 C314.645936,1957.62485 316.413008,1957.34386 318.081049,1956.83573 L318.081049,1959.5627 C317.428309,1960.58967 315.614848,1962.97711 312.817012,1962.97711 Z M385.165285,2009.4761 C386.505969,2012.94447 388.819184,2015.90975 391.777574,2018.01665 L391.777574,2022.08967 L374.837901,2027.26776 C374.279913,2027.43669 373.737717,2027.65656 373.208352,2027.90023 L370.721424,2027.31636 L370.721424,2022.03336 C373.534723,2019.73039 375.751541,2016.70579 377.112623,2013.23909 C380.14438,2012.96794 382.98696,2011.65339 385.165285,2009.4761 Z M357.56133,2026.81557 C360.353902,2026.81557 363.018163,2026.25884 365.457386,2025.26822 L365.457386,2028.1294 L357.56133,2034.04161 L349.665274,2028.1294 L349.665274,2025.26822 C352.104497,2026.25884 354.768758,2026.81557 357.56133,2026.81557 Z M346.367284,2032.28693 L353.174632,2037.10026 L346.17218,2041.06033 L344.401237,2032.71619 L346.367284,2032.28693 Z M354.472105,2053.34308 L360.650905,2053.34308 L362.825368,2071.76721 L352.297293,2071.76721 L354.472105,2053.34308 Z M361.330376,2048.07904 L354.669624,2048.07904 L353.174632,2043.28088 L358.001302,2040.18299 L362.825368,2043.28088 L361.330376,2048.07904 Z M361.948028,2037.1017 L368.755376,2032.28693 L370.721424,2032.71369 L368.95048,2041.06033 L361.948028,2037.1017 Z M381.873612,2005.57375 C380.981124,2006.58346 379.847309,2007.29083 378.61748,2007.72142 C378.68933,2006.99878 378.728316,2006.26649 378.728316,2005.52557 L378.728316,1992.80665 C381.502117,1993.89145 383.566439,1996.40826 383.844496,1999.41513 C384.055858,2001.70335 383.357333,2003.88757 381.873612,2005.57375 Z M373.353443,2005.86174 C373.353443,2014.62933 366.271009,2021.75886 357.56133,2021.75886 C348.851651,2021.75886 341.769218,2014.62933 341.769218,2005.86174 L341.769218,1992.61414 L350.704921,1992.61414 C356.440748,1992.61414 362.022273,1991.1728 367.01258,1988.41995 L369.094507,1992.61414 L373.353443,1992.61414 L373.353443,2005.86174 Z M336.50518,2007.72142 C335.275351,2007.29075 334.141537,2006.58326 333.249049,2005.57337 C331.765328,2003.88955 331.066803,2001.70228 331.278164,1999.41631 C331.556221,1996.40857 333.620543,1993.88899 336.394344,1992.80665 L336.394344,2005.52518 C336.394344,2006.26623 336.43333,2006.99865 336.50518,2007.72142 Z M338.010037,2013.23909 C339.368488,2016.70579 341.585306,2019.73039 344.401237,2022.03336 L344.401237,2027.31636 L341.914308,2027.90023 C341.382311,2027.65656 340.842747,2027.43937 340.287391,2027.26776 L323.345087,2022.08967 L323.345087,2018.01665 C326.300844,2015.90975 328.616691,2012.94447 329.957376,2009.4761 C332.1357,2011.65339 334.978281,2012.96794 338.010037,2013.23909 Z M312.817012,1981.40124 C320.073159,1981.40124 325.977106,1987.30518 325.977106,1994.56133 L324.435072,1994.56133 C322.762753,1994.56133 321.123005,1993.88293 319.941887,1992.70049 L318.081049,1990.83966 L316.220212,1992.70049 C315.039094,1993.88293 313.399346,1994.56133 311.727356,1994.56133 L299.656918,1994.56133 C299.656918,1987.30518 305.560964,1981.40124 312.817012,1981.40124 Z M299.656918,2003.43285 L299.656918,2000.82046 L311.727356,2000.82046 C314.019845,2000.82046 316.210013,2000.16736 318.081049,1998.94803 C319.952415,2000.16736 322.142254,2000.82046 324.435072,2000.82046 L325.977106,2000.82046 L325.977106,2003.43285 C325.977106,2010.6349 320.073159,2016.49482 312.817012,2016.49482 C305.560964,2016.49482 299.656918,2010.6349 299.656918,2003.43285 Z M312.817012,2020.7933 C314.645936,2020.7933 316.413008,2020.51231 318.081049,2020.00418 L318.081049,2022.73115 C317.428309,2023.75811 315.614848,2026.14555 312.817012,2026.14555 C310.019176,2026.14555 308.205847,2023.75544 307.552975,2022.73383 L307.552975,2020.00652 C309.221016,2020.51231 310.988088,2020.7933 312.817012,2020.7933 Z M307.572223,2058.4735 L297.036449,2058.4735 L297.036449,2039.8623 L291.768562,2039.8623 L291.768562,2058.4735 L281.232787,2058.4735 L281.232787,2039.79882 C281.232787,2036.2494 283.495049,2033.17788 286.864653,2032.15992 L303.824516,2027.02289 C305.357537,2029.03257 308.323325,2031.88607 312.84011,2031.88607 C317.356994,2031.88607 320.322814,2029.03257 321.855769,2027.02289 L331.843683,2030.04921 L324.497285,2031.75878 C316.082494,2033.7206 310.206166,2041.17871 310.206166,2049.8936 L310.206166,2053.15601 L315.474053,2053.15601 L315.474053,2049.8936 C315.474053,2043.66729 319.673218,2038.34216 325.683218,2036.94001 L339.490679,2033.72293 L342.59544,2049.39898 L348.106309,2046.06259 L349.665274,2050.78418 L347.35794,2071.76721 L333.911658,2071.76721 L333.911658,2050.49727 L328.643771,2050.49727 L328.643771,2071.76721 L315.474053,2071.76721 L315.474053,2066.44973 C315.474053,2062.05266 311.928107,2058.4735 307.572223,2058.4735 Z M428.258362,2032.15992 C431.627721,2033.17788 433.889873,2036.2494 433.889873,2039.79882 L433.889873,2058.4735 L423.354454,2058.4735 L423.354454,2039.8623 L418.086744,2039.8623 L418.086744,2058.4735 L407.551325,2058.4735 C403.195587,2058.4735 399.64976,2062.05266 399.64976,2066.44973 L399.64976,2071.76721 L386.480486,2071.76721 L386.480486,2050.49727 L381.212777,2050.49727 L381.212777,2071.76721 L367.766948,2071.76721 L365.457386,2050.78418 L367.01597,2046.06259 L372.526653,2049.39898 L375.631309,2033.72293 L389.440939,2036.94001 C395.450737,2038.34216 399.64976,2043.66729 399.64976,2049.8936 L399.64976,2053.15601 L404.91747,2053.15601 L404.91747,2049.8936 C404.91747,2041.17871 399.04134,2033.7206 390.626832,2031.75878 L383.280682,2030.04921 L393.268259,2027.02289 C394.801163,2029.03257 397.766883,2031.88607 402.283615,2031.88607 C406.800347,2031.88607 409.766067,2029.03257 411.298971,2027.02289 L428.258362,2032.15992 Z M407.569686,2022.73383 C406.916945,2023.75811 405.103484,2026.14555 402.305648,2026.14555 C399.502548,2026.14555 397.686785,2023.74774 397.041611,2022.73383 L397.041611,2020.00418 C398.709653,2020.51231 400.476724,2020.7933 402.305648,2020.7933 C404.134572,2020.7933 405.901644,2020.51231 407.569686,2020.00418 L407.569686,2022.73383 Z M402.305648,2016.49482 C395.049502,2016.49482 389.145555,2010.6349 389.145555,2003.43285 L389.145555,2000.82046 L390.687918,2000.82046 C392.980406,2000.82046 395.170575,2000.16736 397.041611,1998.94803 C398.912976,2000.16736 401.102816,2000.82046 403.395633,2000.82046 L415.465742,2000.82046 L415.465742,2003.43285 C415.465742,2010.6349 409.561795,2016.49482 402.305648,2016.49482 Z M402.305648,1981.40124 C409.561795,1981.40124 415.465742,1987.30518 415.465742,1994.56133 L403.395633,1994.56133 C401.723314,1994.56133 400.083567,1993.88293 398.902448,1992.70049 L397.041611,1990.83966 L395.180774,1992.70049 C393.999655,1993.88293 392.359908,1994.56133 390.687918,1994.56133 L389.145555,1994.56133 C389.145555,1987.30518 395.049502,1981.40124 402.305648,1981.40124 Z M383.881517,1989.29729 C381.552839,1987.54736 378.659921,1986.46345 375.533083,1986.46345 L372.34834,1986.46345 L369.110957,1980.03833 L366.630609,1981.67857 C361.896265,1984.81081 356.390411,1986.46345 350.704921,1986.46345 L339.589577,1986.46345 C336.462739,1986.46345 333.569822,1987.54736 331.241143,1989.29729 L331.241143,1985.43439 C331.241143,1971.6021 342.585144,1960.34509 356.524315,1960.34509 C363.277746,1960.34509 369.629136,1962.95431 374.403289,1967.69218 L377.19619,1970.46334 L377.786091,1970.65988 C381.430779,1971.86622 383.881517,1975.2381 383.881517,1979.05139 L383.881517,1989.29729 Z M402.305648,1918.23279 C409.561795,1918.23279 415.465742,1924.13673 415.465742,1931.39288 L413.923708,1931.39288 C412.251389,1931.39288 410.611641,1930.71448 409.430523,1929.53204 L407.569686,1927.67121 L405.708849,1929.53204 C404.52773,1930.71448 402.887983,1931.39288 401.215993,1931.39288 L389.145555,1931.39288 C389.145555,1924.13673 395.049502,1918.23279 402.305648,1918.23279 Z M389.145555,1939.38707 L389.145555,1936.77467 L401.215993,1936.77467 C403.508481,1936.77467 405.69865,1936.12157 407.569686,1934.90224 C409.441051,1936.12157 411.630891,1936.77467 413.923708,1936.77467 L415.465742,1936.77467 L415.465742,1939.38707 C415.465742,1946.58911 409.561795,1952.44903 402.305648,1952.44903 C395.049502,1952.44903 389.145555,1946.58911 389.145555,1939.38707 Z M402.305648,1962.97711 C399.502548,1962.97711 397.686785,1960.5793 397.041611,1959.56538 L397.041611,1956.83573 C398.709653,1957.34386 400.476724,1957.62485 402.305648,1957.62485 C404.134572,1957.62485 405.901644,1957.34386 407.569686,1956.83573 L407.569686,1959.5627 C406.916945,1960.58967 405.103484,1962.97711 402.305648,1962.97711 Z" id="Fill-1"></path>
        </g>
    </g>
</svg>