<?xml version="1.0" encoding="UTF-8"?>
<svg width="182px" height="181px" viewBox="0 0 182 181" version="1.1" xmlns="http://www.w3.org/2000/svg" xmlns:xlink="http://www.w3.org/1999/xlink">
    <!-- Generator: Sketch 58 (84663) - https://sketch.com -->
    <title>Group 13</title>
    <desc>Created with Sketch.</desc>
    <g id="Page-2" stroke="none" stroke-width="1" fill="none" fill-rule="evenodd">
        <g id="Scouting+Rating" transform="translate(-269.000000, -2053.000000)" fill="#2F5495">
            <g id="Group-13" transform="translate(269.000000, 2053.000000)">
                <polygon id="Fill-1" points="89.0484848 169 94.0484848 169 94.0484848 164 89.0484848 164"></polygon>
                <polygon id="Fill-2" points="140.048485 143.5 144.548485 139 149.048485 143.5 144.548485 148"></polygon>
                <polygon id="Fill-3" points="163.048485 93 168.048485 93 168.048485 88 163.048485 88"></polygon>
                <path d="M178.041897,69.7534598 L156.725185,69.7534598 C155.562011,66.0849548 154.088407,62.5224347 152.320533,59.1038586 L167.386547,44.0344624 C168.552352,42.8682529 168.552352,40.9492501 167.386547,39.7830406 L154.629593,27.0287751 C137.674314,9.74722642 114.455936,0 90.2461348,0 C40.7652073,0 0.0484848485,40.717737 0.0484848485,90.1998974 C0.0484848485,114.408047 9.79381477,137.625124 27.072039,154.58045 L39.8260243,167.337722 C40.9922048,168.503593 42.9111598,168.503593 44.0773402,167.337722 L59.1463609,152.271333 C62.5678584,154.038499 66.1332964,155.51105 69.8047166,156.673088 L69.8047166,177.993337 C69.8047166,179.642755 71.1618154,181 72.8113049,181 L108.890365,181 C110.539854,181 111.896953,179.642755 111.896953,177.993337 L111.896953,156.676094 C115.564991,155.513606 119.127798,154.041017 122.546289,152.274339 L137.61531,167.340729 C138.78149,168.5066 140.700445,168.5066 141.866626,167.340729 L167.377528,141.829191 C168.543332,140.662982 168.543332,138.743979 167.377528,137.577769 L152.311514,122.508373 C154.082018,119.086415 155.557501,115.519384 156.722179,111.846745 L178.041897,111.846745 C179.691386,111.846745 181.048485,110.489613 181.048485,108.840082 L181.048485,72.7601231 C181.048485,71.1105925 179.691386,69.7534598 178.041897,69.7534598 Z M31.3203483,31.2681703 C63.1688003,-0.591185161 115.239528,-1.51535828 148.198501,29.1935726 L143.953198,33.4389811 C129.518567,20.1175838 110.580068,12.7140514 90.9380259,12.7140514 C48.0543049,12.7140514 12.7665414,48.0025062 12.7665414,90.8872958 C12.7665414,110.529827 20.1698518,129.468799 33.4911051,143.903789 L29.2458024,148.149197 C-1.46240095,115.189403 -0.5381757,63.1173782 31.3203483,31.2681703 Z M116.361737,65.2885649 C122.998781,72.0347656 126.722064,81.1284186 126.722064,90.592267 C126.722064,110.385131 110.435375,126.672226 90.6430045,126.672226 C81.1793919,126.672226 72.0859655,122.948849 65.3399329,116.31164 C64.1737524,115.145807 62.2547974,115.145807 61.088617,116.31164 L37.7454652,139.655374 C25.489183,126.338862 18.6803503,108.88631 18.6803503,90.7877001 C18.6803503,51.2019718 51.2536907,18.6277821 90.8384327,18.6277821 C108.936591,18.6277821 126.388333,25.4367469 139.704889,37.6934096 L116.361737,61.0341364 C115.79725,61.5978858 115.480055,62.3638332 115.480055,63.1613507 C115.480055,63.9588681 115.79725,64.7248156 116.361737,65.2885649 Z M175.035308,105.833419 L154.48227,105.833419 C153.135695,105.832667 151.94471,106.736921 151.583919,108.034296 C150.263275,112.750623 148.384909,117.29294 145.988658,121.564281 C145.326833,122.738759 145.532033,124.22142 146.487752,125.172277 L161.006567,139.69446 L139.749988,160.951569 L125.228166,146.432393 C124.277332,145.476499 122.794708,145.271407 121.62026,145.933287 C117.34865,148.329597 112.806822,150.20801 108.090612,151.528687 C106.79327,151.889599 105.889038,153.080351 105.88979,154.42711 L105.88979,174.986674 L75.8178932,174.986674 L75.8178932,154.433124 C75.8186449,153.086364 74.9144134,151.895613 73.6170706,151.5347 C68.9008609,150.214023 64.3586576,148.33561 60.0874231,145.9393 C58.9129745,145.277421 57.4299748,145.482513 56.4795171,146.438406 L41.9576954,160.957583 L33.455026,152.454739 L63.2954528,122.616613 C70.9442135,129.238413 80.7295311,132.885871 90.8459492,132.885871 C113.937299,132.885871 132.938186,113.884511 132.938186,90.7925859 C132.938186,80.6740366 129.290067,70.8873477 122.666553,63.2380206 L152.503935,33.3968879 L161.006567,41.8997315 L146.487752,56.421915 C145.532033,57.3727723 145.326833,58.8554331 145.988658,60.0299109 C148.385285,64.3012519 150.263651,68.8431925 151.583919,73.5598955 C151.94471,74.8572707 153.135695,75.7615247 154.48227,75.760773 L175.035308,75.760773 L175.035308,105.833419 Z" id="Fill-4"></path>
                <path d="M93.0460475,79.4241788 L93.0460475,45.99985 C93.0460475,44.3540573 91.6920071,43 90.046235,43 C88.4004628,43 87.0464225,44.3540573 87.0464225,45.99985 L87.0464225,79.4241788 C82.8541845,80.520249 79.5690148,83.8054597 78.4729583,87.9977501 L57.0482974,87.9977501 C55.4025252,87.9977501 54.0484848,89.3518074 54.0484848,90.9976001 C54.0484848,92.6433928 55.4025252,93.9974501 57.0482974,93.9974501 L78.4729583,93.9974501 C79.8262487,99.2779361 84.622199,103 90.0732333,103 C96.6428227,103 102.048485,97.5942703 102.048485,91.0245988 C102.048485,85.5734963 98.3264675,80.7774861 93.0460475,79.4241788 Z M90.046235,96.9973001 C86.7550657,96.9973001 84.04661,94.2888106 84.04661,90.9976001 C84.04661,87.7063897 86.7550657,84.9979001 90.046235,84.9979001 C93.3374043,84.9979001 96.04586,87.7063897 96.04586,90.9976001 C96.04586,94.2888106 93.3374043,96.9973001 90.046235,96.9973001 Z" id="Fill-5"></path>
                <path d="M91.5484848,34 C90.1769223,34 89.0484848,32.645875 89.0484848,31 L89.0484848,25 C89.0484848,23.354125 90.1769223,22 91.5484848,22 C92.9200473,22 94.0484848,23.354125 94.0484848,25 L94.0484848,31 C94.0484848,32.645875 92.9200473,34 91.5484848,34 Z" id="Fill-6"></path>
                <path d="M121.04886,42 C119.402258,41.9985228 118.048485,40.666777 118.048485,39.0487613 C118.048485,38.5308192 118.187391,38.0217308 118.450938,37.5731428 L121.454316,32.4586489 C121.992672,31.5563082 122.980784,31 124.045106,31 C125.692835,31 127.048485,32.3321146 127.048485,33.9512371 C127.048485,34.4625389 126.913333,34.9653559 126.656168,35.409886 L123.65279,40.5243798 C123.116311,41.4374188 122.121442,42.0011051 121.04886,42 Z" id="Fill-7"></path>
                <path d="M60.0482346,42 C58.9756977,42.0011051 57.9808699,41.4374188 57.4444138,40.5243798 L54.4411602,35.409886 C54.1840067,34.9653559 54.0484848,34.4625389 54.0484848,33.9512371 C54.0484848,32.3321146 55.4044538,31 57.0517384,31 C58.1163917,31 59.1044622,31.5563082 59.6427954,32.4586489 L62.6460489,37.5731428 C62.9095844,38.0217308 63.0484848,38.5308192 63.0484848,39.0487613 C63.0484848,40.666777 61.6943929,41.9985228 60.0482346,42 Z" id="Fill-8"></path>
                <path d="M38.0972572,64 C37.5789479,64.0011195 37.0698611,63.8622133 36.6216065,63.5975407 L31.5071291,60.5941642 C30.6046806,60.055809 30.0484848,59.0676981 30.0484848,58.0033765 C30.0484848,56.3556491 31.3807059,55 32.9997125,55 C33.5110864,55 34.0137912,55.1351519 34.4583567,55.3923161 L39.572871,58.3956926 C40.4848004,58.9314199 41.0484848,59.9251621 41.0484848,60.9966167 C41.0484848,62.6443441 39.7160056,64 38.0972572,64 Z" id="Fill-9"></path>
                <path d="M30.0484848,93 L24.0484848,93 C22.4027223,93 21.0484848,91.8715625 21.0484848,90.5 C21.0484848,89.1284375 22.4027223,88 24.0484848,88 L30.0484848,88 C31.6942473,88 33.0484848,89.1284375 33.0484848,90.5 C33.0484848,91.8715625 31.6942473,93 30.0484848,93 Z" id="Fill-10"></path>
                <path d="M32.9905271,126 C31.3765523,126 30.0484848,124.647391 30.0484848,123.003367 C30.0484848,121.93432 30.6103327,120.942811 31.5194324,120.408288 L36.6182465,117.411662 C37.0695416,117.14234 37.5833214,117 38.1062955,117 C39.7204541,117 41.0484848,118.352977 41.0484848,119.996627 C41.0484848,121.073165 40.4791712,122.069918 39.5604726,122.601819 L34.4616217,125.598445 C34.0148135,125.862523 33.507102,126.001117 32.9905271,126 Z" id="Fill-11"></path>
                <path d="M90.5505833,121 C82.4540552,121.022383 74.677634,117.795743 68.977138,112.048731 C68.383853,111.474411 68.0484848,110.6831 68.0484848,109.857468 C68.0484848,108.183703 69.4262033,106.806632 71.100755,106.806632 C71.9298278,106.806632 72.7241811,107.144131 73.2991525,107.740951 C77.8878591,112.42589 84.1774433,115.069058 90.7367718,115.069058 C104.124029,115.069058 115.139671,104.058592 115.139671,90.6776256 C115.139671,84.1213793 112.495261,77.8347507 107.808119,73.2482004 C107.211018,72.6734992 106.873361,71.8795191 106.873361,71.0508359 C106.873361,69.377071 108.251079,68 109.925631,68 C110.751652,68 111.543334,68.3352106 112.117924,68.9282168 C117.834063,74.6466273 121.048485,82.4079537 121.048485,90.4915246 C121.048485,107.218495 107.285417,120.986154 90.5505833,121 Z" id="Fill-12"></path>
            </g>
        </g>
    </g>
</svg>