<?xml version="1.0" encoding="UTF-8"?>
<svg width="181px" height="181px" viewBox="0 0 181 181" version="1.1" xmlns="http://www.w3.org/2000/svg" xmlns:xlink="http://www.w3.org/1999/xlink">
    <!-- Generator: Sketch 58 (84663) - https://sketch.com -->
    <title>Fill 1</title>
    <desc>Created with Sketch.</desc>
    <g id="Page-2" stroke="none" stroke-width="1" fill="none" fill-rule="evenodd">
        <g id="Scouting+Rating" transform="translate(-994.000000, -1387.000000)" fill="#2F5496">
            <path d="M1173.9589,1440.26491 L1136.09243,1389.14584 C1135.09127,1387.79682 1133.51176,1387 1131.83115,1387 C1130.15054,1387 1128.56926,1387.79682 1127.57093,1389.14584 L1089.70481,1440.26491 C1088.51311,1441.87376 1088.32928,1444.01818 1089.2311,1445.80662 C1090.13151,1447.5947 1091.96378,1448.72454 1093.96609,1448.72454 L1107.59589,1448.72454 L1107.59589,1474.35442 C1104.92649,1472.97889 1101.90358,1472.19727 1098.6986,1472.19727 L1089.23252,1472.19727 C1078.47928,1472.19727 1069.73118,1480.94536 1069.73118,1491.6986 L1069.73118,1502.75304 C1067.06178,1501.37751 1064.03746,1500.59588 1060.8339,1500.59588 L1051.36746,1500.59588 C1040.61422,1500.59588 1031.86612,1509.34539 1031.86612,1520.09863 L1031.86612,1531.15165 C1029.19552,1529.77754 1026.17268,1528.9945 1022.96894,1528.9945 L1013.50137,1528.9945 C1002.74813,1528.9945 994,1537.74405 994,1548.49725 L994,1562.69727 C994,1565.62621 996.373787,1568 999.302734,1568 L1150.76333,1568 C1153.69256,1568 1156.06606,1565.62621 1156.06606,1562.69727 L1156.06606,1448.72454 L1169.69727,1448.72454 C1171.69958,1448.72454 1173.53221,1447.5947 1174.43261,1445.80662 C1175.33408,1444.01818 1175.1506,1441.87376 1173.9589,1440.26491 Z M1004,1547.99998 C1004,1543.03831 1007.95292,1539 1012.8113,1539 L1022.18747,1539 C1027.04722,1539 1031,1543.03831 1031,1547.99998 L1031,1557 L1004,1557 L1004,1547.99998 Z M1042,1548.13993 L1042,1519.86007 C1042,1514.97415 1045.95283,1511 1050.81255,1511 L1060.18885,1511 C1065.04717,1511 1069,1514.97415 1069,1519.86007 L1069,1557 L1042,1557 L1042,1548.13993 Z M1079,1520.5 L1079,1491.94455 C1079,1487.01268 1082.95288,1483 1087.81127,1483 L1097.18733,1483 C1102.04571,1483 1106,1487.01268 1106,1491.94455 L1106,1558 L1079,1558 L1079,1520.5 Z M1150.54311,1437.86472 C1147.59696,1437.86472 1145.20911,1440.23543 1145.20911,1443.16122 L1145.20911,1557 L1117.78912,1557 L1117.78912,1443.16122 C1117.78912,1440.23543 1115.39984,1437.86472 1112.45511,1437.86472 L1104,1437.86472 L1131.49929,1401 L1159,1437.86472 L1150.54311,1437.86472 Z" id="Fill-1"></path>
        </g>
    </g>
</svg>