<?xml version="1.0" encoding="UTF-8"?>
<svg width="204px" height="204px" viewBox="0 0 204 204" version="1.1" xmlns="http://www.w3.org/2000/svg" xmlns:xlink="http://www.w3.org/1999/xlink">
    <!-- Generator: Sketch 58 (84663) - https://sketch.com -->
    <title>Group 9</title>
    <desc>Created with Sketch.</desc>
    <g id="Page-2" stroke="none" stroke-width="1" fill="none" fill-rule="evenodd">
        <g id="Scouting+Rating" transform="translate(-258.000000, -919.000000)">
            <g id="Group-9" transform="translate(259.000000, 920.000000)">
                <path d="M197.712506,175.358918 L144.960681,122.607362 C153.554625,109.662758 158.08119,94.6725937 158.08119,79.040325 C158.08119,35.4576396 122.62355,0 79.040325,0 C35.4575856,0 0,35.4576396 0,79.040325 C0,122.62355 35.4575856,158.081028 79.040325,158.081028 C94.6731333,158.081028 109.663298,153.554031 122.607363,144.961221 L137.188523,159.542111 C137.190142,159.544108 137.1923,159.54605 137.194458,159.548425 L175.358648,197.712344 C178.345242,200.698938 182.314417,202.34375 186.535577,202.34375 C190.756738,202.34375 194.725912,200.698938 197.711427,197.713531 C200.69856,194.72861 202.34375,190.759166 202.34375,186.535631 C202.34375,182.312096 200.69856,178.342706 197.712506,175.358918 Z M120.748498,136.632212 C120.748498,136.632752 120.748498,136.632752 120.747958,136.632752 C108.549058,145.49325 94.1276146,150.176995 79.040325,150.176995 C39.8158542,150.176995 7.9040325,118.265335 7.9040325,79.040325 C7.9040325,39.8158542 39.8158542,7.90381667 79.040325,7.90381667 C118.265335,7.90381667 150.176833,39.8158542 150.176833,79.040325 C150.176833,94.1276146 145.49325,108.549058 136.632752,120.748498 C132.199535,126.855502 126.855502,132.199535 120.748498,136.632212 Z M129.039735,140.215046 C133.130317,136.86909 136.86909,133.129777 140.215046,129.039735 L151.427588,140.252277 C148.017421,144.27649 144.27649,148.01796 140.252277,151.427426 L129.039735,140.215046 Z M192.123502,192.123394 C190.629396,193.617285 188.645348,194.439718 186.535577,194.439718 C184.425806,194.439718 182.441758,193.617285 180.947652,192.123394 L145.85585,157.031376 C149.85794,153.596713 153.596713,149.858479 157.03116,145.85639 L192.124042,180.949433 C193.617069,182.440949 194.439933,184.424457 194.439933,186.535631 C194.439933,188.646805 193.617069,190.630313 192.123502,192.123394 Z" id="Fill-1" fill="#2F5496"></path>
                <path d="M197.712506,175.358918 L144.960681,122.607362 C153.554625,109.662758 158.08119,94.6725937 158.08119,79.040325 C158.08119,35.4576396 122.62355,0 79.040325,0 C35.4575856,0 0,35.4576396 0,79.040325 C0,122.62355 35.4575856,158.081028 79.040325,158.081028 C94.6731333,158.081028 109.663298,153.554031 122.607363,144.961221 L137.188523,159.542111 C137.190142,159.544108 137.1923,159.54605 137.194458,159.548425 L175.358648,197.712344 C178.345242,200.698938 182.314417,202.34375 186.535577,202.34375 C190.756738,202.34375 194.725912,200.698938 197.711427,197.713531 C200.69856,194.72861 202.34375,190.759166 202.34375,186.535631 C202.34375,182.312096 200.69856,178.342706 197.712506,175.358918 Z M120.748498,136.632212 C120.748498,136.632752 120.748498,136.632752 120.747958,136.632752 C108.549058,145.49325 94.1276146,150.176995 79.040325,150.176995 C39.8158542,150.176995 7.9040325,118.265335 7.9040325,79.040325 C7.9040325,39.8158542 39.8158542,7.90381667 79.040325,7.90381667 C118.265335,7.90381667 150.176833,39.8158542 150.176833,79.040325 C150.176833,94.1276146 145.49325,108.549058 136.632752,120.748498 C132.199535,126.855502 126.855502,132.199535 120.748498,136.632212 Z M129.039735,140.215046 C133.130317,136.86909 136.86909,133.129777 140.215046,129.039735 L151.427588,140.252277 C148.017421,144.27649 144.27649,148.01796 140.252277,151.427426 L129.039735,140.215046 Z M192.123502,192.123394 C190.629396,193.617285 188.645348,194.439718 186.535577,194.439718 C184.425806,194.439718 182.441758,193.617285 180.947652,192.123394 L145.85585,157.031376 C149.85794,153.596713 153.596713,149.858479 157.03116,145.85639 L192.124042,180.949433 C193.617069,182.440949 194.439933,184.424457 194.439933,186.535631 C194.439933,188.646805 193.617069,190.630313 192.123502,192.123394 Z" id="Stroke-2" stroke="#2F5496" stroke-linejoin="round"></path>
                <path d="M100.732575,56.7701585 C99.3889976,55.4266121 97.6028943,54.6875 95.703125,54.6875 C93.8033557,54.6875 92.0167007,55.4271508 90.6736746,56.7701585 C87.9004418,59.5429063 87.9004418,64.054076 90.6736746,66.8268238 C92.0602911,68.2129284 93.881708,68.90625 95.703125,68.90625 C97.5239902,68.90625 99.3459589,68.2129284 100.732575,66.8268238 C103.505808,64.054076 103.505808,59.5429063 100.732575,56.7701585 Z M98.3693131,64.4640354 C96.8993783,65.9336402 94.5068717,65.9336402 93.0369369,64.4640354 C91.5664504,62.9944306 91.5664504,60.6025517 93.0369369,59.1324082 C93.7492815,58.4207703 94.6961314,58.0285884 95.703125,58.0285884 C96.7101186,58.0285884 97.6569685,58.4207703 98.3693131,59.1324082 C99.8397996,60.6025517 99.8397996,62.9944306 98.3693131,64.4640354 Z" id="Fill-3" fill="#2F5496"></path>
                <path d="M100.732575,56.7701585 C99.3889976,55.4266121 97.6028943,54.6875 95.703125,54.6875 C93.8033557,54.6875 92.0167007,55.4271508 90.6736746,56.7701585 C87.9004418,59.5429063 87.9004418,64.054076 90.6736746,66.8268238 C92.0602911,68.2129284 93.881708,68.90625 95.703125,68.90625 C97.5239902,68.90625 99.3459589,68.2129284 100.732575,66.8268238 C103.505808,64.054076 103.505808,59.5429063 100.732575,56.7701585 Z M98.3693131,64.4640354 C96.8993783,65.9336402 94.5068717,65.9336402 93.0369369,64.4640354 C91.5664504,62.9944306 91.5664504,60.6025517 93.0369369,59.1324082 C93.7492815,58.4207703 94.6961314,58.0285884 95.703125,58.0285884 C96.7101186,58.0285884 97.6569685,58.4207703 98.3693131,59.1324082 C99.8397996,60.6025517 99.8397996,62.9944306 98.3693131,64.4640354 Z" id="Stroke-4" stroke="#2F5496" stroke-linejoin="round"></path>
                <path d="M55.949383,105.754135 C55.1233249,105.343245 54.1208059,105.679281 53.7099826,106.504829 L51.7204952,110.499559 C50.8555054,112.23682 49.1157654,113.397866 47.1798229,113.530341 L44.8661986,113.688666 C44.4751169,113.715053 44.217925,113.52011 44.0989793,113.401097 C43.9800887,113.282084 43.7847684,113.024673 43.811403,112.633708 L43.9697216,110.320233 C44.1023431,108.384797 45.2637873,106.644844 47.0004944,105.779445 L50.9951853,103.790696 C51.8209677,103.379268 52.1570156,102.376547 51.7458063,101.550998 C51.3347073,100.725449 50.3321332,100.389414 49.506406,100.800303 L45.5116599,102.789591 C42.7182823,104.180584 40.8504978,106.978726 40.6372557,110.091901 L40.4788819,112.405376 C40.3934086,113.654201 40.8518212,114.878253 41.7368283,115.763039 C42.5516369,116.577817 43.653691,117.03125 44.7981508,117.03125 C44.8964727,117.03125 44.9954563,117.028019 45.0942745,117.021018 L47.4078987,116.862694 C50.5212773,116.649979 53.319287,114.781858 54.7102959,111.988563 L56.6993422,107.993833 C57.1107169,107.167746 56.7748896,106.165563 55.949383,105.754135 Z" id="Fill-5" fill="#2F5496"></path>
                <path d="M55.949383,105.754135 C55.1233249,105.343245 54.1208059,105.679281 53.7099826,106.504829 L51.7204952,110.499559 C50.8555054,112.23682 49.1157654,113.397866 47.1798229,113.530341 L44.8661986,113.688666 C44.4751169,113.715053 44.217925,113.52011 44.0989793,113.401097 C43.9800887,113.282084 43.7847684,113.024673 43.811403,112.633708 L43.9697216,110.320233 C44.1023431,108.384797 45.2637873,106.644844 47.0004944,105.779445 L50.9951853,103.790696 C51.8209677,103.379268 52.1570156,102.376547 51.7458063,101.550998 C51.3347073,100.725449 50.3321332,100.389414 49.506406,100.800303 L45.5116599,102.789591 C42.7182823,104.180584 40.8504978,106.978726 40.6372557,110.091901 L40.4788819,112.405376 C40.3934086,113.654201 40.8518212,114.878253 41.7368283,115.763039 C42.5516369,116.577817 43.653691,117.03125 44.7981508,117.03125 C44.8964727,117.03125 44.9954563,117.028019 45.0942745,117.021018 L47.4078987,116.862694 C50.5212773,116.649979 53.319287,114.781858 54.7102959,111.988563 L56.6993422,107.993833 C57.1107169,107.167746 56.7748896,106.165563 55.949383,105.754135 Z" id="Stroke-6" stroke="#2F5496" stroke-linejoin="round"></path>
                <path d="M118.079386,39.4021961 C117.304521,38.6241218 116.236832,38.2177217 115.152239,38.2893436 L113.614505,38.3891802 C99.8267013,39.2860818 86.9233678,46.0673744 78.2128134,56.9945988 L74.5931401,61.5349937 L65.1208075,61.2517617 C65.1044486,61.2512191 65.0886351,61.2506765 65.0722762,61.2506765 C57.5602818,61.2506765 50.4975566,64.2316671 45.1855035,69.6440046 L35.4838195,79.5294558 C35.0223902,79.9993389 34.8758147,80.7025358 35.1100738,81.323259 C35.3443328,81.9439822 35.9151484,82.3661174 36.5668314,82.399758 L57.103324,83.4746292 L56.2657497,84.5250839 C55.8442361,85.054652 55.7771647,85.7909469 56.0972533,86.3899665 C56.4189778,86.9927842 56.7559706,87.5858353 57.1076864,88.1696624 L52.237759,94.0605644 C51.8214257,94.5640881 51.7317791,95.2694554 52.0079714,95.8646769 C53.0717889,98.1549502 54.4837232,100.212995 56.2046766,101.981296 C57.9681631,103.792463 60.029381,105.274276 62.332165,106.384416 C62.5573722,106.492934 62.7983929,106.546108 63.038323,106.546108 C63.4102147,106.546108 63.7793799,106.418057 64.0792926,106.170093 C65.1284417,105.303034 66.3379076,104.274283 67.507567,103.279715 C68.3418696,102.570549 69.1947121,101.845649 69.9919345,101.176635 C70.4679777,101.468549 70.9494739,101.751781 71.4386042,102.022533 C71.6861684,102.159809 71.9571804,102.22709 72.2276471,102.22709 C72.5875423,102.22709 72.944711,102.10772 73.2402613,101.873864 L74.3657518,100.984016 L75.4258067,121.996907 C75.4590698,122.661037 75.8734946,123.242694 76.4820446,123.481434 C76.6750793,123.556854 76.8752029,123.59375 77.0742358,123.59375 C77.5044742,123.59375 77.9270784,123.422291 78.2422593,123.100535 L87.9441614,113.215084 C93.2564327,107.802747 96.1819445,100.606373 96.1819445,92.9520526 L96.1819445,83.7339874 L100.00883,80.7079617 C111.479126,71.6385662 118.46491,57.9631223 119.174885,43.1867629 L119.214147,42.3679943 C119.267586,41.2611102 118.853706,40.1802705 118.079386,39.4021961 Z M40.4456837,79.2332015 L47.5210052,72.0238053 C52.2034054,67.2528095 58.4278474,64.6228747 65.0488285,64.6163636 L71.9713581,64.8236331 L59.6820276,80.2402489 L40.4456837,79.2332015 Z M65.3918195,100.6959 C64.5297069,101.428397 63.6457825,102.179884 62.8256577,102.867346 C61.2393923,101.992148 59.8041739,100.899914 58.5499936,99.6112623 C57.33562,98.3633048 56.3017392,96.9422611 55.467982,95.3774309 L59.033671,91.0643812 C60.1117207,92.5380562 61.2917407,93.9341409 62.5666422,95.2417833 C62.5677328,95.2428685 62.5682781,95.2439537 62.5693687,95.2450388 L62.5720951,95.2472092 C63.9855017,96.6970103 65.5057863,98.0268989 67.1187712,99.2298214 C66.5494824,99.7116415 65.9660159,100.207569 65.3918195,100.6959 Z M92.8790881,92.9520526 C92.8790881,99.7073008 90.2976579,106.058319 85.609205,110.835284 L78.5339926,118.04468 L77.5464619,98.4691099 L92.8790881,86.3460167 L92.8790881,92.9520526 Z M115.876391,43.0223581 C115.213857,56.8160866 108.69212,69.5826919 97.9846922,78.0492696 L72.0831437,98.5293374 C69.9352238,97.2504523 67.9328977,95.7404237 66.100704,94.0296368 L74.8330703,85.1316998 C75.4776098,84.4751656 75.4776098,83.4095184 74.8330703,82.7518991 C74.1879854,82.0948223 73.1421081,82.0948223 72.4975685,82.7518991 L63.7728364,91.6411546 C62.1691216,89.8321588 60.7486261,87.8630989 59.5391601,85.7578489 L80.7762487,59.1161266 C88.9076991,48.915973 100.953828,42.5850304 113.824989,41.7483562 L115.362723,41.6485196 C115.563937,41.6354975 115.69917,41.7375044 115.761334,41.7999023 C115.822952,41.8617576 115.925468,41.9974052 115.915653,42.2035894 L115.876391,43.0223581 Z" id="Fill-7" fill="#2F5496"></path>
                <path d="M118.079386,39.4021961 C117.304521,38.6241218 116.236832,38.2177217 115.152239,38.2893436 L113.614505,38.3891802 C99.8267013,39.2860818 86.9233678,46.0673744 78.2128134,56.9945988 L74.5931401,61.5349937 L65.1208075,61.2517617 C65.1044486,61.2512191 65.0886351,61.2506765 65.0722762,61.2506765 C57.5602818,61.2506765 50.4975566,64.2316671 45.1855035,69.6440046 L35.4838195,79.5294558 C35.0223902,79.9993389 34.8758147,80.7025358 35.1100738,81.323259 C35.3443328,81.9439822 35.9151484,82.3661174 36.5668314,82.399758 L57.103324,83.4746292 L56.2657497,84.5250839 C55.8442361,85.054652 55.7771647,85.7909469 56.0972533,86.3899665 C56.4189778,86.9927842 56.7559706,87.5858353 57.1076864,88.1696624 L52.237759,94.0605644 C51.8214257,94.5640881 51.7317791,95.2694554 52.0079714,95.8646769 C53.0717889,98.1549502 54.4837232,100.212995 56.2046766,101.981296 C57.9681631,103.792463 60.029381,105.274276 62.332165,106.384416 C62.5573722,106.492934 62.7983929,106.546108 63.038323,106.546108 C63.4102147,106.546108 63.7793799,106.418057 64.0792926,106.170093 C65.1284417,105.303034 66.3379076,104.274283 67.507567,103.279715 C68.3418696,102.570549 69.1947121,101.845649 69.9919345,101.176635 C70.4679777,101.468549 70.9494739,101.751781 71.4386042,102.022533 C71.6861684,102.159809 71.9571804,102.22709 72.2276471,102.22709 C72.5875423,102.22709 72.944711,102.10772 73.2402613,101.873864 L74.3657518,100.984016 L75.4258067,121.996907 C75.4590698,122.661037 75.8734946,123.242694 76.4820446,123.481434 C76.6750793,123.556854 76.8752029,123.59375 77.0742358,123.59375 C77.5044742,123.59375 77.9270784,123.422291 78.2422593,123.100535 L87.9441614,113.215084 C93.2564327,107.802747 96.1819445,100.606373 96.1819445,92.9520526 L96.1819445,83.7339874 L100.00883,80.7079617 C111.479126,71.6385662 118.46491,57.9631223 119.174885,43.1867629 L119.214147,42.3679943 C119.267586,41.2611102 118.853706,40.1802705 118.079386,39.4021961 Z M40.4456837,79.2332015 L47.5210052,72.0238053 C52.2034054,67.2528095 58.4278474,64.6228747 65.0488285,64.6163636 L71.9713581,64.8236331 L59.6820276,80.2402489 L40.4456837,79.2332015 Z M65.3918195,100.6959 C64.5297069,101.428397 63.6457825,102.179884 62.8256577,102.867346 C61.2393923,101.992148 59.8041739,100.899914 58.5499936,99.6112623 C57.33562,98.3633048 56.3017392,96.9422611 55.467982,95.3774309 L59.033671,91.0643812 C60.1117207,92.5380562 61.2917407,93.9341409 62.5666422,95.2417833 C62.5677328,95.2428685 62.5682781,95.2439537 62.5693687,95.2450388 L62.5720951,95.2472092 C63.9855017,96.6970103 65.5057863,98.0268989 67.1187712,99.2298214 C66.5494824,99.7116415 65.9660159,100.207569 65.3918195,100.6959 Z M92.8790881,92.9520526 C92.8790881,99.7073008 90.2976579,106.058319 85.609205,110.835284 L78.5339926,118.04468 L77.5464619,98.4691099 L92.8790881,86.3460167 L92.8790881,92.9520526 Z M115.876391,43.0223581 C115.213857,56.8160866 108.69212,69.5826919 97.9846922,78.0492696 L72.0831437,98.5293374 C69.9352238,97.2504523 67.9328977,95.7404237 66.100704,94.0296368 L74.8330703,85.1316998 C75.4776098,84.4751656 75.4776098,83.4095184 74.8330703,82.7518991 C74.1879854,82.0948223 73.1421081,82.0948223 72.4975685,82.7518991 L63.7728364,91.6411546 C62.1691216,89.8321588 60.7486261,87.8630989 59.5391601,85.7578489 L80.7762487,59.1161266 C88.9076991,48.915973 100.953828,42.5850304 113.824989,41.7483562 L115.362723,41.6485196 C115.563937,41.6354975 115.69917,41.7375044 115.761334,41.7999023 C115.822952,41.8617576 115.925468,41.9974052 115.915653,42.2035894 L115.876391,43.0223581 Z" id="Stroke-8" stroke="#2F5496" stroke-width="2" stroke-linejoin="round"></path>
            </g>
        </g>
    </g>
</svg>