<?xml version="1.0" encoding="UTF-8"?>
<svg width="125px" height="34px" viewBox="0 0 125 34" version="1.1" xmlns="http://www.w3.org/2000/svg" xmlns:xlink="http://www.w3.org/1999/xlink">
    <!-- Generator: Sketch 53.2 (72643) - https://sketchapp.com -->
    <title>Group 7</title>
    <desc>Created with Sketch.</desc>
    <g id="Page-1" stroke="none" stroke-width="1" fill="none" fill-rule="evenodd">
        <g id="Group-7">
            <path d="M0.0816845765,20.1618205 L5.71518647,20.1492889 L5.71518647,20.4970449 C5.64597029,21.033818 5.83710493,21.5725822 6.22942478,21.946555 C6.9028445,22.2670512 7.65156448,22.3978034 8.39421618,22.3245891 L15.5630847,22.3245891 C16.0924463,22.3708597 16.6227876,22.2427149 17.0722187,21.9601296 C17.3999684,21.652165 17.5665297,21.2092604 17.522598,20.7622946 C17.5662137,20.2928729 17.3689949,19.8319216 16.9988938,19.5383692 C16.2983565,19.2073167 15.5318742,19.0380373 14.756653,19.0433628 L5.78745259,18.8344975 C3.54484829,18.7648388 2.02833439,18.3321745 1.23792668,17.5363464 C0.447518963,16.7406764 0.0534134008,15.2907712 0.0555151707,13.1867889 C0.0328855879,12.2822377 0.138669406,11.3789507 0.369706068,10.5039507 C0.554345765,9.84402655 0.900584703,9.23988622 1.37721239,8.74636536 C1.97481037,8.19105563 2.7102402,7.8045196 3.50745891,7.62689633 C4.9221713,7.35951327 6.36232617,7.24873578 7.80143805,7.29693426 L16.5181732,7.29693426 C18.1657712,7.1528129 19.8140013,7.57569532 21.1871049,8.49478508 C22.2286662,9.50474083 22.7566372,10.9329962 22.6219975,12.3754741 C22.6219975,12.4924147 22.6219975,12.6186789 22.613622,12.7575853 C22.6052465,12.8964918 22.596871,13.11378 22.5706384,13.4176675 L17.0606827,13.4176675 L17.0606827,13.3392857 C17.0998736,12.8264855 16.9298357,12.3190582 16.5894437,11.9326802 C16.2018015,11.5935525 15.6928413,11.4243047 15.1787137,11.4636536 L8.59634956,11.4636536 C7.85600506,11.3988622 7.11063527,11.5120101 6.42318268,11.7937737 C6.05316056,12.0562579 5.85270228,12.4984197 5.89952592,12.948799 C5.85815424,13.3941214 6.03598293,13.8329646 6.37604298,14.1246839 C6.91112516,14.4298357 7.51709861,14.5900759 8.13343869,14.5892857 L17.5278129,14.7408344 C19.6713021,14.801359 21.1806258,15.2887168 22.0553097,16.2027497 C22.9301517,17.1169406 23.3677307,18.6833755 23.3677307,20.902244 C23.4137168,21.9415455 23.2487358,22.979488 22.8827434,23.9537295 C22.5301833,24.7117889 21.965708,25.3526865 21.2572693,25.799036 C20.6287927,26.1640171 19.9333123,26.4001422 19.2119153,26.4935051 C17.9712389,26.6557838 16.7199747,26.7255531 15.4688211,26.7023546 L7.85485145,26.7023546 C4.73312263,26.7023546 2.6437263,26.3480247 1.58667826,25.6392541 C0.532032238,24.9238938 0,23.6049305 0,21.664586 C0,21.5601612 0.00837547408,21.3690424 0.0219974716,21.1131953 C0.0356036662,20.8573325 0.0555151707,20.5356827 0.0816845765,20.1618205 Z M32.5997155,26.4642541 L26.8876422,26.4642541 L26.8876422,7.53081542 L32.5986094,7.53081542 L32.5997155,26.4642541 Z M54.5262326,14.3501896 L54.5262326,14.159134 C54.5763274,13.5336599 54.3026233,12.9241466 53.8015171,12.5445638 C53.1071429,12.1493363 52.3094185,11.9709229 51.5121681,12.0328698 L46.9364728,12.0328698 C44.977244,12.0328698 43.7204488,12.2716498 43.1660872,12.7492099 C42.6117257,13.2267699 42.3324905,14.2266119 42.3282238,15.7485777 L42.3282238,18.3791719 C42.204646,19.4071903 42.54567,20.438464 43.2582174,21.1915139 C43.8754741,21.6990518 45.1017699,21.9535556 46.937421,21.9548989 L50.2563211,21.9548989 C51.4743995,22.0648704 52.7011694,21.8740834 53.8277497,21.3993363 C54.4499052,20.910177 54.7724399,20.1305942 54.6771492,19.3462073 L54.6771492,19.137342 L60.4655499,19.137342 C60.4671302,19.183818 60.471397,19.2301833 60.4781922,19.2762326 C60.5041087,19.8276391 60.516909,20.2401391 60.516909,20.5137484 C60.5485145,21.534055 60.3944374,22.5516277 60.062421,23.5172092 C59.7866625,24.2761062 59.2929836,24.9374684 58.6433312,25.4189001 C57.914507,25.92372 57.0805942,26.2575853 56.2040139,26.3953382 C54.7236094,26.6249842 53.2256637,26.723878 51.7278761,26.6908818 L45.3392857,26.6908818 C43.8960177,26.7346239 42.4522756,26.629567 41.0306574,26.3775759 C40.1735145,26.1945164 39.3680468,25.823878 38.6720923,25.2925411 C37.9336283,24.7123104 37.3648862,23.9446429 37.0257585,23.0702276 C36.6515487,22.00128 36.477244,20.8727876 36.511378,19.7409608 L36.511378,14.5840708 C36.511378,11.8688369 37.1474399,9.97629583 38.4197219,8.90613148 C39.6918458,7.83612516 41.9990518,7.29819848 45.3413401,7.29266751 L51.7299305,7.29266751 C53.2457332,7.25537295 54.7620101,7.34845133 56.2616941,7.5704804 C57.091024,7.69911504 57.8784766,8.02117573 58.5595765,8.51042984 C59.1684576,8.98767383 59.6246839,9.63211125 59.8718394,10.3640961 C60.1765171,11.3054678 60.31811,12.2920354 60.2907712,13.2808154 C60.2907712,13.5586283 60.2907712,13.7757585 60.2907712,13.9230405 C60.2907712,14.0703224 60.2740202,14.2133375 60.2561631,14.3481353 L54.5262326,14.3501896 Z M75.8914349,26.4642541 L70.1847345,26.4642541 L70.1847345,12.1665613 L62.3633059,12.1665613 L62.3633059,7.53081542 L83.716024,7.53081542 L83.716024,12.1665613 L75.8957016,12.1665613 L75.8914349,26.4642541 Z M92.176201,26.4642541 L86.4693426,26.4642541 L86.4693426,7.53081542 L92.1803097,7.53081542 L92.176201,26.4642541 Z M109.030183,12.0360303 L106.516593,12.0360303 C104.557838,12.0360303 103.301043,12.2748104 102.746681,12.7523704 C102.19232,13.2299305 101.913085,14.2297724 101.908818,15.7517383 L101.908818,18.3823009 C101.78524,19.410335 102.126264,20.4415929 102.838812,21.1946429 C103.456068,21.7021808 104.682522,21.9566846 106.517699,21.9580436 L109.836599,21.9580436 C111.054678,22.0679994 112.28208,21.8772124 113.40787,21.4024652 C114.030025,20.9131005 114.35256,20.1337231 114.257269,19.3493363 L114.257269,19.1404709 L120.045828,19.1404709 C120.047882,19.1869469 120.052149,19.2333123 120.058312,19.2793774 C120.084545,19.830768 120.097187,20.243268 120.097187,20.5168774 C120.128635,21.5371839 119.974558,22.5547566 119.642541,23.5203382 C119.367099,24.2791403 118.873894,24.9405973 118.223451,25.4220291 C117.495575,25.9268489 116.660872,26.2607143 115.784292,26.3984671 C114.30452,26.6281131 112.806732,26.727007 111.308154,26.6940107 L104.919406,26.6940107 C103.476612,26.7377686 102.03287,26.6327118 100.611252,26.3807206 C99.7542668,26.1976454 98.948641,25.8270228 98.2526865,25.29567 C97.5140645,24.7154551 96.9454804,23.9477718 96.6063527,23.0733723 C96.2321429,22.004409 96.0578382,20.8759166 96.0921302,19.7440898 L96.0921302,14.5840708 C96.0921302,11.8688369 96.7281922,9.97629583 98.0003161,8.90613148 C99.2724399,7.83612516 101.579962,7.29819848 104.922566,7.29266751 L109.032238,7.29266751 C109.005057,7.42146018 108.991466,7.55278129 108.991466,7.68441846 L108.991466,11.6329014 C108.991466,11.7688053 109.006163,11.9043932 109.034292,12.0369785 L109.030183,12.0360303 Z" id="Fill-1" fill="#6F6D68"></path>
            <path d="M0.180436157,31.9544722 L1.37049621,31.9544722 L1.37049621,32.0272598 C1.35500948,32.1394437 1.39383692,32.2525759 1.47515803,32.3319216 C1.61750948,32.3991941 1.77577434,32.4265329 1.93255373,32.4109355 L3.45022124,32.4109355 C3.56044564,32.4195796 3.67065424,32.3925411 3.7642225,32.3339918 C3.8335177,32.2694216 3.86867889,32.176359 3.85946587,32.0823641 C3.87025917,31.9845133 3.83089444,31.8876106 3.75480405,31.8244943 C3.60701643,31.7549305 3.44530657,31.719469 3.28171618,31.720512 L1.38724716,31.6778761 C1.04435841,31.7051201 0.702828698,31.6079014 0.426406448,31.404409 C0.22920354,31.1416561 0.139412137,30.8142067 0.175205436,30.4883375 C0.170290771,30.2980563 0.192477876,30.1078698 0.24113464,29.92372 C0.279140329,29.7851138 0.351042984,29.6578382 0.450474083,29.5535556 C0.5767067,29.4365676 0.732127054,29.3550569 0.900537295,29.3175095 C1.19957332,29.2611568 1.50384008,29.2378635 1.80801201,29.2478508 L3.65222819,29.2478508 C4.00014223,29.2174779 4.34816688,29.3062895 4.63819532,29.4994785 C4.85747472,29.7122314 4.96841024,30.0126264 4.93963338,30.3157238 C4.93963338,30.3406922 4.93963338,30.3666877 4.93963338,30.3957965 C4.93963338,30.4249052 4.93963338,30.4706542 4.93021492,30.5340866 L3.76632427,30.5340866 L3.76632427,30.5174463 C3.76852086,30.5015487 3.76967446,30.4854298 3.76967446,30.469311 C3.76967446,30.2776707 3.61088812,30.1199273 3.41798357,30.1199273 C3.40145386,30.1199273 3.38490834,30.1210809 3.36858407,30.1233723 L1.97861884,30.1233723 C1.82202908,30.1097503 1.66450695,30.1336599 1.51912137,30.193031 C1.44083439,30.2483565 1.39834071,30.3414191 1.40817004,30.4363464 C1.40042668,30.530768 1.43957016,30.6231985 1.51284766,30.683818 C1.62599558,30.7481827 1.75409292,30.7818742 1.88441846,30.7815582 L3.87307206,30.8137958 C4.2204646,30.7905025 4.56378003,30.9023862 4.82974083,31.1257427 C5.04304678,31.408976 5.14195638,31.7615834 5.10709545,32.1135588 C5.11599241,32.3322219 5.08040455,32.5504899 5.00243363,32.7551201 C4.92790771,32.9144121 4.80869153,33.0491783 4.65913401,33.1429678 C4.52631163,33.2200221 4.37934576,33.2699273 4.22684893,33.289586 C3.96487042,33.3235777 3.70080594,33.3382427 3.43661504,33.3332491 L1.82266119,33.3332491 C1.3693426,33.3740202 0.913005689,33.2969659 0.498625158,33.1096871 C0.252544248,32.9069374 0.126643489,32.59311 0.164728192,32.2778445 C0.164728192,32.2549779 0.164728192,32.2154551 0.164728192,32.162421 C0.164728192,32.1094027 0.175205436,32.0334861 0.180436157,31.9544722 Z M8.70763274,33.2802149 L7.32917193,33.2802149 L6.06689317,29.296713 L7.26847345,29.296713 L8.08277497,32.1291561 L9.09280973,29.296713 L10.2012326,29.296713 L11.1568426,32.1291561 L12.0255689,29.296713 L13.2271492,29.296713 L11.9062579,33.2802149 L10.545591,33.2802149 L9.63288559,30.5351296 L8.70763274,33.2802149 Z M14.2068268,33.2802149 L15.4125948,33.2802149 L15.4125948,29.296713 L14.2068268,29.296713 L14.2068268,33.2802149 Z M16.8445006,31.9544722 L18.0344501,31.9544722 L18.0344501,32.0272598 C18.0189633,32.1394437 18.0578382,32.2525759 18.1392225,32.3319216 C18.2814475,32.3991941 18.4397914,32.4265329 18.596555,32.4109355 L20.1099874,32.4109355 C20.2202908,32.4195796 20.3304362,32.3925411 20.4239886,32.3339918 C20.4933628,32.2694216 20.528445,32.176359 20.5192794,32.0823641 C20.5300253,31.9845133 20.4906764,31.8876106 20.414665,31.8244943 C20.2667509,31.7549305 20.1050885,31.719469 19.9415297,31.720512 L18.0470923,31.6778761 C17.7041719,31.7051201 17.3626738,31.6079014 17.0862832,31.404409 C16.8890645,31.1416561 16.7991466,30.8142067 16.835019,30.4883375 C16.8301201,30.2980563 16.852244,30.1078698 16.9009166,29.92372 C16.9390013,29.7851138 17.0109039,29.6578382 17.1103034,29.5535556 C17.2365676,29.4365676 17.391909,29.3550569 17.5603666,29.3175095 C17.8623578,29.2605405 18.1698799,29.2371365 18.477244,29.2478508 L20.318268,29.2478508 C20.6662453,29.2173831 21.0142225,29.3062895 21.3043616,29.4994785 C21.5235461,29.7122314 21.6344817,30.0126264 21.6057206,30.3157238 C21.6057206,30.3406922 21.6057206,30.3666877 21.6057206,30.3957965 C21.6057206,30.4249052 21.6057206,30.4706542 21.5962389,30.5340866 L20.4314159,30.5340866 L20.4314159,30.5174463 C20.4336283,30.5015487 20.4347345,30.4854298 20.4347345,30.469311 C20.4347345,30.2776707 20.2759166,30.1199273 20.0829646,30.1199273 C20.0665297,30.1199273 20.0499368,30.1210809 20.0336599,30.1233723 L18.6436473,30.1233723 C18.4870417,30.1097503 18.329488,30.1336599 18.1841024,30.193031 C18.1058786,30.2483565 18.0633692,30.3414191 18.0731669,30.4363464 C18.0654235,30.530768 18.1046144,30.6231985 18.1779393,30.683818 C18.2910872,30.7481827 18.4190898,30.7818742 18.5494627,30.7815582 L20.5380847,30.8137958 C20.8855879,30.7905025 21.2288243,30.9023862 21.4947851,31.1257427 C21.7081226,31.408976 21.807048,31.7615834 21.7721239,32.1135588 C21.7811315,32.3322219 21.7454172,32.5504899 21.6675095,32.7551201 C21.5929204,32.9144121 21.4737674,33.0491783 21.324115,33.1429678 C21.1913717,33.2200221 21.0444058,33.2699273 20.891909,33.289586 C20.6298989,33.3235777 20.3658344,33.3382427 20.1016119,33.3332491 L18.4867257,33.3332491 C18.0333439,33.3740202 17.5769595,33.2969659 17.1626106,33.1096871 C16.9165613,32.9069374 16.7906131,32.59311 16.8286979,32.2778445 C16.8286979,32.2549779 16.8286979,32.2154551 16.8286979,32.162421 C16.8286979,32.1094027 16.8402339,32.0334861 16.8454488,31.9544722 L16.8445006,31.9544722 Z M23.0344501,31.9544722 L24.2245575,31.9544722 L24.2245575,32.0272598 C24.2090708,32.1394437 24.2477876,32.2525759 24.3291719,32.3319216 C24.471555,32.3991941 24.6297408,32.4265329 24.7865044,32.4109355 L26.3000948,32.4109355 C26.4102402,32.4195796 26.5203856,32.3925411 26.6140961,32.3339918 C26.6833123,32.2694216 26.7185525,32.176359 26.7092288,32.0823641 C26.7201327,31.9845133 26.6806258,31.8876106 26.6046144,31.8244943 C26.4568584,31.7549305 26.2950379,31.719469 26.1314791,31.720512 L24.2370417,31.6778761 C23.8941214,31.7051201 23.5526233,31.6079014 23.2762326,31.404409 C23.0790139,31.1416561 22.9892541,30.8142067 23.0249684,30.4883375 C23.0200695,30.2980563 23.0423515,30.1078698 23.091024,29.92372 C23.1289507,29.7851138 23.2008534,29.6579488 23.3002528,29.5535556 C23.4265171,29.4365676 23.5820164,29.3551517 23.7503161,29.3175095 C24.0493047,29.2611568 24.3536662,29.2378635 24.6578698,29.2478508 L26.4988938,29.2478508 C26.846871,29.2173831 27.1948483,29.3062895 27.4848293,29.4994785 C27.7041719,29.7122314 27.8151075,30.0126264 27.7863464,30.3157238 C27.7863464,30.3406922 27.7863464,30.3666877 27.7863464,30.3957965 C27.7863464,30.4249052 27.7863464,30.4706542 27.7768647,30.5340866 L26.6213654,30.5340866 L26.6213654,30.5174463 C26.6235777,30.5015487 26.6246839,30.4854298 26.6246839,30.469311 C26.6246839,30.2776707 26.465866,30.1199273 26.2730721,30.1199273 C26.2564791,30.1199273 26.2398862,30.1210809 26.2236094,30.1233723 L24.8335967,30.1233723 C24.6769912,30.1097503 24.5195954,30.1336599 24.3742099,30.193031 C24.2958281,30.2483565 24.2533186,30.3414191 24.2632743,30.4363464 C24.255531,30.530768 24.2945638,30.6231985 24.3678887,30.683818 C24.4810367,30.7481827 24.6091972,30.7818742 24.7394121,30.7815582 L26.7281922,30.8137958 C27.0755373,30.7905025 27.4187737,30.9023862 27.6847345,31.1257427 C27.8980721,31.408976 27.9969975,31.7615834 27.9620733,32.1135588 C27.9710809,32.3322219 27.9355247,32.5504899 27.8574589,32.7551201 C27.7830278,32.9144121 27.6637168,33.0491783 27.5142225,33.1429678 C27.3813211,33.2200221 27.2343552,33.2699273 27.0818584,33.289586 C26.8198483,33.3235777 26.5557838,33.3382427 26.2917193,33.3332491 L24.6766751,33.3332491 C24.2232933,33.3740202 23.767067,33.2969659 23.3525601,33.1096871 C23.1065107,32.9069374 22.9805626,32.59311 23.0188053,32.2778445 C23.0188053,32.2549779 23.0188053,32.2154551 23.0188053,32.162421 C23.0188053,32.1094027 23.0301833,32.0334861 23.0353982,31.9544722 L23.0344501,31.9544722 Z M33.1787295,33.2802149 L31.9740834,33.2802149 L31.9740834,29.296713 L33.1798357,29.296713 L33.1787295,33.2802149 Z M38.4361568,30.732696 L38.4361568,30.6973451 C38.4469027,30.5656922 38.3892225,30.4372788 38.2833439,30.3573167 C38.136378,30.275079 37.9677623,30.2388906 37.7997788,30.2533344 L36.8337547,30.2533344 C36.5589444,30.2220449 36.2811315,30.2746523 36.0371365,30.4041087 C35.8939633,30.5815107 35.829804,30.8098451 35.8603034,31.0352718 L35.8603034,31.5884482 C35.8342288,31.8048357 35.9062895,32.0218394 36.057048,32.1801043 C36.2926675,32.3128951 36.5643173,32.3692478 36.8337547,32.3412769 L37.5349241,32.3412769 C37.7923515,32.3647756 38.0516751,32.3247472 38.289665,32.2248104 C38.42067,32.121871 38.488622,31.9581068 38.4685525,31.7932996 L38.4685525,31.7371523 L39.6910556,31.7371523 L39.6910556,31.7662611 C39.6965866,31.8819848 39.6994311,31.9687105 39.6994311,32.0262168 C39.7060683,32.2410398 39.6735145,32.4552307 39.6031922,32.6584229 C39.5450379,32.8181258 39.4408976,32.9573641 39.3038875,33.0587389 C39.1501264,33.1658502 38.9740834,33.2368679 38.7888748,33.2667035 C38.477244,33.3148546 38.1621365,33.3357459 37.846871,33.3290929 L36.4977876,33.3290929 C36.19311,33.3380373 35.8882743,33.315787 35.5881795,33.2625474 C35.4070796,33.2239728 35.2368837,33.1457807 35.0899178,33.0337863 C34.9341024,32.9115044 34.8140013,32.749921 34.7424147,32.565866 C34.664823,32.3405499 34.6292668,32.1030499 34.6378003,31.8650442 L34.6378003,30.780531 C34.5886536,30.3430784 34.7362516,29.9056258 35.0407712,29.5857775 C35.4778761,29.3147124 35.9933628,29.1954488 36.5061631,29.2468078 L37.8541403,29.2468078 C38.1741466,29.2389064 38.494311,29.2583439 38.8108407,29.3050411 C38.9862516,29.3322851 39.1526549,29.4003951 39.2964602,29.5036346 C39.4254109,29.6038717 39.5218078,29.7394753 39.573799,29.8935683 C39.6382743,30.0915455 39.6684576,30.2990992 39.6627686,30.507048 C39.6627686,30.5652813 39.6627686,30.6110303 39.6627686,30.642225 C39.6627686,30.6734197 39.6627686,30.7035714 39.6554994,30.731653 L38.4361568,30.732696 Z M43.5763274,33.2802149 L42.3716814,33.2802149 L42.3716814,30.2720607 L40.7199747,30.2720607 L40.7199747,29.296713 L45.2289823,29.296713 L45.2289823,30.2720607 L43.5774336,30.2720607 L43.5763274,33.2802149 Z M50.2928255,33.2802149 L49.0880215,33.2802149 L49.0880215,29.296713 L50.2959861,29.296713 L50.2928255,33.2802149 Z M57.119153,33.2802149 L55.3535082,33.2802149 L52.9859355,30.3853982 L52.9859355,33.2833439 L51.7801833,33.2833439 L51.7801833,29.296713 L53.5657396,29.296713 L55.9197219,32.2175411 L55.9197219,29.296713 L57.1202592,29.296713 L57.119153,33.2802149 Z M60.9792984,32.1572219 L62.5545196,29.296713 L63.8356511,29.296713 L61.7297724,33.2802149 L60.2643805,33.2802149 L58.176359,29.296713 L59.4919406,29.296713 L60.9792984,32.1572219 Z M69.1517067,30.2668616 L66.0429836,30.2668616 L66.0429836,30.8699431 L68.9737674,30.8699431 L68.9737674,31.7080278 L66.0429836,31.7080278 L66.0429836,32.3163243 L69.198799,32.3163243 L69.198799,33.2802149 L64.8383375,33.2802149 L64.8383375,29.296713 L69.1526549,29.296713 L69.1517067,30.2668616 Z M70.4747155,31.9544722 L71.664665,31.9544722 L71.664665,32.0272598 C71.6491783,32.1394437 71.6880531,32.2525759 71.7694374,32.3319216 C71.9116625,32.3991941 72.0700063,32.4265329 72.2267699,32.4109355 L73.7413085,32.4109355 C73.8514539,32.4195796 73.9617573,32.3925411 74.0553097,32.3339918 C74.1245259,32.2694216 74.1597661,32.176359 74.1506005,32.0823641 C74.1613464,31.9845133 74.1219975,31.8876106 74.0458281,31.8244943 C73.8980721,31.7549305 73.7364096,31.719469 73.5728508,31.720512 L71.6782554,31.6778761 C71.335493,31.7051201 70.9938369,31.6079014 70.7174463,31.404409 C70.5202276,31.1416561 70.4304678,30.8142067 70.4663401,30.4883375 C70.4612832,30.2979456 70.4835651,30.1078698 70.5322377,29.92372 C70.5701643,29.7851138 70.642067,29.6578382 70.7416245,29.5535556 C70.8677307,29.4365676 71.0232301,29.3550569 71.1916877,29.3175095 C71.4906764,29.2611568 71.7948799,29.2378635 72.0990834,29.2478508 L73.9506953,29.2478508 C74.2985145,29.2173831 74.6464918,29.3062895 74.9366308,29.4994785 C75.1558154,29.7122314 75.2667509,30.0126264 75.2379899,30.3157238 C75.2379899,30.3406922 75.2379899,30.3666877 75.2379899,30.3957965 C75.2379899,30.4249052 75.2379899,30.4706542 75.2286662,30.5340866 L74.0605247,30.5340866 L74.0605247,30.5174463 C74.062737,30.5015487 74.0638432,30.4854298 74.0638432,30.469311 C74.0638432,30.2776707 73.9050253,30.1199273 73.7122314,30.1199273 C73.6956384,30.1199273 73.6792035,30.1210809 73.6627686,30.1233723 L72.2759166,30.1233723 C72.119311,30.1097503 71.9619153,30.1336599 71.8165297,30.193031 C71.7381479,30.2483565 71.6956384,30.3414191 71.7055942,30.4363464 C71.6978508,30.530768 71.7368837,30.6231985 71.8102086,30.683818 C71.9233565,30.7481827 72.0515171,30.7818742 72.181732,30.7815582 L74.170354,30.8137958 C74.5178571,30.7905025 74.8610936,30.9023862 75.1270544,31.1257427 C75.3403919,31.408976 75.4393173,31.7615834 75.4043932,32.1135588 C75.4134008,32.3322219 75.3776865,32.5504899 75.2997788,32.7551201 C75.2251896,32.9144121 75.1060367,33.0491783 74.9565424,33.1429678 C74.823641,33.2200221 74.6766751,33.2699273 74.5241783,33.289586 C74.2621681,33.3235777 73.9981037,33.3382427 73.7340392,33.3332491 L72.1169406,33.3332491 C71.6635588,33.3740202 71.2071745,33.2969659 70.7928255,33.1096871 C70.5467762,32.9069374 70.4208281,32.59311 70.4589128,32.2778445 C70.4589128,32.2549779 70.4589128,32.2154551 70.4589128,32.162421 C70.4589128,32.1094027 70.4704488,32.0334861 70.4756637,31.9544722 L70.4747155,31.9544722 Z M79.2991466,33.2802149 L78.0943426,33.2802149 L78.0943426,30.2720607 L76.4427939,30.2720607 L76.4427939,29.296713 L80.9518015,29.296713 L80.9518015,30.2720607 L79.3000948,30.2720607 L79.2991466,33.2802149 Z M83.9892541,33.3290929 C83.6502845,33.3376264 83.3113148,33.3164033 82.9759798,33.2656606 C82.7872946,33.2346713 82.6082491,33.1610619 82.4527497,33.0504267 C82.300885,32.936457 82.1863148,32.7804836 82.1229456,32.6022598 C82.0470923,32.3647756 82.0116941,32.1162611 82.0183312,31.8671302 L82.0183312,30.7815582 C82.0107459,30.5136062 82.0461441,30.2461599 82.1229456,29.9892225 C82.1833123,29.8054994 82.2981985,29.6441214 82.4527497,29.5265171 C82.6101454,29.4159766 82.7909292,29.3426833 82.9813527,29.3123104 C83.312579,29.2618837 83.647756,29.2406764 83.982933,29.2488938 L85.4021808,29.2488938 C85.7390961,29.2406764 86.0760114,29.2618837 86.409134,29.3123104 C86.5995575,29.3424779 86.7803413,29.4157712 86.937737,29.5265171 C87.0888116,29.6448483 87.2011694,29.8051833 87.2601138,29.9871523 C87.3358091,30.2290139 87.3710493,30.481574 87.3647282,30.7347661 L87.3647282,31.8411346 C87.3716814,32.0947377 87.3362832,32.3477244 87.2601138,32.5897914 C87.1999052,32.7708123 87.0877054,32.930531 86.937737,33.0493837 C86.7823957,33.1604298 86.6031922,33.234055 86.4143489,33.2646176 C86.0801201,33.3149494 85.7422566,33.3361568 85.4043932,33.3280499 L83.9892541,33.3290929 Z M84.3147914,32.3319216 L85.0820164,32.3319216 C85.3745259,32.3617573 85.6697219,32.3057206 85.9307838,32.1707491 C86.0900759,32.0137326 86.1675095,31.7920512 86.1401707,31.5707807 L86.1401707,31.0092762 C86.1675095,30.7881163 86.0900759,30.5663243 85.9307838,30.4093078 C85.6697219,30.2744469 85.3745259,30.2184102 85.0820164,30.2481353 L84.312579,30.2481353 C84.017225,30.2169406 83.7191846,30.27372 83.4565424,30.4113938 C83.2986726,30.5788085 83.2240834,30.8077592 83.2534766,31.0352718 L83.2534766,31.5884482 C83.2261378,31.8066056 83.3037295,32.0252845 83.4627054,32.1780183 C83.7251896,32.3096713 84.0203856,32.3635272 84.312579,32.3329646 L84.3147914,32.3319216 Z M91.8644121,30.287658 L89.948957,30.287658 L89.948957,31.2629899 L91.8664665,31.2629899 C91.9905183,31.2769279 92.1147282,31.2349241 92.204488,31.1486094 C92.2828698,31.0247788 92.3171618,30.8782712 92.3018331,30.732696 C92.312263,30.6092604 92.2748104,30.4864728 92.1972187,30.3895544 C92.1054046,30.3127212 91.9859355,30.2762168 91.8664665,30.288701 L91.8644121,30.287658 Z M91.9083439,29.2956858 C92.3535082,29.2504425 92.8018331,29.3489096 93.1863148,29.5764223 C93.4451643,29.8515645 93.5693742,30.2265171 93.5254425,30.6006321 C93.5426675,30.8653761 93.4908344,31.1301043 93.3746839,31.3690582 C93.2597977,31.5459229 93.0763274,31.6678887 92.8680468,31.7059576 C93.0496207,31.7405815 93.2144437,31.8337389 93.3370733,31.9710967 C93.4459545,32.1115834 93.5015803,32.2857459 93.4939949,32.4629267 L93.4939949,33.2781448 L92.2902971,33.2781448 L92.2902971,32.6729772 C92.3059418,32.5551675 92.2675411,32.4363148 92.1856827,32.3495891 C92.0519912,32.2733723 91.8972819,32.2409292 91.7439949,32.257048 L89.948957,32.257048 L89.948957,33.2760588 L88.7368837,33.2760588 L88.7368837,29.296713 L91.9083439,29.2956858 Z M101.345133,30.731653 L101.345133,30.6973451 C101.355879,30.5656922 101.29804,30.4372788 101.19232,30.3573167 C101.045354,30.275079 100.876738,30.2388906 100.708755,30.2533344 L99.7425727,30.2533344 C99.4679204,30.2220449 99.1899494,30.2746523 98.9461125,30.4041087 C98.8027813,30.5815107 98.73878,30.8098451 98.7692794,31.0352718 L98.7692794,31.5884482 C98.7432048,31.8048357 98.8152655,32.0218394 98.966024,32.1801043 C99.2016435,32.3128951 99.4731353,32.3692478 99.7425727,32.3412769 L100.4439,32.3412769 C100.701327,32.3647756 100.960493,32.3247472 101.198483,32.2248104 C101.329646,32.121871 101.39744,31.9581068 101.377528,31.7932996 L101.377528,31.7371523 L102.600032,31.7371523 L102.600032,31.7662611 C102.605563,31.8819848 102.608407,31.9687105 102.608407,32.0262168 C102.615044,32.2410398 102.582491,32.4552307 102.512168,32.6584229 C102.454014,32.8181258 102.349874,32.9573641 102.212705,33.0587389 C102.059102,33.1658502 101.883059,33.2368679 101.697851,33.2667035 C101.38622,33.3148546 101.071113,33.3357459 100.755847,33.3290929 L99.4086599,33.3290929 C99.1039823,33.3380373 98.7993047,33.315787 98.4992099,33.2625474 C98.31811,33.2239728 98.147914,33.1457807 98.0009482,33.0337863 C97.8451327,32.9115044 97.7250316,32.749921 97.653445,32.565866 C97.5758534,32.3405499 97.5402971,32.1030499 97.5488306,31.8650442 L97.5488306,30.780531 C97.4996839,30.3430784 97.6472819,29.9056258 97.9518015,29.5857775 C98.3889064,29.3147124 98.9043932,29.1954488 99.4170354,29.2468078 L100.765171,29.2468078 C101.085177,29.2389064 101.405183,29.2583439 101.721871,29.3050411 C101.897282,29.3322851 102.063685,29.4003951 102.207491,29.5036346 C102.336441,29.6038717 102.432838,29.7394753 102.484829,29.8935683 C102.549305,30.0915455 102.579488,30.2990992 102.573799,30.507048 C102.573799,30.5652813 102.573799,30.6110303 102.573799,30.642225 C102.573799,30.6734197 102.573799,30.7035714 102.56653,30.731653 L101.345133,30.731653 Z M105.185999,32.3152813 L107.815107,32.3152813 L107.815107,33.2791877 L103.983723,33.2791877 L103.983723,29.296713 L105.189001,29.296713 L105.185999,32.3152813 Z M108.91103,29.299842 L110.116783,29.299842 L110.116783,31.6612358 C110.09055,31.8599558 110.157554,32.0600032 110.298831,32.2029867 C110.54488,32.3214128 110.819058,32.3693426 111.090234,32.3412769 L111.774652,32.3412769 C112.012326,32.3667509 112.250948,32.3152813 112.454962,32.1946587 C112.588021,32.0500316 112.650759,31.8552623 112.626738,31.6612358 L112.626738,29.296713 L113.832491,29.296713 L113.832491,32.0355721 C113.871207,32.4082332 113.732933,32.778208 113.457807,33.0348293 C113.068426,33.2674305 112.613148,33.3708913 112.159924,33.3301359 L110.812737,33.3301359 C110.298831,33.3750474 109.781764,33.2775126 109.319216,33.0483407 C109.02086,32.8011852 108.867099,32.419469 108.912137,32.0355721 L108.91103,29.299842 Z M118.674305,32.3787137 C118.766435,32.3845291 118.856511,32.3499052 118.920354,32.2840866 C118.981985,32.2070322 119.013432,32.1099241 119.006163,32.0116625 C119.011378,31.9178729 118.978982,31.8258375 118.915139,31.7558628 C118.852244,31.691182 118.764381,31.6566688 118.673357,31.6612358 L116.447061,31.6612358 L116.447061,32.3787137 L118.674305,32.3787137 Z M118.56969,30.8501896 C118.655499,30.8561157 118.740202,30.8254425 118.801043,30.7659608 C118.858565,30.697756 118.886852,30.6102086 118.880531,30.5216182 C118.88464,30.4345765 118.85335,30.3494153 118.794722,30.2845291 C118.7372,30.2231827 118.654393,30.1897124 118.56969,30.193031 L116.452276,30.193031 L116.452276,30.8501896 L118.56969,30.8501896 Z M118.988306,33.2833439 L115.245417,33.2833439 L115.245417,29.296713 L118.804046,29.296713 C119.156764,29.270196 119.506479,29.3677307 119.793142,29.5722661 C120.02244,29.7866783 120.141751,30.0924779 120.118679,30.4041087 C120.148072,30.7847819 119.904235,31.1372788 119.535714,31.2463654 C119.750316,31.2677781 119.947061,31.3720765 120.083123,31.536457 C120.210809,31.7326802 120.270544,31.9641435 120.254741,32.1967446 C120.283028,32.5009956 120.173198,32.8021176 119.955436,33.018189 C119.673831,33.2136694 119.3317,33.3046618 118.989412,33.2750158 L118.988306,33.2833439 Z" id="Fill-2" fill="#6F6D68"></path>
            <path d="M125,11.4382111 L125,13.8536662 C125.002054,14.1404867 124.774968,14.3781606 124.496049,14.380531 L122.187579,14.380531 C121.908502,14.3787927 121.68031,14.1411188 121.681416,13.8536662 L121.681416,11.4307838 C121.681416,11.1438053 121.909608,10.9067636 122.187579,10.9039191 L124.496049,10.9039191 C124.773862,10.9080278 125,11.1444374 125,11.4307838 C125,11.4333123 125,11.4358407 125,11.4382111" id="Fill-3" fill="#706F6B"></path>
            <path d="M116.306416,1.47566372 L116.306416,3.89728192 C116.30847,4.18441846 116.081542,4.42240834 115.802623,4.42477876 L113.495575,4.42477876 C113.21792,4.42240834 112.989886,4.18489254 112.989886,3.89728192 L112.989886,1.47566372 C112.989886,1.1880531 113.21792,0.950537295 113.495575,0.948166877 L115.804836,0.948166877 C116.083597,0.950537295 116.310525,1.18852718 116.30847,1.47566372" id="Fill-4" fill="#706F6B"></path>
            <path d="M115.676359,7.65976612 L115.676359,11.6164665 C115.679362,12.0877054 115.301201,12.4785082 114.835177,12.4841972 L110.986568,12.4841972 C110.521492,12.4785082 110.143331,12.0877054 110.145386,11.6164665 L110.145386,7.65976612 C110.143331,7.18931732 110.522598,6.79977876 110.986568,6.79519595 L114.835177,6.79519595 C115.300095,6.79977876 115.679362,7.18931732 115.676359,7.65976612" id="Fill-5" fill="#706F6B"></path>
            <path d="M121.681416,0.384639697 L121.681416,2.14380531 C121.681416,2.1449115 121.681416,2.1460177 121.681416,2.14696587 C121.681416,2.3550885 121.520228,2.5267067 121.321271,2.52844501 L119.673198,2.52844501 C119.474241,2.52733881 119.310999,2.35493047 119.310999,2.1460177 L119.310999,0.382427307 C119.310999,0.173514539 119.474241,0.00110619469 119.673198,0 L121.321271,0 C121.519121,0.00110619469 121.681416,0.172566372 121.681416,0.380372946 C121.681416,0.381795196 121.681416,0.383217446 121.681416,0.384639697 Z M122.155499,5.95938685 L122.155499,9.369311 C122.155499,9.77338812 121.832649,10.1074589 121.435683,10.11378 L118.134482,10.11378 C117.738464,10.1074589 117.414665,9.77338812 117.414665,9.369311 L117.414665,5.95938685 C117.414665,5.55530973 117.738464,5.22123894 118.134482,5.21491783 L121.435683,5.21491783 C121.832649,5.22123894 122.155499,5.55530973 122.155499,5.95938685 Z" id="Fill-6" fill="#706F6B"></path>
        </g>
    </g>
</svg>