<?xml version="1.0" encoding="UTF-8"?>
<svg width="105px" height="126px" viewBox="0 0 105 126" version="1.1" xmlns="http://www.w3.org/2000/svg" xmlns:xlink="http://www.w3.org/1999/xlink">
    <!-- Generator: Sketch 58 (84663) - https://sketch.com -->
    <title>Group 46</title>
    <desc>Created with Sketch.</desc>
    <g id="Page-2" stroke="none" stroke-width="1" fill="none" fill-rule="evenodd">
        <g id="Startups" transform="translate(-1060.000000, -787.000000)" fill="#FFFFFF">
            <g id="Group-46" transform="translate(1060.000000, 787.000000)">
                <path d="M104.348703,1.3845298 C104.348703,0.618923502 103.703057,0 102.904396,0 L10.4628833,0 C4.88896393,0 0.352112676,4.34907991 0.352112676,9.69222781 L0.352112676,83.0769801 C0.352112676,86.6007422 2.33238108,89.6828981 5.27461795,91.3805243 C4.5712056,91.7860438 3.91109807,92.2678903 3.32178406,92.8385253 C1.40651352,94.6563535 0.352112676,97.090509 0.352112676,99.6923762 C0.352112676,103.220292 2.3352789,106.303824 5.28184896,108 C2.3352789,109.696143 0.352112676,112.779675 0.352112676,116.307694 C0.352112676,121.65092 4.88896393,126 10.4628833,126 L102.904396,126 C103.437379,126 103.927029,125.718914 104.178354,125.268923 C104.429679,124.818931 104.402055,124.271999 104.106044,123.848306 C100.921149,119.267987 100.921149,113.348752 104.106044,108.768458 C104.119044,108.750441 104.123377,108.729672 104.135022,108.71168 C104.148022,108.690911 104.166709,108.675672 104.178354,108.654903 C104.20002,108.617518 104.207062,108.575979 104.224395,108.537219 C104.24904,108.480441 104.273685,108.425065 104.291017,108.365535 C104.30835,108.304603 104.317016,108.245073 104.325683,108.182766 C104.334349,108.121834 104.341391,108.062304 104.341391,108.001372 C104.341391,107.939065 104.334349,107.878133 104.325683,107.815825 C104.317016,107.756295 104.30835,107.698141 104.292371,107.639987 C104.275039,107.57768 104.24904,107.519526 104.22304,107.458594 C104.207062,107.422611 104.20002,107.382449 104.179708,107.347842 C104.168063,107.328449 104.152355,107.314611 104.14071,107.295218 C104.129064,107.275825 104.123377,107.253679 104.110377,107.234286 C102.54745,104.981524 101.722789,102.374283 101.722789,99.6936742 C101.722789,97.0131436 102.54745,94.4058245 104.110377,92.1531402 L104.100357,92.1461306 C104.126356,92.110044 104.158043,92.079669 104.181063,92.0409863 C104.432388,91.5908129 104.405034,91.0440625 104.110377,90.6203699 C102.54745,88.3674261 101.722789,85.7603666 101.722789,83.0795763 C101.722789,80.3990456 102.54745,77.7917265 104.110377,75.5390423 C104.270706,75.3077248 104.34437,75.0405804 104.34437,74.7718783 L104.348703,74.7718783 L104.348703,1.3845298 Z M3.24091588,9.69222781 C3.24091588,5.87484057 6.48068049,2.76905959 10.4628833,2.76905959 L101.459819,2.76905959 L101.459819,73.3844927 L10.4628833,73.3844927 C7.74887016,73.3844927 5.20962008,74.3954357 3.32178406,76.2231293 C3.29291417,76.2493504 3.26978576,76.2797255 3.24091588,76.3075043 L3.24091588,9.69222781 Z M3.24091588,99.6923762 C3.24091588,97.8356057 3.99199334,96.0992968 5.3641796,94.7962863 C6.71467282,93.4891219 8.52594677,92.7692079 10.4628833,92.7692079 L17.6848777,92.7692079 L17.6848777,101.076906 C17.6848777,101.536607 17.9232032,101.96583 18.318959,102.223368 C18.7147419,102.479531 19.2217253,102.532129 19.6651461,102.363223 L26.3512602,99.7988185 L33.0373744,102.363223 C33.2093479,102.429685 33.3913419,102.461514 33.573336,102.461514 C33.8577016,102.461514 34.140984,102.379839 34.3836427,102.223368 C34.7793173,101.96583 35.0176428,101.536607 35.0176428,101.076906 L35.0176428,81.6921907 L37.9065272,81.6921907 C38.7051885,81.6921907 39.350834,81.0732672 39.350834,80.3076609 C39.350834,79.5420546 38.7051885,78.9231311 37.9065272,78.9231311 L24.9068722,78.9231311 C24.1081025,78.9231311 23.462457,79.5420546 23.462457,80.3076609 C23.462457,81.0732672 24.1081025,81.6921907 24.9068722,81.6921907 L26.3512602,81.6921907 L26.3512602,87.2308291 C26.3512602,87.9964354 26.9969057,88.6153589 27.7955671,88.6153589 C28.5944992,88.6153589 29.2401447,87.9964354 29.2401447,87.2308291 L29.2401447,81.6921907 L32.1287583,81.6921907 L32.1287583,99.0319142 L26.8871406,97.0214513 C26.543356,96.8885281 26.1591645,96.8885281 25.8153799,97.0214513 L20.5736809,99.0319142 L20.5736809,80.3076609 C20.5736809,79.5420546 19.9280354,78.9231311 19.1292658,78.9231311 L14.7960745,78.9231311 C13.997332,78.9231311 13.3516865,79.5420546 13.3516865,80.3076609 C13.3516865,81.0732672 13.997332,81.6921907 14.7960745,81.6921907 L17.6848777,81.6921907 L17.6848777,89.9998887 L10.4628833,89.9998887 C6.48068049,89.9998887 3.24091588,86.8943674 3.24091588,83.0769801 C3.24091588,81.2202096 3.99199334,79.4839007 5.3641796,78.1808902 C6.71467282,76.8737259 8.52594677,76.1538119 10.4628833,76.1538119 L100.43881,76.1538119 C99.3828658,78.3179673 98.8311964,80.6731996 98.8311964,83.0769801 C98.8311964,85.480501 99.3828658,87.8357334 100.43881,89.9998887 L39.350834,89.9998887 C38.5521727,89.9998887 37.9065272,90.6188122 37.9065272,91.3846781 C37.9065272,92.1502844 38.5521727,92.7692079 39.350834,92.7692079 L100.440164,92.7692079 C99.3828658,94.9333633 98.8295714,97.2872976 98.8295714,99.6923762 C98.8295714,102.095975 99.3815116,104.451207 100.437185,106.615363 L10.4628833,106.615363 C6.48068049,106.615363 3.24091588,103.509686 3.24091588,99.6923762 Z M100.437185,123.230759 L10.4628833,123.230759 C6.48068049,123.230759 3.24091588,120.125082 3.24091588,116.307694 C3.24091588,112.490307 6.48068049,109.384604 10.4628833,109.384604 L100.437185,109.384604 C98.2922557,113.775222 98.2922557,118.84014 100.437185,123.230759 Z" id="Fill-1"></path>
                <path d="M53.9352689,99 L39.7686908,99 C38.9853627,99 38.3521127,99.6704387 38.3521127,100.499958 C38.3521127,101.329477 38.9853627,102 39.7686908,102 L53.9352689,102 C54.7188627,102 55.3521127,101.329477 55.3521127,100.499958 C55.3521127,99.6704387 54.7188627,99 53.9352689,99 Z" id="Fill-2"></path>
                <path d="M80.3521127,97.5 C80.3521127,96.6705419 79.7095552,96 78.9144442,96 L58.7897811,96 C57.9946702,96 57.3521127,96.6705419 57.3521127,97.5 C57.3521127,98.3294581 57.9946702,99 58.7897811,99 L78.9144442,99 C79.7095552,99 80.3521127,98.3294581 80.3521127,97.5 Z" id="Fill-3"></path>
                <path d="M91.9021942,101 L65.8020311,101 C65.0002667,101 64.3521127,101.670498 64.3521127,102.499986 C64.3521127,103.329502 65.0002667,104 65.8020311,104 L91.9021942,104 C92.7039586,104 93.3521127,103.329502 93.3521127,102.499986 C93.3521127,101.670498 92.7039586,101 91.9021942,101 Z" id="Fill-4"></path>
                <path d="M45.3521127,111.5 C45.3521127,110.670504 44.7095477,110 43.9146969,110 L23.7896093,110 C22.9946777,110 22.3521127,110.670504 22.3521127,111.5 C22.3521127,112.329496 22.9946777,113 23.7896093,113 L43.9146969,113 C44.7095477,113 45.3521127,112.329496 45.3521127,111.5 Z" id="Fill-5"></path>
                <path d="M49.7897811,113 L69.9144442,113 C70.7095552,113 71.3521127,112.329496 71.3521127,111.5 C71.3521127,110.670504 70.7095552,110 69.9144442,110 L49.7897811,110 C48.9946702,110 48.3521127,110.670504 48.3521127,111.5 C48.3521127,112.329496 48.9946702,113 49.7897811,113 Z" id="Fill-6"></path>
                <path d="M54.9522002,118 L36.7520252,118 C35.9779127,118 35.3521127,118.670498 35.3521127,119.499986 C35.3521127,120.329502 35.9779127,121 36.7520252,121 L54.9522002,121 C55.7263127,121 56.3521127,120.329502 56.3521127,119.499986 C56.3521127,118.670498 55.7263127,118 54.9522002,118 Z" id="Fill-7"></path>
                <path d="M91.9146969,118 L71.7895284,118 C70.9946777,118 70.3521127,118.670498 70.3521127,119.499986 C70.3521127,120.329502 70.9946777,121 71.7895284,121 L91.9146969,121 C92.7095477,121 93.3521127,120.329502 93.3521127,119.499986 C93.3521127,118.670498 92.7095477,118 91.9146969,118 Z" id="Fill-8"></path>
                <path d="M47.7964668,86 L70.9074877,86 C71.706446,86 72.3521127,85.329521 72.3521127,84.4998594 C72.3521127,83.670479 71.706446,83 70.9074877,83 L47.7964668,83 C46.9977793,83 46.3521127,83.670479 46.3521127,84.4998594 C46.3521127,85.329521 46.9977793,86 47.7964668,86 Z" id="Fill-9"></path>
                <path d="M61.7730812,80 L85.9311442,80 C86.7169001,80 87.3521127,79.3294581 87.3521127,78.5 C87.3521127,77.6705419 86.7169001,77 85.9311442,77 L61.7730812,77 C60.9873253,77 60.3521127,77.6705419 60.3521127,78.5 C60.3521127,79.3294581 60.9873253,80 61.7730812,80 Z" id="Fill-10"></path>
                <path d="M76.3521127,84.4998594 C76.3521127,85.329521 76.9853627,86 77.7686908,86 L91.9352689,86 C92.7188627,86 93.3521127,85.329521 93.3521127,84.4998594 C93.3521127,83.670479 92.7188627,83 91.9352689,83 L77.7686908,83 C76.9853627,83 76.3521127,83.670479 76.3521127,84.4998594 Z" id="Fill-11"></path>
                <path d="M55.8522533,77 C56.6799462,77 57.3521127,77.6719482 57.3521127,78.5 C57.3521127,79.3280518 56.6799462,80 55.8522533,80 C55.0242792,80 54.3521127,79.3280518 54.3521127,78.5 C54.3521127,77.6719482 55.0242792,77 55.8522533,77 Z" id="Fill-12"></path>
                <path d="M48.8519721,77 C49.6799462,77 50.3521127,77.6719482 50.3521127,78.5 C50.3521127,79.3280518 49.6799462,80 48.8519721,80 C48.0242792,80 47.3521127,79.3280518 47.3521127,78.5 C47.3521127,77.6719482 48.0242792,77 48.8519721,77 Z" id="Fill-13"></path>
                <path d="M43.8521127,77 C44.6801644,77 45.3521127,77.6719482 45.3521127,78.5 C45.3521127,79.3280518 44.6801644,80 43.8521127,80 C43.0240609,80 42.3521127,79.3280518 42.3521127,78.5 C42.3521127,77.6719482 43.0240609,77 43.8521127,77 Z" id="Fill-14"></path>
                <path d="M9.85209861,69 C10.6816148,69 11.3521127,68.4412413 11.3521127,67.7500586 L11.3521127,65.2499414 C11.3521127,64.5587587 10.6816148,64 9.85209861,64 C9.02261058,64 8.35211268,64.5587587 8.35211268,65.2499414 L8.35211268,67.7500586 C8.35211268,68.4412413 9.02261058,69 9.85209861,69 Z" id="Fill-15"></path>
                <path d="M9.85209861,60 C10.6816148,60 11.3521127,59.4412413 11.3521127,58.7500586 L11.3521127,56.2499414 C11.3521127,55.5587587 10.6816148,55 9.85209861,55 C9.02261058,55 8.35211268,55.5587587 8.35211268,56.2499414 L8.35211268,58.7500586 C8.35211268,59.4412413 9.02261058,60 9.85209861,60 Z" id="Fill-16"></path>
                <path d="M9.85209861,52 C10.6816148,52 11.3521127,51.4412413 11.3521127,50.7500586 L11.3521127,48.2499414 C11.3521127,47.5587587 10.6816148,47 9.85209861,47 C9.02261058,47 8.35211268,47.5587587 8.35211268,48.2499414 L8.35211268,50.7500586 C8.35211268,51.4412413 9.02261058,52 9.85209861,52 Z" id="Fill-17"></path>
                <path d="M9.85209861,44 C10.6816148,44 11.3521127,43.4412413 11.3521127,42.7500586 L11.3521127,40.2499414 C11.3521127,39.5587587 10.6816148,39 9.85209861,39 C9.02261058,39 8.35211268,39.5587587 8.35211268,40.2499414 L8.35211268,42.7500586 C8.35211268,43.4412413 9.02261058,44 9.85209861,44 Z" id="Fill-18"></path>
                <path d="M9.85209861,35 C10.6816148,35 11.3521127,34.4412413 11.3521127,33.7500586 L11.3521127,31.2499414 C11.3521127,30.5587587 10.6816148,30 9.85209861,30 C9.02261058,30 8.35211268,30.5587587 8.35211268,31.2499414 L8.35211268,33.7500586 C8.35211268,34.4412413 9.02261058,35 9.85209861,35 Z" id="Fill-19"></path>
                <path d="M9.85209861,27 C10.6816148,27 11.3521127,26.4412413 11.3521127,25.7500586 L11.3521127,23.2499414 C11.3521127,22.5587587 10.6816148,22 9.85209861,22 C9.02261058,22 8.35211268,22.5587587 8.35211268,23.2499414 L8.35211268,25.7500586 C8.35211268,26.4412413 9.02261058,27 9.85209861,27 Z" id="Fill-20"></path>
                <path d="M9.85209861,19 C10.6816148,19 11.3521127,18.4412413 11.3521127,17.7500586 L11.3521127,15.2499414 C11.3521127,14.5587587 10.6816148,14 9.85209861,14 C9.02261058,14 8.35211268,14.5587587 8.35211268,15.2499414 L8.35211268,17.7500586 C8.35211268,18.4412413 9.02261058,19 9.85209861,19 Z" id="Fill-21"></path>
                <path d="M9.85209861,11 C10.6816148,11 11.3521127,10.4412413 11.3521127,9.75005859 L11.3521127,7.24994141 C11.3521127,6.55875873 10.6816148,6 9.85209861,6 C9.02261058,6 8.35211268,6.55875873 8.35211268,7.24994141 L8.35211268,9.75005859 C8.35211268,10.4412413 9.02261058,11 9.85209861,11 Z" id="Fill-22"></path>
                <path d="M51.3522252,35.7486979 L51.3522252,45.6111979 C51.3522252,46.3791667 52.0227168,47 52.8521127,47 C53.6815086,47 54.3520002,46.3791667 54.3520002,45.6111979 L54.3520002,35.7486979 C57.7705512,35.1028646 60.3521127,32.2986979 60.3521127,28.9445313 C60.3521127,25.1153646 56.987561,22 52.8521127,22 C48.7166644,22 45.3521127,25.1153646 45.3521127,28.9445313 C45.3521127,32.2971354 47.9336742,35.1028646 51.3522252,35.7486979 Z M52.8521127,24.7778646 C55.3329879,24.7778646 57.3520564,26.6471354 57.3520564,28.9445313 C57.3520564,31.2416667 55.3329879,33.1111979 52.8521127,33.1111979 C50.3712374,33.1111979 48.3521689,31.2416667 48.3521689,28.9445313 C48.3521689,26.6471354 50.3712374,24.7778646 52.8521127,24.7778646 Z" id="Fill-23"></path>
                <path d="M39.6089877,41.0919251 C42.3332455,44.0391992 43.8497299,47.4100367 44.0597299,50.8833079 C41.6666049,50.905075 39.7271127,52.7312121 39.7271127,54.9765591 C39.7271127,56.0295777 40.1659799,56.981443 40.8646127,57.7079542 C40.1646127,58.4347214 39.7271127,59.3865867 39.7271127,60.4396053 C39.7271127,62.6985248 41.6901205,64.5369539 44.1021127,64.5369539 L47.0188705,64.5369539 C47.0188705,67.5497855 49.6351205,70 52.8521127,70 C56.0691049,70 58.6853549,67.5497855 58.6853549,64.5369539 L61.6021127,64.5369539 C64.0141049,64.5369539 65.9771127,62.6985248 65.9771127,60.4396053 C65.9771127,59.3865867 65.5382455,58.4347214 64.8396127,57.7079542 C65.5396127,56.981443 65.9771127,56.0295777 65.9771127,54.9765591 C65.9771127,52.7312121 64.0376205,50.905075 61.6444955,50.8833079 C61.8544955,47.4100367 63.3709799,44.0407357 66.0952377,41.0919251 C68.8413705,38.1213474 70.3521127,34.3218248 70.3521127,30.3924675 C70.3521127,29.7901572 70.3097299,29.1535317 70.2194955,28.4487877 C70.1434799,27.8533917 69.6638705,27.374002 69.0352377,27.2661905 L65.3353549,26.6270041 C65.1182455,25.9972928 64.8469955,25.383971 64.5216049,24.7926723 L66.6552377,21.8917495 C67.0169955,21.3987873 66.9934799,20.7432115 66.5997299,20.2720164 C65.7394955,19.2476792 64.7491049,18.3201419 63.6553549,17.5145008 C63.1538705,17.1429225 62.4538705,17.1237161 61.9258627,17.4625157 L58.8313705,19.4607414 C58.2013705,19.1575376 57.5464877,18.9047824 56.8727377,18.6999149 L56.1902377,15.2348384 C56.0751205,14.6463567 55.5616049,14.1969288 54.9272299,14.1259935 C53.4238705,13.9580022 52.2819955,13.9580022 50.7769955,14.1259935 C50.1409799,14.1969288 49.6291049,14.6463567 49.5139877,15.2348384 L48.8314877,18.6999149 C48.1577377,18.903502 47.5028549,19.1575376 46.8728549,19.4607414 L43.7753549,17.4637961 C43.2459799,17.1252527 42.5459799,17.1442029 42.0458627,17.5157812 C40.9521127,18.3216784 39.9619955,19.2489597 39.1014877,20.2732968 C38.7063705,20.7444919 38.6844955,21.3987873 39.0459799,21.8930299 L41.1782455,24.7939528 C40.8544955,25.383971 40.5846127,25.9972928 40.3658627,26.6282845 L36.6659799,27.2674709 C36.0376205,27.3752824 35.5577377,27.8562087 35.4819955,28.4503242 C35.3944955,29.1535317 35.3521127,29.7901572 35.3521127,30.3924675 C35.3521127,34.3218248 36.8628549,38.1213474 39.6089877,41.0919251 Z M52.8521127,67.268605 C51.2434799,67.268605 49.9353549,66.0434977 49.9353549,64.5369539 L55.7688705,64.5369539 C55.7688705,66.0434977 54.4607455,67.268605 52.8521127,67.268605 Z M61.6021127,61.8053028 L44.1021127,61.8053028 C43.2971127,61.8053028 42.6438705,61.1935174 42.6438705,60.4396053 C42.6438705,59.6856931 43.2971127,59.0739078 44.1021127,59.0739078 L61.6021127,59.0739078 C62.4071127,59.0739078 63.0603549,59.6856931 63.0603549,60.4396053 C63.0603549,61.1935174 62.4071127,61.8053028 61.6021127,61.8053028 Z M63.0603549,54.9765591 C63.0603549,55.7304713 62.4071127,56.3422567 61.6021127,56.3422567 L44.1021127,56.3422567 C43.2971127,56.3422567 42.6438705,55.7304713 42.6438705,54.9765591 C42.6438705,54.222647 43.2971127,53.6106055 44.1021127,53.6106055 L61.6021127,53.6106055 C62.4071127,53.6106055 63.0603549,54.222647 63.0603549,54.9765591 Z M38.2877377,29.7640366 L41.7891049,29.160446 C42.3551205,29.06339 42.8057455,28.6633863 42.9413705,28.1402061 C43.1891049,27.182707 43.5932455,26.2718152 44.1401205,25.4305783 C44.4403549,24.9701387 44.4228549,24.3883152 44.0977377,23.9458016 L42.0822299,21.2033949 C42.3857455,20.890716 42.7064877,20.5916096 43.0389877,20.307356 L45.9672299,22.1949533 C46.4397299,22.500974 47.0609799,22.5145465 47.5539877,22.2346464 C48.4494955,21.7224778 49.4221127,21.3439852 50.4458627,21.1119729 C51.0044955,20.984955 51.4316049,20.5629281 51.5352377,20.0328337 L52.1797299,16.7536744 C52.6434799,16.7290903 53.0577377,16.7290903 53.5214877,16.7536744 L54.1659799,20.0328337 C54.2696127,20.5629281 54.6969955,20.984955 55.2553549,21.1119729 C56.2791049,21.3439852 57.2519955,21.7224778 58.1472299,22.2346464 C58.6416049,22.5145465 59.2601205,22.4994375 59.7339877,22.1949533 L62.6622299,20.307356 C62.9963705,20.5916096 63.3157455,20.8919965 63.6189877,21.2033949 L61.6034799,23.9458016 C61.2783627,24.3883152 61.2608627,24.9701387 61.5597299,25.4305783 C62.1096127,26.2730956 62.5121127,27.1855239 62.7601205,28.1402061 C62.8957455,28.6633863 63.3463705,29.06339 63.9121127,29.160446 L67.4134799,29.7640366 C67.4296127,29.9811961 67.4353549,30.1901609 67.4353549,30.3924675 C67.4353549,33.6647125 66.1769955,36.8306826 63.8902377,39.3042007 C60.7459799,42.7062805 58.9246127,46.7872397 58.7072299,50.8792105 L46.9953549,50.8792105 C46.7796127,46.7872397 44.9582455,42.7075609 41.8126205,39.3042007 C39.5272299,36.8306826 38.2688705,33.6647125 38.2688705,30.3924675 C38.2688705,30.1901609 38.2746127,29.9811961 38.2877377,29.7640366 Z" id="Fill-24"></path>
                <path d="M51.8521127,10 C52.6815708,10 53.3521127,9.255 53.3521127,8.3334375 L53.3521127,6.6665625 C53.3521127,5.745 52.6815708,5 51.8521127,5 C51.0226546,5 50.3521127,5.745 50.3521127,6.6665625 L50.3521127,8.3334375 C50.3521127,9.255 51.0226546,10 51.8521127,10 Z" id="Fill-25"></path>
                <path d="M43.0411345,9.88220918 C43.2936642,10.5712583 43.947553,11 44.6440102,11 C44.8386085,11 45.0348071,10.9661856 45.2294055,10.8963236 C46.11534,10.5747674 46.5711097,9.59638139 46.2484862,8.7152917 L45.6630909,7.11771851 C45.3404673,6.2347148 44.358834,5.78364282 43.4748199,6.10200904 C42.5888854,6.42356531 42.1331156,7.40163228 42.4557392,8.28304097 L43.0411345,9.88220918 Z" id="Fill-26"></path>
                <path d="M35.6773063,15.483746 C35.976931,15.8234867 36.4050879,16 36.839487,16 C37.182807,16 37.5264107,15.8899164 37.8109975,15.6629707 C38.4511048,15.1496993 38.535658,14.2386628 37.9985467,13.62534 L37.0256175,12.5163699 C36.4899248,11.9073854 35.5379921,11.8236026 34.893345,12.3368741 C34.2532376,12.8504167 34.1684007,13.7614532 34.7057958,14.3745048 L35.6773063,15.483746 Z" id="Fill-27"></path>
                <path d="M32.0508147,18.9856455 L33.258973,19.7854885 C33.4782101,19.9312963 33.718115,20 33.9554038,20 C34.4380916,20 34.9069135,19.7119845 35.1651318,19.199857 C35.5502356,18.4336158 35.3213186,17.4558632 34.6544508,17.0142395 L33.4460309,16.2140965 C32.7775934,15.7724727 31.9252374,16.0364869 31.5401337,16.799728 C31.1534602,17.5662692 31.3823772,18.5440217 32.0508147,18.9856455 Z" id="Fill-28"></path>
                <path d="M28.7369575,26.7379754 L30.3856666,26.9780137 C30.4843127,26.9930161 30.5817021,27 30.6787774,27 C31.4779992,27 32.1832873,26.5294938 32.3259157,25.8605939 C32.4883362,25.1099567 31.8785526,24.3955323 30.9668617,24.2630973 L29.3181526,24.023059 C28.4102316,23.8836402 27.5371823,24.3913937 27.3779035,25.1417721 C27.2170538,25.8908573 27.8252666,26.6055404 28.7369575,26.7379754 Z" id="Fill-29"></path>
                <path d="M29.0249687,34 C29.1223722,34 29.2194615,33.9930196 29.318436,33.9780246 L30.9673823,33.7381049 C31.8788903,33.6057354 32.4871906,32.8914054 32.3263178,32.1413978 C32.167016,31.3911316 31.29227,30.8838875 30.3857894,31.0229789 L28.736843,31.2628986 C27.8253351,31.3952681 27.2170348,32.1095981 27.3779076,32.8596057 C27.5202423,33.5312775 28.2275171,34 29.0249687,34 Z" id="Fill-30"></path>
                <path d="M33.2585599,38.2154081 L32.0506634,39.0152739 C31.3823706,39.4567446 31.1535033,40.435658 31.540093,41.2001342 C31.7995632,41.7120843 32.2667141,42 32.7495589,42 C32.9865347,42 33.2266493,41.9310202 33.4455773,41.7855628 L34.6537354,40.985697 C35.3217665,40.5442262 35.5506339,39.5653128 35.1643058,38.8008367 C34.7777161,38.034561 33.9226676,37.7724378 33.2585599,38.2154081 Z" id="Fill-31"></path>
                <path d="M37.8110362,45.3372798 C37.1693509,44.8240652 36.2157627,44.9064831 35.678518,45.5167558 L34.7050635,46.625603 C34.1692378,47.2388578 34.2526767,48.1497934 34.892943,48.663008 C35.1773166,48.8899286 35.5210057,49 35.8646947,49 C36.2974989,49 36.7257621,48.8235062 37.0271641,48.4838032 L38.0003348,47.3746848 C38.5347415,46.7617011 38.4513025,45.8507655 37.8110362,45.3372798 Z" id="Fill-32"></path>
                <path d="M68.0244023,45.5167558 C67.487488,44.9064831 66.5359045,44.8240652 65.8931956,45.3372798 C65.2533231,45.8507655 65.1685173,46.7617011 65.7054316,47.3746848 L66.6782875,48.4838032 C66.9778023,48.8235062 67.4058021,49 67.8400419,49 C68.1832359,49 68.5267136,48.8899286 68.811196,48.663008 C69.4510685,48.1497934 69.5355907,47.2388578 68.9986764,46.625603 L68.0244023,45.5167558 Z" id="Fill-33"></path>
                <path d="M72.6534106,39.0144834 L71.4452523,38.2144057 C70.7768148,37.772818 69.925767,38.0353107 69.5390935,38.7999893 C69.1539898,39.5664679 69.3829067,40.5438407 70.0497745,40.9854283 L71.2581945,41.785506 C71.4787396,41.9310019 71.7186446,42 71.9543636,42 C72.437313,42 72.906135,41.712008 73.1640917,41.1999223 C73.5507651,40.4334437 73.3218482,39.456071 72.6534106,39.0144834 Z" id="Fill-34"></path>
                <path d="M74.9672679,31.2632962 L73.3185588,31.0233887 C72.4037263,30.8827533 71.5375885,31.3915227 71.3783097,32.1414922 C71.2158892,32.8914618 71.8256728,33.6057554 72.7373637,33.7381182 L74.3860728,33.9780257 C74.4847189,33.9932785 74.5821083,34 74.6791836,34 C75.4784054,34 76.1836935,33.5300087 76.3263219,32.8612148 C76.4871716,32.1096941 75.8789588,31.395659 74.9672679,31.2632962 Z" id="Fill-35"></path>
                <path d="M71.3783117,25.8609408 C71.5206349,26.5297438 72.2278523,27 73.0255532,27 C73.1226346,27 73.219716,26.9930198 73.3186824,26.9777669 L74.9674948,26.7378561 C75.8789287,26.6054915 76.4871796,25.8914467 76.3263199,25.1412084 C76.1654601,24.3899361 75.2926703,23.883745 74.3859492,24.0230897 L72.7371367,24.2630005 C71.8257029,24.3966577 71.2158811,25.110961 71.3783117,25.8609408 Z" id="Fill-36"></path>
                <path d="M70.7493855,20 C70.9866229,20 71.2264759,19.9313134 71.4456654,19.7855417 L72.653562,18.9858973 C73.3218547,18.5443832 73.5507221,17.5653737 73.1641324,16.8005225 C72.7791121,16.0359713 71.9227558,15.7720226 71.2586481,16.2150364 L70.05049,17.0149808 C69.3824588,17.4564949 69.1535915,18.4355044 69.5399196,19.2000556 C69.7993898,19.712056 70.2681101,20 70.7493855,20 Z" id="Fill-37"></path>
                <path d="M66.8632208,16 C67.2960569,16 67.7243517,15.8234807 68.0257758,15.4837285 L68.9990183,14.3744496 C69.5348835,13.7613772 69.4517222,12.8503097 68.8114087,12.3370209 C68.1693923,11.8234608 67.2157338,11.9075176 66.6784495,12.5162517 L65.705207,13.6255305 C65.1693418,14.238603 65.2525031,15.1496704 65.8928166,15.6629593 C66.1757921,15.8901838 66.5195064,16 66.8632208,16 Z" id="Fill-38"></path>
                <path d="M59.4746919,10.8959887 C59.6673784,10.9658613 59.8655062,11 60.0601132,11 C60.7566014,11 61.4105193,10.5711926 61.6630602,9.88203782 L62.2484816,8.28421974 C62.5711195,7.40108067 62.1153294,6.42413997 61.2293555,6.10253442 C60.3433816,5.78284318 59.363625,6.23526052 59.0409871,7.11839959 L58.4555658,8.71462241 C58.1329279,9.59616622 58.5903183,10.5727879 59.4746919,10.8959887 Z" id="Fill-39"></path>
                <path d="M97.8519721,68 C98.6799462,68 99.3521127,68.6721665 99.3521127,69.4998594 C99.3521127,70.3278335 98.6799462,71 97.8519721,71 C97.0242792,71 96.3521127,70.3278335 96.3521127,69.4998594 C96.3521127,68.6721665 97.0242792,68 97.8519721,68 Z" id="Fill-40"></path>
                <path d="M91.8521127,68 C92.6801644,68 93.3521127,68.6721665 93.3521127,69.4998594 C93.3521127,70.3278335 92.6801644,71 91.8521127,71 C91.0240609,71 90.3521127,70.3278335 90.3521127,69.4998594 C90.3521127,68.6721665 91.0240609,68 91.8521127,68 Z" id="Fill-41"></path>
                <path d="M84.8522533,68 C85.6799462,68 86.3521127,68.6721665 86.3521127,69.4998594 C86.3521127,70.3278335 85.6799462,71 84.8522533,71 C84.0242792,71 83.3521127,70.3278335 83.3521127,69.4998594 C83.3521127,68.6721665 84.0242792,68 84.8522533,68 Z" id="Fill-42"></path>
                <path d="M97.8519721,63 C98.6799462,63 99.3521127,63.6719482 99.3521127,64.5 C99.3521127,65.3280518 98.6799462,66 97.8519721,66 C97.0242792,66 96.3521127,65.3280518 96.3521127,64.5 C96.3521127,63.6719482 97.0242792,63 97.8519721,63 Z" id="Fill-43"></path>
                <path d="M91.8521127,63 C92.6801644,63 93.3521127,63.6719482 93.3521127,64.5 C93.3521127,65.3280518 92.6801644,66 91.8521127,66 C91.0240609,66 90.3521127,65.3280518 90.3521127,64.5 C90.3521127,63.6719482 91.0240609,63 91.8521127,63 Z" id="Fill-44"></path>
                <path d="M97.8519721,56 C98.6799462,56 99.3521127,56.6721665 99.3521127,57.5001406 C99.3521127,58.3278335 98.6799462,59 97.8519721,59 C97.0242792,59 96.3521127,58.3278335 96.3521127,57.5001406 C96.3521127,56.6721665 97.0242792,56 97.8519721,56 Z" id="Fill-45"></path>
            </g>
        </g>
    </g>
</svg>