<?xml version="1.0" encoding="UTF-8"?>
<svg width="122px" height="130px" viewBox="0 0 122 130" version="1.1" xmlns="http://www.w3.org/2000/svg" xmlns:xlink="http://www.w3.org/1999/xlink">
    <!-- Generator: Sketch 58 (84663) - https://sketch.com -->
    <title>Group 7</title>
    <desc>Created with Sketch.</desc>
    <g id="Page-2" stroke="none" stroke-width="1" fill="none" fill-rule="evenodd">
        <g id="Startups" transform="translate(-277.000000, -783.000000)" fill="#FFFFFF">
            <g id="Group-7" transform="translate(277.000000, 783.000000)">
                <path d="M35.6742436,78.3647739 C37.4668281,77.3909189 39.6181214,78.118212 40.5722003,80.0204823 L47.3433072,93.5207146 C47.8650653,94.5609219 48.976439,95.08606 50.040816,94.7968984 C51.1051931,94.5072204 51.8511066,93.4760495 51.8511066,92.2938433 L51.8511066,72.5815419 C51.8506646,71.1558719 50.777176,70 49.452879,70 C48.128582,70 47.0550934,71.1561301 47.0550934,72.5818 L47.0550934,82.0802423 L44.7915837,77.5672559 C42.5947325,73.1877485 37.6406676,71.5124185 33.5140785,73.75497 C29.98238,75.6735056 28.1636596,79.9050758 29.0913629,84.0455085 L33.480989,103.636465 C34.5070015,108.216062 36.3362722,112.466738 38.9177282,116.270504 L47.5171466,128.941204 C47.9866331,129.633126 48.7157997,130 49.455037,130 C49.9458637,130 50.4412462,129.838121 50.8678123,129.502487 C51.9369849,128.661079 52.1705292,127.045646 51.3890909,125.894422 L42.7896725,113.223722 C40.5832301,109.972719 39.0198739,106.339868 38.1430037,102.425601 L33.7533775,82.8343861 C33.3503097,81.0359042 34.1403801,79.198179 35.6742436,78.3647739 Z" id="Fill-1"></path>
                <path d="M88.9957855,67.698878 C87.6341873,67.698878 86.3524252,68.0868846 85.2347194,68.7681431 C84.102477,65.4858795 81.2424515,63.1488524 77.899256,63.1488524 C76.4573602,63.1488524 75.1061453,63.5853919 73.9434451,64.3429163 C72.7006781,61.3338751 69.9684828,59.2379719 66.8029573,59.2379719 C65.6476408,59.2379719 64.5509324,59.5191547 63.5622104,60.0196344 L63.5622104,47.7423457 C63.5622104,42.9219224 60.0383453,39 55.7066585,39 C51.3749718,39 47.8511066,42.9216656 47.8511066,47.7423457 L47.8511066,52.1935081 C47.8511066,53.6114911 48.8841307,54.7613876 50.1585092,54.7613876 C51.4328876,54.7613876 52.4659117,53.6114911 52.4659117,52.1935081 L52.4659117,47.7426025 C52.4659117,45.7540367 53.919806,44.1360158 55.7066585,44.1360158 C57.493511,44.1360158 58.9474054,45.7540367 58.9474054,47.7426025 L58.9474054,83.9771797 C58.9474054,85.3951628 59.9804295,86.5450592 61.2548079,86.5450592 C62.5291863,86.5450592 63.5622104,85.3951628 63.5622104,83.9771797 L63.5622104,67.9800608 C63.5622104,65.991495 65.015874,64.3734741 66.8029573,64.3734741 C68.5900405,64.3734741 70.0437041,65.991495 70.0437041,67.9800608 L70.0437041,83.9771797 C70.0437041,85.3951628 71.0767282,86.5450592 72.3511066,86.5450592 C73.6254851,86.5450592 74.6585092,85.3951628 74.6585092,83.9771797 L74.6585092,71.8911981 C74.6585092,69.9023754 76.1121728,68.2843546 77.899256,68.2843546 C79.6863393,68.2843546 81.1400029,69.9023754 81.1400029,71.8911981 L81.1400029,83.9771797 C81.1400029,85.3951628 82.173027,86.5450592 83.4474054,86.5450592 C84.7217838,86.5450592 85.7548079,85.3951628 85.7548079,83.9771797 L85.7548079,76.4407102 C85.7548079,74.4521443 87.2087022,72.8341235 88.9955547,72.8341235 C90.7824073,72.8341235 92.2363016,74.4521443 92.2363016,76.4407102 L92.2363016,98.1082206 C92.2363016,103.881841 91.4490159,109.603076 89.8965954,115.112205 L86.6417734,126.663041 C86.2605905,128.016313 86.937121,129.457407 88.1531221,129.881621 C88.3829394,129.961995 88.6152948,130 88.8441891,130 C89.8257582,130 90.7360285,129.297171 91.0452204,128.19966 L94.3000424,116.648824 C95.9927529,110.641527 96.8511066,104.403377 96.8511066,98.1082206 L96.8511066,76.4407102 C96.8511066,71.6208004 93.3274722,67.698878 88.9957855,67.698878 Z" id="Fill-2"></path>
                <path d="M121.65262,13.4323368 C121.179626,11.8773175 119.945245,10.7655763 118.431238,10.5307656 L111.173058,9.40585268 L107.925372,2.37622341 C107.248347,0.910366373 105.877707,0 104.348535,0 C104.348298,0 104.347824,0 104.347587,0 C102.817703,0 101.447063,0.911632881 100.770512,2.37824983 L97.5263808,9.4093989 L90.2686747,10.5388713 C88.7549049,10.7744419 87.5209977,11.886943 87.0489518,13.4424688 C86.5766689,14.9977414 86.9641162,16.6725723 88.0596325,17.8134433 L93.3130392,23.2842538 L92.0751035,31.011476 C91.8170422,32.6232348 92.4255833,34.2213153 93.6632821,35.1818355 C94.3623461,35.724661 95.1801325,36 96.0033692,36 C96.6377401,36 97.2754287,35.8363671 97.8645382,35.5053017 L104.355407,31.855224 L110.848171,35.5017555 C112.202222,36.2626739 113.812202,36.1375428 115.049427,35.1757562 C116.286652,34.2142229 116.894482,32.6161424 116.635236,31.0043835 L115.393509,23.2779212 L120.644072,17.8043244 C121.739114,16.6624403 122.125613,14.9871027 121.65262,13.4323368 Z M111.802452,19.9452305 C110.861915,20.9252549 110.433472,22.3366521 110.655988,23.720186 L111.70719,30.2611963 L106.210888,27.1744616 C105.048072,26.5209431 103.659897,26.521703 102.497555,27.1752215 L97.0026752,30.2652491 L98.0507973,23.7232257 C98.2721281,22.3396917 97.8429739,20.9290544 96.9021996,19.9492834 L92.4547308,15.3179148 L98.5993848,14.3619541 C99.898696,14.159566 101.021464,13.2871949 101.602279,12.0280321 L104.348771,6.0759483 L107.098107,12.0262589 C107.679634,13.2851685 108.802639,14.1567797 110.102661,14.3586612 L116.247315,15.3113289 L111.802452,19.9452305 Z" id="Fill-3"></path>
                <path d="M77.6526197,13.4324313 C77.1796259,11.8774011 75.9454817,10.7653987 74.431475,10.5308397 L67.1732949,9.40591886 L63.9256094,2.37624013 C63.2483468,0.910372778 61.8779444,0 60.3485345,0 C60.3482975,0 60.3478236,0 60.3473497,0 C58.8177028,0 57.4470635,0.911639296 56.7705117,2.37826656 L53.5263808,9.40946511 L46.2686747,10.5389454 C44.7549049,10.7745177 43.5209977,11.8870266 43.0489518,13.4425634 C42.5766689,14.9978469 42.9641162,16.6726897 44.0596325,17.8135686 L49.3128022,23.2841643 L48.0748665,31.0114409 C47.8168052,32.623211 48.4253464,34.2213028 49.6630451,35.1818297 C50.3621091,35.7246591 51.1798955,36 52.0031322,36 C52.6375032,36 53.2751917,35.8363659 53.8643012,35.5052983 L60.3554067,31.8554481 L66.8481709,35.501752 C68.2022223,36.2626757 69.8122022,36.1375438 71.049427,35.1757504 C72.2866518,34.2142103 72.894482,32.6161185 72.6352359,31.0043484 L71.3935087,23.2778317 L76.6440717,17.8041964 C77.739114,16.6625575 78.1256135,14.9874615 77.6526197,13.4324313 Z M67.8026895,19.9453709 C66.8623891,20.9251488 66.4339459,22.3363026 66.6562245,23.7203529 L67.7074272,30.2614092 L62.2111254,27.1746528 C61.0480725,26.521383 59.6596603,26.5216363 58.4977922,27.1754127 L53.0026752,30.2654621 L54.0507973,23.7233926 C54.2721281,22.3395956 53.8429739,20.9289484 52.9021996,19.9494237 L48.4549677,15.3180225 L54.5993848,14.3620551 C55.898696,14.1596656 57.0214638,13.2872884 57.6025163,12.0281167 L60.3490085,6.07573775 L63.0983442,12.0263436 C63.6796337,13.2850087 64.8026385,14.1568793 66.1028976,14.3587622 L72.2475516,15.3114367 L67.8026895,19.9453709 Z" id="Fill-4"></path>
                <path d="M35.6526145,13.4323367 C35.1796209,11.8773175 33.9452405,10.7655762 32.4312347,10.5307656 L25.1730589,9.40585263 L21.9256834,2.3762234 C21.2484211,0.910366368 19.8780195,0 18.3486106,0 C18.3483736,0 18.3478997,0 18.3474257,0 C16.8177798,0 15.4471412,0.911632877 14.7705899,2.37824981 L11.5264609,9.40939886 L4.26875904,10.5388712 C2.75499016,10.7744418 1.52132066,11.8869429 1.04903804,13.4422155 C0.576755421,14.997488 0.963728586,16.672319 2.05948114,17.8134432 L7.31288474,23.2842537 L6.07494977,31.0114758 C5.81688867,32.6232346 6.42542944,34.2213152 7.66312745,35.1820886 C8.362428,35.7246609 9.17997694,36 10.0034502,36 C10.6378207,36 11.2755089,35.8363669 11.8646181,35.5053016 L18.3557197,31.8554771 L24.848409,35.5017553 C26.2026966,36.2621671 27.8124386,36.1372894 29.0496627,35.1760093 C30.2868867,34.2142227 30.8944796,32.6156356 30.6354707,31.0041301 L29.3937441,23.2776678 L34.6443041,17.804071 C35.7391088,16.6624402 36.125608,14.9873559 35.6526145,13.4323367 Z M25.80269,19.9449771 C24.8621533,20.9247482 24.4335444,22.3361453 24.6559888,23.7201859 L25.7071909,30.2611961 L20.2112003,27.1744614 C19.0483851,26.5211963 17.6599737,26.5214496 16.4978694,27.1752213 L11.0025187,30.2655023 L12.0504031,23.7239854 C12.2722077,22.3404515 11.8430538,20.9295609 10.9020431,19.9495366 L6.45505078,15.3179147 L12.5994642,14.361954 C13.8987746,14.1595659 15.0215418,13.2871948 15.6023571,12.028032 L18.3488475,6.07569497 L21.0981817,12.0262589 C21.6794708,13.2849151 22.802475,14.1567796 24.1027333,14.3586611 L30.2475496,15.3113288 L25.80269,19.9449771 Z" id="Fill-5"></path>
                <path d="M52.1186066,61.7325 C51.6536066,61.26725 51.0088566,61 50.3511066,61 C49.6936066,61 49.0486066,61.26725 48.5836066,61.7325 C48.1186066,62.19775 47.8511066,62.84225 47.8511066,63.5 C47.8511066,64.1575 48.1186066,64.8025 48.5836066,65.26725 C49.0486066,65.73225 49.6936066,66 50.3511066,66 C51.0086066,66 51.6536066,65.7325 52.1186066,65.26725 C52.5836066,64.8025 52.8511066,64.1575 52.8511066,63.5 C52.8511066,62.842 52.5836066,62.19725 52.1186066,61.7325 Z" id="Fill-6"></path>
            </g>
        </g>
    </g>
</svg>