<?xml version="1.0" encoding="UTF-8"?>
<svg width="113px" height="120px" viewBox="0 0 113 120" version="1.1" xmlns="http://www.w3.org/2000/svg" xmlns:xlink="http://www.w3.org/1999/xlink">
    <!-- Generator: Sketch 58 (84663) - https://sketch.com -->
    <title>Group 15</title>
    <desc>Created with Sketch.</desc>
    <g id="Page-2" stroke="none" stroke-width="1" fill="none" fill-rule="evenodd">
        <g id="Startups" transform="translate(-665.000000, -790.000000)" fill="#FFFFFF">
            <g id="Group-15" transform="translate(665.000000, 790.000000)">
                <path d="M110.907407,0 L27.2037037,0 C26.0460292,0 25.1111111,0.864677419 25.1111111,1.93548387 L25.1111111,7.74193548 L18.8333333,7.74193548 C17.6756588,7.74193548 16.7407407,8.6066129 16.7407407,9.67741935 L16.7407407,71.6184677 C6.92046528,75.4178226 0,84.3929032 0,94.8387097 C0,108.712185 12.2040785,120 27.2037037,120 L102.537037,120 C103.694764,120 104.62963,119.135274 104.62963,118.064516 L104.62963,112.258065 L110.907407,112.258065 C112.065134,112.258065 113,111.393339 113,110.322581 L113,1.93548387 C113,0.864677419 112.065134,0 110.907407,0 Z M4.18518519,94.8387097 C4.18518519,83.1 14.5122604,73.5483871 27.2037037,73.5483871 C39.8952778,73.5483871 50.2222222,83.1 50.2222222,94.8387097 C50.2222222,106.577298 39.8952778,116.129032 27.2037037,116.129032 C14.5122604,116.129032 4.18518519,106.577298 4.18518519,94.8387097 Z M83.7037037,65.8064516 L92.0740741,65.8064516 L92.0740741,116.129032 L83.7037037,116.129032 L83.7037037,65.8064516 Z M84.6304606,61.9354839 L87.8888889,53.8995968 L91.1473171,61.9354839 L84.6304606,61.9354839 Z M96.2592593,116.129032 L96.2592593,63.8709677 C96.2592593,63.6384677 96.2153148,63.408871 96.1274259,63.1896774 L89.8496481,47.7058065 C89.542037,46.9524194 88.7615,46.4516129 87.8888889,46.4516129 C87.0162778,46.4516129 86.2357407,46.9524194 85.9281296,47.7058065 L79.6503519,63.1896774 C79.562463,63.408871 79.5185185,63.6384677 79.5185185,63.8709677 L79.5185185,116.129032 L41.6342222,116.129032 C49.2912801,111.671177 54.4074074,103.805444 54.4074074,94.8387097 C54.4074074,80.9651613 42.2034074,69.6774194 27.2037037,69.6774194 C25.0395968,69.6774194 22.9449639,69.9362903 20.9259259,70.3795161 L20.9259259,11.6129032 L83.7037037,11.6129032 L83.7037037,25.1612903 C83.7037037,26.2320968 84.6385694,27.0967742 85.7962963,27.0967742 L100.444444,27.0967742 L100.444444,116.129032 L96.2592593,116.129032 Z M97.4855185,23.2258065 L87.8888889,23.2258065 L87.8888889,14.3496774 L97.4855185,23.2258065 Z M108.814815,108.387097 L104.62963,108.387097 L104.62963,25.1612903 C104.62963,24.6462097 104.409907,24.1548387 104.0165,23.7929032 L87.2778519,8.31096774 C86.898831,7.96016129 86.3756829,7.74193548 85.7962963,7.74193548 L29.2962963,7.74193548 L29.2962963,3.87096774 L108.814815,3.87096774 L108.814815,108.387097 Z" id="Fill-1"></path>
                <polygon id="Fill-2" points="24 35.2380952 95 35.2380952 95 31.4285714 24 31.4285714"></polygon>
                <polygon id="Fill-3" points="24 42.8571429 95 42.8571429 95 39.047619 24 39.047619"></polygon>
                <polygon id="Fill-4" points="12 108.571429 16 108.571429 16 94.2857143 12 94.2857143"></polygon>
                <polygon id="Fill-5" points="12 90.4761905 16 90.4761905 16 86.6666667 12 86.6666667"></polygon>
                <polygon id="Fill-6" points="20 109.52381 24 109.52381 24 99.047619 20 99.047619"></polygon>
                <polygon id="Fill-7" points="20 95.2380952 24 95.2380952 24 91.4285714 20 91.4285714"></polygon>
                <polygon id="Fill-8" points="29 108.571429 33 108.571429 33 94.2857143 29 94.2857143"></polygon>
                <polygon id="Fill-9" points="29 90.4761905 33 90.4761905 33 86.6666667 29 86.6666667"></polygon>
                <polygon id="Fill-10" points="38 108.571429 42 108.571429 42 89.5238095 38 89.5238095"></polygon>
                <polygon id="Fill-11" points="38 84.7619048 42 84.7619048 42 80.952381 38 80.952381"></polygon>
                <polygon id="Fill-12" points="24 49.5238095 74 49.5238095 74 45.7142857 24 45.7142857"></polygon>
                <polygon id="Fill-13" points="24 57.1428571 74 57.1428571 74 53.3333333 24 53.3333333"></polygon>
                <polygon id="Fill-14" points="24 66.6666667 74 66.6666667 74 62.8571429 24 62.8571429"></polygon>
            </g>
        </g>
    </g>
</svg>