<?xml version="1.0" encoding="UTF-8"?>
<svg width="208px" height="207px" viewBox="0 0 208 207" version="1.1" xmlns="http://www.w3.org/2000/svg" xmlns:xlink="http://www.w3.org/1999/xlink">
    <!-- Generator: Sketch 58 (84663) - https://sketch.com -->
    <title>Group 14</title>
    <desc>Created with Sketch.</desc>
    <g id="Page-2" stroke="none" stroke-width="1" fill="none" fill-rule="evenodd">
        <g id="Valuation-" transform="translate(-984.000000, -1435.000000)" fill="#2F5496" stroke="#2F5496">
            <g id="Group-14" transform="translate(984.750000, 1435.750000)">
                <path d="M178.427083,171.471774 C169.173958,171.471774 168.145833,167.373387 168.145833,165.324194 C181.16875,159.859677 189.051042,146.881452 188.708333,132.878629 C188.708333,132.195565 188.708333,130.829435 188.708333,130.487903 C188.708333,113.41129 175,99.75 157.864583,99.75 L116.739583,99.75 C114.683333,99.75 113.3125,101.116129 113.3125,103.165323 C113.3125,111.020565 116.396875,118.534274 121.5375,123.99879 C120.852083,127.414113 120.166667,130.487903 120.166667,133.903226 C120.166667,147.564516 128.391667,159.859677 140.729167,165.324194 C140.729167,167.373387 139.701042,171.471774 130.447917,171.471774 C120.852083,171.471774 113.3125,178.985484 113.3125,188.548387 L113.3125,205.625 L120.166667,205.625 L120.166667,188.548387 C120.166667,182.742339 124.621875,178.302419 130.447917,178.302419 C141.071875,178.302419 147.583333,173.179435 147.583333,164.641129 L147.583333,162.933468 C147.583333,161.567339 146.555208,160.20121 145.184375,159.859677 C134.217708,155.76129 127.020833,145.515323 127.020833,133.903226 C127.020833,132.195565 127.020833,130.487903 127.363542,129.121774 C132.161458,132.195565 137.9875,133.903226 144.15625,133.903226 L181.854167,133.903226 C181.854167,145.515323 174.657292,155.76129 163.690625,159.518145 C162.319792,159.859677 161.291667,161.225806 161.291667,162.591935 L161.291667,164.641129 C161.291667,173.179435 167.803125,178.302419 178.427083,178.302419 C184.253125,178.302419 188.708333,182.742339 188.708333,188.548387 L188.708333,205.625 L195.5625,205.625 L195.5625,188.548387 C195.5625,178.985484 188.022917,171.471774 178.427083,171.471774 Z M144.15625,127.072581 C132.161458,127.072581 122.222917,118.192742 120.509375,106.580645 L157.864583,106.580645 C169.859375,106.580645 179.797917,115.460484 181.511458,127.072581 L144.15625,127.072581 Z" id="Fill-1"></path>
                <path d="M205.958871,92.475 L205.958871,34.25 C206.301979,26.715 200.126044,20.55 192.57768,20.55 L123.956187,20.55 L123.956187,13.7 C123.956187,6.165 117.780253,0 110.231889,0 L14.1617986,0 C6.61343436,0 0.4375,6.165 0.4375,13.7 L0.4375,89.05 C0.4375,103.435 5.58411196,113.71 15.8773359,119.875 L19.3084105,114.0525 C11.4169389,108.915 7.29964928,101.0375 7.29964928,89.05 L7.29964928,13.7 C7.29964928,9.9325 10.3876165,6.85 14.1617986,6.85 L110.231889,6.85 C114.006071,6.85 117.094038,9.9325 117.094038,13.7 L117.094038,78.775 C117.094038,82.5425 114.006071,85.625 110.231889,85.625 L49.1587599,85.625 C38.5224285,85.625 29.258527,93.5025 27.8860971,104.12 C27.8860971,104.805 27.8860971,105.49 27.8860971,106.175 L34.7482464,106.175 C34.7482464,105.8325 34.7482464,105.1475 34.7482464,104.805 C35.7775688,97.6125 41.9535032,92.475 49.1587599,92.475 L110.231889,92.475 C117.780253,92.475 123.956187,86.31 123.956187,78.775 L165.129083,78.775 C174.736092,78.775 182.284456,86.31 182.284456,95.9 L189.146605,95.9 C189.146605,82.5425 178.510274,71.925 165.129083,71.925 L123.956187,71.925 L123.956187,27.4 L192.57768,27.4 C196.351862,27.4 199.439829,30.4825 199.439829,34.25 L199.439829,92.475 C199.782937,99.6675 197.724292,106.5175 193.263895,112.34 L198.410507,116.7925 C203.900226,109.9425 206.645086,101.38 205.958871,92.475 Z" id="Fill-2"></path>
                <path d="M85.2450496,174.666415 C79.798098,174.666415 75.3724499,170.538604 75.0320154,165.034856 C92.3941735,157.467202 100.224166,137.172129 92.734608,119.628931 C85.2450496,102.085733 65.1594158,94.1740951 47.7972577,101.741749 C30.4350997,109.309403 22.6051068,129.604475 30.0946652,147.147673 C33.4990099,155.059312 39.9672649,161.595013 47.7972577,165.034856 C47.4568232,170.538604 43.0311751,174.666415 37.5842236,174.666415 C28.0520584,174.666415 20.5625,182.234069 20.5625,191.865629 L20.5625,205.625 L27.3711894,205.625 L27.3711894,191.865629 C27.3711894,186.017896 31.7968376,181.546101 37.5842236,181.546101 C47.1163888,181.546101 54.6059472,173.978447 54.6059472,164.346887 L54.6059472,162.626966 C54.6059472,161.251029 53.5846437,159.875092 52.2229059,159.531107 C42.6907406,156.091264 35.5416167,147.491658 34.1798789,137.172129 L44.392913,137.172129 C45.0737819,137.172129 45.7546509,136.828145 46.4355198,136.484161 L54.6059472,130.980412 L62.7763745,136.484161 C63.4572434,136.828145 64.1381124,137.172129 64.8189813,137.172129 L88.3089598,137.172129 C86.9472219,147.491658 80.1385325,156.091264 70.2659328,159.531107 C68.904195,159.875092 67.8828915,161.251029 67.8828915,162.626966 L67.8828915,164.346887 C67.8828915,173.978447 75.3724499,181.546101 84.9046151,181.546101 C90.6920011,181.546101 95.1176493,186.017896 95.1176493,191.865629 L95.1176493,205.625 L101.926339,205.625 L101.926339,191.865629 C102.266773,182.234069 94.7772148,174.666415 85.2450496,174.666415 Z M65.8402847,129.94846 L56.648554,123.756743 C55.6272506,123.068774 53.9250782,123.068774 52.9037748,123.756743 L43.3716096,129.94846 L34.5203133,129.94846 C36.2224857,114.813152 49.8398645,104.149639 64.8189813,106.213545 C77.0746223,107.933466 86.9472219,117.565026 88.3089598,129.94846 L65.8402847,129.94846 Z" id="Fill-3"></path>
                <polygon id="Fill-4" points="17.0625 24.5 88.8125 24.5 88.8125 17.5 17.0625 17.5"></polygon>
                <polygon id="Fill-5" points="17.0625 37.625 38.0625 37.625 38.0625 30.625 17.0625 30.625"></polygon>
                <polygon id="Fill-6" points="44.1875 37.625 95.8125 37.625 95.8125 30.625 44.1875 30.625"></polygon>
                <polygon id="Fill-7" points="17.0625 51.625 24.0625 51.625 24.0625 44.625 17.0625 44.625"></polygon>
                <polygon id="Fill-8" points="31.0625 51.625 59.0625 51.625 59.0625 44.625 31.0625 44.625"></polygon>
                <polygon id="Fill-9" points="65.1875 51.625 95.8125 51.625 95.8125 44.625 65.1875 44.625"></polygon>
                <polygon id="Fill-10" points="143.9375 48.125 192.0625 48.125 192.0625 41.125 143.9375 41.125"></polygon>
                <polygon id="Fill-11" points="130.8125 61.25 154.4375 61.25 154.4375 54.25 130.8125 54.25"></polygon>
                <polygon id="Fill-12" points="161.4375 61.25 192.0625 61.25 192.0625 54.25 161.4375 54.25"></polygon>
                <polygon id="Fill-13" points="130.8125 48.125 137.8125 48.125 137.8125 41.125 130.8125 41.125"></polygon>
            </g>
        </g>
    </g>
</svg>