<?xml version="1.0" encoding="UTF-8"?>
<svg width="198px" height="181px" viewBox="0 0 198 181" version="1.1" xmlns="http://www.w3.org/2000/svg" xmlns:xlink="http://www.w3.org/1999/xlink">
    <!-- Generator: Sketch 58 (84663) - https://sketch.com -->
    <title>Group 4</title>
    <desc>Created with Sketch.</desc>
    <g id="Page-2" stroke="none" stroke-width="1" fill="none" fill-rule="evenodd">
        <g id="Valuation-" transform="translate(-259.000000, -2041.000000)" fill="#2F5495">
            <g id="Group-4" transform="translate(259.000000, 2041.000000)">
                <path d="M196.659248,128.318829 L187.522429,119.215773 C186.053965,117.752742 183.68376,117.762894 182.227648,119.237581 C180.771162,120.712269 180.781269,123.093502 182.249359,124.556157 L191.385804,133.659213 C192.115731,134.38678 193.069129,134.75 194.022152,134.75 C194.985281,134.75 195.948411,134.378884 196.68021,133.637404 C198.13707,132.162717 198.127712,129.781484 196.659248,128.318829 Z" id="Fill-1"></path>
                <path d="M178.23951,108.777943 C176.702723,107.240686 174.211838,107.240686 172.674265,108.777943 L172.667576,108.784634 C171.13079,110.321891 171.134331,112.811177 172.671117,114.348434 C173.43833,115.116276 174.44515,115.5 175.451576,115.5 C176.460362,115.5 177.469936,115.114702 178.239116,114.345286 C179.775903,112.808029 179.775903,110.315594 178.23951,108.777943 Z" id="Fill-2"></path>
                <path d="M144.659325,127.71802 L182.135003,90.1135668 C187.810737,84.4178837 187.810737,75.150384 182.134617,69.4547009 C180.133144,67.4463292 177.688658,66.1495304 175.114011,65.5577158 C175.996945,63.653212 176.464291,61.5630637 176.464291,59.4000529 C176.464291,55.4980294 174.94986,51.8297087 172.200635,49.0710075 C170.044281,46.906834 167.32943,45.5092677 164.382838,45.0058183 C166.04172,39.9341179 164.869108,34.1256528 160.857278,30.1003831 C158.651486,27.8873761 155.908054,26.5386433 153.044888,26.0456582 C153.524979,24.5849185 153.777577,23.0424023 153.777577,21.4595791 C153.777577,17.5575556 152.263147,13.8892349 149.514308,11.1305337 C146.764696,8.37183254 143.108588,6.85218274 139.220354,6.85218274 C136.751535,6.85218274 134.376958,7.46686384 132.268111,8.62103806 L131.895393,8.21913118 C127.051225,2.99550455 120.194383,0 113.084169,0 L82.7492168,0 C80.6160369,0 78.8860872,1.73591213 78.8860872,3.8764441 L78.8860872,8.95977152 C78.8860872,10.9941102 79.2290645,12.974577 79.8848927,14.8368359 C78.1375624,14.1085977 76.2469386,13.7260692 74.2979932,13.7260692 C70.4093721,13.7260692 66.7536511,15.245719 64.0040391,18.0044202 C59.9902776,22.0320154 58.8188247,27.8447437 60.4815694,32.9179944 C57.6160867,33.4098168 54.8687921,34.7593247 52.6610688,36.9742695 C49.911843,39.7333583 48.3974128,43.401679 48.3974128,47.3033149 C48.3974128,48.8830376 48.6496247,50.4232284 49.1273982,51.8808675 C46.1842821,52.3858672 43.472135,53.7826583 41.3177122,55.944894 C36.8846918,60.3929993 35.9140815,67.0203932 38.4056881,72.4226882 C35.7673119,73.0276801 33.3440691,74.3609103 31.3827642,76.3285874 C25.7070304,82.0238829 25.7070304,91.2913826 31.3827642,96.9870657 L39.0899046,104.720188 L1.14823283,142.791659 C-0.360403851,144.305496 -0.360403851,146.759957 1.14823283,148.274181 C1.90255117,149.030711 2.89131459,149.409752 3.87969177,149.409752 C4.86806895,149.409752 5.85683236,149.031099 6.6111507,148.274181 L44.9185877,109.834521 C47.0873012,111.076285 49.5483952,111.740575 52.1133865,111.740575 C56.0016214,111.740575 59.6573424,110.220925 62.4069544,107.461836 C65.3941014,104.464781 66.8069516,100.477881 66.6497537,96.5433016 C66.8455752,96.5514405 67.0413967,96.557254 67.2372182,96.557254 C70.9643928,96.5568664 74.6934986,95.1329457 77.5307861,92.2858792 C80.2800119,89.5267905 81.7944421,85.8584698 81.7944421,81.9568339 C81.7944421,81.7595623 81.7878761,81.5634535 81.7801514,81.3673446 C81.9736555,81.375096 82.1671595,81.381297 82.3610499,81.381297 C86.0886107,81.381297 89.816944,79.9573762 92.6546178,77.1099223 C95.4038435,74.3508335 96.9182738,70.6825128 96.9182738,66.7808769 C96.9182738,66.5836053 96.9117078,66.3874965 96.903983,66.1913876 C97.0974871,66.199139 97.2909912,66.20534 97.4848815,66.20534 C101.212829,66.20534 104.940776,64.7814193 107.778449,61.9339653 C113.111592,56.5824416 113.432554,48.0780611 108.744039,42.3455592 L134.387772,16.6134426 C135.678186,15.318194 137.393072,14.6054585 139.218036,14.6054585 C141.043,14.6054585 142.758273,15.318194 144.048686,16.6134426 C145.3391,17.9083036 146.049387,19.6291006 146.049387,21.4603542 C146.049387,23.2912202 145.3391,25.0127924 144.0483,26.3072658 L140.267439,30.1011582 L126.549119,43.8667592 C125.040482,45.3805955 125.040482,47.8350567 126.549119,49.3492806 C127.303437,50.1058111 128.2922,50.4848516 129.280578,50.4848516 C130.269341,50.4848516 131.258104,50.1061987 132.012037,49.3492806 L145.730743,35.5836795 C148.393452,32.9110182 152.727403,32.9106306 155.39127,35.5832919 C158.054752,38.2563408 158.054752,42.6048414 155.39127,45.2778903 L151.610023,49.0721702 L141.67295,59.0434913 C140.164314,60.5573276 140.164314,63.0117888 141.67295,64.5260127 C142.427269,65.2825433 143.416032,65.6615837 144.404409,65.6615837 C145.392786,65.6615837 146.38155,65.2829308 147.135868,64.5260127 L157.072941,54.5546915 C158.363354,53.259443 160.078627,52.5467075 161.903204,52.5467075 C163.728168,52.5467075 165.443441,53.259443 166.733854,54.5546915 C168.024268,55.8495526 168.734555,57.5703496 168.734555,59.4016032 C168.734555,61.2324692 168.024268,62.9540413 166.733468,64.2485148 L161.543619,69.4562512 L156.796396,74.2198359 C155.287759,75.7336722 155.287759,78.1881334 156.796396,79.7023572 C157.550714,80.4588878 158.539478,80.8379282 159.527855,80.8379282 C160.516232,80.8379282 161.504995,80.4592754 162.259314,79.7023572 L167.010013,74.9352844 C169.673881,72.2668863 174.005128,72.2672739 176.667451,74.9387725 C179.331318,77.6114338 179.331318,81.960322 176.667451,84.6333709 L139.191772,122.237824 C129.781912,131.680892 117.274827,137.147523 103.975573,137.631981 C102.99801,137.667637 102.069499,138.074195 101.37891,138.770265 L66.7598309,173.637334 C65.2538978,175.153883 65.2581464,177.608344 66.7702592,179.119467 C67.5234189,179.872897 68.5098649,180.25 69.4963109,180.25 C70.4870055,180.25 71.4788588,179.869797 72.2331771,179.109391 L97.6965387,153.464089 C104.164056,157.62772 111.770582,159.607412 119.505338,159.094273 L139.434328,179.092338 C140.188647,179.848868 141.17741,180.227909 142.165787,180.227909 C143.154551,180.227909 144.142928,179.849256 144.897246,179.092338 C146.405883,177.578501 146.405883,175.12404 144.897246,173.609816 L123.708355,152.345571 C122.906143,151.540982 121.791467,151.129774 120.660955,151.22279 L119.436202,151.323557 C113.78287,151.788637 108.194812,150.546098 103.315882,147.802512 L105.798605,145.302318 C120.481356,144.393473 134.228257,138.185427 144.659325,127.71802 Z M56.9440365,101.98009 C55.653623,103.275339 53.937964,103.988074 52.1137728,103.988074 C50.288809,103.988074 48.5735362,103.275339 47.283509,101.98009 L36.8452958,91.5060946 C34.1818144,88.8334333 34.1818144,84.4845452 36.8452958,81.8114963 C38.1357093,80.5162477 39.8511752,79.8035122 41.6757527,79.8035122 C43.5003302,79.8035122 45.2159892,80.5162477 46.5060165,81.8114963 L56.9444228,92.2854917 C59.607518,94.958153 59.607518,99.3070411 56.9440365,101.98009 Z M72.0686407,86.8033579 C69.404773,89.4760192 65.0700496,89.4760192 62.4073406,86.8033579 L51.9689344,76.328975 L46.7786989,71.120851 C44.1152174,68.4481897 44.1152174,64.0993015 46.7786989,61.4266402 C48.0691124,60.1313916 49.7847714,59.4186561 51.6089627,59.4186561 C53.4339264,59.4186561 55.1491992,60.1313916 56.4392265,61.4266402 L72.067482,77.1087595 L72.0678682,77.1087595 C73.358668,78.4040081 74.0689554,80.1251927 74.0689554,81.9560587 C74.0689554,83.7869248 73.358668,85.5084969 72.0686407,86.8033579 Z M87.1924724,71.6270134 C84.5286047,74.2992871 80.1942675,74.2996747 77.5311723,71.6270134 L58.1216692,52.1506141 C56.8312557,50.8557531 56.1209682,49.1349561 56.1209682,47.3037025 C56.1209682,45.4728365 56.8312557,43.7512643 58.1220555,42.4567909 C59.4537962,41.1204602 61.2034439,40.4522949 62.9523192,40.4522949 C64.7004221,40.4522949 66.4481386,41.1196851 67.7794931,42.4536903 L76.6258358,51.3305225 L87.1916999,61.9328026 L87.1920861,61.9328026 C88.4821134,63.2276636 89.1924015,64.9484606 89.1924015,66.7797142 C89.1931733,68.6109678 88.4828859,70.3325399 87.1924724,71.6270134 Z M102.31669,56.4506688 C99.6532088,59.1233301 95.3192579,59.1233301 92.6557765,56.4506688 L73.2462734,36.9742695 C73.2443422,36.9723317 73.2420248,36.9703939 73.2397074,36.9680685 L69.4650258,33.1803772 C66.8015443,30.5073283 66.8015443,26.1588277 69.4650258,23.4857788 C70.7967665,22.1490606 72.5464143,21.4808953 74.2956758,21.4808953 C76.0449373,21.4808953 77.7945851,22.1490606 79.1259396,23.4857788 L102.315918,46.7556829 C103.606718,48.0505439 104.317005,49.7717285 104.317005,51.6025945 C104.317391,53.4342356 103.60749,55.1561954 102.31669,56.4506688 Z M103.33249,36.811879 L92.7218228,26.1646412 C93.924947,26.4223732 95.16206,26.5591843 96.4211884,26.5587967 C96.4493836,26.5587967 96.4779651,26.5587967 96.5065465,26.5587967 L107.107944,26.5088006 C109.241124,26.4987239 110.962963,24.7550604 110.952921,22.6141409 C110.942879,20.4794224 109.215246,18.7559124 107.090177,18.7559124 C107.083998,18.7559124 107.077818,18.7559124 107.071638,18.7559124 L96.4702403,18.8059085 C96.4540184,18.8059085 96.438569,18.8059085 96.4223471,18.8059085 C93.810235,18.8059085 91.3533897,17.7885454 89.5010032,15.9386886 C87.6370297,14.0768173 86.6108014,11.5987145 86.6108014,8.95938396 L86.6108014,7.75250064 L113.082624,7.75250064 C118.055409,7.75250064 122.850526,9.84729972 126.238585,13.5005053 L126.395783,13.669872 L103.33249,36.811879 Z" id="Fill-3"></path>
            </g>
        </g>
    </g>
</svg>