<?xml version="1.0" encoding="UTF-8"?>
<svg width="206px" height="191px" viewBox="0 0 206 191" version="1.1" xmlns="http://www.w3.org/2000/svg" xmlns:xlink="http://www.w3.org/1999/xlink">
    <!-- Generator: Sketch 58 (84663) - https://sketch.com -->
    <title>Group 8</title>
    <desc>Created with Sketch.</desc>
    <g id="Page-2" stroke="none" stroke-width="1" fill="none" fill-rule="evenodd">
        <g id="Valuation-" transform="translate(-259.000000, -935.000000)" fill="#2F5496">
            <g id="Group-8" transform="translate(259.000000, 935.000000)">
                <path d="M159.930212,61.9994231 C158.209708,59.3387447 155.292384,57.75 152.126769,57.75 L54.1784196,57.75 C51.0175869,57.75 48.1030529,59.3347539 46.3817522,61.9886479 L24.1128471,96.3216562 C21.8371751,99.8295853 22.1886887,104.461329 24.9677186,107.584543 L96.1719407,187.632373 C97.9342913,189.613415 100.464233,190.75 103.113737,190.75 L103.114135,190.75 C105.763241,190.75 108.293979,189.613814 110.05633,187.632772 L181.268523,107.580153 C184.043567,104.46093 184.39787,99.8339752 182.130169,96.3280415 L159.930212,61.9994231 Z M123.562503,105.979835 L103.113737,172.444117 L82.6649706,105.979835 L123.562503,105.979835 Z M84.5927159,97.9981989 L103.113737,69.3365422 L121.634757,97.9981989 L84.5927159,97.9981989 Z M110.278317,65.7316362 L147.629627,65.7316362 L128.959552,94.6411227 L110.278317,65.7316362 Z M77.3193335,94.5621045 L58.6958875,65.7320353 L95.949156,65.7320353 L77.3193335,94.5621045 Z M95.5334772,174.915631 L34.213483,105.979835 L74.3246926,105.979835 L95.5334772,174.915631 Z M131.903179,105.979835 L172.017976,105.979835 L110.693598,174.917227 L131.903179,105.979835 Z M173.71377,97.9981989 L136.284346,97.9981989 L154.986703,69.0388272 L173.71377,97.9981989 Z M51.3264566,69.0188731 L70.045951,97.9981989 L32.5300437,97.9981989 L51.3264566,69.0188731 Z" id="Fill-1"></path>
                <path d="M13.2458843,98 L4.86475404,98 C2.58862159,98 0.742819149,99.7628188 0.742819149,101.9375 C0.742819149,104.112181 2.58862159,105.875 4.86475404,105.875 L13.2458843,105.875 C15.5220167,105.875 17.3678191,104.112181 17.3678191,101.9375 C17.3678191,99.7628188 15.5220167,98 13.2458843,98 Z" id="Fill-2"></path>
                <path d="M201.370884,98 L192.989754,98 C190.713622,98 188.867819,99.7628188 188.867819,101.9375 C188.867819,104.112181 190.713622,105.875 192.989754,105.875 L201.370884,105.875 C203.647017,105.875 205.492819,104.112181 205.492819,101.9375 C205.492819,99.7628188 203.647017,98 201.370884,98 Z" id="Fill-3"></path>
                <path d="M158.689185,49.875 C159.699379,49.875 160.708784,49.4894635 161.479452,48.7191797 L174.587114,35.611333 C176.128054,34.0703708 176.128054,31.5716838 174.587114,30.0307216 C173.045779,28.4897595 170.547916,28.4897595 169.006186,30.0307216 L155.898525,43.1385683 C154.357584,44.6795305 154.357584,47.1782175 155.898525,48.7191797 C156.669587,49.4898581 157.679386,49.875 158.689185,49.875 Z" id="Fill-4"></path>
                <path d="M43.8814545,48.7191797 C44.6521365,49.4898581 45.6619549,49.875 46.6717733,49.875 C47.6815917,49.875 48.69141,49.4894635 49.4620921,48.7191797 C51.0030615,47.1782175 51.0030615,44.6795305 49.4620921,43.1385683 L36.3545784,30.0307216 C34.8140036,28.4897595 32.3160941,28.4897595 30.7735462,30.0307216 C29.2325768,31.5716838 29.2325768,34.0703708 30.7735462,35.611333 L43.8814545,48.7191797 Z" id="Fill-5"></path>
                <path d="M102.680319,34.125 C104.854607,34.125 106.617819,32.3311616 106.617819,30.1182134 L106.617819,4.00678659 C106.617819,1.79383835 104.854607,0 102.680319,0 C100.506032,0 98.7428191,1.79383835 98.7428191,4.00678659 L98.7428191,30.1182134 C98.7428191,32.3311616 100.505638,34.125 102.680319,34.125 Z" id="Fill-6"></path>
                <path d="M102.680319,48.125 C103.715882,48.125 104.731757,47.707625 105.463738,46.9713125 C106.20005,46.2389375 106.617819,45.2230625 106.617819,44.1875 C106.617819,43.1519375 106.20005,42.1360625 105.463738,41.4036875 C104.731757,40.6713125 103.715882,40.25 102.680319,40.25 C101.644757,40.25 100.628882,40.6713125 99.8965066,41.4036875 C99.1641316,42.1360625 98.7428191,43.1519375 98.7428191,44.1875 C98.7428191,45.227 99.1637379,46.2389375 99.8965066,46.9713125 C100.628882,47.707625 101.644757,48.125 102.680319,48.125 Z" id="Fill-7"></path>
            </g>
        </g>
    </g>
</svg>